<?xml version="1.0" encoding="utf-8"?>
<!-- Generator: Adobe Illustrator 26.0.3, SVG Export Plug-In . SVG Version: 6.00 Build 0)  -->
<svg version="1.1" id="Layer_1" xmlns="http://www.w3.org/2000/svg" xmlns:xlink="http://www.w3.org/1999/xlink" x="0px" y="0px"
	 viewBox="0 0 1667.6 976.7" style="enable-background:new 0 0 1667.6 976.7;" xml:space="preserve">
<style type="text/css">
	.st0{fill:#FCF7FC;stroke:#020202;stroke-width:2;stroke-linecap:round;stroke-linejoin:round;stroke-miterlimit:10;}
	.st1{fill:none;stroke:#020202;stroke-width:2;stroke-linecap:round;stroke-linejoin:round;stroke-miterlimit:10;}
	.st2{fill:none;stroke:#8C8C8C;stroke-width:2;stroke-linecap:round;stroke-linejoin:round;}
	.st3{fill:none;stroke:#8C8C8C;stroke-width:2;stroke-linecap:round;stroke-linejoin:round;stroke-dasharray:34.955,24.9678;}
	.st4{fill:#020202;}
	.st5{fill:#52108C;stroke:#020202;stroke-width:2;stroke-linecap:round;stroke-linejoin:round;stroke-miterlimit:10;}
	
		.st6{fill:none;stroke:#8C8C8C;stroke-width:2;stroke-linecap:round;stroke-linejoin:round;stroke-miterlimit:10;stroke-dasharray:35,25;}
	.st7{fill:none;stroke:#8C8C8C;stroke-width:2;stroke-linecap:round;stroke-linejoin:round;stroke-miterlimit:10;}
	.st8{fill:#FFFFFF;stroke:#8C8C8C;stroke-width:2;stroke-linecap:round;stroke-linejoin:round;stroke-miterlimit:10;}
	.st9{fill:#FFFFFF;stroke:#020202;stroke-width:2;stroke-linecap:round;stroke-linejoin:round;stroke-miterlimit:10;}
	.st10{fill:#DEDEDE;stroke:#020202;stroke-width:2;stroke-linecap:round;stroke-linejoin:round;stroke-miterlimit:10;}
	.st11{fill:#FFFFFF;stroke:#020202;stroke-miterlimit:10;}
	.st12{fill:#9E9E9E;stroke:#020202;stroke-width:2;stroke-linecap:round;stroke-linejoin:round;stroke-miterlimit:10;}
	.st13{fill:#8C8C8C;}
	.st14{fill:none;stroke:#FFFFFF;stroke-width:2;stroke-linecap:round;stroke-linejoin:round;stroke-miterlimit:10;}
	.st15{fill:#8C8C8C;stroke:#020202;stroke-width:2;stroke-linecap:round;stroke-linejoin:round;stroke-miterlimit:10;}
	.st16{fill:none;stroke:#9E9E9E;stroke-width:2;stroke-linecap:round;stroke-linejoin:round;stroke-miterlimit:10;}
	.st17{fill:#52108C;}
	.st18{fill:#9E9E9E;}
	.st19{fill:#808080;}
</style>
<path class="st0" d="M227,845.8c-58.9-34.7-114.9-85.3-99.6-165.5S227,845.8,227,845.8z"/>
<path class="st0" d="M198.5,661.1c13.4-183.8-17.4-216.8,80.6-240.3C377.2,397.4,198.5,661.1,198.5,661.1z"/>
<path class="st0" d="M182.9,545.6C125.2,459.8-4.9,365.9,75.6,368.6S182.9,545.6,182.9,545.6z"/>
<path class="st1" d="M166.8,474.5c36.1,122.2,37.6,353.9,70.5,393.2"/>
<g>
	<g>
		<path class="st2" d="M157.4,434.2c-2-4.9-3.2-10.6-3.7-17"/>
		<path class="st3" d="M155.3,392.3C176.2,274,383.5,30.9,911,106c422,60.1,95.3,211.5,40.2,133.5c-63.1-89.2,473.6-14.1,473.6-14.1
			c148.9,37.7,114.6,156,56,208.8c-59.7,53.7-48.3,152.2-37.9,201"/>
		<path class="st2" d="M1445.6,647.4c2.6,10.6,4.6,16.9,4.6,16.9"/>
	</g>
</g>
<g>
	<path class="st1" d="M1463.7,820c-1.5-14.9,8.6-176.2,10.1-181.9"/>
	<path class="st0" d="M1468.9,695.1c13.4-183.8-12.3-213.3,85.8-236.8C1652.7,434.8,1468.9,695.1,1468.9,695.1z"/>
	<path class="st0" d="M1466.2,751.5c2.5-15.4,0-36.1,24.7-69.9c56.7-77.6,58.6-100.2,67.2-43.5
		C1578.9,775.6,1466.2,751.5,1466.2,751.5z"/>
	<path class="st0" d="M1423.3,605c-26.1,144.1,38.6,202.6,38.6,202.6s4.1-85.4-13.6-141.7C1430.6,609.5,1423.3,605,1423.3,605z"/>
	<path class="st0" d="M1458.1,820.3c58.1-112.4,134.6-204.8,101.6-87.7C1526.6,849.8,1458.1,820.3,1458.1,820.3z"/>
</g>
<g>
	<polygon class="st4" points="261.1,374.5 182.9,374.5 182.9,455.6 261.1,455.6 261.1,854.7 339.8,854.7 339.8,455.6 339.8,374.5 	
		"/>
	<polygon class="st4" points="375.1,248.2 261.3,248.2 261.3,329.3 375.1,329.3 375.1,854.7 453.8,854.7 453.8,329.3 453.8,248.2 	
		"/>
	<path class="st4" d="M930.7,645.5C930.7,645.5,930.7,645.5,930.7,645.5l-146.3-1.1c-54.2-1.5-93-44.4-93-94.8
		c0-51.1,41.4-92.5,92.5-92.5s92.5,41.4,92.5,92.5c0,4.2-0.3,8.3-0.8,12.3h83.2c0.3-4.1,0.4-8.2,0.4-12.3
		c0-96.8-78.5-175.3-175.3-175.3s-175.3,78.5-175.3,175.3c0,96.5,78,174.8,174.4,175.3v0h697.8v-79.5H930.7z"/>
	<path class="st4" d="M983.3,778.9H789v-0.2c-2,0.1-4,0.2-6,0.2c-125.6,0-227.4-101.8-227.4-227.4S657.4,324,783,324
		s227.4,101.8,227.4,227.4c0,3.5-0.1,7-0.3,10.5h75.7c0.1-3.5,0.2-7,0.2-10.5c0-167.4-135.7-303.1-303.1-303.1
		S479.9,384.1,479.9,551.4c0,164.5,131.1,298.4,294.6,303v0.1h706.3v-75.7H983.3z"/>
</g>
<polygon class="st5" points="237.3,393.3 159.1,393.3 159.1,474.4 237.3,474.4 237.3,873.4 316,873.4 316,474.4 316,393.3 "/>
<polygon class="st5" points="351.3,267 237.6,267 237.6,348.1 351.3,348.1 351.3,873.4 430.1,873.4 430.1,348.1 430.1,267 "/>
<path class="st5" d="M907,664.3C907,664.2,907,664.2,907,664.3l-146.3-1.1c-54.2-1.5-93-44.4-93-94.8c0-51.1,41.4-92.5,92.5-92.5
	c51.1,0,92.5,41.4,92.5,92.5c0,4.2-0.3,8.3-0.8,12.3H935c0.3-4.1,0.4-8.2,0.4-12.3c0-96.8-78.5-175.3-175.3-175.3
	s-175.3,78.5-175.3,175.3c0,96.5,78,174.8,174.4,175.3v0H1457v-79.5H907z"/>
<path class="st5" d="M959.5,797.6H765.2v-0.2c-2,0.1-4,0.2-6,0.2c-125.6,0-227.4-101.8-227.4-227.4s101.8-227.4,227.4-227.4
	s227.4,101.8,227.4,227.4c0,3.5-0.1,7-0.3,10.5h75.7c0.1-3.5,0.2-7,0.2-10.5c0-167.4-135.7-303.1-303.1-303.1
	S456.1,402.8,456.1,570.2c0,164.5,131.1,298.4,294.6,303v0.1H1457v-75.7H959.5z"/>
<path class="st0" d="M227.5,848.3c-18.5-127,21.9-406.8,53.2-248.3c29.4,149.3-43.4,238.5-52,248.4c-0.6,0.7-0.6,1.7,0,2.3
	c1.1,1.2-0.9-3.4-26.6-90.6c-33.5-113.6-81-115-96-200.5s-5.3-98.7,39.8-13.3s61,154.2,63.9,181.2
	C212.8,754.4,227.5,848.3,227.5,848.3z"/>
<circle class="st6" cx="522.9" cy="239.8" r="14.4"/>
<circle class="st7" cx="496.4" cy="822.4" r="10.1"/>
<g>
	<polygon class="st8" points="454.4,134.4 457.7,120.7 482.2,116 	"/>
	<path class="st8" d="M474,144.5l-13.8-22.7l-18.2-7.5l40.6-3.5l27.7-2.2l-9.8,11.5c-6.5,7.6-13.7,14.4-21.5,20.5L474,144.5z"/>
	<line class="st7" x1="460.3" y1="121.8" x2="510.4" y2="108.6"/>
</g>
<path class="st8" d="M736.1,192.4c-0.3-4.7-1.7-10.8-8.7-13.6c-1.9-0.8-4-1.4-6.1-1.9v-15.3c5.7,1.6,7,7.2,7,7.2l6.5-2.7
	c0,0-2.6-10.3-13.5-11.2v-5.4h-5.1v5.6c-10.3,1.5-13,8.7-13.2,14.4c-0.2,7.1,4.2,13,13.2,15v16.5c-3.3-0.9-6.8-3.8-7.9-8.9
	c-5.3,1.7-7.3,2.4-7.3,2.4s2.1,11.6,15.2,13.6v6.8h5.1v-6.6C732.4,207.3,736.4,196.8,736.1,192.4z M710.8,169.3
	c-0.2-4.4,2.4-6.9,5.4-7.8v13.7C713.2,174.1,711,172.4,710.8,169.3z M721.3,201v-15.5c3.1,1,6.8,3,6.9,7.2
	C728.4,198.4,724.8,200.3,721.3,201z"/>
<g>
	<path class="st9" d="M1229.9,463.5l-129.8-12.6c0-5.7,15-30.8,37.1-38.8l8.1,0l3.1-24.4l0.9-3.9l3.7-5.4l30.6,9.7l-1.5,16.6l0,0.1
		l-0.6,7.5l10.5,6.8C1213.3,419.1,1229.9,442.3,1229.9,463.5z"/>
	<path class="st4" d="M1183.6,388l-1.6,18c0,0-33.1-13.5-34.1-13.9l0.8-7.1l4.3-6.8L1183.6,388z"/>
	<path class="st9" d="M1213.7,326.2c3.5,4.6,7.9,19.3,2.2,29.3c-5.8,10-16.1,1.4-16.1,1.4L1213.7,326.2z"/>
	<g>
		<path class="st10" d="M1375.6,295.7l-49.2-0.7v130.5c34.8-13,63.4-3.1,94.7,6c9.4,2.7,15.8,4.7,19.9,6.7l23.2-12.8v-64.9
			c0-28.3-14.3-47.2-47.4-58.1C1403.6,298,1389.6,295.9,1375.6,295.7z"/>
		<path class="st1" d="M1346,336.2c0.6,18.2-7,95.2,24.1,58.6c25.2-29.7,36.5-52.7,53-20.9c1.7,3.2,3.4,5.9,5,7.9"/>
		<path class="st9" d="M1464.2,468.8c0,18.3-17.4,33.1-38.9,33.1h-5.5v-78.1L1452,370"/>
		<path class="st9" d="M1462.1,343.2c1.4,4.2,2.1,8.6,2.1,13.1v112.5c0,18.3-17.4,33.1-38.9,33.1h-5.5V377.3c0,0,19.2,0.1,32.1-7.3
			c6.9-3.9,12.1-10,11.5-19.3C1463.4,348.4,1462.9,345.9,1462.1,343.2L1462.1,343.2z"/>
		<path class="st1" d="M1435,335.2c-4.6-3.7-10.6-6.7-17.6-9.6"/>
		<path class="st1" d="M1407.2,313.3c-10.3-2.5-20.9-3.8-31.6-4l-21.1-0.3"/>
		<path class="st1" d="M1391.6,319.5c-10.9-3-29.3-2-29.3-2"/>
	</g>
	<path class="st9" d="M1388.7,411.8c-4.6,0.8-21.5,14.3-31.2,22.3c-8.6,7.1-8.7,6.7-16.1,11.2c0,0,10.5,16.8,26.4,6l0,0
		c0,0,17.7-7.9,18.8-8.9c2.2-2.1-10-1.9-11.3-1.5c5.2-4.9,13-11.7,15.2-15C1398.8,413.5,1392.9,411.1,1388.7,411.8z"/>
	<path class="st11" d="M1269.2,870.8c7.6,8.8,46,42.8,51.7,34.7c5.7-8.1,2.9-30-15.3-44.1c-7.9-6.1-11.4-9.4-12.7-10.8
		c-0.6-0.6-0.8-0.8-0.8-0.8l3.8-25.1l-24.6,2.9c-0.9,4.2-3,11.9-4.3,19.8C1265.5,856.5,1265.1,866.1,1269.2,870.8z"/>
	<path class="st9" d="M1182.6,399.7l-35.6-10.1c-8.8-3-9.2-11.1-8.7-13.8l6.5-62.5c0.6-6.4,6.2-11.1,12.6-10.6c0,0,61.2,9.6,60.6,16
		l-10.3,74C1205.4,402.2,1187,401,1182.6,399.7z"/>
	<path class="st9" d="M1141.9,315.3c-1.2-4.8,0.3-12.6,5-14.4c26.4-10.4,62.4-13.5,77,10.1c11.6,18.7-1.1,27.5-28.6,19
		C1167.8,321.5,1145,327.6,1141.9,315.3z"/>
	<path class="st4" d="M1127,649.6h89.6c7.3,0,29.2-20.6,29.2-28l-25.5-32.2c0-7.3,3.7-14-3.7-14h-80.8c-22.8,0-37.7,5.8-36.9,38.8
		l0,0C1100.1,643.9,1109,649.6,1127,649.6z"/>
	<path class="st9" d="M1120.6,414.1c5.8-2.1,19.1-3.5,25.2-3.5l0,0c0,0.1,0,0.1,0,0.2c0.6,5.7,15.9,8.7,25.3,8.2
		c9.3-0.6,10.3-5.4,10.3-8.4l0,0c11.6,0,21.5,1.6,29.1,5.9c8,4.5,12.7,11.6,20.3,18.5c18.2,16.5,41,36.4,41,36.4l79-45.9
		c1.8-1.3,4.3,0,4.4,2.2l1.8,39.2c0.1,1.4-0.5,2.8-1.6,3.7c-9.4,8.3-79,56.1-90.3,54.6c-8.7-1.1-13.4-10.3-46.1-36.1l0.4,64.7
		c0,12.8,3.6,37.4,0.6,40.4c-18.3,18.3-103.1,8.1-103.1,8.1c-7.3,0-15.7-3.3-15.7-9.5l-8.8-104.4c-1.1-13.2-1.5-34.3,1.2-47.3
		C1096.6,428.1,1102.2,420.9,1120.6,414.1z"/>
	<path class="st1" d="M1197.9,352.2c1,8.3,6.6,14.7,5.3,16.3c-1.9,2.3-12.8,0.7-12.8,0.7"/>
	
		<ellipse transform="matrix(0.9971 -7.664960e-02 7.664960e-02 0.9971 -23.651 91.818)" class="st4" cx="1184.3" cy="354" rx="2.4" ry="3.3"/>
	<path class="st9" d="M1167,322.8c0.2,21.8-9.9,22.3-16.2,33.3c-6,10.5-1.3,17.4-12.6,17.1c-12.8-0.3-18.2-55.2,0.3-65
		C1156.9,298.4,1166.9,318.1,1167,322.8z"/>
	<path class="st1" d="M1196.9,380.3c-3,1.1-16.1,3-21.1-2.2"/>
	<circle class="st1" cx="1178.8" cy="354.4" r="12.6"/>
	<circle class="st1" cx="1210.5" cy="352.2" r="12.6"/>
	<path class="st11" d="M1149.8,880.2c5.4,10.4,34.5,51.7,42.8,46.2c11.3-7.5,5.9-37.6-4.8-47c-9-7.9-10.3-12.8-10.5-14.2
		c0-0.3,0-0.4,0-0.4l9.6-23.8l-24.9-2.9c-2.1,4.4-6.5,12.4-9.7,20.6C1149,866.8,1147.1,875,1149.8,880.2z"/>
	<path class="st1" d="M1198.7,355.4c-1.8,2-7.5,1.3-7.5,1.3"/>
	<g>
		<path class="st4" d="M1315.4,527.3l40.6-1.6c4.9-0.2,8.7-4.3,8.5-9.2l-2.2-57.4c-0.2-4.9-4.3-8.7-9.2-8.5l-40.6,1.6
			c-4.9,0.2-8.7,4.3-8.5,9.2l2.2,57.4C1306.4,523.6,1310.6,527.5,1315.4,527.3z"/>
		<path class="st12" d="M1318.9,528.7l40.6-1.6c4.9-0.2,8.7-4.3,8.5-9.2l-2.2-57.4c-0.2-4.9-4.3-8.7-9.2-8.5l-40.6,1.6
			c-4.9,0.2-8.7,4.3-8.5,9.2l2.2,57.4C1309.9,525.1,1314,528.9,1318.9,528.7z"/>
		<polygon class="st13" points="1358.5,452.8 1317.5,527.9 1325.6,528.4 1362.8,454.7 		"/>
		<path class="st1" d="M1318.9,528.7l40.6-1.6c4.9-0.2,8.7-4.3,8.5-9.2l-2.2-57.4c-0.2-4.9-4.3-8.7-9.2-8.5l-40.6,1.6
			c-4.9,0.2-8.7,4.3-8.5,9.2l2.2,57.4C1309.9,525.1,1314,528.9,1318.9,528.7z"/>
	</g>
	<path class="st1" d="M1166.2,354.4c0,0-22.8-14.5-27.7-11.9"/>
	<path class="st9" d="M1217.1,454.9c0,0,1.9,19.7,2.1,34.2s0.2,17.2,0.2,17.2"/>
	<path class="st4" d="M1180.5,425c8.7,21.6,25.8,127,31.6,135.7c4,6,3.1,16.7,1.7,22.1c-0.5,2.2-3,3.3-5,2.4l-18.1-8.5
		c-2.1-1-6.3-5.2-6.3-7.6l-7.2-141.4L1180.5,425z"/>
	<path class="st9" d="M1156.2,352.1c-0.8-3.3-3.1-7.8-6.2-8.2c-4.3-0.6-8.4,3.2-9.1,8.4c-0.8,5.3,2.1,10,6.4,10.6
		c0.9,0.1,1.7,0.1,2.6-0.1"/>
	<path class="st9" d="M1290.3,520.8c9.9-6.6,27.4-2.6,38.6-14.5s17.5-29.5,0.6-26.1c-16.9,3.4-28.7,27.9-22.8,3.1
		c1.2-5.2-23.4,19.3-23.4,19.3L1290.3,520.8z"/>
	<path class="st9" d="M1167.4,471.6l18.7,29.7c3.1,4.7,5.9,9.6,8.8,14.4c1.1,1.9,3.1,3.2,5.3,3.4c6.4,0.6,87.6-35.1,87.6-35.1
		c2-0.9,4.2,0.5,4.3,2.7l1.4,38.5c0.1,1.9-1.2,3.6-3,4.1c-28.8,7.7-90.1,40-105.6,38c-29.5-3.9-75.4-102.7-75.4-102.7"/>
	<path class="st4" d="M1227.8,598.6c25.9,8.2,109.7,42.2,118.4,60.4c8.6,18.2-35.2,184.4-35.2,184.4l-53-8
		c0,0,27.2-136.4,23.3-146.5c-4-10.2-61.9-33.3-61.9-33.3"/>
	<path class="st4" d="M1110.7,646.3c43.4,25.8,86.1,51.9,85.5,64.1S1143.7,846,1143.7,846l50.2,15.6c0,0,80.2-147.1,71.6-169.5
		c-7.2-18.7-65.7-68.3-65.7-68.3"/>
	<path class="st4" d="M1269.2,870.8c7.6,8.8,46,42.8,51.7,34.7c5.7-8.1,2.9-30-15.3-44.1c-7.9-6.1-11.4-9.4-12.7-10.8
		c-7.5,0.3-19.7-1.6-25.9-3.3C1265.5,856.5,1265.1,866.1,1269.2,870.8z"/>
	<path class="st4" d="M1149.8,880.2c5.4,10.4,34.5,51.7,42.8,46.2c11.3-7.5,5.9-37.6-4.8-47c-9-7.9-10.3-12.8-10.5-14.2
		c-8-0.8-19.9-4.2-25.1-6.5C1149,866.8,1147.1,875,1149.8,880.2z"/>
	<path class="st14" d="M1267.2,711.6"/>
	<path class="st14" d="M1262.7,789.7"/>
	<path class="st14" d="M1338.7,650.7c8.8,9.4,11.7,6.9,6.5,37.4"/>
	<path class="st14" d="M1248.8,669.9c-11.8-11.7-26.9-28.2-39.5-37.3"/>
	<path class="st14" d="M1117.7,650.7c24.4,14.5,39.1,24.6,52.6,33"/>
	<path class="st4" d="M1182.3,430.2l2.2-4.3c0.8-1.6,0.2-3.6-1.4-4.4l-5.3-4.2c-1.6-0.8-4.6,0.8-5.4,2.4l-2.2,4.3
		c-0.8,1.6-0.2,3.6,1.4,4.4l6.3,3.2C1179.5,432.4,1181.4,431.8,1182.3,430.2z"/>
	<path class="st1" d="M1145.9,410.6c0,0.1,0,0.1,0,0.2c0.6,5.7,15.9,8.7,25.3,8.2c9.3-0.6,10.3-5.4,10.3-8.4"/>
	<path class="st14" d="M1267,847.3c-1.5,9.2-1.9,18.7,2.2,23.5"/>
	<path class="st14" d="M1188.3,879.3c-9-7.9-10.3-12.8-10.5-14.2"/>
	<path class="st1" d="M1182.8,339.1c-0.9,0-14.7,0.3-15.9,2.7"/>
	<path class="st1" d="M1204,337.5c5-2,10.4,0,10.4,0"/>
	
		<ellipse transform="matrix(0.9971 -7.664960e-02 7.664960e-02 0.9971 -23.416 93.5936)" class="st4" cx="1207.6" cy="351.8" rx="2.4" ry="3.3"/>
	<path class="st1" d="M1150.5,348.8c-0.4-0.5-1-0.9-1.5-1c-2.1-0.3-4.1,1.6-4.5,4.2"/>
</g>
<g>
	<path class="st8" d="M1214.3,125.2h-126.2c-4.2,0-7.6,3.5-7.6,7.9v75.5c0,4.4,3.4,7.9,7.6,7.9h23.2l13.3,11.1
		c0.6,0.5,1.4-0.1,1.2-0.8l-2.1-10.3h90.6c4.2,0,7.6-3.5,7.6-7.9v-75.5C1222,128.8,1218.5,125.2,1214.3,125.2z"/>
	<g>
		<rect x="1126.3" y="171.3" class="st15" width="15.1" height="32.6"/>
		<rect x="1152.8" y="153" class="st15" width="15.1" height="51"/>
		<rect x="1179.8" y="139.6" class="st15" width="15.1" height="64.4"/>
		<rect x="1101.5" y="154.1" class="st15" width="15.1" height="49.9"/>
		<line class="st7" x1="1094.9" y1="204" x2="1205.3" y2="204"/>
		<path class="st7" d="M1102.5,139.8c8.3,0.8,20.2,16.7,31.4,16c15.1-0.9,11.3-14.4,26.5-19.2c16.5-5.2,34.6-7.1,34.6-7.1"/>
	</g>
</g>
<circle class="st16" cx="614.5" cy="145.7" r="10.1"/>
<circle class="st16" cx="848.3" cy="159.1" r="6.8"/>
<g>
	<path class="st8" d="M1491.8,136.6h-186.5c-3.8,0-7,3.1-7,7v82.3c0,3.8,3.1,7,7,7h32.7l-6.2,15.1c-0.5,1.2,0.7,2.4,1.9,1.8
		l35.9-16.9h122.2c3.8,0,7-3.1,7-7v-82.3C1498.8,139.7,1495.7,136.6,1491.8,136.6z"/>
	<g>
		<path class="st17" d="M1339.8,148.8c-17.1,2-30.3,16.4-30.3,34c0,16,11,29.4,25.8,33.2l8.5-33.2L1339.8,148.8z"/>
		<path class="st18" d="M1368.5,156.4c-5.2-4.7-11.9-7.8-19.3-8.6c-1.2-0.1-2.4-0.2-3.6-0.2c-1.3,0-2.7,0.1-4,0.2l4,34L1368.5,156.4
			z"/>
		<path class="st19" d="M1369.4,157.3l-22.9,25.5l33.6,6.8c0.4-2.2,0.7-4.5,0.7-6.8C1380.7,172.7,1376.4,163.6,1369.4,157.3z"/>
		<path class="st18" d="M1338,216.9c2.7,0.7,5.6,1.1,8.5,1.1c16.6,0,30.4-11.8,33.6-27.4l-33.6-6.8L1338,216.9z"/>
	</g>
	<line class="st8" x1="1406.8" y1="159.3" x2="1485.5" y2="159.3"/>
	<line class="st8" x1="1428.7" y1="191.5" x2="1475.7" y2="191.5"/>
	<line class="st8" x1="1399.9" y1="191.5" x2="1410.8" y2="191.5"/>
	<line class="st8" x1="1415.3" y1="176.8" x2="1485.5" y2="176.8"/>
	<line class="st8" x1="1471.3" y1="206.8" x2="1483.3" y2="206.8"/>
	<line class="st8" x1="1399.9" y1="206.8" x2="1439.6" y2="206.8"/>
</g>
</svg>
