<?xml version="1.0" encoding="utf-8"?>
<!-- Generator: Adobe Illustrator 26.0.3, SVG Export Plug-In . SVG Version: 6.00 Build 0)  -->
<svg version="1.1" id="Layer_1" xmlns="http://www.w3.org/2000/svg" xmlns:xlink="http://www.w3.org/1999/xlink" x="0px" y="0px"
	 viewBox="0 0 1280 834.7" style="enable-background:new 0 0 1280 834.7;" xml:space="preserve">
<style type="text/css">
	.st0{fill:none;stroke:#B8B6AD;stroke-linecap:round;stroke-linejoin:round;stroke-miterlimit:10;stroke-dasharray:12,25;}
	.st1{fill:none;stroke:#E4D2EA;stroke-miterlimit:10;}
	.st2{fill:#E4D2EA;}
	.st3{fill:#CEB2D8;}
	.st4{fill:none;stroke:#000000;stroke-miterlimit:10;}
	.st5{fill:#FFFFFF;stroke:#000000;stroke-miterlimit:10;}
	.st6{fill:#FFFFFF;}
	.st7{fill:none;stroke:#FFFFFF;stroke-linecap:round;stroke-linejoin:round;stroke-miterlimit:10;stroke-dasharray:12,25;}
	.st8{fill:none;stroke:#B8B6AD;stroke-miterlimit:10;}
	.st9{fill:#FFFFFF;stroke:#B8B6AD;stroke-miterlimit:10;}
	.st10{fill:none;stroke:#FFFFFF;stroke-linecap:round;stroke-linejoin:round;stroke-miterlimit:10;}
	.st11{fill:none;stroke:#000000;stroke-linecap:round;stroke-linejoin:round;stroke-miterlimit:10;}
	.st12{font-family:'ComicSansMS';}
	.st13{font-size:84.8766px;}
	.st14{fill:none;stroke:#FFFFFF;stroke-miterlimit:10;}
	.st15{fill:none;stroke:#FFFFFF;stroke-linecap:round;stroke-linejoin:round;stroke-dasharray:3.1225,3.1225;}
	.st16{fill:#B8B6AD;stroke:#000000;stroke-miterlimit:10;}
	.st17{fill:#FFFFFF;stroke:#000000;stroke-linecap:round;stroke-linejoin:round;stroke-miterlimit:10;}
	.st18{fill:none;stroke:#B8B6AD;stroke-linecap:round;stroke-linejoin:round;stroke-miterlimit:10;}
	.st19{fill:#FFFFFF;stroke:#B8B6AD;stroke-linecap:round;stroke-linejoin:round;stroke-miterlimit:10;}
	.st20{fill:#E8E6DA;}
	.st21{font-family:'ArialRoundedMTBold';}
	.st22{font-size:81.0432px;}
	.st23{display:none;fill:#67028C;}
	.st24{fill:#67028C;}
	.st25{fill:#4A005C;}
	.st26{stroke:#FFFFFF;stroke-linecap:round;stroke-linejoin:round;stroke-miterlimit:10;}
	.st27{fill:#B8B6AD;}
	.st28{stroke:#000000;stroke-miterlimit:10;}
	.st29{fill:#67028C;stroke:#000000;stroke-linecap:round;stroke-linejoin:round;stroke-miterlimit:10;}
	.st30{fill:#67028C;stroke:#000000;stroke-miterlimit:10;}
</style>
<g id="фон">
	<path class="st0" d="M171.8,367.3c-30.8-90.9-18.3-190.2,123-169.6s222.8-112.5,305-128.2s246.9,10.5,239.2,94
		C831.4,246.9,171.8,367.3,171.8,367.3z"/>
	<g>
		<path class="st1" d="M474.1,380c0,0-84.3-78.2-112.7-211.8"/>
		
			<ellipse transform="matrix(0.4733 -0.8809 0.8809 0.4733 59.7991 409.2558)" class="st2" cx="372.2" cy="154.6" rx="18" ry="8.1"/>
		
			<ellipse transform="matrix(0.8809 -0.4733 0.4733 0.8809 -31.8136 184.8312)" class="st2" cx="351.3" cy="155.6" rx="8.1" ry="18"/>
		
			<ellipse transform="matrix(0.4733 -0.8809 0.8809 0.4733 41.7283 427.3649)" class="st2" cx="378.3" cy="178.8" rx="18" ry="8.1"/>
		
			<ellipse transform="matrix(0.4733 -0.8809 0.8809 0.4733 24.3452 448.9932)" class="st2" cx="387.7" cy="204.1" rx="20.4" ry="9.1"/>
		
			<ellipse transform="matrix(0.4733 -0.8809 0.8809 0.4733 6.9607 472.5851)" class="st2" cx="398.7" cy="230.5" rx="20.4" ry="9.1"/>
		
			<ellipse transform="matrix(0.4733 -0.8809 0.8809 0.4733 -9.417 495.7489)" class="st2" cx="409.9" cy="255.7" rx="20.4" ry="9.1"/>
		
			<ellipse transform="matrix(0.4733 -0.8809 0.8809 0.4733 -24.2795 521.6196)" class="st2" cx="424.1" cy="281.1" rx="20.4" ry="9.1"/>
		
			<ellipse transform="matrix(0.4733 -0.8809 0.8809 0.4733 -38.4653 545.2837)" class="st2" cx="436.8" cy="304.8" rx="20.4" ry="9.1"/>
		
			<ellipse transform="matrix(0.4733 -0.8809 0.8809 0.4733 -48.4389 571.6411)" class="st2" cx="453.8" cy="326.3" rx="20.4" ry="9.1"/>
		
			<ellipse transform="matrix(0.2472 -0.969 0.969 0.2472 86.4531 468.7446)" class="st2" cx="344.9" cy="178.7" rx="9.1" ry="20.4"/>
		
			<ellipse transform="matrix(0.2472 -0.969 0.969 0.2472 66.3599 496.6892)" class="st2" cx="352.8" cy="205.6" rx="9.1" ry="20.4"/>
		
			<ellipse transform="matrix(0.2472 -0.969 0.969 0.2472 48.9211 525.3397)" class="st2" cx="362.5" cy="231.2" rx="9.1" ry="20.4"/>
		
			<ellipse transform="matrix(0.2472 -0.969 0.969 0.2472 32.7383 555.6069)" class="st2" cx="373.9" cy="256.7" rx="9.1" ry="20.4"/>
		<ellipse transform="matrix(0.2472 -0.969 0.969 0.2472 17.135 587.1284)" class="st2" cx="386.4" cy="282.5" rx="9.1" ry="20.4"/>
		<ellipse transform="matrix(0.2472 -0.969 0.969 0.2472 4.1374 621.9018)" class="st2" cx="402.3" cy="308.3" rx="9.1" ry="20.4"/>
		
			<ellipse transform="matrix(0.2472 -0.969 0.969 0.2472 -9.2912 661.8398)" class="st2" cx="421.3" cy="336.9" rx="9.1" ry="20.4"/>
	</g>
	<g>
		<path class="st1" d="M1026.6,656.3c0,0,84.3-78.2,112.7-211.8"/>
		
			<ellipse transform="matrix(0.8809 -0.4733 0.4733 0.8809 -69.5254 585.4973)" class="st2" cx="1128.5" cy="430.9" rx="8.1" ry="18"/>
		
			<ellipse transform="matrix(0.4733 -0.8809 0.8809 0.4733 224.8905 1239.9263)" class="st2" cx="1149.4" cy="431.9" rx="18" ry="8.1"/>
		
			<ellipse transform="matrix(0.8809 -0.4733 0.4733 0.8809 -81.6918 585.4844)" class="st2" cx="1122.4" cy="455.1" rx="8.1" ry="18"/>
		
			<ellipse transform="matrix(0.8809 -0.4733 0.4733 0.8809 -94.8105 584.0568)" class="st2" cx="1113" cy="480.4" rx="9.1" ry="20.4"/>
		
			<ellipse transform="matrix(0.8809 -0.4733 0.4733 0.8809 -108.5898 581.9694)" class="st2" cx="1102" cy="506.7" rx="9.1" ry="20.4"/>
		
			<ellipse transform="matrix(0.8809 -0.4733 0.4733 0.8809 -121.8867 579.6874)" class="st2" cx="1090.8" cy="532" rx="9.1" ry="20.4"/>
		
			<ellipse transform="matrix(0.8809 -0.4733 0.4733 0.8809 -135.5844 575.9856)" class="st2" cx="1076.6" cy="557.4" rx="9.1" ry="20.4"/>
		
			<ellipse transform="matrix(0.8809 -0.4733 0.4733 0.8809 -148.3124 572.7982)" class="st2" cx="1063.9" cy="581.1" rx="9.1" ry="20.4"/>
		
			<ellipse transform="matrix(0.8809 -0.4733 0.4733 0.8809 -160.5296 567.2888)" class="st2" cx="1046.9" cy="602.6" rx="9.1" ry="20.4"/>
		
			<ellipse transform="matrix(0.969 -0.2472 0.2472 0.969 -76.6008 299.7989)" class="st2" cx="1155.8" cy="455" rx="20.4" ry="9.1"/>
		
			<ellipse transform="matrix(0.969 -0.2472 0.2472 0.969 -83.4967 298.6718)" class="st2" cx="1147.9" cy="481.9" rx="20.4" ry="9.1"/>
		
			<ellipse transform="matrix(0.969 -0.2472 0.2472 0.969 -90.113 297.0623)" class="st2" cx="1138.2" cy="507.5" rx="20.4" ry="9.1"/>
		
			<ellipse transform="matrix(0.969 -0.2472 0.2472 0.969 -96.7811 295.0405)" class="st2" cx="1126.8" cy="533" rx="20.4" ry="9.1"/>
		
			<ellipse transform="matrix(0.969 -0.2472 0.2472 0.969 -103.546 292.7553)" class="st2" cx="1114.3" cy="558.8" rx="20.4" ry="9.1"/>
		
			<ellipse transform="matrix(0.969 -0.2472 0.2472 0.969 -110.4037 289.6294)" class="st2" cx="1098.4" cy="584.6" rx="20.4" ry="9.1"/>
		
			<ellipse transform="matrix(0.969 -0.2472 0.2472 0.969 -118.0646 285.8239)" class="st2" cx="1079.4" cy="613.2" rx="20.4" ry="9.1"/>
	</g>
	<path class="st0" d="M1144.7,163.4c37.6,67.6,74.1,59.1,39.4,152.9s158.5,167.4,13.9,235.6s-337.8,82-337.8,82L1144.7,163.4z"/>
	<path class="st3" d="M280.2,568.5C142.7,460.6,65.8,171.7,302.8,237.9S538.9,63.3,712.5,87.6s380.1-204.2,441.8,51.3
		c61.7,255.5-184.3,318.2-80.1,398.7c104.2,80.4,278.6,159.5-35.8,168.3C724.1,714.6,280.2,568.5,280.2,568.5z"/>
	<g>
		<path class="st4" d="M1020.6,781.5c0,0,99.6-57.5,157-181.4"/>
		
			<ellipse transform="matrix(0.9642 -0.2654 0.2654 0.9642 -111.7295 330.1342)" class="st5" cx="1166" cy="578.6" rx="12.5" ry="27.9"/>
		
			<ellipse transform="matrix(0.7401 -0.6724 0.6724 0.7401 -83.8566 957.5307)" class="st5" cx="1197" cy="587.3" rx="27.9" ry="12.5"/>
		
			<ellipse transform="matrix(0.9642 -0.2654 0.2654 0.9642 -120.5029 326.8693)" class="st5" cx="1149.5" cy="609.4" rx="12.5" ry="27.9"/>
		
			<ellipse transform="matrix(0.9642 -0.2654 0.2654 0.9642 -129.5101 321.8719)" class="st5" cx="1126.5" cy="640.3" rx="14.1" ry="31.5"/>
		
			<ellipse transform="matrix(0.9642 -0.2654 0.2654 0.9642 -138.3276 316.7655)" class="st5" cx="1103.2" cy="670.3" rx="14.1" ry="31.5"/>
		
			<ellipse transform="matrix(0.9997 -2.525769e-02 2.525769e-02 0.9997 -15.6228 30.3286)" class="st5" cx="1192.8" cy="633.6" rx="31.5" ry="14.1"/>
		
			<ellipse transform="matrix(0.9997 -2.525769e-02 2.525769e-02 0.9997 -16.3666 29.8554)" class="st5" cx="1173.7" cy="662.8" rx="31.5" ry="14.1"/>
		
			<ellipse transform="matrix(0.9997 -2.525769e-02 2.525769e-02 0.9997 -17.3433 29.1336)" class="st5" cx="1144.6" cy="701.1" rx="31.5" ry="14.1"/>
	</g>
	<path class="st6" d="M621,443.9c9.9-1,17.4-7.3,17.2-9.8c-0.3-2.6-8.8-7.3-18.7-6.3c-1.2,0.1-2.5,0.3-3.6,0.6c0.7-1,1.4-2.1,2-3.3
		c4.7-8.8,3.8-18.5,1.4-19.7c-2.2-1.2-11,3.3-15.7,12.1c-1.9,3.6-3,7.3-3.3,10.5c-0.5-3-1.5-6.3-3.2-9.5
		c-4.7-8.8-13.4-13.3-15.7-12.1c-2.3,1.3-3.3,10.9,1.4,19.7c1.3,2.4,2.8,4.4,4.4,6.2c-2.6-0.6-5.5-0.8-8.6-0.5
		c-9.9,1-17.5,6.7-17.2,9.8c0.3,3.1,8.8,7.3,18.7,6.3c1.6-0.2,3.2-0.5,4.7-0.9c-0.5,0.8-1,1.6-1.5,2.5c-4.7,8.8-3.8,18.5-1.4,19.7
		c2.2,1.2,11-3.3,15.7-12.1c1.5-2.8,2.5-5.8,3-8.5c0.5,2.7,1.5,5.6,3,8.4c4.7,8.8,13.4,13.3,15.7,12.1c2.3-1.3,3.3-10.9-1.4-19.7
		c-1.1-2.1-2.5-4-3.9-5.7C616.2,444.1,618.6,444.1,621,443.9z"/>
	<path class="st6" d="M957.3,439.6c9.9-1,17.4-7.3,17.2-9.8c-0.3-2.6-8.8-7.3-18.7-6.3c-1.2,0.1-2.5,0.3-3.6,0.6
		c0.7-1,1.4-2.1,2-3.3c4.7-8.8,3.8-18.5,1.4-19.7c-2.2-1.2-11,3.3-15.7,12.1c-1.9,3.6-3,7.3-3.3,10.5c-0.5-3-1.5-6.3-3.2-9.5
		c-4.7-8.8-13.4-13.3-15.7-12.1c-2.3,1.3-3.3,10.9,1.4,19.7c1.3,2.4,2.8,4.4,4.4,6.2c-2.6-0.6-5.5-0.8-8.6-0.5
		c-9.9,1-17.5,6.7-17.2,9.8c0.3,3.1,8.8,7.3,18.7,6.3c1.6-0.2,3.2-0.5,4.7-0.9c-0.5,0.8-1,1.6-1.5,2.5c-4.7,8.8-3.8,18.5-1.4,19.7
		c2.2,1.2,11-3.3,15.7-12.1c1.5-2.8,2.5-5.8,3-8.5c0.5,2.7,1.5,5.6,3,8.4c4.7,8.8,13.4,13.3,15.7,12.1c2.3-1.3,3.3-10.9-1.4-19.7
		c-1.1-2.1-2.5-4-3.9-5.7C952.5,439.8,954.9,439.8,957.3,439.6z"/>
	<path class="st7" d="M251.5,492.6c32.5-70.4,87.8-98.4,172.8-90.5s68.3-123.5,148.8-136.6s139.6,42.9,154-11.9
		c14.4-54.8,80.1-58.4,158-78.4s86.7-85.1,86.7-85.1"/>
	<g>
		<path class="st8" d="M296.3,792.7c0,0-123.8-58.9-196.1-215.2"/>
		
			<ellipse transform="matrix(0.2654 -0.9642 0.9642 0.2654 -446.4062 515.0817)" class="st9" cx="114.8" cy="550.5" rx="35.2" ry="15.8"/>
		
			<ellipse transform="matrix(0.6724 -0.7401 0.7401 0.6724 -390.7563 239.8888)" class="st9" cx="75.6" cy="561.4" rx="15.8" ry="35.2"/>
		
			<ellipse transform="matrix(0.2654 -0.9642 0.9642 0.2654 -468.6431 563.6777)" class="st9" cx="135.6" cy="589.4" rx="35.2" ry="15.8"/>
		
			<ellipse transform="matrix(0.2654 -0.9642 0.9642 0.2654 -484.83 620.2121)" class="st9" cx="164.6" cy="628.3" rx="39.7" ry="17.8"/>
		
			<ellipse transform="matrix(0.2654 -0.9642 0.9642 0.2654 -499.8111 676.4204)" class="st9" cx="194" cy="666.2" rx="39.7" ry="17.8"/>
		
			<ellipse transform="matrix(2.525769e-02 -0.9997 0.9997 2.525769e-02 -540.688 685.1902)" class="st9" cx="81" cy="619.9" rx="17.8" ry="39.7"/>
		
			<ellipse transform="matrix(2.525769e-02 -0.9997 0.9997 2.525769e-02 -554.0299 745.1751)" class="st9" cx="105.1" cy="656.7" rx="17.8" ry="39.7"/>
		
			<ellipse transform="matrix(2.525769e-02 -0.9997 0.9997 2.525769e-02 -566.5894 828.8937)" class="st9" cx="141.8" cy="705" rx="17.8" ry="39.7"/>
	</g>
	<g>
		<path class="st2" d="M204.8,591.4c-3.3,3.6-8.6-0.3-13.2-7.1c-12.8-19.1-29.1-61.5-43.1-57.1c-30.7,9.7,13.5,74.7,11.3,84.3
			c-2.2,9.6-28.2,2.6-24.9,16.5c7.4,31.5,51.6,38.2,40.6,49.2c-13.8,13.7-40.4,2.2-24.9,22.6c15.4,20.4,34.9,23.9,32.4,30.3
			c-4,10.1-27.9,1.8-26.2,15.3c1.6,13.6,58.6,54.6,86.3,40.1c27.7-14.6,83.4-93,60.1-92.9s-45,36.1-38.5,3.5
			c6.5-32.7,24.2-90.4,3.4-66.5s-20.5,38.5-26.2,25.2c-5.7-13.3-2.3-93.4-13.8-87S210.1,585.7,204.8,591.4z"/>
		<path class="st10" d="M166.4,579.8c35.5,75.6,67.3,118.9,68.9,199.3"/>
	</g>
	<path class="st11" d="M231.8,584.3c-4.1,11.6-20.2,21.5-20.2,21.5"/>
	<text transform="matrix(1 0 0 1 679.6826 192.9465)" class="st6 st12 st13">%</text>
	<g>
		
			<ellipse transform="matrix(0.4733 -0.8809 0.8809 0.4733 -133.842 284.7184)" class="st2" cx="171.2" cy="254.3" rx="18" ry="8.1"/>
		
			<ellipse transform="matrix(0.8809 -0.4733 0.4733 0.8809 -102.9278 101.5792)" class="st2" cx="150.4" cy="255.3" rx="8.1" ry="18"/>
		
			<ellipse transform="matrix(0.8809 -0.4733 0.4733 0.8809 -115.1047 115.1669)" class="st2" cx="171.3" cy="286.3" rx="8.1" ry="18"/>
		
			<ellipse transform="matrix(0.4733 -0.8809 0.8809 0.4733 -172.7319 283.7846)" class="st2" cx="151" cy="286.3" rx="18" ry="8.1"/>
		
			<ellipse transform="matrix(0.9953 -9.697907e-02 9.697907e-02 0.9953 -25.2223 18.7892)" class="st2" cx="180.7" cy="268.9" rx="18" ry="8.1"/>
		
			<ellipse transform="matrix(0.9953 -9.697907e-02 9.697907e-02 0.9953 -25.8005 14.8481)" class="st2" cx="139.8" cy="272.8" rx="18" ry="8.1"/>
	</g>
	<g>
		
			<ellipse transform="matrix(0.4733 -0.8809 0.8809 0.4733 350.3029 728.9942)" class="st2" cx="784.8" cy="71.5" rx="18" ry="8.1"/>
		<ellipse transform="matrix(0.8809 -0.4733 0.4733 0.8809 56.6583 370.2512)" class="st2" cx="764" cy="72.6" rx="8.1" ry="18"/>
		<ellipse transform="matrix(0.8809 -0.4733 0.4733 0.8809 44.4815 383.839)" class="st2" cx="784.9" cy="103.5" rx="8.1" ry="18"/>
		
			<ellipse transform="matrix(0.4733 -0.8809 0.8809 0.4733 311.413 728.0604)" class="st2" cx="764.6" cy="103.6" rx="18" ry="8.1"/>
		
			<ellipse transform="matrix(0.9953 -9.697907e-02 9.697907e-02 0.9953 -4.608 77.4352)" class="st2" cx="794.3" cy="86.1" rx="18" ry="8.1"/>
		
			<ellipse transform="matrix(0.9953 -9.697907e-02 9.697907e-02 0.9953 -5.1861 73.4941)" class="st2" cx="753.5" cy="90.1" rx="18" ry="8.1"/>
	</g>
	<g>
		
			<ellipse transform="matrix(0.4733 -0.8809 0.8809 0.4733 494.6501 1095.4395)" class="st2" cx="1163.4" cy="134.1" rx="18" ry="8.1"/>
		<ellipse transform="matrix(0.8809 -0.4733 0.4733 0.8809 72.1706 556.91)" class="st2" cx="1142.6" cy="135.1" rx="8.1" ry="18"/>
		<ellipse transform="matrix(0.8809 -0.4733 0.4733 0.8809 59.9938 570.4977)" class="st2" cx="1163.5" cy="166" rx="8.1" ry="18"/>
		
			<ellipse transform="matrix(0.4733 -0.8809 0.8809 0.4733 455.7602 1094.5056)" class="st2" cx="1143.2" cy="166.1" rx="18" ry="8.1"/>
		
			<ellipse transform="matrix(0.9953 -9.697907e-02 9.697907e-02 0.9953 -8.8853 114.4483)" class="st2" cx="1172.9" cy="148.6" rx="18" ry="8.1"/>
		
			<ellipse transform="matrix(0.9953 -9.697907e-02 9.697907e-02 0.9953 -9.4635 110.5072)" class="st2" cx="1132.1" cy="152.6" rx="18" ry="8.1"/>
	</g>
	<circle class="st14" cx="209.2" cy="295.9" r="11.2"/>
	<circle class="st14" cx="220.4" cy="283.8" r="18.3"/>
	<circle class="st14" cx="220.4" cy="283.8" r="15.1"/>
	<circle class="st14" cx="868.3" cy="143.3" r="8.7"/>
	<path class="st7" d="M988.8,497.7c-27.1-68.9,85.3-118.5,98.7-174.9c9.7-40.7,6.8-66.1,6.8-66.1"/>
	<path class="st6" d="M711.9,278.8c9.9-1,17.4-7.3,17.2-9.8c-0.3-2.6-8.8-7.3-18.7-6.3c-1.2,0.1-2.5,0.3-3.6,0.6
		c0.7-1,1.4-2.1,2-3.3c4.7-8.8,3.8-18.5,1.4-19.7c-2.2-1.2-11,3.3-15.7,12.1c-1.9,3.6-3,7.3-3.3,10.5c-0.5-3-1.5-6.3-3.2-9.5
		c-4.7-8.8-13.4-13.3-15.7-12.1c-2.3,1.3-3.3,10.9,1.4,19.7c1.3,2.4,2.8,4.4,4.4,6.2c-2.6-0.6-5.5-0.8-8.6-0.5
		c-9.9,1-17.5,6.7-17.2,9.8c0.3,3.1,8.8,7.3,18.7,6.3c1.6-0.2,3.2-0.5,4.7-0.9c-0.5,0.8-1,1.6-1.5,2.5c-4.7,8.8-3.8,18.5-1.4,19.7
		c2.2,1.2,11-3.3,15.7-12.1c1.5-2.8,2.5-5.8,3-8.5c0.5,2.7,1.5,5.6,3,8.4c4.7,8.8,13.4,13.3,15.7,12.1c2.3-1.3,3.3-10.9-1.4-19.7
		c-1.1-2.1-2.5-4-3.9-5.7C707.1,279,709.4,279.1,711.9,278.8z"/>
	<circle class="st6" cx="296.6" cy="336.9" r="6.3"/>
	<circle class="st6" cx="290.3" cy="318.3" r="4.2"/>
	<circle class="st6" cx="577.4" cy="322.5" r="6.3"/>
	<circle class="st6" cx="583.9" cy="291.8" r="4.2"/>
	<circle class="st6" cx="998.3" cy="76.6" r="10.9"/>
	<g>
		
			<ellipse transform="matrix(0.9996 -2.937367e-02 2.937367e-02 0.9996 -1.7482 29.4262)" class="st15" cx="1000.7" cy="74.2" rx="10.9" ry="10.9"/>
	</g>
	<circle class="st6" cx="933.8" cy="199.5" r="2.5"/>
</g>
<g id="столбик1_2_">
	<rect id="столбик1_1_" x="263.9" y="524.1" class="st16" width="144" height="274.6"/>
	<rect id="столбик1" x="280.2" y="524.1" class="st5" width="144" height="274.6"/>
</g>
<g id="столбик2_2_">
	<rect id="столбик2_1_" x="437.4" y="440.9" class="st16" width="144" height="357.8"/>
	<rect id="столбик2" x="452.2" y="440.9" class="st5" width="144" height="357.8"/>
</g>
<g id="столбик3_2_">
	<rect id="столбик3_1_" x="607.8" y="322.9" class="st16" width="144" height="475.8"/>
	<rect id="столбик3" x="621.2" y="322.9" class="st5" width="144" height="475.8"/>
</g>
<g id="столбик4_2_">
	<rect id="столбик4_1_" x="773.9" y="224.5" class="st16" width="144" height="574.2"/>
	<rect id="столбик4" x="788.2" y="224.5" class="st5" width="144" height="574.2"/>
</g>
<g id="монета">
	<circle class="st17" cx="655" cy="726.6" r="72.1"/>
	<path class="st18" d="M633.2,673.9c6.7-2.8,14.1-4.3,21.8-4.3c31.5,0,57,25.5,57,57s-25.5,57-57,57s-57-25.5-57-57
		c0-5.4,0.8-10.7,2.2-15.6"/>
	<line class="st19" x1="664" y1="658.2" x2="663" y2="667.4"/>
	<line class="st19" x1="624.9" y1="778" x2="620.3" y2="787.2"/>
	<line class="st18" x1="637.3" y1="782.6" x2="634.3" y2="793.1"/>
	<g>
		<text transform="matrix(1 0 0 1 628.2469 754.6289)" class="st20 st21 st22">1</text>
	</g>
</g>
<g id="стрелка_1_">
	<path id="стрелка" class="st23" d="M210.1,688.3c91.5-14.1,182.1-31.3,270.1-56.4c44-12.6,87.2-27.2,129.3-44.5
		c42.1-17.3,83-37.2,121.9-60.4c38.9-23.2,75.9-49.6,110-79.4c34.1-29.8,65.2-63.1,92.6-99.3c27.5-36.2,51.2-75.4,71.2-116.7
		c10-20.6,19-41.8,27.1-63.3c8.1-21.5,15.3-43.5,21.7-65.6l0-0.1c1.9-6.5,8.6-10.2,15.1-8.3c6.2,1.8,9.9,8.2,8.5,14.4
		c-5.3,23.1-11.5,46.1-18.7,68.8c-7.2,22.7-15.2,45.2-24.5,67.2c-18.5,44.1-41.1,86.7-68.1,126.7c-26.9,40-58.1,77.2-92.7,111
		c-34.6,33.8-72.6,64.2-112.7,91.2c-40.1,27-82.4,50.6-125.9,71.3c-43.5,20.7-88.2,38.6-133.5,54.3c-90.6,31.4-183.4,54.2-276,73.8
		l0,0c-23.2,4.9-46.1-10-51-33.2c-4.9-23.2,10-46.1,33.2-51C208.5,688.6,209.3,688.4,210.1,688.3z"/>
	<path class="st24" d="M1090.5,222.7c-1.3,2-4.3,3-6.4-0.2c-0.1-0.2-0.3-0.5-0.4-0.7c-0.2-0.3-0.4-0.5-0.5-0.8
		c-0.2-0.4-0.5-0.8-0.8-1.1c-0.1-0.1-0.1-0.1-0.1-0.2c-0.6-0.9-1.3-1.8-2-2.7c0,0,0,0,0,0c-7.2-9.3-18.2-20-28.8-25.8
		c-1.2-0.5-2.2-1-3.2-1.4c-1.6,5.3-3.3,10.7-5.1,16c-1.8,5.5-3.8,11-5.7,16.5c-2,5.4-4,10.9-6.2,16.3c-0.2,0.6-0.4,1.1-0.7,1.7
		c-1.9,4.8-4,9.6-6,14.4c-2.4,5.3-4.6,10.7-7.1,15.9c-4.8,10.6-10.1,21-15.5,31.3c-5.2,9.7-10.6,19.4-16.2,28.8
		c-6.3,10.6-12.9,21-19.7,31.2c-26.1,38.8-56.2,74.9-89.4,108.1c-33.1,33.2-69.5,63.2-107.7,90.5c-19.1,13.6-38.8,26.4-58.9,38.6
		l-15.1,9c-5.1,3-10.2,5.8-15.3,8.7l-7.7,4.3l-7.8,4.2c-5.2,2.8-10.3,5.6-15.5,8.3c-10.5,5.3-20.9,10.7-31.5,15.7
		c-5.3,2.5-10.5,5.1-15.9,7.6l-16,7.3c-5.3,2.5-10.7,4.7-16.1,7l-16.2,6.9l-16.3,6.5l-8.2,3.3l-8.2,3.1
		c-87.6,33.4-178.2,58.2-269.7,76.4l-0.1,0c-23.8,4.8-47-10.7-51.7-34.5c-4.8-23.8,10.7-47,34.5-51.8c1-0.2,2-0.4,3-0.5
		c88.6-11.4,176.3-28.9,261.5-54.8l8-2.4l7.9-2.6l15.9-5.1l15.8-5.5c5.2-1.8,10.5-3.6,15.7-5.6l15.6-5.8c5.2-1.9,10.3-4.1,15.5-6.1
		c10.4-4,20.5-8.5,30.8-12.8c5.1-2.2,10.1-4.5,15.2-6.8l7.6-3.4l7.5-3.6c5-2.4,10-4.8,15-7.2l14.9-7.5c19.7-10.2,39.2-21,58.1-32.6
		c37.8-23.3,74.1-49.2,107.6-78.4c33.5-29.2,64.5-61.5,91.9-96.7c3.3-4.3,6.6-8.7,9.9-13.1c10-13.6,19.5-27.5,28.5-41.9
		c5.8-9.5,11.6-19.2,16.9-29c2.8-4.9,5.3-9.9,7.9-14.8c0.8-1.6,1.6-3.2,2.4-4.8c1.7-3.4,3.4-6.8,5-10.3c2.5-5,4.8-10.2,7.1-15.3
		c2.2-5.2,4.5-10.3,6.6-15.5c1.6-3.9,3.2-7.9,4.7-11.8c-1.6,0.2-3.2,0.5-5.2,0.9c-11.8,2.6-24.6,8.1-32.8,11.9
		c-2.8,1.3-6.9-3.1-4.5-7.1l75.9-105.7v0l0.3-0.4c0.8-1.1,3.1-1.8,5.2-1.3c2,0.4,3.9,1.9,4.4,5l18,129.8
		C1091.2,221.1,1091,222,1090.5,222.7z"/>
	<g>
		<path class="st25" d="M1091.1,220.3l-18-129.8c-0.4-3.1-2.3-4.5-4.4-5c-1.9-0.4-4,0.1-4.9,1c0,0.1,0.1,0.2,0.1,0.4l18,129.8
			c0.1,0.6-0.1,1.3-0.4,1.9c0.2,0.3,0.4,0.6,0.7,0.9c0,0.1,0.1,0.1,0.1,0.2c0.3,0.4,0.5,0.8,0.8,1.1c0.2,0.3,0.4,0.5,0.5,0.8
			c0.1,0.2,0.3,0.5,0.4,0.7c2.1,3.3,5.1,2.2,6.4,0.2C1091,222,1091.2,221.1,1091.1,220.3z"/>
		<path class="st25" d="M1042.1,187.6c-1.2-0.5-2.2-1-3.2-1.4c-1.6,5.3-3.3,10.7-5.1,16c-1.8,5.5-3.8,11-5.7,16.5
			c-2,5.4-4,10.9-6.2,16.3c-0.2,0.6-0.4,1.1-0.7,1.7c-1.9,4.8-4,9.6-6,14.4c-2.4,5.3-4.6,10.7-7.1,15.9c-4.8,10.6-10.1,21-15.5,31.3
			c-5.2,9.7-10.6,19.4-16.2,28.8c-6.3,10.6-12.9,21-19.7,31.2c-26.1,38.8-56.2,74.9-89.4,108.1c-33.1,33.2-69.5,63.2-107.7,90.5
			c-19.1,13.6-38.8,26.4-58.9,38.6l-15.1,9c-5.1,3-10.2,5.8-15.3,8.7l-7.7,4.3l-7.8,4.2c-5.2,2.8-10.3,5.6-15.5,8.3
			c-10.5,5.3-20.9,10.7-31.5,15.7c-5.3,2.5-10.5,5.1-15.9,7.6l-16,7.3c-5.3,2.5-10.7,4.7-16.1,7l-16.2,6.9l-16.3,6.5l-8.2,3.3
			l-8.2,3.1c-87.6,33.4-178.2,58.2-269.7,76.4l-0.1,0c-6.7,1.3-13.4,1.1-19.6-0.5c8.6,4.4,18.6,6.1,28.8,4.1l0.1,0
			c91.6-18.3,182.1-43,269.7-76.4l8.2-3.1l8.2-3.3l16.3-6.5l16.2-6.9c5.4-2.3,10.8-4.6,16.1-7l16-7.3c5.3-2.4,10.6-5,15.9-7.6
			c10.6-5,21-10.4,31.5-15.7c5.2-2.7,10.3-5.5,15.5-8.3l7.8-4.2l7.7-4.3c5.1-2.9,10.2-5.8,15.3-8.7l15.1-9
			c20-12.2,39.8-25,58.9-38.6c38.2-27.3,74.5-57.3,107.7-90.5c33.1-33.2,63.3-69.3,89.4-108.1c6.9-10.2,13.4-20.6,19.7-31.2
			c5.6-9.5,11.1-19.1,16.2-28.8c5.4-10.3,10.7-20.7,15.5-31.3c2.5-5.3,4.8-10.6,7.1-15.9c2-4.8,4.1-9.6,6-14.4
			c0.2-0.6,0.4-1.1,0.7-1.7c2.2-5.4,4.2-10.8,6.2-16.3c1.9-5.5,3.9-10.9,5.7-16.5c1.6-4.9,3.2-9.8,4.7-14.7
			C1045.9,189.7,1044,188.6,1042.1,187.6z"/>
	</g>
	<path class="st4" d="M1090.5,222.7c-1.3,2-4.3,3-6.4-0.2c-0.1-0.2-0.3-0.5-0.4-0.7c-0.2-0.3-0.4-0.5-0.5-0.8
		c-0.2-0.4-0.5-0.8-0.8-1.1c-0.1-0.1-0.1-0.1-0.1-0.2c-0.6-0.9-1.3-1.8-2-2.7c0,0,0,0,0,0c-7.2-9.3-18.2-20-28.8-25.8
		c-1.2-0.5-2.2-1-3.2-1.4c-1.6,5.3-3.3,10.7-5.1,16c-1.8,5.5-3.8,11-5.7,16.5c-2,5.4-4,10.9-6.2,16.3c-0.2,0.6-0.4,1.1-0.7,1.7
		c-1.9,4.8-4,9.6-6,14.4c-2.4,5.3-4.6,10.7-7.1,15.9c-4.8,10.6-10.1,21-15.5,31.3c-5.2,9.7-10.6,19.4-16.2,28.8
		c-6.3,10.6-12.9,21-19.7,31.2c-26.1,38.8-56.2,74.9-89.4,108.1c-33.1,33.2-69.5,63.2-107.7,90.5c-19.1,13.6-38.8,26.4-58.9,38.6
		l-15.1,9c-5.1,3-10.2,5.8-15.3,8.7l-7.7,4.3l-7.8,4.2c-5.2,2.8-10.3,5.6-15.5,8.3c-10.5,5.3-20.9,10.7-31.5,15.7
		c-5.3,2.5-10.5,5.1-15.9,7.6l-16,7.3c-5.3,2.5-10.7,4.7-16.1,7l-16.2,6.9l-16.3,6.5l-8.2,3.3l-8.2,3.1
		c-87.6,33.4-178.2,58.2-269.7,76.4l-0.1,0c-23.8,4.8-47-10.7-51.7-34.5c-4.8-23.8,10.7-47,34.5-51.8c1-0.2,2-0.4,3-0.5
		c88.6-11.4,176.3-28.9,261.5-54.8l8-2.4l7.9-2.6l15.9-5.1l15.8-5.5c5.2-1.8,10.5-3.6,15.7-5.6l15.6-5.8c5.2-1.9,10.3-4.1,15.5-6.1
		c10.4-4,20.5-8.5,30.8-12.8c5.1-2.2,10.1-4.5,15.2-6.8l7.6-3.4l7.5-3.6c5-2.4,10-4.8,15-7.2l14.9-7.5c19.7-10.2,39.2-21,58.1-32.6
		c37.8-23.3,74.1-49.2,107.6-78.4c33.5-29.2,64.5-61.5,91.9-96.7c3.3-4.3,6.6-8.7,9.9-13.1c10-13.6,19.5-27.5,28.5-41.9
		c5.8-9.5,11.6-19.2,16.9-29c2.8-4.9,5.3-9.9,7.9-14.8c0.8-1.6,1.6-3.2,2.4-4.8c1.7-3.4,3.4-6.8,5-10.3c2.5-5,4.8-10.2,7.1-15.3
		c2.2-5.2,4.5-10.3,6.6-15.5c1.6-3.9,3.2-7.9,4.7-11.8c-1.6,0.2-3.2,0.5-5.2,0.9c-11.8,2.6-24.6,8.1-32.8,11.9
		c-2.8,1.3-6.9-3.1-4.5-7.1l75.9-105.7v0l0.3-0.4c0.8-1.1,3.1-1.8,5.2-1.3c2,0.4,3.9,1.9,4.4,5l18,129.8
		C1091.2,221.1,1091,222,1090.5,222.7z"/>
</g>
<g id="монетки">
	<g id="сонетка">
		<path class="st5" d="M986.5,776.9H824.7v17.8c0,0,0,0.2,0,0.3c0,2.3,36.2,4.1,80.9,4.1c44.7,0,80.9-1.8,80.9-4.1
			c0-0.1,0-0.3,0-0.3V776.9z"/>
		<ellipse class="st5" cx="905.6" cy="777.1" rx="80.9" ry="4.1"/>
		<path class="st17" d="M839,782.1c0,2.3,0,12.4,0,12.4"/>
		<path class="st17" d="M849.4,783c0,2.3,0,12.4,0,12.4"/>
		<path class="st17" d="M876.5,784.2c0,2.3,0,12.4,0,12.4"/>
		<path class="st17" d="M871.5,784.2c0,2.3,0,12.4,0,12.4"/>
		<path class="st17" d="M951.3,782.1c0,2.3,0,12.4,0,12.4"/>
	</g>
	<g id="сонетка_1_">
		<path class="st5" d="M984.8,759.1H822.9v17.8c0,0,0,0.2,0,0.3c0,2.3,36.2,4.1,80.9,4.1c44.7,0,80.9-1.8,80.9-4.1
			c0-0.1,0-0.3,0-0.3V759.1z"/>
		<ellipse class="st5" cx="903.9" cy="759.3" rx="80.9" ry="4.1"/>
		<path class="st17" d="M837.3,764.3c0,2.3,0,12.4,0,12.4"/>
		<path class="st17" d="M847.6,765.2c0,2.3,0,12.4,0,12.4"/>
		<path class="st17" d="M874.7,766.5c0,2.3,0,12.4,0,12.4"/>
		<path class="st17" d="M869.7,766.5c0,2.3,0,12.4,0,12.4"/>
		<path class="st17" d="M949.5,764.3c0,2.3,0,12.4,0,12.4"/>
	</g>
	<g id="сонетка_2_">
		<path class="st5" d="M991.4,741.2H829.6V759c0,0,0,0.2,0,0.3c0,2.3,36.2,4.1,80.9,4.1c44.7,0,80.9-1.8,80.9-4.1c0-0.1,0-0.3,0-0.3
			V741.2z"/>
		<ellipse class="st5" cx="910.5" cy="741.4" rx="80.9" ry="4.1"/>
		<path class="st17" d="M843.9,746.4c0,2.3,0,12.4,0,12.4"/>
		<path class="st17" d="M854.3,747.3c0,2.3,0,12.4,0,12.4"/>
		<path class="st17" d="M881.3,748.5c0,2.3,0,12.4,0,12.4"/>
		<path class="st17" d="M876.4,748.5c0,2.3,0,12.4,0,12.4"/>
		<path class="st17" d="M956.1,746.4c0,2.3,0,12.4,0,12.4"/>
	</g>
	<g id="сонетка_3_">
		<path class="st5" d="M979,723.2H817.1V741c0,0,0,0.2,0,0.3c0,2.3,36.2,4.1,80.9,4.1c44.7,0,80.9-1.8,80.9-4.1c0-0.1,0-0.3,0-0.3
			V723.2z"/>
		<ellipse class="st5" cx="898.1" cy="723.4" rx="80.9" ry="4.1"/>
		<path class="st17" d="M831.5,728.4c0,2.3,0,12.4,0,12.4"/>
		<path class="st17" d="M841.8,729.4c0,2.3,0,12.4,0,12.4"/>
		<path class="st17" d="M868.9,730.6c0,2.3,0,12.4,0,12.4"/>
		<path class="st17" d="M863.9,730.6c0,2.3,0,12.4,0,12.4"/>
		<path class="st17" d="M943.7,728.4c0,2.3,0,12.4,0,12.4"/>
	</g>
	<g id="сонетка_4_">
		<path class="st5" d="M986.5,705.5H824.7v17.8c0,0,0,0.2,0,0.3c0,2.3,36.2,4.1,80.9,4.1c44.7,0,80.9-1.8,80.9-4.1
			c0-0.1,0-0.3,0-0.3V705.5z"/>
		<ellipse class="st5" cx="905.6" cy="705.7" rx="80.9" ry="4.1"/>
		<path class="st17" d="M839,710.7c0,2.3,0,12.4,0,12.4"/>
		<path class="st17" d="M849.4,711.6c0,2.3,0,12.4,0,12.4"/>
		<path class="st17" d="M876.5,712.8c0,2.3,0,12.4,0,12.4"/>
		<path class="st17" d="M871.5,712.8c0,2.3,0,12.4,0,12.4"/>
		<path class="st17" d="M951.3,710.7c0,2.3,0,12.4,0,12.4"/>
	</g>
</g>
<g id="персонаж3">
	<path class="st17" d="M1069.1,569.1c0.3-2.7,2.6-2.9,2.6-6.7c0-3.8-1.6-7-2.1-9.2c-1.3-5.7,5.1-15.3-8.1-17.7
		c-2.2-0.4-4.3-6.6-14.1-8.1c-45.3-7.1-35.9,15.6-35.9,15.7c0,0,0,0,0,0l0,0c0,0.7-0.4,1.3-1,1.8c-2.1,1.5-3.6,4.7-3.6,8.3
		c0,1.1,0.1,2.1,0.4,3.1c0.3,1.3,0,2.7-0.9,3.8c-1.6,2-2.7,4.9-2.7,8.2c0,1.3,0.2,2.6,0.5,3.8c0.4,1.4,0.1,2.9-0.7,4.1
		c-1.3,2.1-2.1,4.8-2.1,7.8c0,6.6,3.9,11.9,8.7,11.9c0.6,0,1.3-0.1,1.9-0.3c2.3-0.7,4.7-1,6.9-0.3c1.5,0.4,3.1,0.6,4.9,0.6
		c1.2,0,2.4-0.1,3.5-0.3c0,0,0,0,0,0c8.4,1.7,20.8,4.4,28.5,2.5c2-0.5,4,0,5.9,0.9c0.5,0.2,1,0.2,1.5,0.3c5.7,1.4,9.9-3.8,8.3-11.3
		c-0.3-1.2-2-6.2-1.7-8.9c0.1-0.7,0.1-1.4,0.1-2.1C1070.2,572.9,1068.7,573.5,1069.1,569.1z"/>
	<path class="st17" d="M1051.1,791.3c0,5.6,9.8,12.4,24.5,10.1c13.4-2.1,24.5-4.5,24.5-10.1c0-5.6-10.8-9.8-23.8-13.3
		C1063.7,774.7,1051.1,785.8,1051.1,791.3z"/>
	<rect x="1027.1" y="580.7" class="st17" width="24.6" height="35.3"/>
	<path class="st25" d="M1079.4,717.1c24.1-7.4,56.1-22.4,57.7-1.1c1.6,21.2-84.1,76.5-90.8,70.2c-6.7-6.3-124.9-64.2-104.4-81.8
		c9.9-8.6,33.5-1.1,58.2,16.3C1024.8,738.1,1079.4,717.1,1079.4,717.1z"/>
	<path d="M1051.7,582.2v14.6c-0.3,0.2-0.8,0.4-1.3,0.6c-7,3.1-15,3.1-22.1,0c-0.5-0.2-0.9-0.4-1.3-0.6v-14.6H1051.7z"/>
	<path class="st26" d="M1089.1,636.9l-6,100.1h-87.5l-6-100.1c0-18.3,14.9-33.2,33.2-33.2h4.3c0,4,5.5,7.3,12.3,7.3
		c6.8,0,12.3-3.3,12.3-7.3h4.3C1074.3,603.7,1089.1,618.6,1089.1,636.9z"/>
	<path class="st17" d="M981.9,650.4c0,0-10.4,28.4-10,35.6c0.3,7.3,22.5,36,22.5,36s12.1-17.8,11.7-18.3
		c-0.3-0.6-11.6-13.5-14.1-19.9c-2.5-6.4,7.2-23.8,7.2-23.8L981.9,650.4z"/>
	<path class="st17" d="M1098.4,650.4c0,0,10.4,28.4,10,35.6c-0.3,7.3-22.5,36-22.5,36s-12.1-17.8-11.7-18.3
		c0.3-0.6,11.6-13.5,14.1-19.9c2.5-6.4-7.2-23.8-7.2-23.8L1098.4,650.4z"/>
	<path class="st17" d="M1060.5,560.2v15.7c0,9.7-7.9,17.6-17.6,17.6h-7.1c-9.7,0-17.6-7.9-17.6-17.6v-14.7"/>
	<path class="st26" d="M1007.6,607.4c-20.4,10.3-27,36.5-28.7,42c-1.7,5.6,16.5,18.1,19.3,16c2.8-2.1,10.4-21.1,10.4-21.1"/>
	<path class="st26" d="M1071.3,607.4c20.4,10.3,27,36.5,28.7,42c1.7,5.6-16.5,18.1-19.3,16s-10.4-21.1-10.4-21.1"/>
	<path class="st24" d="M981.2,768.3c29.6,24.7,59.3,38,66.2,29.6c6.9-8.3-11.5-35.1-41.1-59.7c-29.6-24.7-57.3-41-64.9-33.4
		C932.2,714.1,951.5,743.6,981.2,768.3z"/>
	<path class="st17" d="M1033.1,794.8c0,5.6-5.9,8.2-22.8,8.6c-13.5,0.4-26.2-3.1-26.2-8.6s10.3-12.7,23.8-13.3
		C1038.3,780,1033.1,789.2,1033.1,794.8z"/>
	<path class="st24" d="M1095.7,770.7c-29.6,24.7-59.3,38-66.2,29.6c-2.7-3.3-3.8-15.3,0.3-20c4.4-5.2,23.4-23.5,40.9-39.8
		c28.3-26.2,56.6-39.4,64-31.6C1144.4,719.2,1125.4,746,1095.7,770.7z"/>
	<path class="st5" d="M1087.9,735.4h-97.1l-2-63c0-3.3,2.6-5.9,5.9-5.9h89.3c3.3,0,5.9,2.6,5.9,5.9L1087.9,735.4z"/>
	<path class="st5" d="M1086,739.9h-93.4c-1,0-1.8-0.8-1.8-1.8V735h97.1v3.1C1087.9,739.1,1087.1,739.9,1086,739.9z"/>
	<ellipse cx="1030.9" cy="562.4" rx="1.6" ry="3.4"/>
	<ellipse cx="1045.9" cy="562.4" rx="1.6" ry="3.4"/>
	<path class="st11" d="M1036.5,560.5c-3.4,8.9-4.3,11.6-3.4,13.1s4.4,2.3,4.4,2.3"/>
	<path class="st11" d="M1031.3,580.9c-0.2-0.6,0.4-1.2,1-1.1c4.6,1,11.5-0.3,13.2-0.3c2.4,0,0.5,5.6-7.6,5.3
		C1033.2,584.7,1031.7,582.5,1031.3,580.9z"/>
	<path class="st17" d="M1058,576.4c2.2,0.7,7.2-2.4,8.8-7c1.6-4.6-1-8.8-3.2-9.5c-2.2-0.7-5.2,2.4-6.7,6.9"/>
	<path class="st17" d="M1020.1,576.4c-2.2,0.7-7.2-2.4-8.8-7s1-8.8,3.2-9.5c2.2-0.7,5.2,2.4,6.7,6.9"/>
	<path class="st11" d="M1018.2,561.2c4.4,0,10.8-3.1,11.2-6.8c0.5-5.6,6.4-8,8.5-8c3.8,0,9.4-4,9.4-3.7c0,4.3,1.3,5.8,4.9,6.8
		c1.1,0.3,1.7,1.4,1.7,2.5c0,0,0,0,0,0c0,5.1,1.9,8.5,6.6,8.5"/>
	<path class="st17" d="M1065,568.2c0.9-2.6-0.6-5-1.8-5.4"/>
	<path class="st17" d="M1013.3,568.5c-0.9-2.8,0.6-5.3,1.9-5.8"/>
	<path class="st11" d="M1029.5,800.3c-2.7-3.3-4.5-18.3,3.1-22.6c3.3-1.9,20-22.1,38-37.1"/>
	<circle class="st27" cx="1038.5" cy="699.5" r="6.3"/>
</g>
<g id="персонаж1">
	<path d="M223.4,399.4c0,7.5-1.6,13.6-5.3,13.6c-3.7,0-9.6-8.4-9.6-15.9c0-13.1,4.3-19,10.5-19C229.1,378.1,223.4,391.9,223.4,399.4
		z"/>
	<path class="st17" d="M364.8,457c-3.4-5.5-2.9-9.9-8-8.9c-2.5,0.5-5.6,1.9-8.1,3.5c-0.2-2.6-1.2-6.8-1.9-8.3
		c-1-2.1-3.3-2.5-2.6,1.8c0.5,3-1,5.3-1.3,8.4c-0.3,3.1-1.1,6.1-2.6,8.9c-1.1,2-2,3.7-2.3,3.9c-0.6,0.6,4.6,12.7,4.6,12.7
		c2.3-2.6,5.8-8.5,11.2-10.2C359.2,467.1,368.2,462.6,364.8,457z"/>
	<path class="st17" d="M250.8,437.8v-20.5h-30.1v33.4h2.7c1,6.3,10.5,11.2,22.1,11.2c12.3,0,22.2-5.5,22.2-12.3
		C267.7,444,260.5,439.1,250.8,437.8z"/>
	<path class="st28" d="M257.5,779.1c-0.7,2.1-0.3,8.1-0.3,8.1h-8.7l-1.2-8.1H257.5z"/>
	<polygon class="st28" points="208.2,777.7 208.5,784.6 219,784.7 	"/>
	<path class="st17" d="M266.2,789.5l-2.4,0.8c-0.8,0.2-1.6,0.3-2.4,0.2c-3-0.5-3.2-3.2-3.8-6.1l-1.2,0H247v4v3.8v9.5
		c0,1.6,1.3,2.9,2.9,2.9h31.2c1.1,0,2.1-0.9,2.1-2.1v-0.8c0-0.3,0-0.6,0-0.9C282.5,792.4,274.1,787,266.2,789.5z"/>
	<path class="st5" d="M283.1,558.8c0.4,3.7,1.8,63.4-2.9,120.5c-4.1,49.1-14.4,97-14.8,97.7c-0.7,1.6-22.4,12.3-24.5,5.4
		c-0.9-3-2.2-65.1,4.7-113.2c-4.7-62.3-4.4-113.1-4.4-113.1L283.1,558.8z"/>
	<path class="st6" d="M204,559.7c0.9,8.9-5.4,43.7-0.7,110.7c0.7,9.8-3.2,105,0,107.3s21.1,9.4,25.3,0s13.9-102.9,15.7-110
		S262.1,551,262.1,551L204,559.7z"/>
	<path class="st24" d="M337.5,463.6c-1.3-3.3-31.8,22.3-31.8,22.3s0.5,2.7-4.7-6.9c-5.1-9.6-22.6-39.4-42.2-41
		c-1.3-0.2-2.7-0.3-4.1-0.3l-3.3-0.3c5.1,6.7,1,10.1-1.1,12.6c-2.1,2.5-21.3-2.6-28.1-8.3c-1.6-1.3-2.1-2.5-1.9-3.6
		c-4.6,0.7-8.8,2.3-12.5,4.8c-4,2.7-8.1,5.4-12.3,7.9c-26.2,16.3-59.1,43.4-55.5,53.1c4.5,12.1,54.6,53.4,54.6,53.4l-1.4,24.5
		c-0.2,2.9,2.6,5.1,5.4,4.4l88.9-23.7l-1.2-42c3.3,3.8,7.8,8.1,12.4,10.2c9.2,4.2,47.6-48.9,47.6-48.9S338.8,466.9,337.5,463.6z
		 M178.3,505.6l16.3-9.1v31.4L178.3,505.6z"/>
	<path class="st17" d="M197,551.1c3.8,4,5.7,8.5,17.2,3.6c10.7-4.6,15.1-6.5,18.5-7.1c3.4-0.6,1.4-8-3-9s-15.4-2.9-20.6,3.2
		s-8.3-0.2-8.3-0.2L197,551.1z"/>
	<path class="st11" d="M194.6,497"/>
	<path class="st11" d="M194.6,527.9"/>
	<line class="st11" x1="285.2" y1="486.8" x2="287.4" y2="562.4"/>
	<line class="st4" x1="214.9" y1="783.3" x2="214.9" y2="800"/>
	<path d="M250.8,417.3v15.6c-0.5,0-25.8,0.6-30.1-12.8c-0.2-0.7-0.6-1.4-0.8-2.2l0.8-0.5H250.8z"/>
	<path class="st17" d="M247.5,426.7h-13.7c-8.6,0-15.6-7-15.6-15.6v-21.6c0-3.3,2.7-5.9,5.9-5.9h29.9c3.3,0,5.5-0.6,5.5,2.7
		l0.4,27.8C260.1,421,254.5,426.7,247.5,426.7z"/>
	<path d="M224.5,398c0.2-1.5,0.9-2.8,1.9-4c1.8-2,3.7-8.4,8-7.7c5.5,0.9,16.1-2.1,23.4,1c12.1,5.2,14.9-24.3,6.6-17.1
		c-7.8,6.8-17.1-5-27.2-2.8c-39.4,8.6-14.3,44.2-14.3,44.2L224.5,398z"/>
	<path class="st17" d="M222.9,411.5c-2.8,1.4-6.6-0.7-8.5-4.5c-1.9-3.9-1.1-8.1,1.7-9.5s6.6,0.7,8.5,4.5"/>
	<ellipse cx="254.6" cy="397.5" rx="1.5" ry="2.7"/>
	<ellipse cx="241.3" cy="397.5" rx="1.5" ry="2.7"/>
	<path class="st17" d="M250.2,402c3.1,3.8,6.6,5.6,4.4,7.2c-2.2,1.6-4.4,2.6-4.4,2.6"/>
	<path class="st11" d="M242.8,391.2c-3.7-1.3-7.1,0.9-7.5,1.8"/>
	<path class="st11" d="M253.2,390.6c2.7-0.6,5.1,0.2,5.6,1.2"/>
	<path class="st17" d="M202.3,797c3.3-5.4,6.3-13.7,6.3-13.7h11l4.8,10.5L202.3,797z"/>
	<path class="st17" d="M239.9,413.2c4.1,3.8,11.3,4.5,11.7,3.7"/>
	<path class="st5" d="M225.5,804.5h-21.9c-1.4,0-2.6-1.2-2.6-2.6l0,0c0-7.5,6.1-13.5,13.5-13.5h0c7.5,0,13.5,6.1,13.5,13.5l0,0
		C228.1,803.3,227,804.5,225.5,804.5z"/>
	<path class="st11" d="M202.7,584.3c-0.9,31.6-1.1,81.9,0.3,88.8c2,9.6-2.9,102.3,0.2,104.6s21.1,9.4,25.3,0s13.9-102.9,15.7-110
		c1-3.9,6.1-37.5,10.6-67.7"/>
	<path class="st17" d="M215.9,404.9c-1.2-2.1-0.5-4.4,1.1-5.2c1-0.5,2.1-0.3,3.2,0.3"/>
	<path class="st17" d="M220.7,438.1c-0.4,7.3,25.1,15.4,30.1,11.4s2.6-11.4,0-12.5"/>
	<g>
		<line class="st6" x1="335.9" y1="374.9" x2="363.8" y2="514.3"/>
		<path d="M336.4,374.8l31.2,138.7c0.5,2.1-0.8,4.1-2.9,4.6c-2.1,0.5-4.1-0.8-4.6-2.9c0-0.1,0-0.1,0-0.2l-24.7-140
			c0-0.3,0.1-0.5,0.4-0.6C336.1,374.4,336.3,374.5,336.4,374.8z"/>
	</g>
	<polyline class="st11" points="194.6,557.2 202.2,538.2 178.3,505.6 206.2,489.9 	"/>
	<path class="st17" d="M353,449.3c-6.4,5.3-1.5,15.1,3.7,15.4c5.1,0.3,6.3-0.6,6.3-0.6"/>
</g>
<g id="персонаж2">
	<path class="st17" d="M455.8,68.9c3.1-8.3,1.5-11.1-0.1-15.3c-1.6-4.2-1.1-6.1,4.5-7.7c7.5-2.2,14,2.7,12.5,7
		c-1.3,3.4-3,4.6-3.4,8.7c-0.4,4,1.6,7.9,1.6,7.9L455.8,68.9z"/>
	<path class="st17" d="M583.3,162.4c0.1-7.2,2.4-6-1.7-12.6c-1.4-2.2-1.3-4.6-1.8-6.6c-1-3.9-0.5-6.9,3-7.7c3.9-1,9.7-0.5,13.4,2.8
		c1.3,1.1,1.7,4.7,1.8,6.3c0.6,6.1-1.8,3.4-3.7,16.4C593.9,163.8,583.3,162.4,583.3,162.4z"/>
	<path class="st6" d="M582.8,136.5c1.5,13.8,1.2,4.8,5.5,8.7c2.4,2.2,5-0.4,6.7,0.6c1.6,1,2.4,0.4,2.9-0.3c1.7-2.3-0.6-6-0.6-6"/>
	<path class="st17" d="M559,103.8c-6.9-5.9-25.2-9.7-33.9,2.6c-4.8,6.7-7,17.8-18.3,23c-11.3,5.3-14.9,17.9-14.3,27.1
		c2.6,41.2,45.3,31.2,54.8,27.6c9.6-3.6,13.3-21,13.7-28.8c0.9-15.8,9.7-21.3,8.6-36.2c-0.5-6-1.7-11.2-4.1-13.2
		C562.6,103.6,559,103.8,559,103.8z"/>
	<path d="M369.7,316.3c5.4,0,13,0.6,13,0.6s2.1,13.4-2.1,12.5s-10.8-4.1-10.8-4.1V316.3z"/>
	<path class="st24" d="M581.4,157.1c-11.6-1.1-4.7,20.3-6,25.7c-1.2,4.9-13.3-11.4-24.8-19.9c-1.6-1.2-3.1-2.4-4.4-3.9
		c-3.7-4.3-17.5-10.2-24.2-10l11,10.2c0,0,9.7,7.7,13.2,6.3l-6.2,33c0,0,34.9,12.5,43.2,16.1s15.9-35.1,16.5-44.1
		C600.4,161.3,593,158.2,581.4,157.1z"/>
	<path d="M524.2,418.6c0.3,1.7,3.5,10.3,3.5,10.3h4.6L524.2,418.6z"/>
	<path class="st29" d="M363.7,311.8l8.8,3.5l4.5,1l-4.2,8.3c-4.2,8.3-10.7,15.3-18.7,20.1h0c-1.4,0.8-3-0.5-2.5-2l4.5-13.6l5.3-16.2
		C361.8,311.9,362.8,311.4,363.7,311.8z"/>
	<path class="st17" d="M519.7,268.1c-7.6,18.6-35,81.1-43.4,83.3c-15.8,4.2-98.1-17.3-97.5-20.9c0.6-3.6-7.1-20.2,4.5-20.8
		c60.8-2.9,69.9,24.5,74.1,9s16.5-59.5,16.5-59.5L519.7,268.1z"/>
	<path class="st17" d="M465,258.1c0.3,11,38.8,65.3,38.8,78.1c0,12.8,16,85.6,16,85.6s19.7,8,20.3,1.8c2-20.5-1.6-79.4-4.1-91.8
		c-6-29.8-31.9-78.1-31.9-78.1L465,258.1z"/>
	<path class="st17" d="M557,132.3c0.3-5.1,8.5-7.1,8.7-1.2c0.1,2.1-0.5,4.1-1.7,5.8c-1.3,1.7-3.4,2.4-5.5,1.8"/>
	<polygon class="st17" points="550.4,141.9 548.5,147.8 545.8,156.5 540.8,172.2 525.1,161.4 533,136.4 	"/>
	<path d="M542.4,219.6c-4.2,10.5-5.6,15.3-11.2,25.1L522,265c-1.7,3.8-5.6,5.9-9.6,5.5c-3.2-0.3-6.5-0.6-9.7-0.5l-50.4,2.3
		l-3.2-30.2l39.1-78.5c1-3.2,3-6,5.7-8.5c8.2-7.7,21.2-9,31-5.9l0.5,0.1c1.9,0.5,3.7,1.6,4.6,3.3c3.3,6,11,12,12.9,10.9
		c1.2-0.6,1.8-2.2,2.1-3.5c3.8,4.3,6.2,9.8,6.9,15.6C553.6,191.8,546.3,209.7,542.4,219.6z"/>
	<path d="M548.5,147.8l-2.8,8.7c-3.5-2.2-9.2-7.9-14.2-14.8c0,0,14.9,3.9,15.2,4.1C546.9,145.9,547.6,146.8,548.5,147.8z"/>
	<path class="st29" d="M525.4,438.6l0.4-8.9l-0.5-4.6l9.2,1.2c9.2,1.3,18,5.1,25.1,11.1l0,0c1.2,1,0.5,3-1.1,3.1l-14.3,0.2
		l-16.5,0.3C526.4,441,525.4,439.9,525.4,438.6z"/>
	<path class="st17" d="M565.9,127l-3.8,12c-2.4,7.5-10.5,11.7-18,9.3l-6-1.9c-6.3-2-9.8-8.8-7.8-15.1l4.2-13.4"/>
	<ellipse transform="matrix(0.3022 -0.9533 0.9533 0.3022 267.9387 623.3694)" cx="559.7" cy="128.7" rx="2.2" ry="1.2"/>
	<ellipse transform="matrix(0.3022 -0.9533 0.9533 0.3022 262.5043 608.6061)" cx="546.9" cy="125" rx="2.2" ry="1.2"/>
	<path class="st17" d="M544.7,135.1c-1.3,5.2,2.6,7.2,4.2,7.6c2,0.5,6-2.9,4.1-3.2C545.5,138.4,544.7,135.1,544.7,135.1z"/>
	<path class="st17" d="M554.4,126.7c1.4,2.9,4.2,8.8,2.7,8.9c-1.7,0.1-3.9-0.7-3.9-0.7"/>
	<path class="st17" d="M533.9,128.6c-2.2,0.5-4.5-0.5-5.8-2.4c-1.2-1.9-1.7-4.1-1.4-6.4c1.5-6.2,9.3-3.7,9.3,1.9"/>
	<path class="st17" d="M565.3,119.1c-3.6,3.1-26.8,1.8-29.3,1.7"/>
	<path class="st17" d="M566.1,126.7c0,0-1-2.5-0.6-7.9"/>
	<path class="st17" d="M528.2,120.6c0.3-3.6,4.1-3.1,5.7-0.8"/>
	<path class="st24" d="M531.3,153.9c-1.4-2.5-1.7-3.6-6.4-5.2l0,0c-0.3-0.1-0.6-0.2-1-0.3c-1.4-0.4-2.6-1.1-3.9-1.7
		c-0.1,0-0.2-0.1-0.3-0.1c-6.9-2.4-41-28.5-46.1-31.1c-5.1-2.6-2.7-34.1,0.1-44.2c2.8-10.1-12.8-5.4-18-5.1
		c-5.2,0.3-7.2,44.4-3.7,55.4c3.1,10.1,29.5,31.8,35.9,42.7c-0.4,0.5-0.7,0.9-1.1,1.2c-4,3.3-38.2,70.5-54.6,78.7
		c-16.4,8.2-3.1,33.3,4.8,38.6c7.9,5.4,23.7,3.1,47.1-13.3c2.2-1.5,4.3-3.6,6.3-6.1c19.4-23.7,30.3-85.8,41.2-109.2
		C531.5,154.5,531.4,154.3,531.3,153.9z"/>
	<path class="st17" d="M467.4,43.7c-0.3-0.7-1.6-0.5-2.7-0.2c-0.7,0.2-1.5,0.1-2.2,0c-1.9-0.4-6.8,3-7.5,3.2c-0.4,0.1-1.2,1-1,1.6
		c0.1,0.5,2.5,4.9,3.4,5.5c0.6,0.4,5.7-0.1,6.5-0.1c0.8,0,2.1-0.9,2.8-0.5C468.2,54.1,468.3,45.7,467.4,43.7z"/>
	<path class="st17" d="M464.9,56.8c0.1-2.4,4.7-5.5,3.2-7.7c-0.9-1.3-3.4-2.1-1.9-4c1.3-1.6,6.7,3.1,7,4.6s-2.7,7.4-2.9,7.7"/>
	<path class="st11" d="M582.8,135.4c1.5,13.8,1.2,5.9,5.5,9.8c2.4,2.2,5-0.4,6.7,0.6c1.6,1,2.4,0.4,2.9-0.3c1.7-2.3-1.6-7.3-1.6-7.3
		"/>
	<path class="st6" d="M587.9,147.7c-0.8-2.3-4.2-4.2-3.7-6.2c0.5-2-1.5-7-3.6-8.2s-1.1,6.5-1,7.7l1.8,4.1l5.8,3.2"/>
	<path class="st11" d="M587.9,147.7c-0.8-2.3-4.2-4.2-3.7-6.2c0.5-2-1.2-7.6-3.6-8.2c-2.4-0.7-1.5,6.6-1,9"/>
</g>
<g id="раст">
	<path class="st11" d="M561.3,762.5c7.5,15.4,8.6,36.2,8.6,36.2v-50.3"/>
	<path class="st11" d="M585.4,763.9c-8.9,5.7-15.6,33.4-15.6,33.4"/>
	<path class="st30" d="M569.1,724.2c5.2-6.4,11.7,20.1,4.5,23.6C560.8,753.9,563.2,731.5,569.1,724.2z"/>
	<path class="st30" d="M585,764.2c-1.1-4.2,14.4-5.3,16.2,4c1.9,9.3-9.5,3.1-11.4,1.6C588,768.4,585.6,766.6,585,764.2z"/>
	<path class="st30" d="M561.4,763.9c-5.5,2.8-12,8.5-15,3.9c-3-4.5,3.5-10.3,8.8-9.5C560.5,759,563.6,762.8,561.4,763.9z"/>
	<path class="st11" d="M560.5,762.4c-5.2-3.2-10.4-1-12,2.9"/>
	<path class="st11" d="M570.1,727.3c-2.6,9.8-0.5,21-0.5,21"/>
	<path class="st11" d="M586,763.9c7.6-0.8,10.6,2.4,12.5,6"/>
</g>
<g id="раст2">
	<g>
		<path class="st4" d="M310.2,651.1c50.1,85,42.9,130.4,42.9,130.4s-9.4-121.2,3.8-133.9"/>
		<path class="st4" d="M383.3,654.3C369,700.5,353.6,756,352.9,778.8"/>
		<path class="st5" d="M336,661.9c4.7,15.7,11.6,36.3,1.5,44.2c-3.6,2.9-17.2-4.2-35.9-27.6c-13.5-16.9-9.4-39,0.1-43.7
			C311.2,630.4,329.9,641.2,336,661.9z"/>
		<path class="st5" d="M373,656c-3.7,12.4-9.2,28.6-1.2,34.9c2.8,2.3,13.6-3.3,28.4-21.8c10.7-13.4,7.4-30.8-0.1-34.4
			S377.9,639.6,373,656z"/>
		<path class="st5" d="M342.4,613.5c-0.4,16.4-1.7,38,10.2,43.1c4.2,1.8,15.5-8.6,27.4-36.1c8.6-19.9-1.2-40.1-11.6-42.1
			S342.9,591.8,342.4,613.5z"/>
		<path class="st17" d="M304.5,641.7c1.7,11.8,33.1,64.5,33.1,64.5"/>
		<path class="st17" d="M362.7,590.5c-11,19.7-11,62-10.2,66.1"/>
		<path class="st17" d="M395.8,641.3c-11.8,11.3-22.3,38.5-23.5,49.9"/>
	</g>
	<path class="st5" d="M382.3,798.7h-50.7c-1.3,0-2.4-0.9-2.5-2.1l-1.7-39c-0.1-1.2,1.1-2.2,2.5-2.2H384c1.4,0,2.5,1,2.5,2.2l-1.7,39
		C384.7,797.8,383.6,798.7,382.3,798.7z"/>
	<path class="st5" d="M388.8,761.6H325c-1.3,0-2.4-0.7-2.6-1.7l-3-13.1c-0.3-1.3,0.9-2.4,2.6-2.4h69.9c1.6,0,2.9,1.2,2.6,2.4
		l-3,13.1C391.2,760.9,390.1,761.6,388.8,761.6z"/>
</g>
<path class="st10" d="M395.8,351.9c47.7,21.6,72.2,13,72.2,13"/>
</svg>
