<?xml version="1.0" encoding="utf-8"?>
<!-- Generator: Adobe Illustrator 26.0.3, SVG Export Plug-In . SVG Version: 6.00 Build 0)  -->
<svg version="1.1" xmlns="http://www.w3.org/2000/svg" xmlns:xlink="http://www.w3.org/1999/xlink" x="0px" y="0px"
	 viewBox="0 0 800 200" style="enable-background:new 0 0 800 200;" xml:space="preserve">
<style type="text/css">
	.st0{display:none;}
	.st1{display:inline;}
	.st2{fill:#D62228;}
	.st3{fill:#2A2C2B;}
	.st4{fill-rule:evenodd;clip-rule:evenodd;fill:#08555C;}
	.st5{fill:#FFFFFF;}
	.st6{fill:#516D9B;}
	.st7{fill:#6DC0F3;}
	.st8{fill:none;stroke:#516D9B;stroke-width:2.6241;stroke-miterlimit:2.6067;}
	.st9{fill:#2F90E0;}
	.st10{fill:#FC3F1D;}
	.st11{fill:#D81920;}
	.st12{fill:#E77579;}
	.st13{fill:#F1B1B4;}
	.st14{fill:#EB888B;}
	.st15{fill:#F1B2B5;}
	.st16{fill:#F1ADAF;}
	.st17{fill:#D92027;}
</style>
<g id="Слой_1" class="st0">
	<g class="st1">
		<g id="Слой_1_00000142153933463888405880000002207216611392544422_">
			<g>
				<g id="Слой_2_00000073706243687009792460000009146998599523529127_">
					<g id="Слой_1-2_00000061472660925400809300000012090763883339512235_">
						<path class="st2" d="M125.9,66c0,18.1-6.8,35.6-19.2,48.8C91.9,130,72,129.9,58.2,114C42.1,96.5,36.3,71.9,42.8,49
							c4-19.8,22.1-33.7,42.4-32.3c19.3,0.6,35.7,14.5,39.3,33.7C125.6,55.5,126.1,60.8,125.9,66z"/>
						<path class="st2" d="M130.5,103.6c5.4-18.7,5.7-38.3,0.9-57.2c-2.5-11.9-8.5-22.6-17.3-30.9C92.5-5.7,59.3-2.4,44.3,23.8
							c-17.2,28.9-18.2,64.8-2.8,94.6c8.5,17.6,22.7,23,42.2,18.9c4.6-0.9,9.3-2,12.8,2.2c1.9,2.5,2,5.9,0.3,8.5
							c-2.2,4.5-7.1,7-12.1,6.2c-21.3-0.6-34.8-13.1-45-30c-0.9-1.4-1.5-2.8-2.2-4.3c-2.2-10-9.9-17.9-19.8-20.1
							C6,96.8,1.5,86.1,2.3,72.8c-0.2-11.7,7.7-22.1,19-25.2c4.2-0.8,7.6-4,8.3-8.2C36.9,14.7,54.8,0.8,78.3,0
							c28.4-0.8,47.5,10.8,56.7,36c1.4,5.9,5.9,10.5,11.6,12.1c12.2,3.7,18.5,16.7,17.3,30.6c-1.5,12.4-11.3,22.1-23.5,23.6
							C137.7,103.1,134.9,103.1,130.5,103.6z"/>
						<path class="st2" d="M458.3,41.9H469v21.7h22.8c1.7-7.1,0-14.4,1.1-21.7h11.8v59h-12.4V76h-21.7v24.5c-4,0.8-8.2,1.1-12.4,0.6
							L458.3,41.9z"/>
						<path class="st2" d="M445.7,70.7c0,19.2-10.2,30.1-28.1,30c-17.9-0.2-27.7-10.8-27.8-29.7c-0.2-18.9,9.9-30.3,27.8-30.3
							C435.5,40.7,445.6,51.2,445.7,70.7z M433.3,70.8c0-12.8-4.6-19.2-14.4-19.5c-9.6-0.2-14.1,4.6-15.1,14.2
							C402.3,79.5,406,88,414.6,90h2C427.5,91.2,433.3,84.4,433.3,70.8L433.3,70.8z"/>
						<path class="st2" d="M566.8,99.3h-12.4V76h-23.3v24.8h-12.4V43.5c4-0.6,8.2-0.8,12.4-0.5v20.6h23.3V41.9h12.4V99.3z"/>
						<path class="st2" d="M625.8,41.9h10.9v25.7l2.5,0.5c4.3-5.7,9.2-11.3,13-17.3c4.5-7.1,9.8-11.6,19.2-7.9l-20.6,26.9l21.7,29.4
							c-9,2.3-15.1,0.8-19.6-7.3c-4.5-7.1-14.7-20.7-14.7-20.7v28.2h-12.4V41.9z"/>
						<path class="st2" d="M385.1,99.5c-7.8,3.3-16.8-0.3-20-7.9c-4.5-7-14-20.3-14-20.3v28.1h-12.4V41.9h12.4v28.4
							c4.5-6.7,9.6-13.5,14.3-20.6c3.4-7,11.6-9.9,18.8-7c-5.7,7.9-11.6,15.7-17.4,23.3c-2.3,2.2-2.3,5.9-0.2,8.2c0,0,0,0,0.2,0.2
							C372.3,82.2,378.5,90.6,385.1,99.5z"/>
						<path class="st2" d="M582.3,99.3V41.9H615c0.8,3.6,0.8,6.7,0,9.3h-21.9v12.4H613c1.2,4.2,1.4,7.8,0.5,10.9h-18.8v14h19.9
							c2.3,3.6,0.8,7.1,1.6,10.9H582.3z"/>
						<path class="st2" d="M285,87.5c0.9,11,0.9,11-8.5,12.4c-15.1,2-25-2-30.1-12.7c-5.7-12.5-3.6-31.1,5.1-39.4s23-9.6,35.9-2.8
							c-0.6,3.4-1.9,6.5-3.9,9.3c-8.5-2.9-17-6.8-24,2.3c-4.6,8.7-4.6,19-0.3,27.7C263.3,90.9,269,91.5,285,87.5z"/>
						<path class="st2" d="M702.7,99.3h-11.8V52.8h-15.2c-2.2-3.9-0.8-7.3-1.2-10.9h43.7c0.9,2.9,1.1,6.2,0.5,9.3
							c-4.7,1.9-9.8,0-15.3,1.4L702.7,99.3z"/>
						<path class="st2" d="M226.9,99.3h-12.4V55.7l-11.3,7.9l-6.1-7.4c9.9-5.4,15.4-17.3,29.8-14.5V99.3z"/>
						<path class="st2" d="M310.8,81.6c-5.1-0.2-9.1-4.3-9-9.4c0.2-4.8,4.2-8.7,9-8.5c0.3,0,0.5,0,0.8,0c4.5-0.2,8.2,3.2,8.5,7.6
							c0,0.5,0,0.9,0,1.2c0.2,4.8-3.6,8.8-8.2,9C311.4,81.6,311.1,81.6,310.8,81.6z"/>
					</g>
				</g>
			</g>
		</g>
	</g>
</g>
<g id="Слой_2" class="st0">
	<g class="st1">
		<g id="Слой_2_00000009549598216092992130000005693938174734441350_">
			<g>
				<g id="surface1_00000088100883743320731890000003774678917178836111_">
					<path class="st3" d="M283.1,50.8c8.7,0,15,1.8,15,12.1s-6.3,12.1-15,12.1h-15.9V50.8H283.1z M254.2,37.6
						c-2.4,0-4.1,1.8-4.1,4.3v56.8c0,2.3,1.9,4.2,4.2,4.2h8.7c2.4,0,4.3-1.9,4.3-4.2V88.1l23.4,0c14.1,0,25.7-11.4,25.7-25.5
						c-0.1-17.4-10.2-25.1-27.4-25.1L254.2,37.6L254.2,37.6z"/>
					<path class="st3" d="M355,49c13.7,0,18.9,7.6,18.9,21.3s-5.4,21.3-18.9,21.3c-13.6,0-18.9-7.6-18.9-21.3S341.5,49,355,49z
						 M319.4,70.3c0,23.7,13,33.4,35.8,33.4c22.8,0,35.8-9.5,35.8-33.4s-13-33.4-35.8-33.4C332.4,37.1,319.4,46.6,319.4,70.3z"/>
					<path class="st3" d="M397.1,96.4c0,3.6,2.1,5.7,5.9,5.7h5.2c3.3,0,6-2.7,6-6v-2.3c0-3.6-2.1-5.7-5.9-5.7h-5.2c-3.3,0-6,2.7-6,6
						V96.4z"/>
					<path class="st3" d="M424.3,98c0,2.2,1.8,4.2,4.2,4.2h37.7c12.3,0,23.2-6.4,23.2-18.9c0-5.9-2.5-11.4-8.5-14.6
						c4.5-3.6,5.9-7.1,5.9-11.6c0-13.1-11.6-18-22.7-18h-35.7c-2.4,0-4.2,1.9-4.2,4.2V98L424.3,98z M465.6,50.9
						c3.7,0,6.3,2.3,6.3,6.5s-2.5,6.5-6.3,6.5h-24.1V50.8h24.1V50.9z M467.1,75.7c4.8,0,7.2,3.1,7.2,7.8c0,4.7-2.3,7.8-7.2,7.8
						h-25.7V75.7H467.1z"/>
					<path class="st3" d="M518.6,102.1h8.9c2.3,0,4.2-1.9,4.2-4.2V79.7l24.4-36.4c1.3-2.1,0.7-4.2-1.6-4.2h-8.8
						c-3.7,0-6.4,1.8-7.9,4.2l-14.7,22l-14.7-22c-1.6-2.4-4.2-4.2-7.9-4.2h-8.6c-2.4,0-3,2.1-1.6,4.2l24.4,36.4v18.4
						C514.4,100.3,516.3,102.1,518.6,102.1z"/>
					<path class="st4" d="M135,22h98v98h-98V22z"/>
					<path class="st5" d="M170.1,65.9c4.5,0,8.2-6,8.7-13.7c0-0.4,0.1-1,0.1-1.5l-1.3,1.9c0.7-2.1-1.9-7.3-1.9-7.3
						c-4.6,4-11.5,0-11.5,0c-2.1,1-1,8.1-1,8.1c-0.4-0.4-1-0.6-1.3-0.7C162,60,165.6,65.9,170.1,65.9z"/>
					<path class="st5" d="M152.5,72.6h-4.2c-1.3,0-2.2,1-2.2,2.2l4.6,21.2c0,1.2,1,2.2,2.2,2.2h34c1.3,0,2.2-1,2.2-2.2l4.6-21.2
						c0-1.2-1-2.2-2.2-2.2H152.5z M169.9,86.3c-0.7,0-1.2-0.6-1.2-1.2c0-0.7,0.6-1.2,1.2-1.2c0.7,0,1.2,0.6,1.2,1.2
						C171.2,85.7,170.7,86.3,169.9,86.3z"/>
					<path class="st5" d="M159.9,53.3v0.3c1.2,6.9,5.2,12.2,10.2,12.2s9-5.5,9.5-12.5c0.1-0.4,0.1-1,0.1-1.5c0-0.4,0-1-0.1-1.5
						c-0.7-4.9-4.8-8.7-9.5-8.7c-4.8,0-8.8,3.7-9.5,8.7c-0.1,0.4-0.1,0.9,0.2,1.5v0.6C160.4,52.7,160.5,53,159.9,53.3z M164.1,47.8
						c0,0,6.7,3.3,11.2,0c0,0,2.7,4.2,1.9,5.8l1.3-1.6c0,0.4,0,0.9-0.1,1.2c-0.4,6.1-4,11-8.4,11s-7.8-4.6-8.4-10.7
						c0.4,0.1,0.9,0.3,1.3,0.6C163,54.2,162,48.6,164.1,47.8z"/>
					<path class="st5" d="M177.7,64c0,1.2-2.1,4.2-4,7h14.2C185.9,67.1,182.1,64.4,177.7,64z"/>
					<path class="st5" d="M171,69.1c0.9-0.4,1.6-1.3,1.6-2.4c0,0-1.3,0.6-2.7,0.6s-2.7-0.6-2.7-0.6c0,1,0.7,1.9,1.6,2.4l-0.1,1.9
						h2.4L171,69.1z"/>
					<path class="st5" d="M162.4,64c-4.5,0.4-8.2,3.1-10.1,7h13.9C164.2,68.3,162.4,65.2,162.4,64z"/>
					<path class="st5" d="M172.1,84.8c0,1.2-0.9,2.1-2.1,2.1c-1.2,0-2.1-0.9-2.1-2.1c0-1.2,0.9-2.1,2.1-2.1
						C171.1,82.7,172.1,83.6,172.1,84.8z"/>
					<path class="st5" d="M189.9,99.8h-39.8c-0.6-0.8-1-0.4-1,0.2s0.4,1,1,1.3h39.8c0.6-0.4,1-0.9,1-1.3S190.5,99,189.9,99.8z"/>
					<path class="st5" d="M173.3,72.6c0.2-0.9,0.2-1.1,0.3-1.6h-2.8v1.6H173.3z"/>
					<path class="st5" d="M168.4,72.6V71h-2.6c0.2,0.5,0.2,0.6,0.3,1.6H168.4z"/>
					<path class="st5" d="M152.4,98.2h35.3c1.3,0,2.4-1,2.4-2.4l4.8-22.5c0-1.3-1-2.4-2.4-2.4h-4.6l0.2,1.6h3.6c1.3,0,2.2,1,2.2,2.2
						L189.2,96c0,1.2-1,2.2-2.2,2.2h-34c-1.3,0-2.2-1-2.2-2.2l-4.6-21.2c0-1.3,1-2.2,2.2-2.2h3.6l0.2-1.6l-4.7,0
						c-1.3,0-2.4,1-2.4,2.4l4.9,22.5C150,97.2,151,98.2,152.4,98.2z"/>
					<path class="st5" d="M166.6,72.6c-0.2-0.9-0.2-1.1-0.3-1.6h-14.5c0,0.5-0.2,0.6-0.2,1.6H166.6z"/>
					<path class="st5" d="M170.8,72.6V71h-2.3v1.6H170.8z"/>
					<path class="st5" d="M188.3,72.6c0-0.9-0.2-1.1-0.2-1.6h-14.8c0,0-0.2,0.6-0.3,1.6H188.3z"/>
					<path class="st5" d="M217.3,62.4h-22.2c-3.1,0-6-1.9-6.7-4.9c-1-3.9,1.3-7.5,4.8-8.4c1-2.8,3.7-4.8,6.9-4.8
						c0.7,0,1.3,0.1,2.1,0.3c1.8-2.8,4.9-4.8,8.7-4.8c5.5,0,10,4.5,10.1,10c2.1,1.2,3.4,3.4,3.4,5.8
						C224.1,59.5,221.1,62.4,217.3,62.4z M195.4,50.7c-2.7,0-4.8,2.4-4.2,5.1c0.3,2.1,2.4,3.6,4.5,3.6h21c2.2,0,4.2-1.6,4.5-3.7
						c0.3-2.4-1.3-4.3-3.2-4.8c0-0.4,0.1-0.7,0.1-1.2c0-4.2-3.4-7.6-7.5-7.6c-3.4,0-6.3,2.2-7.2,5.4c-0.9-0.6-1.9-1-3-1
						C197.7,46.4,195.7,48.3,195.4,50.7L195.4,50.7z"/>
				</g>
			</g>
		</g>
	</g>
</g>
<g id="Слой_3" class="st0">
	<g class="st1">
		<g id="Слой_3_00000122685541218704655970000005695894443812054194_">
			<g>
				<g id="surface1_00000059284185944060659070000006592562493848552610_">
					<path class="st6" d="M531.7,105.4h63.8V91.3h-42c5.6-23.1,41.1-28.2,41.1-54.1c0-13.9-9.5-24-29.2-24c-12.6,0-23,3.7-30.4,7.5
						l4.4,12.9c6.6-3.2,14.3-6.1,23.6-6.1c7.5,0,14.1,3.2,14.1,11.6C576.9,58.1,535.6,59.5,531.7,105.4z M596.5,83.3h40.4v21.2h16.8
						V84.2h13.2V71h-13.2V15.4h-12.1l-45.3,57.2L596.5,83.3z M615,69.4l22.8-30.7c-0.2,2.6-0.9,10.3-0.9,17.6v12.8h-10.6
						C623.1,69,617.2,69.4,615,69.4z"/>
					<path class="st7" d="M108.6,92.1V63.9h6.8c6,0,11.1,0.7,14.6,2.7c3.7,2,5.8,5.8,5.8,11.4c0,9.5-5.8,14.1-19.2,14.1H108.6z
						 M91,105.4h24.1c26.8,0,36.7-11.8,36.7-28.1c0-11.1-4.7-18.5-12.9-22.8c-6.4-3.4-14.9-4.6-24.8-4.6h-6.4V28.6h36.4l4.4-13.2H91
						V105.4z M162.4,105.4h15.9V41h-15.9V105.4z M170.3,30.4c5.7,0,10.1-4.3,10.1-9.6c0-5.5-4.3-9.8-10.1-9.8
						c-5.7,0-9.9,4.3-9.9,9.8S164.6,30.4,170.3,30.4z M206.5,105.4h15.9V54.2h18.9l4.3-13.2h-58.5v13.2h19.4L206.5,105.4
						L206.5,105.4z M251.5,138h15v-32.4c3.1,0.9,6.2,1.5,9.7,1.5c19.5,0,32.4-14,32.4-33.7c0-20.5-11.7-33.6-34.3-33.6
						c-8.6,0-16.7,1.5-23.6,4.1l0.9,93.7V138z M267.4,91.5V53.8c2.6-0.7,4.8-1,7.7-1c11.6,0,19.2,6.5,19.2,20.2
						c0,12.5-6,20.2-18.2,20.2C272.9,93.2,270.3,92.7,267.4,91.5z M320.3,105.4h22.3c20.9,0,27.6-9.5,27.6-21.2
						c0-10.8-6.8-20.7-27-20.7c-2.1,0-4.5,0.2-7,0.3V41h-15.9V105.4z M336.2,92.1V75.5c2.1-0.2,4.3-0.3,6.2-0.3
						c10.1,0,12.3,3.6,12.3,8.4c0,4.6-1.7,8.6-12.3,8.6H336.2z M380.3,105.4h15.9V41h-15.9L380.3,105.4L380.3,105.4z M408.7,105.4
						h15.7V78h8.6c1.9,0,4,1.7,5.9,6.2l8.8,21.1h18.5l-12.5-25.2c-2.1-4.3-4.5-6.9-8.1-8.1v-0.3c5.8-3.4,6.3-12.9,9.8-17.4
						c1.2-1.4,2.7-2.2,4.8-2.2c1.2,0,2.7,0.2,3.9,0.5V40.3c-1.9-0.7-5-0.9-6.7-0.9c-5.7,0-9.4,2.1-12.2,5.7
						c-5.3,7.8-5.3,21.4-13.4,21.4h-7.4V41h-15.9v64.4H408.7z M501,106.6c8.9,0,17-2.7,22.1-6.2l-4.8-11.1
						c-4.5,2.6-8.9,4.3-14.9,4.3c-11.3,0-18.7-7.9-18.2-21.7c0.5-11.3,9.9-20,21.1-19.4c5.1,0.3,9.4,2.1,13.4,5V43.7
						c-3.4-2.1-9.2-4.3-17.3-4.3c-19.2,0-33.9,14.2-33.9,34.2C468.3,92.2,479.9,106.6,501,106.6z"/>
					<path class="st8" d="M712.1,83.1c17.3,0,31.5-14,31.5-31.5c0-17.3-14-31.5-31.5-31.5c-17.3,0-31.3,14.2-31.3,31.5
						C680.7,69.1,694.8,83.1,712.1,83.1z"/>
					<path class="st6" d="M732.2,50.7h-17.6V33.9H711v22h21.2V50.7z"/>
				</g>
			</g>
		</g>
	</g>
</g>
<g id="Слой_4" class="st0">
	<g class="st1">
		<g id="Слой_4_00000124135531469325181300000013264908136256544132_">
			<g>
				<g id="surface1_00000178908202108591883380000005830371012152626310_">
					<path class="st9" d="M160.8,101.5c-0.2,0.9-0.2,2.2,0.3,3c0.3,0.9,0.9,1.4,1.4,1.3h4.5c1.4-0.2,2.5-1.9,3-4.6l1.6-12.3h17.2
						V101c0,1.3,0.3,2.4,0.6,3.3c0.5,0.8,1.1,1.4,1.7,1.4h4.6c1.2,0,2.3-2,2.3-4.5V43c0-2.3-0.9-4.2-2.2-4.4h-13.1
						c-7,0-14.1,3.4-16.1,18.1L160.8,101.5z M175.7,61.5c0.8-5.4,3.3-9.3,6.4-9.2h6.8v24.1h-15.2L175.7,61.5z M230.3,101.4
						c0,2.3,0.9,4.3,2.3,4.3h5.3c1.2,0,2.3-1.9,2.3-4.4V43c0-1.2-0.3-2.3-0.6-3.1c-0.5-0.8-0.9-1.2-1.7-1.2h-5.1
						c-0.6,0-1.3,0.5-1.7,1.3c-0.5,0.8-0.6,1.9-0.6,3.2v21h-16.9V43c0-1.3-0.3-2.3-0.6-3.1c-0.5-0.8-1.1-1.3-1.7-1.3h-4.6
						c-0.6,0-1.2,0.5-1.7,1.3c-0.5,0.8-0.6,1.9-0.6,3.1v58.3c0,2.5,1.1,4.4,2.3,4.4h4.6c1.2,0,2.3-1.9,2.3-4.4V77.7h16.5
						C230.3,77.7,230.3,101.4,230.3,101.4z M246.4,39.8c-0.6-1.1-1.2-0.6-1.7,0.3c-0.5,0.9-1.1,3.1-1.1,3.1v4.7
						c0,1.3,0.3,2.3,0.6,3.1c0.5,0.8,1.1,1.3,1.7,1.3h11.3v49.2c0,2.3,1.1,4.2,2.3,4.2h4.6c1.4,0,2.3-1.9,2.3-4.2V52.3h11.3
						c0.6,0,1.2-0.5,1.7-1.3c0.5-0.8,0.6-1.9,0.6-3.1v-4.7c0,0-0.9-2.3-1.4-3.1c-0.5-0.8-0.9-1.3-1.7-1.4L246.4,39.8L246.4,39.8z
						 M316.8,106c1.3,0,2.2-2,2.2-4.4V43c0-2.3-0.9-4.4-2-4.4h-6.1c-1.4,0.3-2.8,2-3.4,4.4L293,89.8V43c0-2.3-1.1-4.4-2.4-4.4h-4.4
						c-0.6,0-1.2,0.5-1.7,1.3c-0.5,0.8-0.6,1.9-0.6,3.1v58.3c0,1.3,0.3,2.3,0.6,3.1c0.5,0.8,1.1,1.3,1.7,1.3h8.8
						c1.4-0.3,2.7-1.9,3.4-4.4l12.3-43.5v43.5c0,2.5,1,4.4,2.2,4.4C312.7,106,316.8,106,316.8,106z M325.3,39.8
						c-0.6-1.1-1.2-0.6-1.7,0.3c-0.5,0.9-1.2,3.1-1.2,3.1v4.7c0,1.3,0.3,2.3,0.6,3.1c0.5,0.8,1.1,1.3,1.7,1.3H336v49.2
						c0,2.3,1.1,4.2,2.3,4.2h4.6c1.4,0,2.3-1.9,2.3-4.2V52.3h11.3c0.6,0,1.2-0.5,1.7-1.3c0.5-0.8,0.6-1.9,0.6-3.1v-4.7
						c0,0-0.9-2.3-1.2-3.1c-0.5-0.8-0.9-1.3-1.7-1.4L325.3,39.8L325.3,39.8z M380.8,52.3c4.8,0,8.4,2,8.4,13s-3.6,13-8.4,13h-9v-26
						H380.8z M364.8,38.2c-0.6,0-1.2,0.5-1.5,1.3c-0.3,0.8-0.6,1.9-0.6,3.1v58.8c0,2.5,1.1,4.4,2.3,4.4h4.6c0.6,0,1.2-0.5,1.7-1.3
						c0.5-0.8,0.6-1.9,0.6-3.1V90.7h11.5c9.3,0,14.6-8.2,14.6-26.4S392.4,38,383.3,38L364.8,38.2z M431.9,38.7h-27.2
						c-1.2,0-2.3,1.9-2.3,4.4v58.3c0,1.2,0.3,2.3,0.6,3.1c0.5,0.8,0.9,1.2,1.7,1.2h27.8c0.6,0,1.3-0.5,1.7-1.3
						c0.5-0.8,0.6-2,0.6-3.3v-4.7c0-1.3-0.3-2.4-0.6-3.1c-0.3-0.8-0.9-1.3-1.6-1.3h-21.2V78.4H430c1.2,0,2.3-2,2.3-4.6v-4.6
						c0-2.5-1.1-4.6-2.3-4.6h-18.5V52.3h20.6c0.6,0,1.2-0.5,1.5-1.2c0.5-0.8,0.6-2,0.6-3.1v-4.7c0-1.2-0.3-2.3-0.6-3.1
						C433.2,39.3,432.5,38.7,431.9,38.7z M465.5,101.6c-0.3,2.3,1.9,4.1,1.9,4.1h4.9c1.3,0,2.3-1.9,2.3-4.4V43.1
						c0-1.3-0.3-2.4-0.6-3.2c-0.5-0.8-1-1.3-1.8-1.3h-5c-0.6,0-1.3,0.5-1.8,1.3s-0.6,1.9-0.6,3.2v21h-16.9v-21
						c0-1.3-0.3-2.4-0.6-3.2c-0.5-0.8-1.1-1.3-1.7-1.3h-4.6c-0.6,0-1.2,0.5-1.7,1.3s-0.6,1.9-0.6,3.2v58.3c0,2.5,1.1,4.4,2.3,4.4
						h4.6c1.2,0,2.3-1.9,2.3-4.4V77.7h16.9L465.5,101.6L465.5,101.6z M514.2,106c1.2,0,2.1-2,2.1-4.4V43c0-2.3-0.9-4.4-2-4.4h-6.1
						c-1.4,0.3-2.8,2-3.4,4.4l-14.5,46.8V43c0-2.3-1.1-4.4-2.4-4.4h-4.4c-0.6,0-1.2,0.5-1.7,1.3c-0.5,0.8-0.6,1.9-0.6,3.1v58.3
						c0,1.3,0.3,2.3,0.6,3.1c0.5,0.8,1.1,1.3,1.7,1.3H494c1.3-0.3,2.5-1.9,3.1-4.4l11.3-43.5v43.5c0,2.5,0.9,4.4,2.1,4.4
						C510.5,106,514.2,106,514.2,106z M549.3,101.8c0.4,2.2,2.6,3.9,2.6,3.9h4.3c1.2,0,2.3-1.9,2.3-4.4V43c0-1.2-0.3-2.2-0.6-3.1
						c-0.5-0.8-1.1-1.2-1.7-1.2h-4.4c-0.6,0-1.3,0.5-1.8,1.3c-0.5,0.8-0.6,1.9-0.6,3.2v21h-16.3V43c0-1.2-0.3-2.2-0.6-3.1
						c-0.5-0.8-1.1-1.2-1.7-1.2h-4.6c-0.6,0-1.2,0.5-1.7,1.2c-0.5,0.8-0.6,1.9-0.6,3.1v58.3c0,2.5,1.1,4.4,2.4,4.4h5
						c1.2,0,2.3-1.9,2.3-4.3V77.7h15.6v24.1H549.3z M565.7,101.3c0,2.3,1.1,4.4,2.4,4.4h5.1c1.2,0,2.3-1.9,2.3-4.2V52.3H592
						c0.6,0,1.2-0.5,1.7-1.2c0.5-0.8,0.6-1.9,0.6-3.1V43c0-1.2-0.3-2.3-0.6-3.1c-0.5-0.8-1.1-1.2-1.7-1.2h-23.9
						c-0.6,0-1.3,0.5-1.7,1.2c-0.5,0.8-0.6,1.9-0.6,3.1V101.3z M631.2,106c1.3,0,2.2-2,2.2-4.4V43c0-2.3-1-4.4-2.1-4.4h-6.2
						c-1.4,0.3-2.9,2-3.5,4.4l-14.9,46.8V43c0-2.3-1.1-4.4-2.4-4.4h-4.4c-0.6,0-1.2,0.5-1.7,1.3c-0.5,0.8-0.6,1.9-0.6,3.1v58.3
						c0,1.3,0.3,2.3,0.6,3.1c0.5,0.8,1.1,1.3,1.7,1.3h9.4c1.4-0.3,2.7-1.9,3.4-4.4l12.3-43.5v43.5c0,2.5,1,4.4,2.2,4.4
						C627,106,631.2,106,631.2,106z"/>
				</g>
			</g>
		</g>
	</g>
</g>
<g id="Слой_5" class="st0">
	<g class="st1">
		<g id="surface1_00000034059049380287573530000007503039231217810062_">
			<path d="M497,106.8c7.4,0,12.6-1.3,15.9-4.2v-13c-3.4,2.8-8.2,4.5-15,4.5c-11.4,0-16.1-8.8-16.1-22.8c0-14.7,5.7-22.2,16.2-22.2
				c6.2,0,12.2,2.2,15.5,4.2V39.7c-3.5-1.8-9.4-3.2-17.4-3.2c-20.4,0-31,14.7-31,35.2C465.3,94.2,475.6,106.8,497,106.8z
				 M397.3,100.8v-13c-5.1,3.4-13.5,6.4-21.2,6.4c-11.7,0-16.1-5.5-16.8-17.1H398v-8.1c-0.1-23.5-10.5-32.3-26.4-32.3
				c-19.5,0-28.7,14.9-28.7,35.3c0,23.5,11.6,34.9,31.9,34.9C384.9,106.8,392.4,104,397.3,100.8z M250.9,37.6v26.9h-21.7V37.6h-15.8
				v67.6h15.8V77h21.7v28.2h15.8V37.6H250.9z M339,92.8h-7.3V37.6H285v5.8c0,16.6-1,38-6.7,49.4h-5.1V121h15.1v-15.1h36.1V121h14.4
				L339,92.8L339,92.8z M447.4,105.2h17.9l-25.2-36.4l22.2-31.2h-15.9l-22.2,31.2V37.6h-15.8v67.6h15.8V72L447.4,105.2z M371.2,48.8
				c7.9,0,10.4,6.6,10.4,15.1v1.3h-22.3C359.7,54.4,363.6,48.8,371.2,48.8z M315.9,92.8h-22.8c4.5-10.2,5.7-28.8,5.7-40.6v-2.1h17.1
				V92.8z"/>
			<path class="st10" d="M199.8,105.2h-15.9V24.5h-7.3c-13.3,0-20.3,6.7-20.3,16.6c0,11.3,4.8,16.5,14.8,23.2l8.2,5.5l-23.6,35.4
				h-17.9L159,73.7c-12.2-8.7-19-17.2-19-31.6c0-17.9,12.5-30.1,36.1-30.1h23.6v93.2H199.8z"/>
		</g>
	</g>
</g>
<g id="Слой_6">
	<g>
		<g id="Слой_2_00000096745099398279145850000009402454618694297232_">
			<g id="Слой_1-2_00000145745104569972000590000005889689748395447979_">
				<path class="st11" d="M252.2,1c0.9,0.1,1.8,0.3,2.7,0.4c26,2.1,48.9,21.1,56,46.4c1.4,5.1,2.2,10.3,2.4,15.6c0,0.4,0,1,0,1.5
					h-17.1c-0.1-1.2-0.2-2.4-0.3-3.6c-1.3-13.4-7.3-24.3-17.7-32.8c-6.5-5.4-14.3-8.8-22.6-9.9c-15.8-2.1-29.6,2.5-40.8,13.8
					c-7.3,7.1-11.9,16.6-13.1,26.7c-2,16.3,3.1,30.1,15.1,41.4c7.4,6.9,16.3,10.5,26.2,11.9c6.1,0.9,12.1,0.9,18.2,0.9
					c38.4,0,77,0,114.8,0c0.4,0,0.9,0.1,1.3,0.1c0,5.5,0,11,0,16.5c-0.3,0-0.6,0-0.9,0c-38.8,0-117.6,0-117.6,0h-1.1h-5.2
					c-0.2-0.1-0.3-0.1-0.5-0.2c-4.2-0.4-8.4-0.6-12.5-1.3c-11.6-1.6-22.1-5.9-30.9-13.5c-19.4-16.6-27.1-37.7-22.2-62.8
					c5.5-27.8,28.9-48.2,57.1-50.8c1.1-0.1,2.2-0.3,3.3-0.4L252.2,1z"/>
				<path class="st11" d="M174.7,1c0,0.5,0,1.1,0,1.5c0,42,0,84.1,0,126.2c0,0.4,0,0.8,0,1.2l-17.3,0c0-0.4,0-0.8,0-1.2
					c0-36.3,0-72.7,0-109v-1.4h-25.6V1H174.7z"/>
				<path class="st11" d="M113,43.2V26.7c0.3,0,0.5,0,0.8,0h34.5v1.3c0,33.6,0,67.2,0,100.9c0,0.4,0,0.8,0,1.1l-16.6,0
					c0-0.4,0-0.8,0-1.2V43.3h-17.6C113.7,43.3,113.4,43.2,113,43.2z"/>
				<path class="st12" d="M257.6,129.9c0.3,0,0.7-0.1,1-0.7h117.9c0.3,0.6,0.6,0.5,0.9,0.5l0,0.2H257.6z"/>
				<path class="st13" d="M157.4,129.9v-0.7h16.9l0,0.7H157.4z"/>
				<path class="st14" d="M377.6,130l0-0.3c0-5.6,0-11.2,0-16.7c0.1,0,0.1,0,0.2,0c0,5.4,0,10.7,0,16.1
					C377.8,129.5,377.7,129.7,377.6,130z"/>
				<path class="st15" d="M148.4,129.9v-0.7h-16.4l0,0.7H148.4z"/>
				<path class="st16" d="M377.8,102.2h-0.7V86.1c0.5,0,0.6,0,0.7,0V102.2z"/>
				<path class="st11" d="M377.8,86.4l0,16.5h-1.1c-38.9,0-77.7,0-116.5,0c-5.9,0.1-11.7-0.2-17.6-1c-15.2-2.2-28-14.4-30.7-29.5
					c-2.9-15.9,4.2-31.4,18.4-39.3c17.8-10,40.4-3.6,50.3,14.2c1.6,2.9,2.8,5.9,3.6,9.1c0.7,2.7,1.1,5.5,1.1,8.3h-16.4
					c-0.1-2.8-0.8-5.6-2-8.1c-4.8-10.2-17-14.6-27.3-9.7s-14.6,17-9.7,27.3c3,6.2,8.9,10.6,15.7,11.5c4.7,0.5,9.4,0.8,14.1,0.7
					c39,0,77.9,0,116.9,0C376.9,86.4,377.3,86.4,377.8,86.4z"/>
				<path class="st17" d="M350,13.3c2.2,1.3,1.2,3.6,1.7,5.4c-0.1,0.2-0.2,0.2-0.3,0.4c-2,0.1-2,0-2-2c0-2.4-0.4-2.8-2.6-2.9
					c-0.5,0-1,0-1.6,0V19h-2.1V7.2c2,0,3.9-0.1,5.9,0c1.4,0.1,2.6,1.2,2.8,2.6C352.1,11.4,351.6,12.3,350,13.3z M345.2,12.6
					c1.1,0,2.1,0.1,3.1,0c0.8,0,1.4-0.7,1.4-1.5c0-0.3-0.1-0.6-0.2-0.8c-0.1-0.4-0.5-0.8-0.9-0.9c-0.1,0-0.1,0-0.2,0
					c-1.1-0.1-2.1-0.2-3.2-0.2L345.2,12.6z"/>
			</g>
		</g>
	</g>
</g>
</svg>
