<?xml version="1.0" encoding="UTF-8"?>
<svg xmlns="http://www.w3.org/2000/svg" xmlns:xlink="http://www.w3.org/1999/xlink" width="545px" height="100px" viewBox="0 0 540 100" version="1.1">
<g id="surface1">
<path style=" stroke:none;fill-rule:nonzero;fill:rgb(18.431373%,56.470588%,87.843137%);fill-opacity:1;" d="M 16.5625 83.21875 C 16.34375 84.164062 16.453125 85.183594 16.816406 85.984375 C 17.179688 86.785156 17.757812 87.21875 18.375 87.113281 L 23.460938 87.113281 C 24.914062 87.003906 26.148438 85.402344 26.546875 83.109375 L 28.292969 72.382812 L 46.703125 72.382812 L 46.703125 83.109375 C 46.703125 84.164062 46.957031 85.21875 47.394531 85.949219 C 47.867188 86.710938 48.484375 87.113281 49.136719 87.113281 L 54.003906 87.113281 C 55.347656 87.113281 56.4375 85.367188 56.4375 83.183594 L 56.4375 30.054688 C 56.472656 27.980469 55.492188 26.234375 54.222656 26.125 L 40.238281 26.125 C 32.722656 26.125 25.242188 29.179688 23.0625 42.671875 Z M 32.503906 46.707031 C 33.265625 41.582031 36.136719 38.015625 39.332031 38.164062 L 46.703125 38.164062 L 46.703125 60.382812 L 30.179688 60.382812 Z M 91.484375 83.21875 C 91.519531 85.402344 92.609375 87.148438 93.917969 87.148438 L 98.746094 87.148438 C 100.089844 87.148438 101.214844 85.367188 101.253906 83.148438 L 101.253906 30.125 C 101.253906 29.035156 101 28.015625 100.527344 27.253906 C 100.054688 26.488281 99.4375 26.089844 98.78125 26.089844 L 93.953125 26.089844 C 93.296875 26.089844 92.679688 26.488281 92.210938 27.253906 C 91.738281 28.015625 91.484375 29.035156 91.484375 30.089844 L 91.484375 49.253906 L 73.652344 49.253906 L 73.652344 30.125 C 73.652344 29.070312 73.398438 28.054688 72.925781 27.289062 C 72.453125 26.527344 71.835938 26.125 71.183594 26.125 L 66.351562 26.125 C 65.699219 26.089844 65.082031 26.527344 64.609375 27.289062 C 64.136719 28.054688 63.882812 29.070312 63.882812 30.164062 L 63.882812 83.148438 C 63.917969 85.367188 65.007812 87.183594 66.386719 87.148438 L 71.21875 87.148438 C 72.5625 87.148438 73.652344 85.402344 73.652344 83.21875 L 73.652344 61.328125 L 91.484375 61.328125 Z M 107.933594 26.125 C 107.28125 26.125 106.664062 26.527344 106.191406 27.289062 C 105.71875 28.054688 105.464844 29.070312 105.5 30.125 L 105.5 34.125 C 105.5 35.179688 105.753906 36.234375 106.191406 36.960938 C 106.664062 37.726562 107.28125 38.125 107.933594 38.125 L 119.484375 38.125 L 119.484375 83.183594 C 119.519531 85.367188 120.609375 87.113281 121.917969 87.113281 L 126.785156 87.113281 C 128.128906 87.113281 129.214844 85.367188 129.214844 83.183594 L 129.214844 38.164062 L 140.765625 38.164062 C 141.417969 38.164062 142.035156 37.761719 142.507812 37 C 142.980469 36.234375 143.234375 35.21875 143.199219 34.164062 L 143.199219 30.164062 C 143.199219 29.109375 142.945312 28.054688 142.507812 27.324219 C 142.035156 26.5625 141.417969 26.160156 140.765625 26.160156 L 107.933594 26.160156 Z M 182.855469 87.113281 C 184.199219 87.074219 185.289062 85.292969 185.289062 83.109375 L 185.289062 30.125 C 185.289062 27.945312 184.238281 26.160156 182.894531 26.125 L 175.265625 26.125 C 173.777344 26.453125 172.433594 27.945312 171.707031 30.125 L 156.960938 72.636719 L 156.960938 30.054688 C 156.960938 27.871094 155.835938 26.125 154.53125 26.125 L 149.953125 26.125 C 149.300781 26.089844 148.683594 26.527344 148.210938 27.289062 C 147.738281 28.054688 147.484375 29.070312 147.519531 30.125 L 147.519531 83.109375 C 147.519531 84.164062 147.773438 85.183594 148.246094 85.949219 C 148.71875 86.710938 149.335938 87.113281 149.988281 87.113281 L 158.597656 87.113281 C 160.160156 86.855469 161.574219 85.367188 162.375 83.109375 L 175.882812 43.617188 L 175.882812 83.109375 C 175.882812 85.328125 176.972656 87.113281 178.316406 87.113281 Z M 191.972656 26.125 C 191.320312 26.125 190.703125 26.527344 190.230469 27.289062 C 189.757812 28.054688 189.503906 29.070312 189.539062 30.125 L 189.539062 34.125 C 189.539062 35.179688 189.792969 36.234375 190.230469 36.960938 C 190.703125 37.726562 191.320312 38.125 191.972656 38.125 L 203.558594 38.125 L 203.558594 83.183594 C 203.558594 85.367188 204.683594 87.113281 205.992188 87.113281 L 210.859375 87.113281 C 212.203125 87.113281 213.289062 85.367188 213.289062 83.183594 L 213.289062 38.164062 L 224.875 38.164062 C 225.53125 38.164062 226.148438 37.761719 226.617188 37 C 227.089844 36.234375 227.34375 35.21875 227.308594 34.164062 L 227.308594 30.164062 C 227.308594 29.109375 227.054688 28.054688 226.617188 27.324219 C 226.148438 26.5625 225.53125 26.160156 224.875 26.160156 L 191.972656 26.160156 Z M 250.769531 38.164062 C 255.855469 38.164062 259.632812 39.910156 259.632812 49.835938 C 259.632812 59.765625 255.855469 61.511719 250.769531 61.511719 L 241.328125 61.511719 L 241.328125 38.164062 Z M 233.957031 26.125 C 233.300781 26.125 232.683594 26.5625 232.25 27.289062 C 231.8125 28.054688 231.558594 29.070312 231.558594 30.125 L 231.558594 83.109375 C 231.558594 85.328125 232.648438 87.113281 233.992188 87.113281 L 238.859375 87.113281 C 239.511719 87.113281 240.128906 86.710938 240.601562 85.949219 C 241.074219 85.183594 241.328125 84.164062 241.328125 83.109375 L 241.328125 73.511719 L 253.75 73.511719 C 263.625 73.511719 269.402344 66.199219 269.402344 49.800781 C 269.402344 33.398438 263.625 26.089844 253.75 26.089844 Z M 306.480469 26.125 L 276.628906 26.125 C 275.285156 26.125 274.195312 27.871094 274.195312 30.054688 L 274.195312 83.039062 C 274.195312 84.128906 274.449219 85.148438 274.882812 85.910156 C 275.355469 86.675781 275.972656 87.113281 276.628906 87.113281 L 306.40625 87.113281 C 307.0625 87.113281 307.679688 86.710938 308.152344 85.949219 C 308.625 85.183594 308.878906 84.164062 308.878906 83.109375 L 308.878906 79 C 308.878906 77.949219 308.625 76.964844 308.1875 76.238281 C 307.75 75.511719 307.132812 75.074219 306.480469 75.074219 L 283.964844 75.074219 L 283.964844 62.527344 L 303.394531 62.527344 C 304.738281 62.492188 305.828125 60.710938 305.828125 58.527344 L 305.828125 54.527344 C 305.828125 52.308594 304.738281 50.527344 303.394531 50.527344 L 283.964844 50.527344 L 283.964844 38.164062 L 306.515625 38.164062 C 307.171875 38.164062 307.789062 37.761719 308.261719 37 C 308.730469 36.234375 308.988281 35.21875 308.988281 34.164062 L 308.988281 30.164062 C 308.988281 29.109375 308.730469 28.089844 308.261719 27.324219 C 307.789062 26.5625 307.132812 26.125 306.480469 26.125 Z M 341.273438 83.21875 C 341.273438 85.402344 342.363281 87.148438 343.707031 87.148438 L 348.535156 87.148438 C 349.878906 87.148438 351.003906 85.367188 351.042969 83.148438 L 351.042969 30.125 C 351.042969 29.035156 350.789062 28.015625 350.316406 27.253906 C 349.84375 26.488281 349.226562 26.089844 348.570312 26.089844 L 343.742188 26.089844 C 343.089844 26.089844 342.472656 26.488281 342 27.253906 C 341.527344 28.015625 341.273438 29.035156 341.273438 30.089844 L 341.273438 49.253906 L 323.441406 49.253906 L 323.441406 30.125 C 323.441406 29.070312 323.1875 28.054688 322.714844 27.289062 C 322.242188 26.527344 321.625 26.125 320.972656 26.125 L 316.140625 26.125 C 315.488281 26.089844 314.871094 26.527344 314.398438 27.289062 C 313.925781 28.054688 313.671875 29.070312 313.671875 30.164062 L 313.671875 83.148438 C 313.707031 85.367188 314.796875 87.183594 316.175781 87.148438 L 321.007812 87.148438 C 322.351562 87.148438 323.441406 85.402344 323.441406 83.21875 L 323.441406 61.328125 L 341.273438 61.328125 Z M 393.824219 87.113281 C 395.167969 87.074219 396.257812 85.292969 396.257812 83.109375 L 396.257812 30.125 C 396.257812 27.945312 395.203125 26.160156 393.859375 26.125 L 386.234375 26.125 C 384.742188 26.453125 383.398438 27.945312 382.675781 30.125 L 367.929688 72.636719 L 367.929688 30.054688 C 367.929688 27.871094 366.804688 26.125 365.496094 26.125 L 360.921875 26.125 C 360.265625 26.089844 359.648438 26.527344 359.175781 27.289062 C 358.703125 28.054688 358.449219 29.070312 358.488281 30.125 L 358.488281 83.109375 C 358.488281 84.164062 358.742188 85.183594 359.214844 85.949219 C 359.683594 86.710938 360.300781 87.113281 360.957031 87.113281 L 369.5625 87.113281 C 371.125 86.855469 372.542969 85.367188 373.339844 83.109375 L 386.886719 43.617188 L 386.886719 83.109375 C 386.886719 85.328125 387.976562 87.113281 389.320312 87.113281 Z M 431.230469 83.21875 C 431.265625 85.402344 432.355469 87.148438 433.664062 87.148438 L 438.492188 87.148438 C 439.835938 87.148438 440.964844 85.367188 441 83.148438 L 441 30.125 C 441 29.035156 440.746094 28.015625 440.273438 27.253906 C 439.800781 26.488281 439.183594 26.089844 438.53125 26.089844 L 433.699219 26.089844 C 433.046875 26.089844 432.429688 26.488281 431.957031 27.253906 C 431.484375 28.015625 431.230469 29.035156 431.230469 30.089844 L 431.230469 49.253906 L 413.398438 49.253906 L 413.398438 30.125 C 413.398438 29.070312 413.144531 28.054688 412.671875 27.289062 C 412.199219 26.527344 411.582031 26.125 410.929688 26.125 L 406.097656 26.125 C 405.445312 26.089844 404.828125 26.527344 404.355469 27.289062 C 403.882812 28.054688 403.628906 29.070312 403.628906 30.164062 L 403.628906 83.148438 C 403.664062 85.367188 404.753906 87.183594 406.136719 87.148438 L 410.964844 87.148438 C 412.308594 87.148438 413.398438 85.402344 413.398438 83.21875 L 413.398438 61.328125 L 431.195312 61.328125 L 431.195312 83.21875 Z M 448.445312 83.21875 C 448.445312 85.402344 449.570312 87.148438 450.878906 87.148438 L 455.746094 87.148438 C 457.089844 87.148438 458.175781 85.402344 458.175781 83.21875 L 458.175781 38.164062 L 475.898438 38.164062 C 476.554688 38.164062 477.171875 37.761719 477.644531 37 C 478.117188 36.234375 478.371094 35.21875 478.332031 34.164062 L 478.332031 30.164062 C 478.332031 29.109375 478.078125 28.054688 477.644531 27.324219 C 477.171875 26.5625 476.554688 26.160156 475.898438 26.160156 L 450.839844 26.160156 C 450.1875 26.160156 449.570312 26.5625 449.097656 27.324219 C 448.625 28.089844 448.371094 29.109375 448.40625 30.164062 Z M 517.917969 87.113281 C 519.261719 87.074219 520.351562 85.292969 520.351562 83.109375 L 520.351562 30.125 C 520.351562 27.945312 519.300781 26.160156 517.957031 26.125 L 510.328125 26.125 C 508.839844 26.453125 507.496094 27.945312 506.769531 30.125 L 492.023438 72.636719 L 492.023438 30.054688 C 491.988281 27.871094 490.898438 26.125 489.589844 26.125 L 485.015625 26.125 C 484.363281 26.089844 483.746094 26.527344 483.273438 27.289062 C 482.800781 28.054688 482.546875 29.070312 482.582031 30.125 L 482.582031 83.109375 C 482.582031 84.164062 482.835938 85.183594 483.308594 85.949219 C 483.78125 86.710938 484.398438 87.113281 485.050781 87.113281 L 493.660156 87.113281 C 495.222656 86.855469 496.636719 85.367188 497.4375 83.109375 L 510.945312 43.617188 L 510.945312 83.109375 C 510.945312 85.328125 512.035156 87.113281 513.378906 87.113281 Z M 517.917969 87.113281 "/>
</g>
</svg>
