<?xml version="1.0" encoding="utf-8"?>
<!-- Generator: Adobe Illustrator 26.0.3, SVG Export Plug-In . SVG Version: 6.00 Build 0)  -->
<svg version="1.1" id="Layer_1" xmlns="http://www.w3.org/2000/svg" xmlns:xlink="http://www.w3.org/1999/xlink" x="0px" y="0px"
	 viewBox="0 0 512 512" style="enable-background:new 0 0 512 512;" xml:space="preserve">
<style type="text/css">
	.st0{fill:#6F42C1;}
</style>
<path class="st0" d="M91.1,484.3l251.4-36.8c10.2-1.2,15-13,8.8-21.1l-32.4-41.5c2.4-2.5,4.8-5.1,7.2-7.6
	c20.2-20.9,38.4-44.6,53.8-69.3c27.2-43.7,44.8-94.3,43.8-146.2c-1-53.9-22.8-107-58.5-147.3c0-0.1,0-0.1-0.2-0.1
	c-6.5-7.3-17.6-8.1-25.1-1.8c-0.1,0.2-0.3,0.3-0.5,0.4c-6.1,5.1-8.2,13.8-4.9,21.1c0,0.1,0.1,0.3,0.2,0.4c8.7,20,14,41.6,15.4,63.3
	c2.3,37.1-9,73-31.8,102.2c-23.1,29.5-53.8,50.5-86.5,68.1c-2,1.1-3.1,1.7-3.1,1.7l-32.4-41.5c-6.3-8-18.9-6.1-22.6,3.4L77.2,466.6
	C73.7,475.9,81.2,485.5,91.1,484.3z"/>
</svg>
