<?xml version="1.0" encoding="utf-8"?>
<!-- Generator: Adobe Illustrator 26.0.3, SVG Export Plug-In . SVG Version: 6.00 Build 0)  -->
<svg version="1.1" xmlns="http://www.w3.org/2000/svg" xmlns:xlink="http://www.w3.org/1999/xlink" x="0px" y="0px"
	 viewBox="0 0 3710 3710" style="enable-background:new 0 0 3710 3710;" xml:space="preserve">
<style type="text/css">
	.st0{fill:#FFFFFF;}
	.st1{fill:#F4FAF8;}
	.st2{fill:url(#SVGID_1_);}
	.st3{opacity:0.7;clip-path:url(#SVGID_00000182497899477141837370000007961054137558301064_);}
	.st4{fill:#FCFEFD;}
	.st5{fill:url(#SVGID_00000129192140373918315600000000267024835400491165_);}
	.st6{opacity:0.7;clip-path:url(#SVGID_00000132051303334959816720000011260274612882786977_);}
	.st7{fill:url(#SVGID_00000159434254712954696240000012098824994444633505_);}
	.st8{fill:url(#SVGID_00000088839753987649299090000005177568427474654880_);}
	.st9{fill:url(#SVGID_00000005969042421992350020000007953721617159120557_);}
	.st10{fill:url(#SVGID_00000055695587528459574650000017541870049714720419_);}
	.st11{fill:#C6C6C6;}
	.st12{fill:url(#SVGID_00000083802515295552620770000007429541761236925594_);}
	.st13{fill:url(#SVGID_00000074428185119782869340000004173396922221535882_);}
	.st14{fill:url(#SVGID_00000036219803570155680700000008741956050406058883_);}
	.st15{fill:url(#SVGID_00000118378617371656340170000014421768436914103170_);}
	.st16{opacity:0.3;fill:url(#SVGID_00000124880288224184755940000013864137828061353639_);}
	.st17{fill:url(#SVGID_00000151512568199769047850000009644096592549051265_);}
	.st18{opacity:0.2;}
	.st19{fill:url(#SVGID_00000142134948784626501150000005228431610772223892_);}
	.st20{fill:url(#SVGID_00000088848316125832557100000009286374506845716156_);}
	.st21{fill:url(#SVGID_00000038409214957365587920000004835027644217967753_);}
	.st22{opacity:0.1;fill:url(#SVGID_00000170240276641036181110000002200658952092356483_);}
	.st23{fill:url(#SVGID_00000020392817933715891150000014003950528650911151_);}
	.st24{fill:url(#SVGID_00000158029204585612871420000009467582680714266519_);}
	.st25{fill:url(#SVGID_00000122722304824266283130000001684646357793470098_);}
	.st26{fill:url(#SVGID_00000039119092117922333560000008958943228551776909_);}
	.st27{fill:url(#SVGID_00000171693922687153905490000013291493967439275663_);}
	.st28{fill:#FC7148;}
	.st29{fill:url(#SVGID_00000012459618874647997420000003813506368559217564_);}
	.st30{fill:url(#SVGID_00000060709709897678117170000010104223054303748026_);}
	.st31{fill:url(#SVGID_00000173140683812286452650000012290366339444081311_);}
	.st32{fill:url(#SVGID_00000173871418507164220870000003091144671537224872_);}
	.st33{fill:url(#SVGID_00000130607969013640760870000011809624140574349715_);}
	.st34{fill:url(#SVGID_00000050637527106062110900000013441763629311741827_);}
	.st35{fill:url(#SVGID_00000041989827733657514290000014248497746623773060_);}
	.st36{fill:url(#SVGID_00000101083056550366437700000006432354221678826133_);}
	.st37{fill:url(#SVGID_00000031183723627164689640000016919347536873735080_);}
	.st38{fill:url(#SVGID_00000028311224206444832530000012469729466148834702_);}
	.st39{fill:url(#SVGID_00000181771431105822571980000012003109468047884940_);}
	.st40{fill:url(#SVGID_00000147219339206539242060000011458165000757344405_);}
	.st41{fill:url(#SVGID_00000119817441600505834810000011547525699535615660_);}
	.st42{fill:url(#SVGID_00000090975913622181981070000016236024432124662662_);}
	.st43{fill:url(#SVGID_00000036227538886567513420000000953079665081483407_);}
	.st44{fill:url(#SVGID_00000114776012658557343090000009373262267464477830_);}
	.st45{fill:url(#SVGID_00000038391650521351678910000007007796786249767319_);}
	.st46{fill:url(#SVGID_00000148657755516204838530000013632126042950282380_);}
	.st47{fill:url(#SVGID_00000150083420717125995300000001019550607764611753_);}
	.st48{fill:url(#SVGID_00000016773916192765430000000013849966718201182848_);}
	.st49{fill:url(#SVGID_00000175312742938187664330000015194340195772505479_);}
	.st50{fill:url(#SVGID_00000140701598596797142530000001658587630373025156_);}
	.st51{fill:url(#SVGID_00000164472433427315634980000009127226140665385636_);}
	.st52{fill:url(#SVGID_00000031915783729925127730000016205191035236340892_);}
	.st53{fill:url(#SVGID_00000071541130869662039330000002125854453771290264_);}
	.st54{fill:url(#SVGID_00000140004703720734151640000001006455335168081806_);}
	.st55{fill:url(#SVGID_00000046332410669474701190000000073476617260327555_);}
	.st56{fill:url(#SVGID_00000121248516411581811020000014879025010026444929_);}
	.st57{fill:url(#SVGID_00000132783045371678116040000017186733308276312990_);}
	.st58{fill:url(#SVGID_00000121966246522029373260000016007817936320078262_);}
	.st59{fill:url(#SVGID_00000121264907846857345390000005949183553362825876_);}
	.st60{fill:url(#SVGID_00000049901173956211478070000007584095803569120411_);}
	.st61{fill:url(#SVGID_00000044173743975769466880000017477955136519159459_);}
	.st62{fill:url(#SVGID_00000067931035479560421640000009110185299820270253_);}
	.st63{fill:url(#SVGID_00000074442871326228992770000000867035096348247729_);}
	.st64{fill:url(#SVGID_00000026868272635318251030000013138230004973851805_);}
	.st65{fill:url(#SVGID_00000114782269521645241490000006960966165629008822_);}
	.st66{fill:url(#SVGID_00000062880409857091120690000017216488073874184603_);}
	.st67{opacity:0.3;fill:url(#SVGID_00000141452087699833037180000005856949675653351091_);}
	.st68{fill:url(#SVGID_00000054959176599599799800000009142909537543587262_);}
	.st69{fill:url(#SVGID_00000116217249384294849540000006737248133994873219_);}
	.st70{fill:url(#SVGID_00000100359934969921913920000017067093799683319221_);}
	.st71{fill:url(#SVGID_00000067919689323402622530000011499412918516667811_);}
	.st72{fill:url(#SVGID_00000173157260815306853350000009511951134545285022_);}
	.st73{fill:url(#SVGID_00000105414250297213653380000007444746239100990355_);}
	.st74{fill:url(#SVGID_00000042001329925687058130000006093903454817289615_);}
	.st75{fill:url(#SVGID_00000109009610829486912620000003610954935854920321_);}
	.st76{fill:url(#SVGID_00000109718475582604201700000006369734321782316202_);}
	.st77{fill:url(#SVGID_00000121994350022372705110000013634092636632247975_);}
	.st78{fill:url(#SVGID_00000169533797151957546820000001595220786826750372_);}
	.st79{opacity:0.3;fill:url(#SVGID_00000018942917037540694350000007138838579707684268_);}
	.st80{fill:url(#SVGID_00000108288337479425686250000010163784661361056701_);}
	.st81{fill:url(#SVGID_00000095314385737719384190000003216643008286095006_);}
	.st82{opacity:0.3;fill:url(#SVGID_00000120529554575270642510000009794672786103173030_);}
</style>
<g id="Background">
	<g>
		<g>
			<rect class="st0" width="3710" height="3710"/>
		</g>
	</g>
</g>
<g id="Illustration">
	<g>
		<path class="st1" d="M1147.6,626.9c-96.1,138.1,16.6,361.9-126,465.7c-138.8,101.1-309.3-64.6-440.1,22.4
			C387.5,1244,423,1834.6,706.6,2201.5c85.3,110.3,156.6,153.3,188.2,278.1c67.8,268-170.5,427.4-125.1,559.9
			c102.1,298.4,1672.1,548.8,2302.1-348c294.2-418.9,338.2-1023.7,75.4-1483.1C2672.1,378.3,1363.2,317.1,1147.6,626.9z"/>
		<g>
			<g>
				<g>
					<g>
						
							<linearGradient id="SVGID_1_" gradientUnits="userSpaceOnUse" x1="936.7" y1="1921.8911" x2="-653.4045" y2="-827.6609" gradientTransform="matrix(0.9993 3.790000e-02 -3.790000e-02 0.9993 962.1741 578.5602)">
							<stop  offset="0" style="stop-color:#FF8A44"/>
							<stop  offset="0.9964" style="stop-color:#F3569F"/>
						</linearGradient>
						<path class="st2" d="M1207.7,2071.6c-7.3,45.4-18.3,81.9-27.5,125.9c188.7-43.9,378.6-51.6,570-95.7
							c-160.6-195.8-294-271-266.4-563.3c13-137.2,78.7-403.7,4.1-522.5c-84.9-135.4-182.8-80.6-177.3-215.8
							c8.6-211.3-126.5-410.1-389.4-277.9c-259.5,130.5-122.8,871.9,67.7,1048.1C1120.8,1752.7,1245.6,1834.5,1207.7,2071.6z"/>
						<g>
							<defs>
								<path id="SVGID_00000062160299172313070740000008168753502085401012_" d="M1485.3,1515.5c5.1-51.5,80.4-408.4,3.2-505
									c-88-110.1-182.3-81.9-177.5-212.6c7.5-204.4-126.5-409.4-389.7-276.1c-259.8,131.5-122.3,873.4,67.3,1047.1
									c135.4,202,252.7,236.9,220.6,516.9C1186.6,2281.8,1466.3,1709.1,1485.3,1515.5z"/>
							</defs>
							<clipPath id="SVGID_00000048484664942354857370000000691725767454733186_">
								<use xlink:href="#SVGID_00000062160299172313070740000008168753502085401012_"  style="overflow:visible;"/>
							</clipPath>
							<g style="opacity:0.7;clip-path:url(#SVGID_00000048484664942354857370000000691725767454733186_);">
								<path class="st4" d="M1474.7,2124.1l-3.4,1.3c-26-66.6-57.6-132-88.1-195.2l-11.5-23.9c-24.5-50.8-45.4-96.7-63.9-137.1
									c-10.4-22.8-20.3-44.3-30-65.1c-29.7-63.5-50.6-108-60.9-130c-3.5-7.4-5.8-12.3-6.8-14.6
									c-81.3-174.2-127.6-440.9-152.5-584.1c-2.7-15.5-5.1-29.4-7.2-41.3c-36.8-204.5-99.5-412.8-186.5-619.3l3.4-1.4
									c87.1,206.7,149.9,415.3,186.7,620c2.1,11.9,4.6,25.8,7.3,41.3c24.9,143.1,71.2,409.4,152.2,583.2c1,2.2,3.4,7.1,6.8,14.6
									c10.4,22.1,31.3,66.5,60.9,130c9.7,20.8,19.6,42.3,30,65.1c18.5,40.5,39.4,86.3,63.9,137.1l11.5,23.9
									C1417,1992,1448.6,2057.4,1474.7,2124.1z"/>
								<path class="st4" d="M1321.8,1803.2l-3.4,1.4c-48.2-117.7-57.5-275.3-26.7-455.9c25.6-150.4,78.8-311.8,145.8-442.7l3.3,1.7
									c-66.9,130.6-119.9,291.5-145.5,441.6C1264.7,1529.2,1273.9,1686.1,1321.8,1803.2z"/>
								<path class="st4" d="M1065,998.7l-3.7-0.3c8.8-109.6,31.4-218.8,53.4-324.3c15-72.2,30.5-147,41.5-221.2l3.6,0.5
									c-11,74.4-26.5,149.1-41.5,221.4C1096.4,780.3,1073.7,889.4,1065,998.7z"/>
								<path class="st4" d="M1135.7,1347.2c-81.9-129.2-250-265.1-359.9-290.8l0.8-3.6c110.7,25.9,279.9,162.5,362.2,292.4
									L1135.7,1347.2z"/>
							</g>
						</g>
					</g>
					<g>
						
							<linearGradient id="SVGID_00000070111038904725666220000015282455304673082261_" gradientUnits="userSpaceOnUse" x1="1035.3645" y1="-668.8956" x2="1915.002" y2="779.2143" gradientTransform="matrix(-1.200000e-02 0.9999 0.9999 1.200000e-02 1210.0619 405.1532)">
							<stop  offset="0" style="stop-color:#FF85D2"/>
							<stop  offset="1" style="stop-color:#AA2BFB"/>
						</linearGradient>
						<path style="fill:url(#SVGID_00000070111038904725666220000015282455304673082261_);" d="M1018.7,1552.5
							c64.5,226.9,193.7,167.1,362.1,97.9c-13,219.3-17.6,433.4-21.4,650.6c-113.4,44.6-195.4,74.5-270.7-52.8
							c-85.2-143.9-129.6-229.8-312.4-252.8c-182.8-23-329.4-144.7-282.6-322.9c49.2-187.5-126.9-413,15.8-557.7
							C758.1,862.6,951.6,1316.2,1018.7,1552.5z"/>
						<g>
							<defs>
								<path id="SVGID_00000026877715788572097090000016479229624078637954_" d="M1441.7,2253.2c-120.2,73.1-255.7,156.4-354-7
									c-81.8-136-129.8-230.7-311.8-251.3c-182-20.6-329.2-145.7-282.4-322.4c49.3-185.9-126.4-415.4,16-557.6
									c248.1-247.8,443.1,193,509,441c66,248.1,216.6,124.1,377.2,102.8C1614.7,1629.6,1538.8,2194.1,1441.7,2253.2z"/>
							</defs>
							<clipPath id="SVGID_00000095307105417310680470000018080629162799699092_">
								<use xlink:href="#SVGID_00000026877715788572097090000016479229624078637954_"  style="overflow:visible;"/>
							</clipPath>
							<g style="opacity:0.7;clip-path:url(#SVGID_00000095307105417310680470000018080629162799699092_);">
								<path class="st4" d="M1322.4,2025.6c-185-72.9-337.2-138.9-470.7-266.3c-127.8-122-196.2-258.6-228.6-457.1
									c-16.8-102.9-40.5-174.6-74.7-272.4l3.5-1.2c34.3,98,58,169.9,74.9,273c32.3,197.6,100.4,333.6,227.5,455
									c133.1,127,284.9,192.8,469.5,265.6L1322.4,2025.6z"/>
								<path class="st4" d="M1118.4,2329.1l-3-2.1c37.4-53.7,78.7-98.2,126.4-136c24.3-19.3,49.8-33.1,80.4-47.9l1.6,3.3
									c-30.4,14.7-55.7,28.3-79.7,47.5C1196.7,2231.5,1155.6,2275.7,1118.4,2329.1z"/>
								<path class="st4" d="M937.5,1832.1c-139.7-55.4-308.2-58.5-474.5-8.7l-1.1-3.5c167.1-50,336.5-46.8,476.9,8.8L937.5,1832.1z
									"/>
								<path class="st4" d="M683.4,1511.4l-3.6,0.7c-3.4-17.4,8.6-165.8,21-298.8c12.5-133.6,27.6-277.2,31.4-286.4l3.4,1.4
									c-3.2,7.8-17.2,135.8-31.2,285.3C692.1,1346.5,680,1494.4,683.4,1511.4z"/>
							</g>
						</g>
					</g>
				</g>
			</g>
		</g>
		<g>
			<g>
				
					<linearGradient id="SVGID_00000086681970620816207410000011806296846980714368_" gradientUnits="userSpaceOnUse" x1="1862.4729" y1="1822.196" x2="2187.8501" y2="779.0756">
					<stop  offset="0" style="stop-color:#1C1944"/>
					<stop  offset="1" style="stop-color:#5F3989"/>
				</linearGradient>
				<path style="fill:url(#SVGID_00000086681970620816207410000011806296846980714368_);" d="M1148.3,1908.9
					c-43.6,1.5-87.5-10.6-123.3-37.2c-79.2-59-87.7-166.1-18.9-238.6l792.1-846.8c32.9-34.6,80.5-53.7,130.3-52.4
					c49.6,1.4,96.5,22.8,128.8,58.8l336.7,375.5l431.5-450.3c57.2-62.9,156.4-66.8,221.3-9.2c64.6,57.2,71.5,154,15.5,216.8
					l-545,586.1c-30.9,34.7-75.9,54.9-123.4,55.4c-47.7,0.5-93.3-18.9-124.8-53.4l-340.7-372.3L1289,1846.4
					C1252.4,1885.8,1200.6,1907.1,1148.3,1908.9z"/>
				<g>
					
						<linearGradient id="SVGID_00000137104027515326030460000015540792750495467679_" gradientUnits="userSpaceOnUse" x1="2527.9011" y1="2254.7458" x2="2903.4326" y2="1050.8363">
						<stop  offset="0" style="stop-color:#1C1944"/>
						<stop  offset="1" style="stop-color:#5F3989"/>
					</linearGradient>
					<polygon style="fill:url(#SVGID_00000137104027515326030460000015540792750495467679_);" points="3165.7,1003 2747.9,636.6 
						3288.7,455 3326.5,455 3204.4,998.7 					"/>
				</g>
			</g>
			<g>
				
					<linearGradient id="SVGID_00000005974655692316678840000016204894566873298105_" gradientUnits="userSpaceOnUse" x1="1900.2379" y1="1822.196" x2="2225.6152" y2="779.0754">
					<stop  offset="0" style="stop-color:#FF85D2"/>
					<stop  offset="1" style="stop-color:#AA2BFB"/>
				</linearGradient>
				<path style="fill:url(#SVGID_00000005974655692316678840000016204894566873298105_);" d="M1186.1,1908.9
					c-43.6,1.5-87.5-10.6-123.3-37.2c-79.2-59-87.7-166.1-18.9-238.6L1836,786.3c32.9-34.6,80.5-53.7,130.3-52.4
					c49.6,1.4,96.5,22.8,128.8,58.8l336.7,375.5l431.5-450.3c57.2-62.9,156.4-66.8,221.3-9.2c64.6,57.2,71.5,154,15.5,216.8
					l-545,586.1c-30.9,34.7-75.9,54.9-123.4,55.4c-47.7,0.5-93.3-18.9-124.8-53.4l-340.7-372.3l-639.5,705.1
					C1290.1,1885.8,1238.4,1907.1,1186.1,1908.9z"/>
				<g>
					
						<linearGradient id="SVGID_00000050633611563815956920000008718648063235706763_" gradientUnits="userSpaceOnUse" x1="2556.7522" y1="2223.3975" x2="2924.8887" y2="1043.1964">
						<stop  offset="0" style="stop-color:#FF85D2"/>
						<stop  offset="1" style="stop-color:#AA2BFB"/>
					</linearGradient>
					<polygon style="fill:url(#SVGID_00000050633611563815956920000008718648063235706763_);" points="3203.4,1003 2785.7,636.6 
						3326.5,455 					"/>
				</g>
			</g>
		</g>
		<g>
			<path class="st11" d="M1890.4,1308.4c0,0,140.7,41.2,156.1,255.7c-23-1.6-76.6,0.2-76.6,0.2s9.6-156-90.5-186.1
				C1887.4,1360,1890.4,1308.4,1890.4,1308.4z"/>
			<path class="st11" d="M1381.7,1319.6c0,0-137.4,52.3-137.4,267.3c22.8-3.4,76.4-5.9,76.4-5.9s-20.7-154.8,77-192.8
				C1388.4,1370.8,1381.7,1319.6,1381.7,1319.6z"/>
			
				<linearGradient id="SVGID_00000150080582191655997290000004322606695060744891_" gradientUnits="userSpaceOnUse" x1="2087.4829" y1="2014.2645" x2="2125.293" y2="1451.3235" gradientTransform="matrix(1 -2.100000e-03 2.100000e-03 1 -473.4022 -244.0826)">
				<stop  offset="9.996050e-02" style="stop-color:#1C1944"/>
				<stop  offset="0.2937" style="stop-color:#211C4A"/>
				<stop  offset="0.541" style="stop-color:#312359"/>
				<stop  offset="0.8162" style="stop-color:#4A2F73"/>
				<stop  offset="1" style="stop-color:#5F3989"/>
			</linearGradient>
			<path style="fill:url(#SVGID_00000150080582191655997290000004322606695060744891_);" d="M1374.4,1296.7
				c3.6,39,7.2,78.1,10.8,117.1c69.5-17.7,145.4-38.2,227.1-42.1c106.2-5.1,203.6,5.5,290.4,24.1c3.8-4.9,12-16.8,15.7-36.1
				c6-31.1-4.2-56.9-6.1-61.5c-44.2-14.2-92.1-26.2-143.5-34.2C1621.5,1240.8,1488.6,1264.4,1374.4,1296.7z"/>
			
				<linearGradient id="SVGID_00000089571819673004040450000006540624495591119516_" gradientUnits="userSpaceOnUse" x1="1863.1805" y1="1609.9601" x2="2285.8845" y2="1836.5844" gradientTransform="matrix(1 -2.100000e-03 2.100000e-03 1 -473.4022 -244.0826)">
				<stop  offset="9.996050e-02" style="stop-color:#1C1944"/>
				<stop  offset="0.2937" style="stop-color:#211C4A"/>
				<stop  offset="0.541" style="stop-color:#312359"/>
				<stop  offset="0.8162" style="stop-color:#4A2F73"/>
				<stop  offset="1" style="stop-color:#5F3989"/>
			</linearGradient>
			<path style="fill:url(#SVGID_00000089571819673004040450000006540624495591119516_);" d="M1367.9,1330.6
				c0.2-14.1,1.3-31.8,6.5-33.9c4.9-2,11.5,10.8,14.3,17.9c1.2,3,3.8,10.1,5.4,32.9c2.1,29.4-0.3,43.8-2.5,52.7
				c-1.3,5.4-3.4,13.5-6.5,13.7c-2.5,0.2-4.7-4.9-7.9-14.8C1372.8,1385.7,1367.5,1363.4,1367.9,1330.6z"/>
			
				<linearGradient id="SVGID_00000146461130652791512360000005467211328864252804_" gradientUnits="userSpaceOnUse" x1="1229.1633" y1="2308.6089" x2="993.7276" y2="156.4999" gradientTransform="matrix(1 -2.100000e-03 2.100000e-03 1 -473.4022 -244.0826)">
				<stop  offset="9.996050e-02" style="stop-color:#1C1944"/>
				<stop  offset="0.608" style="stop-color:#442C6D"/>
				<stop  offset="1" style="stop-color:#5F3989"/>
			</linearGradient>
			<path style="fill:url(#SVGID_00000146461130652791512360000005467211328864252804_);" d="M637.8,1615.1c0,0,3.4-72.1,124.9-72.3
				c19.2,13.1,20.2,72,20.2,72L637.8,1615.1z"/>
			
				<linearGradient id="SVGID_00000008129864138167662090000012811506879283522992_" gradientUnits="userSpaceOnUse" x1="2272.0813" y1="3211.5273" x2="689.885" y2="2330.53" gradientTransform="matrix(1 -2.100000e-03 2.100000e-03 1 -473.4022 -244.0826)">
				<stop  offset="0" style="stop-color:#1C1944"/>
				<stop  offset="1" style="stop-color:#5F3989"/>
			</linearGradient>
			<path style="fill:url(#SVGID_00000008129864138167662090000012811506879283522992_);" d="M532.7,3031.8l332.9,189.2l200.1-697.8
				l-333.9-934.2l-94.1,26.2L497.6,2958.2C494.5,2988.6,508.5,3018,532.7,3031.8z"/>
			
				<linearGradient id="SVGID_00000044139162655513083870000005902604861130786703_" gradientUnits="userSpaceOnUse" x1="845.6902" y1="1992.3558" x2="1319.287" y2="2786.5413" gradientTransform="matrix(1 -2.100000e-03 2.100000e-03 1 -473.4022 -244.0826)">
				<stop  offset="0" style="stop-color:#1C1944"/>
				<stop  offset="1" style="stop-color:#5F3989"/>
			</linearGradient>
			<path style="opacity:0.3;fill:url(#SVGID_00000044139162655513083870000005902604861130786703_);" d="M1065.7,2523.1
				l-333.9-934.2l-94.1,26.2c23.3,82.5,34.7,216.8,40.1,291.6c22.9,318.3,97,406.7,61.6,628.8c-29.4,184.7-94.4,209.9-88.4,334.1
				c6.5,135.3,90.4,248.4,190,337.3l24.6,14L1065.7,2523.1z"/>
			
				<linearGradient id="SVGID_00000134226486755272248510000012188415361193975938_" gradientUnits="userSpaceOnUse" x1="2143.7769" y1="1043.2777" x2="2315.8704" y2="3352.9683" gradientTransform="matrix(1 -2.100000e-03 2.100000e-03 1 -473.4022 -244.0826)">
				<stop  offset="9.996050e-02" style="stop-color:#1C1944"/>
				<stop  offset="0.608" style="stop-color:#442C6D"/>
				<stop  offset="1" style="stop-color:#5F3989"/>
			</linearGradient>
			<polygon style="fill:url(#SVGID_00000134226486755272248510000012188415361193975938_);" points="731.9,1588.9 2557.7,1584.8 
				2848.2,3066.1 865.6,3220.9 			"/>
			<g class="st18">
				
					<linearGradient id="SVGID_00000005988346308405675580000015585648456932393895_" gradientUnits="userSpaceOnUse" x1="1795.167" y1="2323.3469" x2="3176.9365" y2="3387.9907" gradientTransform="matrix(1 -2.100000e-03 2.100000e-03 1 -473.4022 -244.0826)">
					<stop  offset="0" style="stop-color:#1C1944"/>
					<stop  offset="1" style="stop-color:#5F3989"/>
				</linearGradient>
				<path style="fill:url(#SVGID_00000005988346308405675580000015585648456932393895_);" d="M2557.7,1584.8l-615.1,1.4
					c-11.3,30.4-28.5,72.4-53.7,120c-274,517.9-903.6,584.5-892.1,669.5c17.3,127,1419.2-56.5,1455.3,118.1
					c17.5,84.3-278.3,276.5-587.6,349.8c-370.3,87.7-642.8-21.2-823.5,174.4C980,3084.1,953.1,3161.6,940,3214l1908.2-147.9
					L2557.7,1584.8z"/>
			</g>
			
				<linearGradient id="SVGID_00000162346339240737336190000007195311130339439503_" gradientUnits="userSpaceOnUse" x1="1438.5529" y1="2224.3958" x2="2024.2891" y2="2201.6489" gradientTransform="matrix(1 -2.100000e-03 2.100000e-03 1 -473.4022 -244.0826)">
				<stop  offset="9.996050e-02" style="stop-color:#1C1944"/>
				<stop  offset="0.608" style="stop-color:#442C6D"/>
				<stop  offset="1" style="stop-color:#5F3989"/>
			</linearGradient>
			<path style="fill:url(#SVGID_00000162346339240737336190000007195311130339439503_);" d="M762.7,1542.8
				c-20.6,0-49.3-2.3-80.6,15.1c-6.7,3.7-12.6,7.8-17.7,11.9l14.4-4.9c23.2-6.5,55.1,2,67.1,23.9c14.7,26.9,20.1,89.2,23.4,120.1
				c9.3,87.8,66.4,634.3,66.4,634.3c4.3,46.1,41.5,80.9,85.3,79.9l1698.3-87.1c12.9-0.3,25.6-4.1,36.3-11.8
				c22.2-16.1,32.1-44,26.9-70.4l-87.4-650.8c-7.4-37.4-38.6-64.2-74.8-64.1L762.7,1542.8z"/>
			
				<linearGradient id="SVGID_00000055680446340598473080000017003603462566808980_" gradientUnits="userSpaceOnUse" x1="2338.2224" y1="4054.9412" x2="2149.1233" y2="1929.8447" gradientTransform="matrix(1 -2.100000e-03 2.100000e-03 1 -473.4022 -244.0826)">
				<stop  offset="9.996050e-02" style="stop-color:#1C1944"/>
				<stop  offset="0.2937" style="stop-color:#211C4A"/>
				<stop  offset="0.541" style="stop-color:#312359"/>
				<stop  offset="0.8162" style="stop-color:#4A2F73"/>
				<stop  offset="1" style="stop-color:#5F3989"/>
			</linearGradient>
			<path style="fill:url(#SVGID_00000055680446340598473080000017003603462566808980_);" d="M780.9,1542.8c-20.6,0-45-2.6-72.2,4.4
				c-7.3,1.9-19.1,5.3-24.2,9.4c0,0,57.6-13.1,79.5,32.2c13.4,27.7,20.1,89.2,23.4,120.1c9.3,87.8,66.4,634.3,66.4,634.3
				c4.3,46.1,41.5,80.9,85.3,79.9l1717.5-38.7c12.9-0.3,25.6-4.1,36.3-11.8c22.2-16.1,32.1-44,26.9-70.4l-106.6-699.2
				c-7.4-37.4-38.6-64.2-74.8-64.1L780.9,1542.8z"/>
			
				<linearGradient id="SVGID_00000083795747356205111270000006943759167416532387_" gradientUnits="userSpaceOnUse" x1="2431.061" y1="4553.9536" x2="2109.5005" y2="1614.5828" gradientTransform="matrix(1 -2.100000e-03 2.100000e-03 1 -473.4022 -244.0826)">
				<stop  offset="0" style="stop-color:#1C1944"/>
				<stop  offset="1" style="stop-color:#5F3989"/>
			</linearGradient>
			<path style="opacity:0.1;fill:url(#SVGID_00000083795747356205111270000006943759167416532387_);" d="M2719.9,2302.1
				l-106.6-699.2c-7.4-37.4-38.6-64.2-74.8-64.1l-1757.6,3.9c-20.6,0-45-2.6-72.2,4.4c-7.3,1.9-19.1,5.3-24.2,9.4
				c0,0,57.6-13.1,79.5,32.2c2.1,4.4,4,9.6,5.8,15.4c166.9,5.9,333.8,1,500.8,10.8c330,18.8,663.7,18.1,975.4,142.7
				c99.7,39.8,168.3,183.7,141.4,250.2c-19.4,48-85.9,44.3-109,107.3c-24.3,66.2,34.3,111.1,9.9,157.6
				c-25.6,48.7-103.8,25.7-230.2,60.7c-69.7,19.3-123,47.7-156.4,67.9l755-17c12.9-0.3,25.6-4.1,36.3-11.8
				C2715.1,2356.5,2725.1,2328.6,2719.9,2302.1z"/>
			<g>
				
					<linearGradient id="SVGID_00000096774518649870865240000002109277894437883289_" gradientUnits="userSpaceOnUse" x1="2907.1899" y1="3011.8496" x2="1887.2744" y2="2478.7117" gradientTransform="matrix(1 -2.100000e-03 2.100000e-03 1 -473.4022 -244.0826)">
					<stop  offset="0" style="stop-color:#FF8A44"/>
					<stop  offset="0.9964" style="stop-color:#F3569F"/>
				</linearGradient>
				<path style="fill:url(#SVGID_00000096774518649870865240000002109277894437883289_);" d="M1898.3,2516.3l-215,49.1l-22.7,1.8
					c-22.9,1.8-42.6-16.7-43.7-41.2l-9.9-231.5c-1-24.5,17-44.8,40-45.2l22.8-0.4l216.3,25.4c20.7-0.3,38-10.7,39,12.3l9.3,217.1
					C1935.4,2526.6,1918.9,2514.7,1898.3,2516.3z"/>
				
					<linearGradient id="SVGID_00000176026134645679263070000015951924915500027058_" gradientUnits="userSpaceOnUse" x1="1991.0754" y1="2560.6489" x2="3037.9778" y2="2935.2756" gradientTransform="matrix(1 -2.100000e-03 2.100000e-03 1 -473.4022 -244.0826)">
					<stop  offset="0" style="stop-color:#FF8A44"/>
					<stop  offset="0.9964" style="stop-color:#F3569F"/>
				</linearGradient>
				<path style="fill:url(#SVGID_00000176026134645679263070000015951924915500027058_);" d="M1914.7,2548.4l-238.2,18.9
					c-22.9,1.8-42.6-16.7-43.7-41.2l-9.9-231.5c-1-24.5,17-44.8,40-45.2l238.9-3.9c20.7-0.3,38.2,18.2,39.2,41.1l9.3,217.1
					C1951.3,2526.6,1935.3,2546.7,1914.7,2548.4z"/>
			</g>
		</g>
		<g>
			<g>
				
					<linearGradient id="SVGID_00000108278860883208164210000000410109432525153201_" gradientUnits="userSpaceOnUse" x1="629.2188" y1="3257.8472" x2="1555.1497" y2="3257.8472">
					<stop  offset="0" style="stop-color:#FC7248"/>
					<stop  offset="2.557466e-03" style="stop-color:#FC7348"/>
					<stop  offset="6.891792e-02" style="stop-color:#FE8046"/>
					<stop  offset="0.1536" style="stop-color:#FF8844"/>
					<stop  offset="0.3183" style="stop-color:#FF8A44"/>
					<stop  offset="0.4824" style="stop-color:#FE7F46"/>
					<stop  offset="0.7684" style="stop-color:#FA624D"/>
					<stop  offset="0.8658" style="stop-color:#F8574F"/>
					<stop  offset="1" style="stop-color:#F8574F"/>
				</linearGradient>
				<path style="fill:url(#SVGID_00000108278860883208164210000000410109432525153201_);" d="M698,3187.1v89.3
					c0,28.8,180.2,52.2,402.4,52.2s402.4-23.4,402.4-52.2v-89.3H698z"/>
				
					<linearGradient id="SVGID_00000097465420699374086730000018167084496137176982_" gradientUnits="userSpaceOnUse" x1="1096.4396" y1="3153.5444" x2="1145.2535" y2="3562.1887">
					<stop  offset="0" style="stop-color:#FFAA44"/>
					<stop  offset="1" style="stop-color:#FEB106"/>
				</linearGradient>
				
					<ellipse style="fill:url(#SVGID_00000097465420699374086730000018167084496137176982_);" cx="1100.4" cy="3187.1" rx="402.4" ry="52.2"/>
				
					<linearGradient id="SVGID_00000028284135463653513150000011631200752246562720_" gradientUnits="userSpaceOnUse" x1="1094.3168" y1="3135.3208" x2="1109.3085" y2="3260.8223">
					<stop  offset="0" style="stop-color:#FFAA44"/>
					<stop  offset="1" style="stop-color:#FEB106"/>
				</linearGradient>
				<path style="fill:url(#SVGID_00000028284135463653513150000011631200752246562720_);" d="M1100.4,3242.9
					c-196.8,0-402.7-18.8-402.7-55.1c0-2,0.7-5.5,2.7-5.5c2,0,1.1,2.7,1.1,4.7c0,23,163.8,48.6,398.8,48.6
					c235,0,398.8-25.6,398.8-48.6c0-2,0.3-3.9,2.3-3.9c2,0,1.5,2.7,1.5,4.6C1503.1,3224.2,1297.3,3242.9,1100.4,3242.9z"/>
				<g>
					<path class="st28" d="M1062.4,3190c3.9-2.7,8.2-5.4,12.6-8.1c4.5-2.7,10.3-5.1,17.3-7.2c7.1-2.1,15.9-3.9,26.5-5.2
						c10.6-1.4,23.9-2.1,39.7-2.1c15.6-0.1,30.1,0.4,43.8,1.5c13.6,1.1,25.6,2.7,36,4.8c10.3,2.1,18.8,4.7,25.3,7.8
						c6.5,3.1,10.3,6.7,11.6,10.7l45.3,0.5c3.3,0,6.2,0.3,8.7,0.8c2.5,0.5,3.8,1.2,3.8,2l0,3.7l-58.3-0.6c-2,4.6-7.2,8.7-15.6,12.5
						c-8.3,3.8-19,7.1-31.9,9.9l-21.2-2.9c-1.9-0.3-3.5-0.7-4.7-1.1c-1.2-0.4-1.8-0.9-1.8-1.5c0-0.7,1.6-1.5,4.9-2.5
						c3.3-0.9,7-2.1,11.1-3.4c4.1-1.4,8.2-3,12.2-4.8c4-1.8,6.6-4.1,8-6.6l-137.5-1.4c-3.6,2.7-7.7,5.3-12.1,7.8
						c-4.5,2.6-10.4,4.9-17.8,6.9c-7.4,2.1-16.6,3.7-27.7,5c-11.1,1.3-24.9,2-41.7,2c-12.6,0.1-24.9-0.4-36.9-1.4
						c-12-1-22.7-2.5-32-4.6c-9.3-2-17-4.5-23-7.5c-6-3-9.3-6.4-10-10.3l-37.3-0.4c-3.3,0-6.2-0.3-8.8-0.8c-2.6-0.5-3.9-1.2-3.9-2
						l0-3.7l51,0.5c2.3-3.9,6.9-7.4,13.9-10.3c7.1-2.9,15.7-5.5,25.9-7.8l17.1,2.3c5.2,0.7,7.8,1.6,7.8,2.6c0,0.5-1,1.2-3.2,2
						c-2.2,0.8-4.7,1.7-7.7,2.8c-2.9,1.1-5.8,2.4-8.5,3.8c-2.8,1.5-4.8,3.1-6.2,5L1062.4,3190z M936.6,3195.1c1,2.4,3.3,4.6,6.8,6.3
						c3.5,1.8,7.8,3.2,13,4.4c5.2,1.1,11,2,17.5,2.5c6.5,0.5,13.3,0.8,20.4,0.8c8.3,0,15.5-0.4,21.6-1.1c6.1-0.7,11.5-1.6,16.2-2.7
						c4.6-1.2,8.7-2.5,12.2-4c3.4-1.5,6.5-3.2,9.3-5L936.6,3195.1z M1235.9,3191.8c-1-2.5-3.5-4.7-7.4-6.5
						c-3.9-1.9-8.9-3.4-14.9-4.7c-6-1.3-13.1-2.2-21.1-2.8c-8-0.6-16.9-0.9-26.6-0.9c-8.6,0-16.1,0.4-22.2,1.2
						c-6.2,0.7-11.6,1.7-16.2,2.9c-4.5,1.2-8.5,2.7-11.6,4.3c-3.2,1.6-6.2,3.4-8.9,5.2L1235.9,3191.8z"/>
				</g>
				
					<linearGradient id="SVGID_00000075869666305831936080000006258686038571940529_" gradientUnits="userSpaceOnUse" x1="560.8391" y1="880.1737" x2="575.7775" y2="1005.2306" gradientTransform="matrix(-1 0 0 -1 1669.249 4127.8389)">
					<stop  offset="3.597120e-03" style="stop-color:#F3569F"/>
					<stop  offset="2.989186e-02" style="stop-color:#F4599A"/>
					<stop  offset="0.3252" style="stop-color:#FA736C"/>
					<stop  offset="0.5521" style="stop-color:#FE844F"/>
					<stop  offset="0.6817" style="stop-color:#FF8A44"/>
					<stop  offset="0.8124" style="stop-color:#FF8846"/>
					<stop  offset="0.8796" style="stop-color:#FD804D"/>
					<stop  offset="0.9323" style="stop-color:#FB7358"/>
					<stop  offset="0.9773" style="stop-color:#F76069"/>
					<stop  offset="1" style="stop-color:#F55374"/>
				</linearGradient>
				<path style="fill:url(#SVGID_00000075869666305831936080000006258686038571940529_);" d="M1100.5,3140.5
					c-179.4,0-366.3,15.8-396.1,46.4c1.2,1.1,2.3,2.2,3.3,3.4c25.2-21.2,179.5-42.6,392.9-42.6c218.9,0,375.6,22.5,394.6,44.2
					c0.9-1.2,1.9-2.3,3-3.4C1473.5,3156.9,1283.1,3140.5,1100.5,3140.5z"/>
			</g>
			<g>
				
					<linearGradient id="SVGID_00000170277461999365689580000000710135761251290541_" gradientUnits="userSpaceOnUse" x1="517.3477" y1="3164.0903" x2="1443.2773" y2="3164.0903">
					<stop  offset="0" style="stop-color:#FC7248"/>
					<stop  offset="2.557466e-03" style="stop-color:#FC7348"/>
					<stop  offset="6.891792e-02" style="stop-color:#FE8046"/>
					<stop  offset="0.1536" style="stop-color:#FF8844"/>
					<stop  offset="0.3183" style="stop-color:#FF8A44"/>
					<stop  offset="0.4824" style="stop-color:#FE7F46"/>
					<stop  offset="0.7684" style="stop-color:#FA624D"/>
					<stop  offset="0.8658" style="stop-color:#F8574F"/>
					<stop  offset="1" style="stop-color:#F8574F"/>
				</linearGradient>
				<path style="fill:url(#SVGID_00000170277461999365689580000000710135761251290541_);" d="M586.2,3093.3v89.3
					c0,28.8,180.2,52.2,402.4,52.2c222.3,0,402.4-23.4,402.4-52.2v-89.3H586.2z"/>
				
					<linearGradient id="SVGID_00000082359505384056896090000006489832549146423986_" gradientUnits="userSpaceOnUse" x1="984.5678" y1="3059.7886" x2="1033.3818" y2="3468.4331">
					<stop  offset="0" style="stop-color:#FFAA44"/>
					<stop  offset="1" style="stop-color:#FEB106"/>
				</linearGradient>
				<path style="fill:url(#SVGID_00000082359505384056896090000006489832549146423986_);" d="M1391,3093.3
					c0,28.8-180.2,52.2-402.4,52.2c-222.3,0-402.4-23.4-402.4-52.2c0-28.8,180.2-52.2,402.4-52.2
					C1210.8,3041.1,1391,3064.5,1391,3093.3z"/>
				
					<linearGradient id="SVGID_00000183208693010933062980000000880772375872070068_" gradientUnits="userSpaceOnUse" x1="982.4454" y1="3041.5649" x2="997.4369" y2="3167.0657">
					<stop  offset="0" style="stop-color:#FFAA44"/>
					<stop  offset="1" style="stop-color:#FEB106"/>
				</linearGradient>
				<path style="fill:url(#SVGID_00000183208693010933062980000000880772375872070068_);" d="M988.6,3149.2
					c-196.8,0-402.7-18.8-402.7-55.1c0-2,0.7-5.5,2.7-5.5c2,0,1.1,2.7,1.1,4.7c0,23,163.8,48.6,398.8,48.6s398.8-25.6,398.8-48.6
					c0-2,0.3-3.9,2.3-3.9c2,0,1.5,2.7,1.5,4.6C1391.2,3130.4,1185.4,3149.2,988.6,3149.2z"/>
				<g>
					<path class="st28" d="M950.5,3096.3c3.9-2.7,8.2-5.4,12.6-8.1c4.5-2.7,10.3-5.1,17.3-7.2c7.1-2.1,15.9-3.9,26.5-5.2
						c10.6-1.4,23.9-2.1,39.7-2.1c15.6-0.1,30.1,0.4,43.8,1.5c13.6,1.1,25.6,2.7,36,4.8c10.3,2.1,18.8,4.7,25.3,7.8
						c6.5,3.1,10.3,6.7,11.6,10.7l45.3,0.5c3.3,0,6.2,0.3,8.7,0.8c2.5,0.5,3.8,1.2,3.8,2l0,3.7l-58.3-0.6c-2,4.6-7.2,8.7-15.6,12.5
						c-8.3,3.8-19,7.1-31.9,9.9l-21.2-3c-1.9-0.3-3.5-0.7-4.7-1.1c-1.2-0.4-1.8-0.9-1.8-1.5c0-0.7,1.6-1.5,4.9-2.5
						c3.3-0.9,7-2.1,11.1-3.4c4.1-1.4,8.2-3,12.2-4.8c4-1.8,6.6-4.1,8-6.6l-137.5-1.4c-3.6,2.7-7.7,5.3-12.1,7.8
						c-4.5,2.6-10.4,4.9-17.8,6.9c-7.4,2.1-16.6,3.7-27.7,5c-11.1,1.3-24.9,2-41.7,2c-12.6,0.1-24.9-0.4-36.9-1.4
						c-12-1-22.7-2.5-32-4.6c-9.3-2-17-4.5-23-7.5c-6-3-9.3-6.4-10-10.3l-37.3-0.4c-3.3,0-6.2-0.3-8.8-0.8c-2.6-0.5-3.9-1.2-3.9-2
						l0-3.7l51,0.5c2.3-3.9,6.9-7.4,13.9-10.3c7.1-2.9,15.7-5.5,25.9-7.8l17.1,2.3c5.2,0.7,7.8,1.6,7.8,2.6c0,0.5-1,1.2-3.2,2
						c-2.2,0.8-4.7,1.7-7.7,2.8c-2.9,1.1-5.8,2.4-8.5,3.8c-2.8,1.5-4.8,3.1-6.2,5L950.5,3096.3z M824.7,3101.3
						c1,2.4,3.3,4.6,6.8,6.3c3.5,1.8,7.8,3.2,13,4.4c5.2,1.1,11,2,17.5,2.5c6.5,0.5,13.3,0.8,20.4,0.8c8.3,0,15.5-0.4,21.6-1.1
						c6.1-0.7,11.5-1.6,16.2-2.7c4.6-1.2,8.7-2.5,12.2-4c3.4-1.5,6.5-3.2,9.3-5L824.7,3101.3z M1124,3098c-1-2.5-3.5-4.7-7.4-6.5
						c-3.9-1.9-8.9-3.4-14.9-4.7c-6-1.3-13.1-2.2-21.1-2.8c-8-0.6-16.9-0.9-26.6-0.9c-8.6,0-16.1,0.4-22.2,1.2
						c-6.2,0.7-11.6,1.7-16.2,2.9c-4.5,1.2-8.5,2.7-11.6,4.3c-3.2,1.6-6.2,3.4-8.9,5.2L1124,3098z"/>
				</g>
				
					<linearGradient id="SVGID_00000130625930156795920670000007092237431676884413_" gradientUnits="userSpaceOnUse" x1="672.7114" y1="973.9305" x2="687.6498" y2="1098.9869" gradientTransform="matrix(-1 0 0 -1 1669.249 4127.8389)">
					<stop  offset="3.597120e-03" style="stop-color:#F3569F"/>
					<stop  offset="2.989186e-02" style="stop-color:#F4599A"/>
					<stop  offset="0.3252" style="stop-color:#FA736C"/>
					<stop  offset="0.5521" style="stop-color:#FE844F"/>
					<stop  offset="0.6817" style="stop-color:#FF8A44"/>
					<stop  offset="0.8124" style="stop-color:#FF8846"/>
					<stop  offset="0.8796" style="stop-color:#FD804D"/>
					<stop  offset="0.9323" style="stop-color:#FB7358"/>
					<stop  offset="0.9773" style="stop-color:#F76069"/>
					<stop  offset="1" style="stop-color:#F55374"/>
				</linearGradient>
				<path style="fill:url(#SVGID_00000130625930156795920670000007092237431676884413_);" d="M988.6,3046.8
					c-179.4,0-366.3,15.8-396.1,46.4c1.2,1.1,2.3,2.2,3.3,3.4c25.2-21.2,179.5-42.6,392.9-42.6c218.9,0,375.6,22.5,394.6,44.2
					c0.9-1.2,1.9-2.3,3-3.4C1361.6,3063.2,1171.3,3046.8,988.6,3046.8z"/>
			</g>
			<g>
				
					<linearGradient id="SVGID_00000121264719458086677190000017856310708080065467_" gradientUnits="userSpaceOnUse" x1="613.8767" y1="3070.6086" x2="1539.8076" y2="3070.6086">
					<stop  offset="0" style="stop-color:#FC7248"/>
					<stop  offset="2.557466e-03" style="stop-color:#FC7348"/>
					<stop  offset="6.891792e-02" style="stop-color:#FE8046"/>
					<stop  offset="0.1536" style="stop-color:#FF8844"/>
					<stop  offset="0.3183" style="stop-color:#FF8A44"/>
					<stop  offset="0.4824" style="stop-color:#FE7F46"/>
					<stop  offset="0.7684" style="stop-color:#FA624D"/>
					<stop  offset="0.8658" style="stop-color:#F8574F"/>
					<stop  offset="1" style="stop-color:#F8574F"/>
				</linearGradient>
				<path style="fill:url(#SVGID_00000121264719458086677190000017856310708080065467_);" d="M682.7,2999.9v89.3
					c0,28.8,180.2,52.2,402.4,52.2c222.3,0,402.4-23.4,402.4-52.2v-89.3H682.7z"/>
				
					<linearGradient id="SVGID_00000180339960222618461480000010079874108211939752_" gradientUnits="userSpaceOnUse" x1="1081.0974" y1="2966.3066" x2="1129.9115" y2="3374.9514">
					<stop  offset="0" style="stop-color:#FFAA44"/>
					<stop  offset="1" style="stop-color:#FEB106"/>
				</linearGradient>
				<path style="fill:url(#SVGID_00000180339960222618461480000010079874108211939752_);" d="M1487.5,2999.9
					c0,28.8-180.2,52.2-402.4,52.2c-222.3,0-402.4-23.4-402.4-52.2c0-28.8,180.2-52.2,402.4-52.2
					C1307.4,2947.6,1487.5,2971,1487.5,2999.9z"/>
				
					<linearGradient id="SVGID_00000054944079971107498420000006937451726134521479_" gradientUnits="userSpaceOnUse" x1="1078.9755" y1="2948.0828" x2="1093.967" y2="3073.5837">
					<stop  offset="0" style="stop-color:#FFAA44"/>
					<stop  offset="1" style="stop-color:#FEB106"/>
				</linearGradient>
				<path style="fill:url(#SVGID_00000054944079971107498420000006937451726134521479_);" d="M1085.1,3055.7
					c-196.8,0-402.7-18.8-402.7-55.1c0-2,0.7-5.5,2.7-5.5c2,0,1.1,2.7,1.1,4.7c0,23,163.8,48.6,398.8,48.6s398.8-25.6,398.8-48.6
					c0-2,0.3-3.9,2.3-3.9c2,0,1.5,2.7,1.5,4.6C1487.8,3036.9,1281.9,3055.7,1085.1,3055.7z"/>
				<g>
					<path class="st28" d="M1047.1,3002.8c3.9-2.7,8.1-5.4,12.6-8.1c4.5-2.7,10.3-5.1,17.3-7.2c7.1-2.1,15.9-3.9,26.5-5.2
						c10.6-1.4,23.9-2.1,39.7-2.1c15.6-0.1,30.1,0.4,43.8,1.5c13.6,1.1,25.6,2.7,36,4.8c10.3,2.1,18.8,4.7,25.3,7.8
						c6.5,3.1,10.3,6.7,11.6,10.7l45.3,0.5c3.3,0,6.2,0.3,8.7,0.8c2.5,0.5,3.8,1.2,3.8,2l0,3.7l-58.3-0.6c-2,4.6-7.2,8.7-15.6,12.5
						c-8.3,3.8-19,7.1-31.9,9.9l-21.2-3c-1.9-0.3-3.5-0.7-4.7-1.1c-1.2-0.4-1.8-0.9-1.8-1.5c0-0.7,1.6-1.5,4.9-2.5
						c3.3-0.9,7-2.1,11.1-3.4c4.1-1.4,8.2-3,12.2-4.8c4-1.8,6.6-4.1,8-6.6l-137.5-1.4c-3.6,2.7-7.7,5.3-12.1,7.8
						c-4.5,2.6-10.4,4.9-17.8,6.9c-7.4,2.1-16.6,3.7-27.7,5c-11.1,1.3-24.9,2-41.7,2c-12.6,0.1-24.9-0.4-36.9-1.4
						c-12-1-22.7-2.5-32-4.6c-9.3-2-17-4.5-23-7.5c-6-3-9.3-6.4-10-10.3l-37.3-0.4c-3.3,0-6.2-0.3-8.8-0.8c-2.6-0.5-3.9-1.2-3.9-2
						l0-3.7l51,0.5c2.3-3.9,6.9-7.4,13.9-10.3c7.1-2.9,15.7-5.5,25.9-7.8l17.1,2.3c5.2,0.7,7.8,1.6,7.8,2.6c0,0.5-1,1.2-3.2,2
						c-2.2,0.8-4.7,1.7-7.7,2.8c-2.9,1.1-5.8,2.4-8.5,3.8c-2.8,1.5-4.8,3.1-6.2,5L1047.1,3002.8z M921.2,3007.9
						c1,2.4,3.3,4.6,6.8,6.3c3.5,1.8,7.8,3.2,13,4.4c5.2,1.1,11,2,17.5,2.5c6.5,0.5,13.3,0.8,20.4,0.8c8.3,0,15.5-0.4,21.6-1.1
						c6.1-0.7,11.5-1.6,16.2-2.7c4.6-1.2,8.7-2.5,12.2-4c3.4-1.5,6.5-3.2,9.3-5L921.2,3007.9z M1220.6,3004.5
						c-1-2.5-3.5-4.7-7.4-6.5c-3.9-1.9-8.9-3.4-14.9-4.7c-6-1.3-13.1-2.2-21.1-2.8c-8-0.6-16.9-0.9-26.6-0.9
						c-8.6,0-16.1,0.4-22.2,1.2c-6.2,0.7-11.6,1.7-16.2,2.9c-4.5,1.2-8.5,2.7-11.6,4.3c-3.2,1.6-6.2,3.4-8.9,5.2L1220.6,3004.5z"/>
				</g>
				
					<linearGradient id="SVGID_00000125573775717323490480000002719235871764287418_" gradientUnits="userSpaceOnUse" x1="576.1812" y1="1067.4122" x2="591.1196" y2="1192.4688" gradientTransform="matrix(-1 0 0 -1 1669.249 4127.8389)">
					<stop  offset="3.597120e-03" style="stop-color:#F3569F"/>
					<stop  offset="2.989186e-02" style="stop-color:#F4599A"/>
					<stop  offset="0.3252" style="stop-color:#FA736C"/>
					<stop  offset="0.5521" style="stop-color:#FE844F"/>
					<stop  offset="0.6817" style="stop-color:#FF8A44"/>
					<stop  offset="0.8124" style="stop-color:#FF8846"/>
					<stop  offset="0.8796" style="stop-color:#FD804D"/>
					<stop  offset="0.9323" style="stop-color:#FB7358"/>
					<stop  offset="0.9773" style="stop-color:#F76069"/>
					<stop  offset="1" style="stop-color:#F55374"/>
				</linearGradient>
				<path style="fill:url(#SVGID_00000125573775717323490480000002719235871764287418_);" d="M1085.2,2953.3
					c-179.4,0-366.3,15.8-396.1,46.4c1.2,1.1,2.3,2.2,3.3,3.4c25.2-21.2,179.5-42.6,392.9-42.6c218.9,0,375.6,22.5,394.6,44.2
					c0.9-1.2,1.9-2.3,3-3.4C1458.1,2969.7,1267.8,2953.3,1085.2,2953.3z"/>
			</g>
			<g>
				
					<linearGradient id="SVGID_00000021840872159415882480000001420206405558869170_" gradientUnits="userSpaceOnUse" x1="672.4552" y1="2976.8528" x2="1598.3848" y2="2976.8528">
					<stop  offset="0" style="stop-color:#FC7248"/>
					<stop  offset="2.557466e-03" style="stop-color:#FC7348"/>
					<stop  offset="6.891792e-02" style="stop-color:#FE8046"/>
					<stop  offset="0.1536" style="stop-color:#FF8844"/>
					<stop  offset="0.3183" style="stop-color:#FF8A44"/>
					<stop  offset="0.4824" style="stop-color:#FE7F46"/>
					<stop  offset="0.7684" style="stop-color:#FA624D"/>
					<stop  offset="0.8658" style="stop-color:#F8574F"/>
					<stop  offset="1" style="stop-color:#F8574F"/>
				</linearGradient>
				<path style="fill:url(#SVGID_00000021840872159415882480000001420206405558869170_);" d="M741.3,2906.1v89.3
					c0,28.8,180.2,52.2,402.4,52.2c222.3,0,402.4-23.4,402.4-52.2v-89.3H741.3z"/>
				
					<linearGradient id="SVGID_00000005239389283822363910000001504817127317112246_" gradientUnits="userSpaceOnUse" x1="1139.6753" y1="2872.5503" x2="1188.4893" y2="3281.1951">
					<stop  offset="0" style="stop-color:#FFAA44"/>
					<stop  offset="1" style="stop-color:#FEB106"/>
				</linearGradient>
				
					<ellipse style="fill:url(#SVGID_00000005239389283822363910000001504817127317112246_);" cx="1143.7" cy="2906.1" rx="402.4" ry="52.2"/>
				
					<linearGradient id="SVGID_00000158745146054205953030000011222942567201695921_" gradientUnits="userSpaceOnUse" x1="1137.5524" y1="2854.3259" x2="1152.5439" y2="2979.8279">
					<stop  offset="0" style="stop-color:#FFAA44"/>
					<stop  offset="1" style="stop-color:#FEB106"/>
				</linearGradient>
				<path style="fill:url(#SVGID_00000158745146054205953030000011222942567201695921_);" d="M1143.7,2961.9
					c-196.8,0-402.7-18.8-402.7-55.1c0-2,0.7-5.5,2.7-5.5c2,0,1.1,2.7,1.1,4.7c0,23,163.8,48.6,398.8,48.6
					c235,0,398.8-25.6,398.8-48.6c0-2,0.3-3.9,2.3-3.9s1.5,2.7,1.5,4.6C1546.3,2943.2,1340.5,2961.9,1143.7,2961.9z"/>
				<g>
					<path class="st28" d="M1105.7,2909c3.9-2.7,8.2-5.4,12.6-8.1c4.5-2.7,10.3-5.1,17.3-7.2c7.1-2.1,15.9-3.9,26.5-5.2
						c10.6-1.4,23.9-2.1,39.7-2.1c15.6-0.1,30.1,0.4,43.8,1.5c13.6,1.1,25.6,2.7,36,4.8c10.3,2.1,18.8,4.7,25.3,7.8
						c6.5,3.1,10.3,6.7,11.6,10.7l45.3,0.5c3.3,0,6.2,0.3,8.7,0.8c2.5,0.5,3.8,1.2,3.8,2l0,3.7l-58.3-0.6c-2,4.6-7.2,8.7-15.6,12.5
						c-8.3,3.8-19,7.1-31.9,9.9l-21.2-3c-1.9-0.3-3.5-0.7-4.7-1.1c-1.2-0.4-1.8-0.9-1.8-1.5c0-0.7,1.6-1.5,4.9-2.5
						c3.3-0.9,7-2.1,11.1-3.4c4.1-1.4,8.2-3,12.2-4.8c4-1.8,6.6-4.1,8-6.6l-137.5-1.4c-3.6,2.7-7.7,5.3-12.1,7.8
						c-4.5,2.6-10.4,4.9-17.8,6.9c-7.4,2.1-16.6,3.7-27.7,5c-11.1,1.3-24.9,2-41.7,2c-12.6,0.1-24.9-0.4-36.9-1.4
						c-12-1-22.7-2.5-32-4.6c-9.3-2-17-4.5-23-7.5c-6-3-9.3-6.4-10-10.3l-37.3-0.4c-3.3,0-6.2-0.3-8.8-0.8c-2.6-0.5-3.9-1.2-3.9-2
						l0-3.7l51,0.5c2.3-3.9,6.9-7.4,13.9-10.3c7.1-2.9,15.7-5.5,25.9-7.8l17.1,2.3c5.2,0.7,7.8,1.6,7.8,2.6c0,0.5-1,1.2-3.2,2
						c-2.2,0.8-4.7,1.7-7.7,2.8c-2.9,1.1-5.8,2.4-8.5,3.8c-2.8,1.5-4.8,3.1-6.2,5L1105.7,2909z M979.8,2914.1c1,2.4,3.3,4.6,6.8,6.3
						c3.5,1.8,7.8,3.2,13,4.4c5.2,1.1,11,2,17.5,2.5c6.5,0.5,13.3,0.8,20.4,0.8c8.3,0,15.5-0.4,21.6-1.1c6.1-0.7,11.5-1.6,16.2-2.7
						c4.6-1.2,8.7-2.5,12.2-4c3.4-1.5,6.5-3.2,9.3-5L979.8,2914.1z M1279.1,2910.8c-1-2.5-3.5-4.7-7.4-6.5
						c-3.9-1.9-8.9-3.4-14.9-4.7c-6-1.3-13.1-2.2-21.1-2.8c-8-0.6-16.9-0.9-26.6-0.9c-8.6,0-16.1,0.4-22.2,1.2
						c-6.2,0.7-11.6,1.7-16.2,2.9c-4.5,1.2-8.5,2.7-11.6,4.3c-3.2,1.6-6.2,3.4-8.9,5.2L1279.1,2910.8z"/>
				</g>
				
					<linearGradient id="SVGID_00000178177696430225340420000008160085016862483336_" gradientUnits="userSpaceOnUse" x1="517.6042" y1="1161.1683" x2="532.5427" y2="1286.2246" gradientTransform="matrix(-1 0 0 -1 1669.249 4127.8389)">
					<stop  offset="3.597120e-03" style="stop-color:#F3569F"/>
					<stop  offset="2.989186e-02" style="stop-color:#F4599A"/>
					<stop  offset="0.3252" style="stop-color:#FA736C"/>
					<stop  offset="0.5521" style="stop-color:#FE844F"/>
					<stop  offset="0.6817" style="stop-color:#FF8A44"/>
					<stop  offset="0.8124" style="stop-color:#FF8846"/>
					<stop  offset="0.8796" style="stop-color:#FD804D"/>
					<stop  offset="0.9323" style="stop-color:#FB7358"/>
					<stop  offset="0.9773" style="stop-color:#F76069"/>
					<stop  offset="1" style="stop-color:#F55374"/>
				</linearGradient>
				<path style="fill:url(#SVGID_00000178177696430225340420000008160085016862483336_);" d="M1143.7,2859.5
					c-179.4,0-366.3,15.8-396.1,46.4c1.2,1.1,2.3,2.2,3.3,3.4c25.2-21.2,179.5-42.6,392.9-42.6c218.9,0,375.6,22.5,394.6,44.2
					c0.9-1.2,1.9-2.3,3-3.4C1516.7,2875.9,1326.4,2859.5,1143.7,2859.5z"/>
			</g>
			<g>
				
					<linearGradient id="SVGID_00000052785687632072457750000005149280589855809952_" gradientUnits="userSpaceOnUse" x1="629.2188" y1="2875.7004" x2="1555.1497" y2="2875.7004">
					<stop  offset="0" style="stop-color:#FC7248"/>
					<stop  offset="2.557466e-03" style="stop-color:#FC7348"/>
					<stop  offset="6.891792e-02" style="stop-color:#FE8046"/>
					<stop  offset="0.1536" style="stop-color:#FF8844"/>
					<stop  offset="0.3183" style="stop-color:#FF8A44"/>
					<stop  offset="0.4824" style="stop-color:#FE7F46"/>
					<stop  offset="0.7684" style="stop-color:#FA624D"/>
					<stop  offset="0.8658" style="stop-color:#F8574F"/>
					<stop  offset="1" style="stop-color:#F8574F"/>
				</linearGradient>
				<path style="fill:url(#SVGID_00000052785687632072457750000005149280589855809952_);" d="M698,2805v89.3
					c0,28.8,180.2,52.2,402.4,52.2s402.4-23.4,402.4-52.2V2805H698z"/>
				
					<linearGradient id="SVGID_00000158733533163791088520000010117505217556556425_" gradientUnits="userSpaceOnUse" x1="1096.4395" y1="2771.3979" x2="1145.2535" y2="3180.043">
					<stop  offset="0" style="stop-color:#FFAA44"/>
					<stop  offset="1" style="stop-color:#FEB106"/>
				</linearGradient>
				<path style="fill:url(#SVGID_00000158733533163791088520000010117505217556556425_);" d="M1502.9,2805
					c0,28.8-180.2,52.2-402.4,52.2S698,2833.8,698,2805c0-28.8,180.2-52.2,402.4-52.2S1502.9,2776.1,1502.9,2805z"/>
				
					<linearGradient id="SVGID_00000155126658863385329440000007367302877018145174_" gradientUnits="userSpaceOnUse" x1="1094.3168" y1="2753.1733" x2="1109.3083" y2="2878.675">
					<stop  offset="0" style="stop-color:#FFAA44"/>
					<stop  offset="1" style="stop-color:#FEB106"/>
				</linearGradient>
				<path style="fill:url(#SVGID_00000155126658863385329440000007367302877018145174_);" d="M1100.4,2860.8
					c-196.8,0-402.7-18.8-402.7-55.1c0-2,0.7-5.5,2.7-5.5c2,0,1.1,2.7,1.1,4.7c0,23,163.8,48.6,398.8,48.6
					c235,0,398.8-25.6,398.8-48.6c0-2,0.3-3.9,2.3-3.9c2,0,1.5,2.7,1.5,4.6C1503.1,2842,1297.3,2860.8,1100.4,2860.8z"/>
				<g>
					<path class="st28" d="M1062.4,2807.9c3.9-2.7,8.2-5.4,12.6-8.1c4.5-2.7,10.3-5.1,17.3-7.2c7.1-2.1,15.9-3.9,26.5-5.2
						c10.6-1.4,23.9-2.1,39.7-2.1c15.6-0.1,30.1,0.4,43.8,1.5c13.6,1.1,25.6,2.7,36,4.8c10.3,2.1,18.8,4.7,25.3,7.8
						c6.5,3.1,10.3,6.7,11.6,10.7l45.3,0.5c3.3,0,6.2,0.3,8.7,0.8c2.5,0.5,3.8,1.2,3.8,2l0,3.7l-58.3-0.6c-2,4.6-7.2,8.7-15.6,12.5
						c-8.3,3.8-19,7.1-31.9,9.9l-21.2-3c-1.9-0.3-3.5-0.7-4.7-1.1c-1.2-0.4-1.8-0.9-1.8-1.5c0-0.7,1.6-1.5,4.9-2.5
						c3.3-0.9,7-2.1,11.1-3.4c4.1-1.4,8.2-3,12.2-4.8c4-1.8,6.6-4.1,8-6.6l-137.5-1.4c-3.6,2.7-7.7,5.3-12.1,7.8
						c-4.5,2.6-10.4,4.9-17.8,6.9c-7.4,2.1-16.6,3.7-27.7,5c-11.1,1.3-24.9,2-41.7,2c-12.6,0.1-24.9-0.4-36.9-1.4
						c-12-1-22.7-2.5-32-4.6c-9.3-2-17-4.5-23-7.5c-6-3-9.3-6.4-10-10.3l-37.3-0.4c-3.3,0-6.2-0.3-8.8-0.8c-2.6-0.5-3.9-1.2-3.9-2
						l0-3.7l51,0.5c2.3-3.9,6.9-7.4,13.9-10.3c7.1-2.9,15.7-5.5,25.9-7.8l17.1,2.3c5.2,0.7,7.8,1.6,7.8,2.6c0,0.5-1,1.2-3.2,2
						c-2.2,0.8-4.7,1.7-7.7,2.8c-2.9,1.1-5.8,2.4-8.5,3.8c-2.8,1.5-4.8,3.1-6.2,5L1062.4,2807.9z M936.6,2813c1,2.4,3.3,4.6,6.8,6.3
						c3.5,1.8,7.8,3.2,13,4.4c5.2,1.1,11,2,17.5,2.5c6.5,0.5,13.3,0.8,20.4,0.8c8.3,0,15.5-0.4,21.6-1.1c6.1-0.7,11.5-1.6,16.2-2.7
						c4.6-1.2,8.7-2.5,12.2-4c3.4-1.5,6.5-3.2,9.3-5L936.6,2813z M1235.9,2809.6c-1-2.5-3.5-4.7-7.4-6.5c-3.9-1.9-8.9-3.4-14.9-4.7
						c-6-1.3-13.1-2.2-21.1-2.8c-8-0.6-16.9-0.9-26.6-0.9c-8.6,0-16.1,0.4-22.2,1.2c-6.2,0.7-11.6,1.7-16.2,2.9
						c-4.5,1.2-8.5,2.7-11.6,4.3c-3.2,1.6-6.2,3.4-8.9,5.2L1235.9,2809.6z"/>
				</g>
				
					<linearGradient id="SVGID_00000106841644169386574510000005289033466199633810_" gradientUnits="userSpaceOnUse" x1="560.8392" y1="1262.3212" x2="575.7776" y2="1387.3772" gradientTransform="matrix(-1 0 0 -1 1669.249 4127.8389)">
					<stop  offset="3.597120e-03" style="stop-color:#F3569F"/>
					<stop  offset="2.989186e-02" style="stop-color:#F4599A"/>
					<stop  offset="0.3252" style="stop-color:#FA736C"/>
					<stop  offset="0.5521" style="stop-color:#FE844F"/>
					<stop  offset="0.6817" style="stop-color:#FF8A44"/>
					<stop  offset="0.8124" style="stop-color:#FF8846"/>
					<stop  offset="0.8796" style="stop-color:#FD804D"/>
					<stop  offset="0.9323" style="stop-color:#FB7358"/>
					<stop  offset="0.9773" style="stop-color:#F76069"/>
					<stop  offset="1" style="stop-color:#F55374"/>
				</linearGradient>
				<path style="fill:url(#SVGID_00000106841644169386574510000005289033466199633810_);" d="M1100.5,2758.4
					c-179.4,0-366.3,15.8-396.1,46.4c1.2,1.1,2.3,2.2,3.3,3.4c25.2-21.2,179.5-42.6,392.9-42.6c218.9,0,375.6,22.5,394.6,44.2
					c0.9-1.2,1.9-2.3,3-3.4C1473.5,2774.8,1283.1,2758.4,1100.5,2758.4z"/>
			</g>
			<g>
				
					<linearGradient id="SVGID_00000047766254619350464360000003923099554868196743_" gradientUnits="userSpaceOnUse" x1="517.3477" y1="2781.9436" x2="1443.2773" y2="2781.9436">
					<stop  offset="0" style="stop-color:#FC7248"/>
					<stop  offset="2.557466e-03" style="stop-color:#FC7348"/>
					<stop  offset="6.891792e-02" style="stop-color:#FE8046"/>
					<stop  offset="0.1536" style="stop-color:#FF8844"/>
					<stop  offset="0.3183" style="stop-color:#FF8A44"/>
					<stop  offset="0.4824" style="stop-color:#FE7F46"/>
					<stop  offset="0.7684" style="stop-color:#FA624D"/>
					<stop  offset="0.8658" style="stop-color:#F8574F"/>
					<stop  offset="1" style="stop-color:#F8574F"/>
				</linearGradient>
				<path style="fill:url(#SVGID_00000047766254619350464360000003923099554868196743_);" d="M586.2,2711.2v89.3
					c0,28.8,180.2,52.2,402.4,52.2c222.3,0,402.4-23.4,402.4-52.2v-89.3H586.2z"/>
				
					<linearGradient id="SVGID_00000037662113249240891520000006031087272314550439_" gradientUnits="userSpaceOnUse" x1="984.5677" y1="2677.6414" x2="1033.3818" y2="3086.2871">
					<stop  offset="0" style="stop-color:#FFAA44"/>
					<stop  offset="1" style="stop-color:#FEB106"/>
				</linearGradient>
				
					<ellipse style="fill:url(#SVGID_00000037662113249240891520000006031087272314550439_);" cx="988.6" cy="2711.2" rx="402.4" ry="52.2"/>
				
					<linearGradient id="SVGID_00000096058726136609253530000006178367331947612601_" gradientUnits="userSpaceOnUse" x1="982.4454" y1="2659.4175" x2="997.437" y2="2784.9192">
					<stop  offset="0" style="stop-color:#FFAA44"/>
					<stop  offset="1" style="stop-color:#FEB106"/>
				</linearGradient>
				<path style="fill:url(#SVGID_00000096058726136609253530000006178367331947612601_);" d="M988.6,2767
					c-196.8,0-402.7-18.8-402.7-55.1c0-2,0.7-5.5,2.7-5.5c2,0,1.1,2.7,1.1,4.7c0,23,163.8,48.6,398.8,48.6s398.8-25.6,398.8-48.6
					c0-2,0.3-3.9,2.3-3.9c2,0,1.5,2.7,1.5,4.6C1391.2,2748.3,1185.4,2767,988.6,2767z"/>
				<g>
					<path class="st28" d="M950.5,2714.1c3.9-2.7,8.2-5.4,12.6-8.1c4.5-2.7,10.3-5.1,17.3-7.2c7.1-2.1,15.9-3.9,26.5-5.2
						c10.6-1.4,23.9-2.1,39.7-2.1c15.6-0.1,30.1,0.4,43.8,1.5c13.6,1.1,25.6,2.7,36,4.8c10.3,2.1,18.8,4.7,25.3,7.8
						c6.5,3.1,10.3,6.7,11.6,10.7l45.3,0.5c3.3,0,6.2,0.3,8.7,0.8c2.5,0.5,3.8,1.2,3.8,2l0,3.7l-58.3-0.6c-2,4.6-7.2,8.7-15.6,12.5
						c-8.3,3.8-19,7.1-31.9,9.9l-21.2-3c-1.9-0.3-3.5-0.7-4.7-1.1c-1.2-0.4-1.8-0.9-1.8-1.5c0-0.7,1.6-1.5,4.9-2.5
						c3.3-0.9,7-2.1,11.1-3.4c4.1-1.4,8.2-3,12.2-4.8c4-1.8,6.6-4.1,8-6.6l-137.5-1.4c-3.6,2.7-7.7,5.3-12.1,7.8
						c-4.5,2.6-10.4,4.9-17.8,6.9c-7.4,2.1-16.6,3.7-27.7,5c-11.1,1.3-24.9,2-41.7,2c-12.6,0.1-24.9-0.4-36.9-1.4
						c-12-1-22.7-2.5-32-4.6c-9.3-2-17-4.5-23-7.5c-6-3-9.3-6.4-10-10.3l-37.3-0.4c-3.3,0-6.2-0.3-8.8-0.8c-2.6-0.5-3.9-1.2-3.9-2
						l0-3.7l51,0.5c2.3-3.9,6.9-7.4,13.9-10.3c7.1-2.9,15.7-5.5,25.9-7.8l17.1,2.3c5.2,0.7,7.8,1.6,7.8,2.6c0,0.5-1,1.2-3.2,2
						c-2.2,0.8-4.7,1.7-7.7,2.8c-2.9,1.1-5.8,2.4-8.5,3.8c-2.8,1.5-4.8,3.1-6.2,5L950.5,2714.1z M824.7,2719.2
						c1,2.4,3.3,4.6,6.8,6.3c3.5,1.8,7.8,3.2,13,4.4c5.2,1.1,11,2,17.5,2.5c6.5,0.5,13.3,0.8,20.4,0.8c8.3,0,15.5-0.4,21.6-1.1
						c6.1-0.7,11.5-1.6,16.2-2.7c4.6-1.2,8.7-2.5,12.2-4c3.4-1.5,6.5-3.2,9.3-5L824.7,2719.2z M1124,2715.9c-1-2.5-3.5-4.7-7.4-6.5
						c-3.9-1.9-8.9-3.4-14.9-4.7c-6-1.3-13.1-2.2-21.1-2.8c-8-0.6-16.9-0.9-26.6-0.9c-8.6,0-16.1,0.4-22.2,1.2
						c-6.2,0.7-11.6,1.7-16.2,2.9c-4.5,1.2-8.5,2.7-11.6,4.3c-3.2,1.6-6.2,3.4-8.9,5.2L1124,2715.9z"/>
				</g>
				
					<linearGradient id="SVGID_00000013878322301175311560000014129108108822840963_" gradientUnits="userSpaceOnUse" x1="672.7114" y1="1356.0779" x2="687.6498" y2="1481.134" gradientTransform="matrix(-1 0 0 -1 1669.249 4127.8389)">
					<stop  offset="3.597120e-03" style="stop-color:#F3569F"/>
					<stop  offset="2.989186e-02" style="stop-color:#F4599A"/>
					<stop  offset="0.3252" style="stop-color:#FA736C"/>
					<stop  offset="0.5521" style="stop-color:#FE844F"/>
					<stop  offset="0.6817" style="stop-color:#FF8A44"/>
					<stop  offset="0.8124" style="stop-color:#FF8846"/>
					<stop  offset="0.8796" style="stop-color:#FD804D"/>
					<stop  offset="0.9323" style="stop-color:#FB7358"/>
					<stop  offset="0.9773" style="stop-color:#F76069"/>
					<stop  offset="1" style="stop-color:#F55374"/>
				</linearGradient>
				<path style="fill:url(#SVGID_00000013878322301175311560000014129108108822840963_);" d="M988.6,2664.6
					c-179.4,0-366.3,15.8-396.1,46.4c1.2,1.1,2.3,2.2,3.3,3.4c25.2-21.2,179.5-42.6,392.9-42.6c218.9,0,375.6,22.5,394.6,44.2
					c0.9-1.2,1.9-2.3,3-3.4C1361.6,2681,1171.3,2664.6,988.6,2664.6z"/>
			</g>
			<g>
				
					<linearGradient id="SVGID_00000054260739500436865420000004235902611916596655_" gradientUnits="userSpaceOnUse" x1="613.8767" y1="2688.4624" x2="1539.8076" y2="2688.4624">
					<stop  offset="0" style="stop-color:#FC7248"/>
					<stop  offset="2.557466e-03" style="stop-color:#FC7348"/>
					<stop  offset="6.891792e-02" style="stop-color:#FE8046"/>
					<stop  offset="0.1536" style="stop-color:#FF8844"/>
					<stop  offset="0.3183" style="stop-color:#FF8A44"/>
					<stop  offset="0.4824" style="stop-color:#FE7F46"/>
					<stop  offset="0.7684" style="stop-color:#FA624D"/>
					<stop  offset="0.8658" style="stop-color:#F8574F"/>
					<stop  offset="1" style="stop-color:#F8574F"/>
				</linearGradient>
				<path style="fill:url(#SVGID_00000054260739500436865420000004235902611916596655_);" d="M682.7,2617.7v89.3
					c0,28.8,180.2,52.2,402.4,52.2c222.3,0,402.4-23.4,402.4-52.2v-89.3H682.7z"/>
				
					<linearGradient id="SVGID_00000018209336539283051650000013355020213562737317_" gradientUnits="userSpaceOnUse" x1="1081.0974" y1="2584.1597" x2="1129.9115" y2="2992.8054">
					<stop  offset="0" style="stop-color:#FFAA44"/>
					<stop  offset="1" style="stop-color:#FEB106"/>
				</linearGradient>
				
					<ellipse style="fill:url(#SVGID_00000018209336539283051650000013355020213562737317_);" cx="1085.1" cy="2617.7" rx="402.4" ry="52.2"/>
				
					<linearGradient id="SVGID_00000176762488727373454280000009441807932200123273_" gradientUnits="userSpaceOnUse" x1="1078.9755" y1="2565.9355" x2="1093.9672" y2="2691.4375">
					<stop  offset="0" style="stop-color:#FFAA44"/>
					<stop  offset="1" style="stop-color:#FEB106"/>
				</linearGradient>
				<path style="fill:url(#SVGID_00000176762488727373454280000009441807932200123273_);" d="M1085.1,2673.5
					c-196.8,0-402.7-18.8-402.7-55.1c0-2,0.7-5.5,2.7-5.5c2,0,1.1,2.7,1.1,4.7c0,23,163.8,48.6,398.8,48.6s398.8-25.6,398.8-48.6
					c0-2,0.3-3.9,2.3-3.9c2,0,1.5,2.7,1.5,4.6C1487.8,2654.8,1281.9,2673.5,1085.1,2673.5z"/>
				<g>
					<path class="st28" d="M1047.1,2620.6c3.9-2.7,8.1-5.4,12.6-8.1c4.5-2.7,10.3-5.1,17.3-7.2c7.1-2.1,15.9-3.9,26.5-5.2
						c10.6-1.4,23.9-2.1,39.7-2.1c15.6-0.1,30.1,0.4,43.8,1.5c13.6,1.1,25.6,2.7,36,4.8c10.3,2.1,18.8,4.7,25.3,7.8
						c6.5,3.1,10.3,6.7,11.6,10.7l45.3,0.5c3.3,0,6.2,0.3,8.7,0.8c2.5,0.5,3.8,1.2,3.8,2l0,3.7l-58.3-0.6c-2,4.6-7.2,8.7-15.6,12.5
						c-8.3,3.8-19,7.1-31.9,9.9l-21.2-3c-1.9-0.3-3.5-0.7-4.7-1.1c-1.2-0.4-1.8-0.9-1.8-1.5c0-0.7,1.6-1.5,4.9-2.5
						c3.3-0.9,7-2.1,11.1-3.4c4.1-1.4,8.2-3,12.2-4.8c4-1.8,6.6-4.1,8-6.6l-137.5-1.4c-3.6,2.7-7.7,5.3-12.1,7.8
						c-4.5,2.6-10.4,4.9-17.8,6.9c-7.4,2.1-16.6,3.7-27.7,5c-11.1,1.3-24.9,2-41.7,2c-12.6,0.1-24.9-0.4-36.9-1.4
						c-12-1-22.7-2.5-32-4.6c-9.3-2-17-4.5-23-7.5c-6-3-9.3-6.4-10-10.3l-37.3-0.4c-3.3,0-6.2-0.3-8.8-0.8c-2.6-0.5-3.9-1.2-3.9-2
						l0-3.7l51,0.5c2.3-3.9,6.9-7.4,13.9-10.3c7.1-2.9,15.7-5.5,25.9-7.8l17.1,2.3c5.2,0.7,7.8,1.6,7.8,2.6c0,0.5-1,1.2-3.2,2
						c-2.2,0.8-4.7,1.7-7.7,2.8c-2.9,1.1-5.8,2.4-8.5,3.8c-2.8,1.5-4.8,3.1-6.2,5L1047.1,2620.6z M921.2,2625.7
						c1,2.4,3.3,4.6,6.8,6.3c3.5,1.8,7.8,3.2,13,4.4c5.2,1.1,11,2,17.5,2.5c6.5,0.5,13.3,0.8,20.4,0.8c8.3,0,15.5-0.4,21.6-1.1
						c6.1-0.7,11.5-1.6,16.2-2.7c4.6-1.2,8.7-2.5,12.2-4c3.4-1.5,6.5-3.2,9.3-5L921.2,2625.7z M1220.6,2622.4
						c-1-2.5-3.5-4.7-7.4-6.5c-3.9-1.9-8.9-3.4-14.9-4.7c-6-1.3-13.1-2.2-21.1-2.8c-8-0.6-16.9-0.9-26.6-0.9
						c-8.6,0-16.1,0.4-22.2,1.2c-6.2,0.7-11.6,1.7-16.2,2.9c-4.5,1.2-8.5,2.7-11.6,4.3c-3.2,1.6-6.2,3.4-8.9,5.2L1220.6,2622.4z"/>
				</g>
				
					<linearGradient id="SVGID_00000183951678716393186520000011787915953812277893_" gradientUnits="userSpaceOnUse" x1="576.1813" y1="1449.5596" x2="591.1197" y2="1574.6157" gradientTransform="matrix(-1 0 0 -1 1669.249 4127.8389)">
					<stop  offset="3.597120e-03" style="stop-color:#F3569F"/>
					<stop  offset="2.989186e-02" style="stop-color:#F4599A"/>
					<stop  offset="0.3252" style="stop-color:#FA736C"/>
					<stop  offset="0.5521" style="stop-color:#FE844F"/>
					<stop  offset="0.6817" style="stop-color:#FF8A44"/>
					<stop  offset="0.8124" style="stop-color:#FF8846"/>
					<stop  offset="0.8796" style="stop-color:#FD804D"/>
					<stop  offset="0.9323" style="stop-color:#FB7358"/>
					<stop  offset="0.9773" style="stop-color:#F76069"/>
					<stop  offset="1" style="stop-color:#F55374"/>
				</linearGradient>
				<path style="fill:url(#SVGID_00000183951678716393186520000011787915953812277893_);" d="M1085.2,2571.1
					c-179.4,0-366.3,15.8-396.1,46.4c1.2,1.1,2.3,2.2,3.3,3.4c25.2-21.2,179.5-42.6,392.9-42.6c218.9,0,375.6,22.5,394.6,44.2
					c0.9-1.2,1.9-2.3,3-3.4C1458.1,2587.5,1267.8,2571.1,1085.2,2571.1z"/>
			</g>
			<g>
				
					<linearGradient id="SVGID_00000037666828236656289770000011970260884995199388_" gradientUnits="userSpaceOnUse" x1="563.6686" y1="2594.7061" x2="1489.5983" y2="2594.7061">
					<stop  offset="0" style="stop-color:#FC7248"/>
					<stop  offset="2.557466e-03" style="stop-color:#FC7348"/>
					<stop  offset="6.891792e-02" style="stop-color:#FE8046"/>
					<stop  offset="0.1536" style="stop-color:#FF8844"/>
					<stop  offset="0.3183" style="stop-color:#FF8A44"/>
					<stop  offset="0.4824" style="stop-color:#FE7F46"/>
					<stop  offset="0.7684" style="stop-color:#FA624D"/>
					<stop  offset="0.8658" style="stop-color:#F8574F"/>
					<stop  offset="1" style="stop-color:#F8574F"/>
				</linearGradient>
				<path style="fill:url(#SVGID_00000037666828236656289770000011970260884995199388_);" d="M632.5,2524v89.3
					c0,28.8,180.2,52.2,402.4,52.2c222.3,0,402.4-23.4,402.4-52.2V2524H632.5z"/>
				
					<linearGradient id="SVGID_00000112628332559661161630000003224753615811761538_" gradientUnits="userSpaceOnUse" x1="1030.8887" y1="2490.4038" x2="1079.7029" y2="2899.0503">
					<stop  offset="0" style="stop-color:#FFAA44"/>
					<stop  offset="1" style="stop-color:#FEB106"/>
				</linearGradient>
				
					<ellipse style="fill:url(#SVGID_00000112628332559661161630000003224753615811761538_);" cx="1034.9" cy="2524" rx="402.4" ry="52.2"/>
				
					<linearGradient id="SVGID_00000045578511560667792970000018302644640328503215_" gradientUnits="userSpaceOnUse" x1="1028.7662" y1="2472.1797" x2="1043.7578" y2="2597.6807">
					<stop  offset="0" style="stop-color:#FFAA44"/>
					<stop  offset="1" style="stop-color:#FEB106"/>
				</linearGradient>
				<path style="fill:url(#SVGID_00000045578511560667792970000018302644640328503215_);" d="M1034.9,2579.8
					c-196.8,0-402.7-18.8-402.7-55.1c0-2,0.7-5.5,2.7-5.5c2,0,1.1,2.7,1.1,4.7c0,23,163.8,48.6,398.8,48.6
					c235,0,398.8-25.6,398.8-48.6c0-2,0.3-3.9,2.3-3.9c2,0,1.5,2.7,1.5,4.6C1437.6,2561,1231.7,2579.8,1034.9,2579.8z"/>
				<g>
					<path class="st28" d="M996.9,2526.9c3.9-2.7,8.2-5.4,12.6-8.1c4.5-2.7,10.3-5.1,17.3-7.2c7.1-2.1,15.9-3.9,26.5-5.2
						c10.6-1.4,23.9-2.1,39.7-2.1c15.6-0.1,30.1,0.4,43.8,1.5c13.6,1.1,25.6,2.7,36,4.8c10.3,2.1,18.8,4.7,25.3,7.8
						c6.5,3.1,10.3,6.7,11.6,10.7l45.3,0.5c3.3,0,6.2,0.3,8.7,0.8c2.5,0.5,3.8,1.2,3.8,2l0,3.7l-58.3-0.6c-2,4.6-7.2,8.7-15.6,12.5
						c-8.3,3.8-19,7.1-31.9,9.9l-21.2-3c-1.9-0.3-3.5-0.7-4.7-1.1c-1.2-0.4-1.8-0.9-1.8-1.5c0-0.7,1.6-1.5,4.9-2.5
						c3.3-0.9,7-2.1,11.1-3.4c4.1-1.4,8.2-3,12.2-4.8c4-1.8,6.6-4.1,8-6.6l-137.5-1.4c-3.6,2.7-7.7,5.3-12.1,7.8
						c-4.5,2.6-10.4,4.9-17.8,6.9c-7.4,2.1-16.6,3.7-27.7,5c-11.1,1.3-24.9,2-41.7,2c-12.6,0.1-24.9-0.4-36.9-1.4
						c-12-1-22.7-2.5-32-4.6c-9.3-2-17-4.5-23-7.5c-6-3-9.3-6.4-10-10.3l-37.3-0.4c-3.3,0-6.2-0.3-8.8-0.8c-2.6-0.5-3.9-1.2-3.9-2
						l0-3.7l51,0.5c2.3-3.9,6.9-7.4,13.9-10.3c7.1-2.9,15.7-5.5,25.9-7.8l17.1,2.3c5.2,0.7,7.8,1.6,7.8,2.6c0,0.5-1,1.2-3.2,2
						c-2.2,0.8-4.7,1.7-7.7,2.8c-2.9,1.1-5.8,2.4-8.5,3.8c-2.8,1.5-4.8,3.1-6.2,5L996.9,2526.9z M871,2532c1,2.4,3.3,4.6,6.8,6.3
						c3.5,1.8,7.8,3.2,13,4.4c5.2,1.1,11,2,17.5,2.5c6.5,0.5,13.3,0.8,20.4,0.8c8.3,0,15.5-0.4,21.6-1.1c6.1-0.7,11.5-1.6,16.2-2.7
						c4.6-1.2,8.7-2.5,12.2-4c3.4-1.5,6.5-3.2,9.3-5L871,2532z M1170.4,2528.6c-1-2.5-3.5-4.7-7.4-6.5c-3.9-1.9-8.9-3.4-14.9-4.7
						c-6-1.3-13.1-2.2-21.1-2.8c-8-0.6-16.9-0.9-26.6-0.9c-8.6,0-16.1,0.4-22.2,1.2c-6.2,0.7-11.6,1.7-16.2,2.9
						c-4.5,1.2-8.5,2.7-11.6,4.3c-3.2,1.6-6.2,3.4-8.9,5.2L1170.4,2528.6z"/>
				</g>
				
					<linearGradient id="SVGID_00000161599124489043987580000006451151279727351169_" gradientUnits="userSpaceOnUse" x1="626.3901" y1="1543.3158" x2="641.3284" y2="1668.3717" gradientTransform="matrix(-1 0 0 -1 1669.249 4127.8389)">
					<stop  offset="3.597120e-03" style="stop-color:#F3569F"/>
					<stop  offset="2.989186e-02" style="stop-color:#F4599A"/>
					<stop  offset="0.3252" style="stop-color:#FA736C"/>
					<stop  offset="0.5521" style="stop-color:#FE844F"/>
					<stop  offset="0.6817" style="stop-color:#FF8A44"/>
					<stop  offset="0.8124" style="stop-color:#FF8846"/>
					<stop  offset="0.8796" style="stop-color:#FD804D"/>
					<stop  offset="0.9323" style="stop-color:#FB7358"/>
					<stop  offset="0.9773" style="stop-color:#F76069"/>
					<stop  offset="1" style="stop-color:#F55374"/>
				</linearGradient>
				<path style="fill:url(#SVGID_00000161599124489043987580000006451151279727351169_);" d="M1035,2477.4
					c-179.4,0-366.3,15.8-396.1,46.4c1.2,1.1,2.3,2.2,3.3,3.4c25.2-21.2,179.5-42.6,392.9-42.6c218.9,0,375.6,22.5,394.6,44.2
					c0.9-1.2,1.9-2.3,3-3.4C1407.9,2493.8,1217.6,2477.4,1035,2477.4z"/>
			</g>
			<g>
				
					<linearGradient id="SVGID_00000075151365846883535570000011913863243319795857_" gradientUnits="userSpaceOnUse" x1="1842.9253" y1="2243.533" x2="2768.8594" y2="2243.533" gradientTransform="matrix(0.5796 0.8149 -0.8149 0.5796 2214.3765 -230.3409)">
					<stop  offset="0" style="stop-color:#FC7248"/>
					<stop  offset="2.557466e-03" style="stop-color:#FC7348"/>
					<stop  offset="6.891792e-02" style="stop-color:#FE8046"/>
					<stop  offset="0.1536" style="stop-color:#FF8844"/>
					<stop  offset="0.3183" style="stop-color:#FF8A44"/>
					<stop  offset="0.4824" style="stop-color:#FE7F46"/>
					<stop  offset="0.7684" style="stop-color:#FA624D"/>
					<stop  offset="0.8658" style="stop-color:#F8574F"/>
					<stop  offset="1" style="stop-color:#F8574F"/>
				</linearGradient>
				<path style="fill:url(#SVGID_00000075151365846883535570000011913863243319795857_);" d="M1551.8,2586.9l-72.7,51.7
					c-23.5,16.7,61.9,177.1,190.7,358.2c128.8,181.1,252.3,314.4,275.8,297.7l72.7-51.7L1551.8,2586.9z"/>
				
					<linearGradient id="SVGID_00000059990469132707377840000015705021704007106439_" gradientUnits="userSpaceOnUse" x1="2310.1465" y1="2139.241" x2="2358.9548" y2="2547.8369" gradientTransform="matrix(0.5796 0.8149 -0.8149 0.5796 2214.3765 -230.3409)">
					<stop  offset="0" style="stop-color:#FFAA44"/>
					<stop  offset="1" style="stop-color:#FEB106"/>
				</linearGradient>
				<path style="fill:url(#SVGID_00000059990469132707377840000015705021704007106439_);" d="M2018.3,3242.7
					c-23.5,16.7-147-116.5-275.8-297.7c-128.8-181.1-214.2-341.5-190.7-358.2c23.5-16.7,147,116.5,275.8,297.7
					C1956.4,3065.7,2041.8,3226,2018.3,3242.7z"/>
				
					<linearGradient id="SVGID_00000146489975079760736830000007230758992548815029_" gradientUnits="userSpaceOnUse" x1="2308.0244" y1="2121.0261" x2="2323.0134" y2="2246.5061" gradientTransform="matrix(0.5796 0.8149 -0.8149 0.5796 2214.3765 -230.3409)">
					<stop  offset="0" style="stop-color:#FFAA44"/>
					<stop  offset="1" style="stop-color:#FEB106"/>
				</linearGradient>
				<path style="fill:url(#SVGID_00000146489975079760736830000007230758992548815029_);" d="M1739.6,2947.2
					c-114.1-160.4-218.1-339-188.5-360c1.6-1.2,4.9-2.6,6-1c1.2,1.6-1.6,2.5-3.2,3.7c-18.7,13.3,55.3,161.7,191.5,353.2
					s252,310.1,270.8,296.8c1.6-1.2,3.3-2,4.5-0.3c1.2,1.6-1.3,2.8-2.9,3.9C1988.2,3264.4,1853.6,3107.6,1739.6,2947.2z"/>
				<g>
					<path class="st28" d="M1760.6,2885.5c4.5,1.6,9.1,3.5,13.9,5.6c4.7,2.1,10.1,5.4,15.9,9.9c5.8,4.5,12.4,10.7,19.7,18.6
						c7.3,7.9,15.5,18.3,24.8,31.1c9.1,12.6,17.1,24.8,24.2,36.6c7,11.7,12.7,22.4,17,32.1c4.3,9.7,7,18,8.3,25.2
						c1.2,7.1,0.5,12.3-2,15.6l25.9,37.2c1.9,2.7,3.4,5.2,4.4,7.5c1,2.4,1.2,3.7,0.6,4.2l-3,2.2l-33.3-47.8
						c-4.9,1-11.3-0.8-19.3-5.5c-7.9-4.6-16.8-11.4-26.5-20.3l-9.9-19c-0.9-1.7-1.5-3.2-1.8-4.5c-0.3-1.3-0.3-2,0.1-2.3
						c0.6-0.4,2.2,0.4,4.9,2.6c2.7,2.1,5.7,4.5,9.2,7.1c3.5,2.6,7.1,4.9,11,7.1c3.8,2.2,7.1,3,10,2.7l-78.6-112.8
						c-4.3-1.4-8.7-3.2-13.4-5.4c-4.7-2.2-10-5.7-16-10.5c-6-4.8-12.7-11.4-20.1-19.6c-7.5-8.3-16.1-19.2-25.8-32.8
						c-7.4-10.2-14.1-20.5-20.2-30.9c-6.1-10.4-11.1-20-14.8-28.7c-3.8-8.8-6.1-16.5-7.2-23.1c-1-6.6-0.2-11.3,2.6-14.1l-21.3-30.6
						c-1.9-2.7-3.4-5.2-4.5-7.6c-1.1-2.4-1.3-3.8-0.6-4.3l3-2.2l29.2,41.8c4.5-0.4,10,1.3,16.5,5.4c6.5,4.1,13.6,9.6,21.3,16.6
						l8,15.3c2.4,4.6,3.2,7.2,2.4,7.8c-0.4,0.3-1.6-0.2-3.5-1.5c-1.9-1.3-4.1-2.8-6.7-4.6c-2.6-1.7-5.3-3.3-8-4.7
						c-2.8-1.4-5.3-2.1-7.7-2.2L1760.6,2885.5z M1683.6,2785.9c-1.4,2.3-1.8,5.3-1.2,9.2c0.6,3.9,1.9,8.2,3.9,13.1
						c2.1,4.9,4.8,10.1,8.1,15.7c3.3,5.6,7.1,11.3,11.2,17c4.8,6.7,9.3,12.4,13.4,17c4.1,4.6,8,8.5,11.6,11.6
						c3.6,3.1,7.1,5.7,10.3,7.6c3.2,1.9,6.4,3.5,9.4,4.7L1683.6,2785.9z M1859.8,3027.9c1.4-2.3,1.8-5.6,1-9.8
						c-0.7-4.2-2.3-9.2-4.8-14.9c-2.5-5.7-5.8-11.9-9.9-18.9c-4.1-6.9-9-14.3-14.7-22.1c-5-7-9.7-12.8-13.8-17.5
						c-4.2-4.6-8.1-8.5-11.8-11.5c-3.6-3-7.1-5.4-10.2-7c-3.2-1.7-6.3-3.1-9.4-4.2L1859.8,3027.9z"/>
				</g>
				
					<linearGradient id="SVGID_00000060740556352900561200000007825124927242509247_" gradientUnits="userSpaceOnUse" x1="-652.2989" y1="1894.0392" x2="-637.3632" y2="2019.0723" gradientTransform="matrix(-0.5796 -0.8149 0.8149 -0.5796 -181.2018 3522.6223)">
					<stop  offset="3.597120e-03" style="stop-color:#F3569F"/>
					<stop  offset="2.989186e-02" style="stop-color:#F4599A"/>
					<stop  offset="0.3252" style="stop-color:#FA736C"/>
					<stop  offset="0.5521" style="stop-color:#FE844F"/>
					<stop  offset="0.6817" style="stop-color:#FF8A44"/>
					<stop  offset="0.8124" style="stop-color:#FF8846"/>
					<stop  offset="0.8796" style="stop-color:#FD804D"/>
					<stop  offset="0.9323" style="stop-color:#FB7358"/>
					<stop  offset="0.9773" style="stop-color:#F76069"/>
					<stop  offset="1" style="stop-color:#F55374"/>
				</linearGradient>
				<path style="fill:url(#SVGID_00000060740556352900561200000007825124927242509247_);" d="M1823,2887.9
					c-104-146.2-225.2-289.3-267.4-295.9c-0.2,1.6-0.5,3.1-0.9,4.7c31.9,8.2,138.7,121.6,262.4,295.5
					c126.9,178.4,199.4,319.1,192.7,347.2c1.5,0.1,3,0.2,4.5,0.5C2025.9,3201.3,1928.9,3036.7,1823,2887.9z"/>
			</g>
		</g>
		<g>
			<g>
				
					<linearGradient id="SVGID_00000137104584760626696390000007416646931791524772_" gradientUnits="userSpaceOnUse" x1="2541.2144" y1="1583.954" x2="2116.8604" y2="1720.142">
					<stop  offset="0" style="stop-color:#FC7248"/>
					<stop  offset="2.557466e-03" style="stop-color:#FC7348"/>
					<stop  offset="6.891792e-02" style="stop-color:#FE8046"/>
					<stop  offset="0.1536" style="stop-color:#FF8844"/>
					<stop  offset="0.3183" style="stop-color:#FF8A44"/>
					<stop  offset="0.4824" style="stop-color:#FE7F46"/>
					<stop  offset="0.7684" style="stop-color:#FA624D"/>
					<stop  offset="0.8658" style="stop-color:#F8574F"/>
					<stop  offset="1" style="stop-color:#F8574F"/>
				</linearGradient>
				<path style="fill:url(#SVGID_00000137104584760626696390000007416646931791524772_);" d="M3029.7,1568.6
					c0,196.9-153.9,351.7-350.7,345.7c-204.8-6.3-377-183.1-377-394.7c0-211.6,172.2-365.2,377-343.9
					C2875.8,1196.1,3029.7,1371.7,3029.7,1568.6z"/>
				
					<linearGradient id="SVGID_00000183211266031070056250000001776014815744912008_" gradientUnits="userSpaceOnUse" x1="2884.4922" y1="1161.552" x2="2505.6548" y2="1997.3376">
					<stop  offset="0" style="stop-color:#FFAA44"/>
					<stop  offset="1" style="stop-color:#FEB106"/>
				</linearGradient>
				<path style="fill:url(#SVGID_00000183211266031070056250000001776014815744912008_);" d="M3082.9,1551.6
					c0,196.9-153.9,351.7-350.7,345.7c-204.8-6.3-377-183.1-377-394.7c0-211.6,172.2-365.2,377-343.9
					C2929,1179.1,3082.9,1354.7,3082.9,1551.6z"/>
				
					<linearGradient id="SVGID_00000034810903939790195130000013596730508476563601_" gradientUnits="userSpaceOnUse" x1="2814.8049" y1="2044.0502" x2="2741.7073" y2="1644.7214">
					<stop  offset="0" style="stop-color:#FC7248"/>
					<stop  offset="2.557466e-03" style="stop-color:#FC7348"/>
					<stop  offset="6.891792e-02" style="stop-color:#FE8046"/>
					<stop  offset="0.1536" style="stop-color:#FF8844"/>
					<stop  offset="0.3183" style="stop-color:#FF8A44"/>
					<stop  offset="0.4824" style="stop-color:#FE7F46"/>
					<stop  offset="0.7684" style="stop-color:#FA624D"/>
					<stop  offset="0.8658" style="stop-color:#F8574F"/>
					<stop  offset="1" style="stop-color:#F8574F"/>
				</linearGradient>
				<path style="fill:url(#SVGID_00000034810903939790195130000013596730508476563601_);" d="M3067.5,1550.5
					c0,188.2-147.3,336-335.2,329.9c-195.2-6.3-359.2-175.1-359.2-376.7s163.9-348.3,359.2-328.3
					C2920.2,1194.7,3067.5,1362.3,3067.5,1550.5z"/>
				
					<linearGradient id="SVGID_00000147202970326355765490000015703090317483397798_" gradientUnits="userSpaceOnUse" x1="2659.8245" y1="1397.6925" x2="2961.0686" y2="2037.1766">
					<stop  offset="0" style="stop-color:#FC7248"/>
					<stop  offset="2.557466e-03" style="stop-color:#FC7348"/>
					<stop  offset="6.891792e-02" style="stop-color:#FE8046"/>
					<stop  offset="0.1536" style="stop-color:#FF8844"/>
					<stop  offset="0.3183" style="stop-color:#FF8A44"/>
					<stop  offset="0.4824" style="stop-color:#FE7F46"/>
					<stop  offset="0.7684" style="stop-color:#FA624D"/>
					<stop  offset="0.8658" style="stop-color:#F8574F"/>
					<stop  offset="1" style="stop-color:#F8574F"/>
				</linearGradient>
				<path style="fill:url(#SVGID_00000147202970326355765490000015703090317483397798_);" d="M3056.4,1549.8
					c0,182-142.5,324.7-324.2,318.6c-188.5-6.3-346.5-169.3-346.5-363.8c0-194.5,158-336.2,346.5-317.1
					C2913.9,1205.9,3056.4,1367.8,3056.4,1549.8z"/>
				<g>
					
						<linearGradient id="SVGID_00000047052000416255228410000008001714929120173969_" gradientUnits="userSpaceOnUse" x1="2647.8225" y1="1260.0839" x2="2799.2986" y2="1827.7891">
						<stop  offset="0" style="stop-color:#FFAA44"/>
						<stop  offset="1" style="stop-color:#FEB106"/>
					</linearGradient>
					<path style="fill:url(#SVGID_00000047052000416255228410000008001714929120173969_);" d="M2730.4,1249.4
						c9.7,0.9,17.5,9.6,17.5,19.4v33.5c19.3,2.2,38.7,5.5,58.1,10.1c14.3,3.4,28.5,7.4,42.6,12c8.4,2.8,14.2,11.3,13.3,20.1l-4.1,42
						c-1.1,11.1-12.1,17.7-22.5,13.1c-9.3-4.1-18.8-7.7-28.6-10.6c-17-5.2-35-8.5-53.9-10.1l-4.9-0.4v96
						c50.4,14.1,87.5,33.1,111.4,57c23.8,23.8,35.7,53.4,35.7,88.9c0,38.4-13.1,69.2-39.5,92.4c-26.5,23.3-63.6,36.5-111.6,39.3v37
						c0,9.8-7.8,17.5-17.5,17.1l-0.3,0c-9.7-0.4-17.6-8.7-17.6-18.5v-36.5l-7.8-0.4c-22.5-1-44.1-3.3-64.7-6.9
						c-15.3-2.7-30.2-6.1-44.7-10.3c-8.8-2.5-14.8-10.9-14-19.9l4.8-54c1-11.7,12.8-18.5,23.9-14.1c12.9,5.1,26,9.4,39.3,12.9
						c20.7,5.5,41.6,8.9,62.8,10.5l0.3-106.7c-48.4-12-84.6-29.7-108.5-53.2c-23.9-23.6-35.9-53.8-35.9-90.6c0-38,13-67.4,38.9-88
						c25.8-20.5,62.5-30.7,109.8-30.7v-34.3C2712.8,1255.7,2720.7,1248.4,2730.4,1249.4z M2712.8,1377.5c-15,1.1-26.6,5.2-35,12.3
						c-8.4,7.1-12.6,16.8-12.6,28.8c0,11.4,3.9,21,11.6,28.6c7.7,7.7,19.7,13.8,35.9,18.3V1377.5z M2743.8,1570.7v97.9
						c16.3,0,28.7-3.9,37.4-11.6c8.7-7.8,13-18.8,13-32.9c0-12.9-4-23.7-12.1-32.2C2774.1,1583.3,2761.3,1576.2,2743.8,1570.7z"/>
				</g>
				
					<linearGradient id="SVGID_00000034074062860336764360000006277568861895203993_" gradientUnits="userSpaceOnUse" x1="2571.1992" y1="1439.0768" x2="2871.8357" y2="2077.2708">
					<stop  offset="0" style="stop-color:#FC7248"/>
					<stop  offset="2.557466e-03" style="stop-color:#FC7348"/>
					<stop  offset="6.891792e-02" style="stop-color:#FE8046"/>
					<stop  offset="0.1536" style="stop-color:#FF8844"/>
					<stop  offset="0.3183" style="stop-color:#FF8A44"/>
					<stop  offset="0.4824" style="stop-color:#FE7F46"/>
					<stop  offset="0.7684" style="stop-color:#FA624D"/>
					<stop  offset="0.8658" style="stop-color:#F8574F"/>
					<stop  offset="1" style="stop-color:#F8574F"/>
				</linearGradient>
				<path style="opacity:0.3;fill:url(#SVGID_00000034074062860336764360000006277568861895203993_);" d="M2673.6,1594.4
					c11-108.2,110.4-154,97.4-253.5c-8-61.3-54.5-113-106.3-153.4c-157.3,16.5-278.9,146.7-278.9,317.1
					c0,194.5,158,357.5,346.5,363.8c18.3,0.6,36.2-0.3,53.5-2.6C2710.9,1791.3,2664.1,1687.3,2673.6,1594.4z"/>
			</g>
			<g>
				
					<linearGradient id="SVGID_00000106853546881168578750000004655436550417082814_" gradientUnits="userSpaceOnUse" x1="3046.9219" y1="2437.7202" x2="2999.5522" y2="2153.5012">
					<stop  offset="3.597120e-03" style="stop-color:#61BBD7"/>
					<stop  offset="1" style="stop-color:#8092F9"/>
				</linearGradient>
				<path style="fill:url(#SVGID_00000106853546881168578750000004655436550417082814_);" d="M2949.1,1867.8
					c0,0-20.9,155.8,143.2,265.7l-174.7,41.7c0,0-55.9-104.6-15.4-277.7L2949.1,1867.8z"/>
				
					<linearGradient id="SVGID_00000085220630346593128780000001683219453330094999_" gradientUnits="userSpaceOnUse" x1="2936.0964" y1="1850.01" x2="2943.3335" y2="1955.2764">
					<stop  offset="3.597000e-03" style="stop-color:#F3569F"/>
					<stop  offset="1" style="stop-color:#FF8A44"/>
				</linearGradient>
				<path style="fill:url(#SVGID_00000085220630346593128780000001683219453330094999_);" d="M2918.4,1897.4c0,0-9.4-23.2-7.9-33.7
					c1.5-10.5,26.4-24.4,43.4-38.8s-0.6,14.5-4.6,21.1c-3.9,6.6-17.8,16.4-15.8,38.8L2918.4,1897.4z"/>
				
					<linearGradient id="SVGID_00000103946571927421001220000003346441046736367294_" gradientUnits="userSpaceOnUse" x1="3065.7783" y1="1928.6394" x2="3055.4536" y2="1804.7429" gradientTransform="matrix(0.9986 5.370000e-02 -5.370000e-02 0.9986 185.5795 -55.8024)">
					<stop  offset="3.597000e-03" style="stop-color:#26434F"/>
					<stop  offset="1" style="stop-color:#44838C"/>
				</linearGradient>
				<path style="fill:url(#SVGID_00000103946571927421001220000003346441046736367294_);" d="M3113.8,2016.1
					c-8.6-16.9-12.1-16.8-14.2-25.7c-4.8-20.3,7.6-46.1,18.1-46.5c6.8-0.2,7.3,10.3,21.7,26.7c17.6,20.1,28.2,17.5,38.6,34.9
					c2.4,4.1,13.3,22.5,6.6,36.2c-8.5,17.5-42.2,20.3-56.3,6.8C3121.6,2042.1,3124.4,2036.9,3113.8,2016.1z"/>
				
					<linearGradient id="SVGID_00000026126884190911534890000000990219521812512403_" gradientUnits="userSpaceOnUse" x1="3029.0149" y1="1745.98" x2="3038.8833" y2="2111.1064" gradientTransform="matrix(0.9986 5.370000e-02 -5.370000e-02 0.9986 185.5795 -55.8024)">
					<stop  offset="3.597000e-03" style="stop-color:#F3569F"/>
					<stop  offset="1" style="stop-color:#FF8A44"/>
				</linearGradient>
				<path style="fill:url(#SVGID_00000026126884190911534890000000990219521812512403_);" d="M3139.1,2034.3c0,0-6,32.1-1.7,58.2
					c3.9,23.6,47.6,48.1,56,55.1c8.4,7-22.2,14.7-50.3,11c-28.1-3.7-104.9-28.3-116.6-42c-11.7-13.7,13.6-7,34.9-9.5
					c21.3-2.6,41.6-38.2,42.2-56.4C3104.1,2032.5,3139.1,2034.3,3139.1,2034.3z"/>
				<g>
					
						<linearGradient id="SVGID_00000039116838861119202460000013083603874938236296_" gradientUnits="userSpaceOnUse" x1="-521.5051" y1="1489.406" x2="-424.1293" y2="1592.0452" gradientTransform="matrix(-0.966 -0.2584 -0.2584 0.966 3092.8628 402.9503)">
						<stop  offset="3.597000e-03" style="stop-color:#F3569F"/>
						<stop  offset="1" style="stop-color:#FF8A44"/>
					</linearGradient>
					<path style="fill:url(#SVGID_00000039116838861119202460000013083603874938236296_);" d="M3130,2058.3c0,0-21.5,9.4-40.5-5.8
						c-17-13.6,8.3-55.5,25.6-56c5.8-0.2,14.2,4,19.2,10c2.9,3.6,3.1,6,8,11.7c4.5,5.3,6.5,5.8,7.2,8.4c0.9,3.2-0.6,8.6-12.3,17.9
						c5.8-1.1,10.8,0.5,12.8,3.9c0.3,0.5,1,2.2,0.8,4C3150.1,2058.6,3141.8,2061.5,3130,2058.3z"/>
				</g>
				
					<linearGradient id="SVGID_00000087400478252639853560000017287756795891656856_" gradientUnits="userSpaceOnUse" x1="2642.6167" y1="1948.1871" x2="2663.012" y2="2013.3204">
					<stop  offset="3.597000e-03" style="stop-color:#F3569F"/>
					<stop  offset="1" style="stop-color:#FF8A44"/>
				</linearGradient>
				<path style="fill:url(#SVGID_00000087400478252639853560000017287756795891656856_);" d="M2657.7,1946.5c0,0-13-1.8-9-26.7
					c3.2-19.5,0.8-26-3.8-22.6c-4.6,3.5-5.2,14.7-5.2,14.7s-16.8-14.3-23.7-33.1c-6.9-18.8-11.3-3-12.8,6.4
					c-1.5,9.4,9.9,38.5,16.3,43.9c6.4,5.4,15.8,29.4,15.8,29.4L2657.7,1946.5z"/>
				
					<linearGradient id="SVGID_00000069397668797976057000000016717197519665716125_" gradientUnits="userSpaceOnUse" x1="-190.0114" y1="3444.5474" x2="-255.445" y2="3228.793" gradientTransform="matrix(-0.9999 1.380000e-02 1.380000e-02 0.9999 2839.1826 -14.86)">
					<stop  offset="0" style="stop-color:#44838C"/>
					<stop  offset="0.9964" style="stop-color:#26434F"/>
				</linearGradient>
				<path style="fill:url(#SVGID_00000069397668797976057000000016717197519665716125_);" d="M3139,3321.3
					c6.7,13.7,4.8,19.5,3.2,22.1c-4.9,7.6-16.7,0.4-47.4,4.1c-3.6,0.4-10.5,1.4-19.1-0.7c-7.3-1.7-16-5.6-15.6-7.6
					c0.1-0.7,1.4-1,1.9-1.1c8.5-1.8,61.9-18.2,61.9-18.2L3139,3321.3z"/>
				
					<linearGradient id="SVGID_00000012458360142625152840000000608145966982242187_" gradientUnits="userSpaceOnUse" x1="-246.418" y1="3402.5325" x2="-246.418" y2="3055.9204" gradientTransform="matrix(-0.9999 1.380000e-02 1.380000e-02 0.9999 2839.1826 -14.86)">
					<stop  offset="0" style="stop-color:#FF8A44"/>
					<stop  offset="0.9964" style="stop-color:#F3569F"/>
				</linearGradient>
				<path style="fill:url(#SVGID_00000012458360142625152840000000608145966982242187_);" d="M3143.1,3291.3l-4.8,30.5
					c0,0-13.1,9.3-16.6-2c-2.5-8.1-2.4-29.9-2.4-29.9L3143.1,3291.3z"/>
				
					<linearGradient id="SVGID_00000132795297396737058540000003225115121295984565_" gradientUnits="userSpaceOnUse" x1="-124.3055" y1="3389.5898" x2="-124.3055" y2="3042.9641" gradientTransform="matrix(-0.9999 1.380000e-02 1.380000e-02 0.9999 2839.1826 -14.86)">
					<stop  offset="0" style="stop-color:#FF8A44"/>
					<stop  offset="0.9964" style="stop-color:#F3569F"/>
				</linearGradient>
				<polygon style="fill:url(#SVGID_00000132795297396737058540000003225115121295984565_);" points="2993.6,3293.4 3006.5,3328.5 
					3025.2,3325.5 3020.8,3293 				"/>
				
					<linearGradient id="SVGID_00000067218772884557627110000018226716073837241791_" gradientUnits="userSpaceOnUse" x1="-100.2055" y1="3402.6934" x2="-165.6387" y2="3186.9399" gradientTransform="matrix(-0.9999 1.380000e-02 1.380000e-02 0.9999 2839.1826 -14.86)">
					<stop  offset="0" style="stop-color:#44838C"/>
					<stop  offset="0.9964" style="stop-color:#26434F"/>
				</linearGradient>
				<path style="fill:url(#SVGID_00000067218772884557627110000018226716073837241791_);" d="M3012.3,3347.9
					c9.1-10.7,17.1-9.8,18.8-17.2c1.3-5.8-2.3-12.9-7.6-15.6c-7.5-3.8-16.7,2.1-18.7,3.5c-14,9.1-10.2,23.3-23.4,29.5
					c-2.7,1.2-6.9,2.6-11.3,6.7c-1.9,1.8-6.6,6.1-5.5,9.2c1.3,3.5,9.6,3.4,17.5,3.3c9.5-0.1,14.3-0.2,18.8-3.1
					C3007.2,3360.2,3005.3,3356.2,3012.3,3347.9z"/>
				
					<linearGradient id="SVGID_00000106828951769862125110000015588184683149562012_" gradientUnits="userSpaceOnUse" x1="-276.3651" y1="2654.6013" x2="-308.1973" y2="3370.8264" gradientTransform="matrix(-0.9999 1.380000e-02 1.380000e-02 0.9999 2839.1826 -14.86)">
					<stop  offset="0" style="stop-color:#1C1944"/>
					<stop  offset="1" style="stop-color:#5F3989"/>
				</linearGradient>
				<path style="fill:url(#SVGID_00000106828951769862125110000015588184683149562012_);" d="M3243.2,2560.9
					c-3.5,71-13.6,131.7-25.2,181.1c-12.4,53.2-19.2,62.3-23.5,99.1c-9.4,80.2,16.3,92.3,19.1,183.2
					c3.1,100.4-25.3,179.6-36.4,209.8c-9.7,26.4-19.8,47.7-27.3,62.4c-9.4,7.8-23.4,4.4-38.1,1.1c-3.5-91.1-8.5-176.9-12-268
					c-14.7-137.2-29.4-274.5-44-411.7C3118.2,2598.9,3180.7,2579.9,3243.2,2560.9z"/>
				
					<linearGradient id="SVGID_00000111154822306330704120000014125539813339910039_" gradientUnits="userSpaceOnUse" x1="-276.3651" y1="2654.6011" x2="-308.1973" y2="3370.8259" gradientTransform="matrix(-0.9999 1.380000e-02 1.380000e-02 0.9999 2839.1826 -14.86)">
					<stop  offset="0" style="stop-color:#1C1944"/>
					<stop  offset="1" style="stop-color:#5F3989"/>
				</linearGradient>
				<path style="opacity:0.3;fill:url(#SVGID_00000111154822306330704120000014125539813339910039_);" d="M3111.7,3297.6
					c-3.5-91.1-8.5-176.9-12-268c-14.7-137.2-29.4-274.5-44-411.7c62.5-19,125-38,187.6-57c-0.2,4.7-0.6,9.2-0.8,13.9
					c-88.7,73.8-107.1,133.3-107.1,174.2c0,49.6,26.6,74.8,19.7,146.5c-4.9,51.3-20.5,60-21.5,106.4c-1.3,59.7,23.6,93.8,35.4,128.6
					c11.3,33.6,14.6,80.9-10.1,147.6c-3.2,6.9-6.2,13-8.9,18.3C3140.5,3304.3,3126.5,3300.9,3111.7,3297.6z"/>
				
					<linearGradient id="SVGID_00000078726812728195664360000002994170511903600795_" gradientUnits="userSpaceOnUse" x1="300.1114" y1="2950.7461" x2="-401.4888" y2="2918.8547" gradientTransform="matrix(-0.9999 1.380000e-02 1.380000e-02 0.9999 2839.1826 -14.86)">
					<stop  offset="0" style="stop-color:#1C1944"/>
					<stop  offset="1" style="stop-color:#5F3989"/>
				</linearGradient>
				<path style="fill:url(#SVGID_00000078726812728195664360000002994170511903600795_);" d="M3137.2,2614
					c-56.3,68.9-88.4,133.3-106.9,178.4c-22.3,54.3-38.4,95-33.4,147.7c5.6,58,31.9,78.8,49.3,128.3c16.9,48,25.2,121.7-19,231.6
					c-11.1,3.9-22.2,7.7-33.4,11.5c-7.4-29.7-19.3-74.1-37.2-126.9c-35.4-104.7-70.7-173.7-80.3-195.1
					c-33.6-75.4-37-210,102.9-469.7C3032,2551.1,3084.6,2582.6,3137.2,2614z"/>
				
					<linearGradient id="SVGID_00000098209314354500287830000003073818322262545051_" gradientUnits="userSpaceOnUse" x1="2945.877" y1="2137.1345" x2="3072.196" y2="2795.0483">
					<stop  offset="3.597120e-03" style="stop-color:#61BBD7"/>
					<stop  offset="1" style="stop-color:#8092F9"/>
				</linearGradient>
				<path style="fill:url(#SVGID_00000098209314354500287830000003073818322262545051_);" d="M2623,1953.2
					c14.8-10.4,29.6-20.7,44.4-31.1c18,110.7,59,154.2,93.7,173.2c83.9,45.9,158.8-35.9,319.4-2.5c44.3,9.2,121.4,26.3,164.2,89.4
					c11.2,16.6,15.2,29.1,33.9,148c23.9,152,24.7,178.5,21.3,211.2c-6.2,59.9-9.9,96.2-37.5,128.3c-73.3,85.3-229.2,41.3-248.7,35.5
					c-36.1-10.7-92.2-27.3-114.5-75c-10.5-22.4-9.4-43,6.7-125c31.9-162.6,36-173.1,27.1-190.9c-30.1-60.1-125.4-25.7-205.9-81.6
					C2680.2,2200.1,2627.1,2128.9,2623,1953.2z"/>
				
					<linearGradient id="SVGID_00000158747438301900561680000010187686180109783177_" gradientUnits="userSpaceOnUse" x1="2843.2563" y1="2156.8372" x2="2969.5757" y2="2814.7515">
					<stop  offset="3.597120e-03" style="stop-color:#61BBD7"/>
					<stop  offset="1" style="stop-color:#8092F9"/>
				</linearGradient>
				<path style="opacity:0.3;fill:url(#SVGID_00000158747438301900561680000010187686180109783177_);" d="M3086.8,2683.5
					c-15.7-32.2,5.4-61.9-17.8-100.7c-29.5-49.4-82.6-32.6-102.6-69.1c-34.2-62.4,100.4-149.4,73-248.7
					c-13.1-47.4-58.6-81.7-96.7-94.7c-84.5-28.9-139.8,44.7-219.1,21.7c-18.8-5.5-40.3-16.8-62.2-40.2
					c19.3,40.7,43.2,65.2,65.8,80.9c80.5,55.9,175.8,21.5,205.9,81.6c8.9,17.8,4.8,28.3-27.1,190.9c-16.1,82.1-17.2,102.6-6.7,125
					c22.3,47.7,78.4,64.3,114.5,75c10.7,3.2,62.2,17.7,118.7,16.3C3107.3,2711.3,3093.7,2697.7,3086.8,2683.5z"/>
			</g>
		</g>
	</g>
</g>
</svg>
