<?xml version="1.0" encoding="utf-8"?>
<!-- Generator: Adobe Illustrator 26.0.3, SVG Export Plug-In . SVG Version: 6.00 Build 0)  -->
<svg version="1.1" id="Слой_1" xmlns="http://www.w3.org/2000/svg" xmlns:xlink="http://www.w3.org/1999/xlink" x="0px" y="0px"
	 viewBox="0 0 647 128" style="enable-background:new 0 0 647 128;" xml:space="preserve">
<style type="text/css">
	.st0{fill:#005893;}
	.st1{fill:#0BBBEF;}
	.st2{fill:none;stroke:#005893;stroke-width:1.7688;}
</style>
<g id="surface1">
	<path class="st0" d="M444.2,91.4H499V78.3h-36.1c5-21.5,35.5-26.3,35.5-50.1c0-12.8-8.1-22.2-25.2-22.2c-10.6,0-19.9,3.4-26.1,6.7
		l3.7,12.1c5.6-3,12.1-5.7,20.2-5.7c6.2,0,12.1,3,12.1,10.8C483.1,47.3,447.3,48.7,444.2,91.4z M500,70.6h36v20.8h14V70.6h12V57.5
		h-12V5h-10.4L500,60.4V70.6z M516.6,57.8l20.1-29.2c0,2.4-0.6,9.8-0.6,16.6v12.2h-9.4C523.8,57.5,518.4,57.8,516.6,57.8z"/>
	<path class="st1" d="M43,78.3V50.9h6.1c5.4,0,9.9,0.7,13.1,2.8c3.2,2.1,5.1,5.5,5.1,11.1c0,9.3-5.1,13.5-17.3,13.5H43z M28.3,91.4
		h21.4c23.9,0,32.6-11.1,32.6-26.6c0-10.4-4.1-17.5-11.5-21.5c-5.7-3.4-13.1-4.4-22-4.4H43V18.1h32.2l3.8-12H28v85.3H28.3z M91,91.4
		h13.9l17.8-27.7c3.4-5.1,5.9-10.1,7.5-12.8h0.4c-0.3,3.7-0.6,8.5-0.6,13.3v27.2h14V30.1h-13.8l-17.9,27.7c-3.1,5.1-6,10.1-7.5,12.8
		h-0.3c0.3-3.7,0.6-8.4,0.6-13.1V30.1H91V91.4z M168,91.4h14V43.3h16.6l3.7-13.1H151v13.1h17V91.4z M208.3,122H222V91.1
		c2.7,1,5.5,1.4,8.5,1.4c17.3,0,28.6-13.2,28.6-32.2c0-19.7-10.3-32.2-30.1-32.2c-7.6,0-14.9,1.7-21,3.7V122H208.3z M222,77.9V42
		c2.2-0.7,4.1-1,6.6-1c10.4,0,16.9,6.1,16.9,19.3c0,11.9-5.3,19.3-16,19.3C226.7,79.6,224.5,78.9,222,77.9z M269,91.4h14.1
		l17.8-27.7c3.4-5.1,5.9-10.1,7.5-12.8h0.3c-0.3,3.7-0.6,8.5-0.6,13.3v27.2h14V30.1h-13.8l-17.9,27.7c-3.1,5.1-6,10.1-7.5,12.8h-0.3
		c0.3-3.7,0.6-8.4,0.6-13.1V30.1h-14V91.4z M334,91.4h14V66.2h8.2c1.5,0,3,1.7,4.9,5.7l7,19.4h15.4l-10.1-23.3
		c-1.8-4.1-3.7-6.4-6.4-7.4v-0.3c4.6-3,5.2-11.8,8-16.2c0.9-1.3,2.1-2,4-2c0.9,0,2.1,0,3.1,0.7V29.5c-1.5-0.7-4.3-1-5.8-1
		c-4.9,0-8,2-10.1,5.4c-4.6,7.4-4.6,20.3-11.3,20.3H348V30.1h-14V91.4z M416.1,92.5c7.8,0,15.1-2.7,19.4-6.1l-4.1-10.5
		c-4.1,2.4-7.8,4.1-13.2,4.1c-9.7,0-16-6.8-16-19.3c0-11.2,6.3-20,16.9-20c5.6,0,9.7,1.7,13.8,4.7V32.1c-3.1-2-8.2-4.1-15.4-4.1
		c-16.9,0-30.1,13.6-30.1,32.9C387.5,78.6,397.6,92.5,416.1,92.5z"/>
	<path class="st2" d="M608.6,70.1c15.4,0,27.9-13.6,27.9-30.2S623.9,9.7,608.6,9.7c-15.4,0-27.9,13.6-27.9,30.2
		C581,56.5,593.2,70.1,608.6,70.1z"/>
	<path class="st0" d="M626,40h-15V23.6h-4v20.8h19V40z"/>
</g>
</svg>
