<?xml version="1.0" encoding="utf-8"?>
<!-- Generator: Adobe Illustrator 26.0.3, SVG Export Plug-In . SVG Version: 6.00 Build 0)  -->
<svg version="1.1" id="Layer_1" xmlns="http://www.w3.org/2000/svg" xmlns:xlink="http://www.w3.org/1999/xlink" x="0px" y="0px"
	 viewBox="0 0 4000 4000" style="enable-background:new 0 0 4000 4000;" xml:space="preserve">
<style type="text/css">
	.st0{fill-rule:evenodd;clip-rule:evenodd;fill:#DFC6FE;}
	.st1{fill-rule:evenodd;clip-rule:evenodd;fill:#CCA6FD;}
	.st2{fill-rule:evenodd;clip-rule:evenodd;fill:#C8A6F6;}
	.st3{fill-rule:evenodd;clip-rule:evenodd;fill:#9F54F5;}
	.st4{fill-rule:evenodd;clip-rule:evenodd;fill:#E0C7FE;}
	.st5{fill-rule:evenodd;clip-rule:evenodd;fill:#D2AEFE;}
	.st6{fill-rule:evenodd;clip-rule:evenodd;fill:#F2E7FF;}
	
		.st7{clip-path:url(#SVGID_00000180346004595963669430000012462878085077444789_);fill-rule:evenodd;clip-rule:evenodd;fill:#F3EAFF;}
	.st8{fill-rule:evenodd;clip-rule:evenodd;fill:#E2B392;}
	
		.st9{clip-path:url(#SVGID_00000145037433211378346660000008702162209726989499_);fill-rule:evenodd;clip-rule:evenodd;fill:#B985FC;}
	.st10{fill-rule:evenodd;clip-rule:evenodd;fill:#B985FC;}
	.st11{fill-rule:evenodd;clip-rule:evenodd;fill:#090909;}
	.st12{fill-rule:evenodd;clip-rule:evenodd;fill:#383736;}
	.st13{fill-rule:evenodd;clip-rule:evenodd;fill:#F6DDC1;}
	.st14{fill-rule:evenodd;clip-rule:evenodd;fill:#373735;}
	
		.st15{clip-path:url(#SVGID_00000170979374125210837090000017668328460269078192_);fill-rule:evenodd;clip-rule:evenodd;fill:#2A2A28;}
	.st16{fill-rule:evenodd;clip-rule:evenodd;fill:#4D4E4B;}
	
		.st17{clip-path:url(#SVGID_00000113335751162889833440000012124251916837214126_);fill-rule:evenodd;clip-rule:evenodd;fill:#F3D2AB;}
	.st18{fill-rule:evenodd;clip-rule:evenodd;fill:#523C2A;}
	.st19{fill-rule:evenodd;clip-rule:evenodd;fill:#424140;}
	.st20{fill-rule:evenodd;clip-rule:evenodd;fill:#D1C3E9;}
	.st21{fill-rule:evenodd;clip-rule:evenodd;fill:#1B1A1A;}
	.st22{fill-rule:evenodd;clip-rule:evenodd;fill:#252625;}
	
		.st23{clip-path:url(#SVGID_00000116233993313248477640000003672808844724144002_);fill-rule:evenodd;clip-rule:evenodd;fill:#F3D1A9;}
	
		.st24{clip-path:url(#SVGID_00000081613002025625104130000003382852153449500827_);fill-rule:evenodd;clip-rule:evenodd;fill:#4B4948;}
	.st25{fill-rule:evenodd;clip-rule:evenodd;fill:#464644;}
	.st26{fill-rule:evenodd;clip-rule:evenodd;fill:#2C2A33;}
	.st27{fill-rule:evenodd;clip-rule:evenodd;fill:#464250;}
	.st28{fill-rule:evenodd;clip-rule:evenodd;fill:#61625F;}
	
		.st29{clip-path:url(#SVGID_00000119089353870178280280000007309409436311433883_);fill-rule:evenodd;clip-rule:evenodd;fill:#444442;}
	.st30{fill-rule:evenodd;clip-rule:evenodd;fill:#D16820;}
	.st31{fill-rule:evenodd;clip-rule:evenodd;fill:#3E3D3B;}
	.st32{fill-rule:evenodd;clip-rule:evenodd;fill:#63635F;}
	.st33{fill-rule:evenodd;clip-rule:evenodd;fill:#8142F8;}
	
		.st34{clip-path:url(#SVGID_00000107548447293215674380000010544080363976342699_);fill-rule:evenodd;clip-rule:evenodd;fill:#FFFFFF;}
	
		.st35{clip-path:url(#SVGID_00000065039193365564152280000013249552329357826740_);fill-rule:evenodd;clip-rule:evenodd;fill:#FFFFFF;}
	
		.st36{clip-path:url(#SVGID_00000092443224695238794050000000557189577744546451_);fill-rule:evenodd;clip-rule:evenodd;fill:#FFFFFF;}
	
		.st37{clip-path:url(#SVGID_00000173152920333048360070000014321447288925162369_);fill-rule:evenodd;clip-rule:evenodd;fill:#5D1CD7;}
</style>
<g>
	<path class="st0" d="M3351.9,2645.9c116.4-62.7,180.9-252.3,228.4-363.9c164.6-386.8,242.8-987.2-213.9-1214.1
		c-327-162.4-687.8,123.1-1006.3-42.1c-306.6-159.1-461.1-758.6-856.6-725.5c-354.7,29.7-252.9,558.1-399.7,767.1
		c-143.3,204-378.7,227.4-558.3,416.3c-81.6,85.8-143.3,257.6-132.9,374c24.4,270.9,97.1,539.9,427.6,744.8"/>
	<polygon class="st1" points="3766.4,2696.4 2010.5,3584.1 238.3,2694.1 1991.4,1805.8 	"/>
	<polygon class="st0" points="3766.4,2803.9 3766.4,2696.4 2005.9,3584.1 2002.8,3681.7 	"/>
	<polygon class="st0" points="2007.1,3584.1 2002.8,3681.7 238.3,2781.8 235.2,2684.2 	"/>
	
		<image style="overflow:visible;enable-background:new    ;" width="217" height="528" xlink:href="30738863.jpeg"  transform="matrix(1.4321 0 0 1.4359 2411.793 1682.473)">
	</image>
	<polygon class="st2" points="2115.9,1988 2177,1956.5 2605.3,2218.1 2571.8,2241.1 	"/>
	
		<image style="overflow:visible;enable-background:new    ;" width="73" height="288" xlink:href="30738861.jpeg"  transform="matrix(1.4335 0 0 1.434 2508.1809 2200.6831)">
	</image>
	
		<image style="overflow:visible;enable-background:new    ;" width="136" height="266" xlink:href="30738867.jpeg"  transform="matrix(1.4684 0 0 1.464 1991.1901 1932.7562)">
	</image>
	<polygon class="st2" points="2103.6,1305.7 2164.8,1274.2 2645.5,1514.7 2590.9,1547.9 	"/>
	<polygon class="st3" points="2590.9,1547.9 2590.6,1563.2 2648,1529.9 2645.5,1514.6 	"/>
	<polygon class="st3" points="2590.9,1548 2590.6,1563.1 2103.7,1321.7 2103.9,1305.7 	"/>
	<polygon class="st4" points="2119.5,1986.8 2117.5,1314.3 2599.7,1552.2 2577.7,2241.9 	"/>
	<polygon class="st5" points="2602.3,2226.6 2577.7,2241.9 2598.9,1552.5 2623.5,1537.3 	"/>
	<polygon class="st3" points="2577.8,2226.8 2578.2,2242.3 2116,2011.3 2116.1,1995.4 	"/>
	<g>
		<g>
			<path id="SVGID_1_" class="st6" d="M2027,1969.1c0,0,82.7-119.9,82.5-194c-0.3-112.1-1.3-451.2-1.3-451.2l482.2,238.9
				c0,0-23.2,319.6-22.2,432.4c1.4,166.2-52.9,216-52.9,216L2027,1969.1L2027,1969.1z"/>
		</g>
		<g>
			<defs>
				<path id="SVGID_00000129196628753080785830000002249910676356758696_" d="M2027,1969.1c0,0,82.7-119.9,82.5-194
					c-0.3-112.1-1.3-451.2-1.3-451.2l482.2,238.9c0,0-23.2,319.6-22.2,432.4c1.4,166.2-52.9,216-52.9,216L2027,1969.1L2027,1969.1z"
					/>
			</defs>
			<clipPath id="SVGID_00000067218681219482223020000005178562054237200045_">
				<use xlink:href="#SVGID_00000129196628753080785830000002249910676356758696_"  style="overflow:visible;"/>
			</clipPath>
			
				<path style="clip-path:url(#SVGID_00000067218681219482223020000005178562054237200045_);fill-rule:evenodd;clip-rule:evenodd;fill:#F3EAFF;" d="
				M2114.7,1318.8c-0.9,0.1-2.4,12.2-2.6,14c-5.2,49,3.5,97.7,13.5,145.6c14.4,69.1,35.6,139.2,37.1,210.2
				c2.4,117.4-56.3,184,51.8,274.7c97.8,82.1,216.3,130.6,325.4,194.2c12.9,7.5,101.3,55.7,62.1,77.1c-28.5,15.6-71.4,15.5-102.8,18
				c-189.5,15-276.8-42.9-423.8-154.2c-55.1-41.7-127.7-85.4-138.9-159.7c-13.1-86.5,23.3-182,45.7-264.2
				c35.5-130.2,66.2-259.8,89.4-392.6"/>
		</g>
	</g>
	<g>
		<g>
			<path id="SVGID_3_" class="st8" d="M2360.6,1548.9c54.2,25.1,98.2,89.4,98.2,143.6c0,54.2-44,77.8-98.2,52.8
				c-54.2-25.1-98.2-89.4-98.2-143.6S2306.4,1523.9,2360.6,1548.9L2360.6,1548.9z"/>
		</g>
		<g>
			<defs>
				<path id="SVGID_00000029026842326414518990000009763814525895351946_" d="M2360.6,1548.9c54.2,25.1,98.2,89.4,98.2,143.6
					c0,54.2-44,77.8-98.2,52.8c-54.2-25.1-98.2-89.4-98.2-143.6S2306.4,1523.9,2360.6,1548.9L2360.6,1548.9z"/>
			</defs>
			<clipPath id="SVGID_00000022542490950972845930000014368788154321149346_">
				<use xlink:href="#SVGID_00000029026842326414518990000009763814525895351946_"  style="overflow:visible;"/>
			</clipPath>
			
				<polygon style="clip-path:url(#SVGID_00000022542490950972845930000014368788154321149346_);fill-rule:evenodd;clip-rule:evenodd;fill:#B985FC;" points="
				2524.2,1559.1 2360.6,1483.4 2360.6,1647.1 2524.2,1722.8 			"/>
		</g>
	</g>
	<polygon class="st10" points="2444.8,1817.2 2218.3,1704.1 2218.3,1721.3 2444.8,1834.4 	"/>
	<polygon class="st10" points="2444.8,1924.7 2218.3,1811.6 2218.3,1828.8 2444.8,1941.9 	"/>
	<polygon class="st10" points="2385.3,1821 2218.3,1737.5 2218.3,1754.8 2385.3,1838.2 	"/>
	<polygon class="st10" points="2385.3,1928.5 2218.3,1845 2218.3,1862.2 2385.3,1945.7 	"/>
	<polygon class="st10" points="2346.4,1835 2218.3,1771 2218.3,1788.2 2346.4,1852.2 	"/>
	<polygon class="st10" points="2346.4,1942.5 2218.3,1878.5 2218.3,1895.7 2346.4,1959.7 	"/>
	<polygon class="st3" points="2577.7,2226.8 2578.1,2242.2 2604.6,2233.2 2605.3,2218 	"/>
	<path class="st11" d="M3033.2,2572.4c-2.8,10.7-0.7,24.4-0.6,35.6c0.1,4.1,1.6,10.3-0.4,14.1c-2.3,4.2-7.9,6.4-11.7,8.9
		c-8.3,5.4-16.7,11.1-24.6,17.2c-8.1,6.2-12.9,15.2-19.9,22.4c-18.1,18.7-39.3,25.9-64.4,19.5c-7.3-1.9-16.3-3.9-21.1-10.2
		c-2.8-3.7-4.1-8.3-4.6-12.8c-3.1-25.9,15.3-30.7,31.3-46.2c10-9.7,18.6-21.1,24.7-33.6c1.9-3.8,3.2-15.6,6.7-17.9
		c4.7-3.1,18.7-2.4,24.1-3.1c6.6-0.8,13.4-1,20-1.2c10.1-0.4,20.1-0.3,30.1-0.9"/>
	<path class="st11" d="M2914.8,2486.5c0.8,0.2,0.3,6.4,0.3,7c-0.2,7.8-0.5,15.6-1.1,23.3c-0.6,8.4-0.8,16.6,0.8,24.9
		c0.7,3.6,2.2,9.1-0.4,12.2c-8.1,9.6-30.6,11.8-41.8,15.8c-30.9,11.2-56.8,41.7-91.2,42.3c-23.3,0.4-48.6-18.3-35.9-43.8
		c8-15.9,31.2-25.2,44.1-36.7c7.7-6.9,15.1-14.3,21.1-22.9c4.7-6.7,8.6-15.1,15.5-19.9c9.4-6.5,24.2-3.5,34.7-2.5
		c19.1,1.8,37.5,1.8,56.5,0.1"/>
	<path class="st12" d="M2785.6,1480.2c0,0,10.9-85,67.7-74.6s45.8,122.6,5.3,277.9c0,0-96.5,78.9-89.9-41.8
		C2775.3,1521.1,2785.6,1480.2,2785.6,1480.2L2785.6,1480.2z"/>
	<path class="st13" d="M2648.9,1749c0,0-77.4,52.1-103.4,47.5c-19.1-3.3-11.8-30.8,0.6-49.5c4.5-6.8,5.6-3.8,12-10.3
		c23.9-24.3,2-0.2,2-0.2s-35.3,4.3-34.7-6.9s12.7-2.8,57.3-11.4c44.6-8.6,47.4-15,47.4-15S2665.2,1729.8,2648.9,1749L2648.9,1749z"
		/>
	<path class="st12" d="M2617.7,1693.1c0,0,163.7-83.5,201.4-84.4s52.7,27.5,52.7,46.3c0,18.8-14.5,32.8-43.1,45.8
		c-28.6,13-181.7,61-181.7,61S2601.2,1726.9,2617.7,1693.1L2617.7,1693.1z"/>
	<g>
		<g>
			<path id="SVGID_5_" class="st14" d="M2813.7,2505c0,0-2.2-129.6-4.3-183.1c-2.1-53.4-18.9-220.5-21-292.7s-1.2-160.9,6.1-266.4
				s-7.5-199.2-4.6-245.8c2.9-46.7,0.5-93.4,55.5-110.2s112.9,7.4,139.8,29.7c26.9,22.3,81.5,32.2,83.1,107.2
				c1.5,75-43,228.9-39.9,273.6s3.7,65.2,14.1,130.5c10.4,65.3-1,76.3-4.5,155.8c-3.6,79.5,4.2,403.3,8.2,457.5
				c0,0-55.5,60.8-112.2,15.3l-12.1-240.5c0,0,3.1,152.4-9,165.7C2912.8,2501.7,2876.6,2544.9,2813.7,2505L2813.7,2505z"/>
		</g>
		<g>
			<defs>
				<path id="SVGID_00000116937971083947929920000006214424428311788978_" d="M2813.7,2505c0,0-2.2-129.6-4.3-183.1
					c-2.1-53.4-18.9-220.5-21-292.7s-1.2-160.9,6.1-266.4s-7.5-199.2-4.6-245.8c2.9-46.7,0.5-93.4,55.5-110.2s112.9,7.4,139.8,29.7
					c26.9,22.3,81.5,32.2,83.1,107.2c1.5,75-43,228.9-39.9,273.6s3.7,65.2,14.1,130.5c10.4,65.3-1,76.3-4.5,155.8
					c-3.6,79.5,4.2,403.3,8.2,457.5c0,0-55.5,60.8-112.2,15.3l-12.1-240.5c0,0,3.1,152.4-9,165.7
					C2912.8,2501.7,2876.6,2544.9,2813.7,2505L2813.7,2505z"/>
			</defs>
			<clipPath id="SVGID_00000083078666664302434270000001060619046066758293_">
				<use xlink:href="#SVGID_00000116937971083947929920000006214424428311788978_"  style="overflow:visible;"/>
			</clipPath>
			
				<path style="clip-path:url(#SVGID_00000083078666664302434270000001060619046066758293_);fill-rule:evenodd;clip-rule:evenodd;fill:#2A2A28;" d="
				M2921,2342.4c-2.9,0.3,0.4-5.9,0.4-8.8c0.1-5.9-0.5-11.8-1.3-17.7c-2.3-17.1-7.3-33.6-10-50.6c-8.4-52.3-17.9-104.9-23.2-157.7
				c-1.6-16.6-3.3-33.1-4.6-49.7c-0.4-5.9-0.9-11.9-1.7-17.8c-0.4-2.8,0.4-10.7-1.4-8.4c-4.5,5.6-0.8,28.8-1,35.6
				c-1.1,35.2,2,83.3,4.6,118.5c3.6,48,8.3,84,13.1,131.9c4.6,47.1,6.2,92.2,5.9,139.8c-0.1,15.6-2.9,28.1-9.4,42.3
				c-4.4,9.6-13,22.2-12.4,33.1c0.3,6.3,7.8,8.7,12.2,12.1c7.3,5.6,13.2,13.5,18.5,21.1c3.9,5.6,6.7,11.5,9.2,17.8
				c1.1,2.9,1.6,11.4,3.5,8.8c4.6-6.6,1.3-41.5,1.1-50.1c-0.7-27.4-3.8-55-2.9-82.4c0.5-14.7,5.7-29.8,5.7-44.1"/>
		</g>
	</g>
	<path class="st16" d="M2843.6,1395.5c0,0-59.4,2.3-54.8,129.3c4.6,127,1.6,366.2-20.5,419.1c0,0,62.2,48.5,95.6,40.6
		c0,0,10.1-43.9,7.8-71.5c0,0,18.7,67.5,9.5,79.1c0,0,162.1,11.9,172-30.7c-14.9-23.5-29.1-187.8-20-276.1
		c9.1-88,69.6-164.4,1.2-218c-68.6-53.7-106.6-62.6-106.6-62.6L2843.6,1395.5L2843.6,1395.5z"/>
	<path class="st13" d="M3076.3,1957.4c0,0,15.9,92.7,0.3,114.2c-15.6,21.4-31,39-42.3,6.9s-8.4-46.7-8.4-46.7s-0.7,1.9-1.8,4.8
		c-2.1-0.6-9.3-0.6-15.1-2.3c2.6-7.7,6.9-17.5,10.5-30.8c11.9-43.8,7.4-49.1,7.4-49.1S3066.3,1934.2,3076.3,1957.4L3076.3,1957.4z"
		/>
	<g>
		<g>
			<path id="SVGID_7_" class="st13" d="M2948.8,1361.8c0,0,7,42.1,9.2,57.9c2.2,15.9-64.5,69.2-73.1,31.2l-9.6-73.7L2948.8,1361.8
				L2948.8,1361.8z"/>
		</g>
		<g>
			<defs>
				<path id="SVGID_00000122681675446356973510000005727168172773712022_" d="M2948.8,1361.8c0,0,7,42.1,9.2,57.9
					c2.2,15.9-64.5,69.2-73.1,31.2l-9.6-73.7L2948.8,1361.8L2948.8,1361.8z"/>
			</defs>
			<clipPath id="SVGID_00000119087777783555038660000004329406073657082276_">
				<use xlink:href="#SVGID_00000122681675446356973510000005727168172773712022_"  style="overflow:visible;"/>
			</clipPath>
			
				<path style="clip-path:url(#SVGID_00000119087777783555038660000004329406073657082276_);fill-rule:evenodd;clip-rule:evenodd;fill:#F3D2AB;" d="
				M2874.4,1426.4c2.1,1.4,8.9-2.9,10.5-3.7c10.2-5.2,19.6-11.9,28.6-19c0.7-0.5,9.7-8.6,10.5-7.7c3.1,3.1-8.5,21.6-9.9,24.2
				c-12.7,24.2-28.1,43.3-53.5,54.2"/>
		</g>
	</g>
	<path class="st13" d="M2793.7,1297.4c0,0,15.1,63.2,23.7,91.2c8.7,27.9,30,58.3,60.7,39.1c30.7-19.2,63.9-51.5,78.3-80.2
		c19.7-39.6,28.1-151.4-64.6-115C2799.1,1268.7,2793.7,1297.4,2793.7,1297.4L2793.7,1297.4z"/>
	<path class="st18" d="M2938.6,1292.1c0.6,0-0.9,0.9-1.3,1.4c-0.6,1-1.1,2.2-1.6,3.3c-1.5,3.6-2,7.5-2.4,11.3
		c-0.7,7.5,0.3,15.1-0.9,22.5c-0.3,1.9-1,6.7-3.9,6.3c-4.9-0.6-7.2-10.4-8.3-13.9c-3.5-11.2-4.2-23.4-8.6-34.3
		c-1.5-3.8-4-9.1-8.3-10.3c-5.1-1.5-10.9,2-15,4.6c-8.6,5.4-16.8,11.2-26.5,14.4c-27.6,9.3-74.3,6.6-80.7-23.4
		c-2.9-13.7-3.2-43.3,6.3-48.9c14.9-8.8,26.5-36.9,42.4-44.3c66.5-31,122.5-13.6,149.8,45.4c15.7,33.8,12.2,82.1-6.9,119.9
		c-3.9,7.8-11.3,17.2-20.5,18.9c-7.4,1.4-1.6-10.8,0.2-15.4c5.6-13.8,14-29.2,13.1-44.9c-0.4-7.6-1.7-12-8.6-15.5
		c-6.7-3.4-17.7-1.5-20.7,6.2"/>
	<path class="st19" d="M2972.2,1574.8c0,0-17.8-83.8,39.3-92.7c57.1-8.9,88.5,121.3,101.5,281.3c0,0-69.9,85.6-103.4-30.5
		S2972.2,1574.8,2972.2,1574.8L2972.2,1574.8z"/>
	<path class="st19" d="M3003.5,1968.3c0,0,6-191.3,21.9-225.6c15.9-34.2,47.9-35.2,64.8-26.9s23.1,27.5,22.1,58.9
		c-1,31.4-11.1,190.5-11.1,190.5S3026.6,1998,3003.5,1968.3L3003.5,1968.3z"/>
	<path class="st20" d="M2957.5,1422.8c0,0-71.3,184.2-94.2,212.2c0,0-14.1-141.8,18.5-210.7c0,0-0.4,39.7,19.3,39.6
		C2928.7,1463.8,2957.5,1422.8,2957.5,1422.8L2957.5,1422.8z"/>
	<polygon class="st21" points="2908.9,1494.6 2898.8,1474 2881.2,1489.3 2884.7,1505 2856.2,1592.9 2863.3,1634.9 2886,1601.2 
		2896,1507.1 	"/>
	<path class="st19" d="M2957.6,1416.8c0,0,2.5,5.6-6.2,20c-16.3,26.8-88.1,198.2-88.1,198.2l98-133.7l-17.4-21.8l17.2-3.6
		c3.9-16.4,6.8-27.6,12-50.5C2970.6,1423.7,2962.9,1419.6,2957.6,1416.8L2957.6,1416.8z"/>
	<path class="st19" d="M2881.2,1425.6c0,0-27.7,124.5-17.9,209.4c0,0-21.4-54.6-14.3-148.8l14.9-10.3l-14.9-11.7
		c0,0,3-16.7,8.8-30.6c4.8-0.2,6.9-0.7,9.9-1.8C2874.8,1429.3,2881.2,1425.6,2881.2,1425.6L2881.2,1425.6z"/>
	<path class="st11" d="M1543.1,2769c0,0-13.2,30.5,3.2,47.9c16.4,17.4,47.2,12.3,75,2.5c27.8-9.8,88.8-15.3,118.2-40.8
		c29.4-25.5-30.7-41.7-30.7-41.7s-51.2-3.9-77.4-3.7L1543.1,2769L1543.1,2769z"/>
	<path class="st22" d="M1377.2,2373.8c0,0,82.1-54.4,108.6-36.2c0,0,131.7,359.4,151.7,398.9c0,0-37.8,66.5-95.5,31.1L1377.2,2373.8
		L1377.2,2373.8z"/>
	<path class="st11" d="M1750.3,2951.5c0,0-14,51.3,4.1,65.7s63.5-2.1,117.1-13.8s89.8-22,88.6-44.5s0.3-33.3-17.3-32
		s-96.4,8-106.4,1.8L1750.3,2951.5L1750.3,2951.5z"/>
	<path class="st14" d="M1406.1,2447.4c0,0,90.6,17.4,150.8,16.2c60.2-1.1,159.2-5.7,189,7.2s26.3,30,28.8,46.4
		s41.8,193.8,73.3,412.8c0,0-38.2,59.2-98.4,29.4c0,0-85.5-305.4-81.2-338.5c0,0-238.9,56.9-291.2,53.5l-42.3-102.9L1406.1,2447.4
		L1406.1,2447.4z"/>
	<g>
		<g>
			<path id="SVGID_9_" class="st13" d="M1383.4,1814.3c0,0,25.9,36.1-3.4,150.3c-6.9,27.1-19.5,34.5-36.7,27.3l-8.4,55.4
				l-116.5-16.9l20.8-81.1C1239.1,1949.3,1165,1706.9,1383.4,1814.3L1383.4,1814.3z"/>
		</g>
		<g>
			<defs>
				<path id="SVGID_00000083769669239573387220000001010294968741712010_" d="M1383.4,1814.3c0,0,25.9,36.1-3.4,150.3
					c-6.9,27.1-19.5,34.5-36.7,27.3l-8.4,55.4l-116.5-16.9l20.8-81.1C1239.1,1949.3,1165,1706.9,1383.4,1814.3L1383.4,1814.3z"/>
			</defs>
			<clipPath id="SVGID_00000076575853060912186940000005787884190465440446_">
				<use xlink:href="#SVGID_00000083769669239573387220000001010294968741712010_"  style="overflow:visible;"/>
			</clipPath>
			
				<path style="clip-path:url(#SVGID_00000076575853060912186940000005787884190465440446_);fill-rule:evenodd;clip-rule:evenodd;fill:#F3D1A9;" d="
				M1345,1993.2c-0.3-0.3-3.8-0.5-4.5-0.8c-3.6-1.7-6.9-3.9-10.2-6.1c-1.1-0.7-9.3-7.7-10.4-6.3c-0.9,1.1,0.2,4,0.5,5.1
				c1.5,5.6,3.5,11,5.2,16.5c3.8,12.3,5.8,29.6,17.7,37.2c6.7,4.3,15.7,4.8,23.4,5.9"/>
		</g>
	</g>
	<path class="st18" d="M1353.4,1894.3c0.6-1.6-0.9-7-1.1-8.7c-2.4-18-18.8-20.4-31.7-9.1c-8.8,7.7-12.1,18.7-13,30
		c-0.6,7.5,0.5,16.3-3.7,22.9c-6.6,10.5-22.9,13.1-34.1,15c-7.1,1.2-15.1,1.6-21.9-1c-15.8-5.9-22.7-23.9-28.5-38.2
		c-13.6-33.8-26.6-90.9,0.1-121.6c20.3-23.3,57.5-26.9,86.2-24.8c23,1.7,46.6,5.7,69.1-1.8c10.2-3.4,18.8-8.7,27.7-14.7
		c1.6-1.1,6.1-4.9,7.8-2.1c4.7,7.8,2.4,24.7,3.2,33.6c2.6,27.2,5,57.8-13.3,80.7c-6.1,7.7-14.2,12-21.9,17.8
		c-5.2,3.8-9.7,8.2-12.6,14c-2.9,6-1.9,17.5-10,12.6"/>
	<path class="st13" d="M1712.3,2443.4c0,0,102.3,20.6,127.3,4.7c18.4-11.6-1.1-36.9-21.8-50.9c-7.5-5.1-7.5-1.5-16.8-5.5
		c-35.1-14.9-2.2,0.6-2.2,0.6s38.3-10.7,32.9-22c-5.4-11.3-14.3,2.5-64.1,12.8s-55.4,4.8-55.4,4.8S1687.1,2430.7,1712.3,2443.4
		L1712.3,2443.4z"/>
	<g>
		<g>
			<path id="SVGID_11_" class="st16" d="M1246.9,1990.2c0,0-62.2-3.5-73.4,56.8s-8.4,80.6-8.4,80.6s100.8,486.1,169.8,482.1
				c0,0,101.7-21.7,86.5-139.5s-5.2-171.6-5.2-171.6l2.8-214.2C1419,2084.4,1309.7,1989.5,1246.9,1990.2L1246.9,1990.2z"/>
		</g>
		<g>
			<defs>
				<path id="SVGID_00000062873355220853969840000002433451425527205006_" d="M1246.9,1990.2c0,0-62.2-3.5-73.4,56.8
					s-8.4,80.6-8.4,80.6s100.8,486.1,169.8,482.1c0,0,101.7-21.7,86.5-139.5s-5.2-171.6-5.2-171.6l2.8-214.2
					C1419,2084.4,1309.7,1989.5,1246.9,1990.2L1246.9,1990.2z"/>
			</defs>
			<clipPath id="SVGID_00000008834204376627742070000015413740372273564300_">
				<use xlink:href="#SVGID_00000062873355220853969840000002433451425527205006_"  style="overflow:visible;"/>
			</clipPath>
			
				<path style="clip-path:url(#SVGID_00000008834204376627742070000015413740372273564300_);fill-rule:evenodd;clip-rule:evenodd;fill:#4B4948;" d="
				M1421.9,2262.9c-11.7-12-22.4-24.6-31.6-39.3c-3-4.8-6-9.5-8.9-14.3c-1.4-2.4-2.5-9.3-4.2-7.2c-12.6,16.2-8.8,68.7-8.1,89.6
				c2.9,82.3,1.5,198.3,46.1,267.4c28.4,44.1,88.7,62.9,115.4,6.9"/>
		</g>
	</g>
	<path class="st19" d="M1419,2084.4c0,0,68.2,46.3,118.5,246.4c0,0,188.3,55.1,195.8,50.7c0,0-4.3,38.4-4.1,67.7
		c0,0-158-2.8-208.9-16.9c0,0-125.5-110.5-151.7-232C1342.5,2078.8,1351.2,2052.9,1419,2084.4L1419,2084.4z"/>
	<path class="st25" d="M1299.9,2901.9c153.5,0,278.1,52.8,278.1,117.9c0,65.1-124.6,117.9-278.1,117.9s-278.1-52.8-278.1-117.9
		S1146.4,2901.9,1299.9,2901.9L1299.9,2901.9z"/>
	<path class="st26" d="M1266.8,2858l-2.3,148.1c0,0,39,31.2,68.9-0.6l0.9-155.6L1266.8,2858L1266.8,2858z"/>
	<path class="st27" d="M1252.4,2797.6l-0.1,63.6c0,0,36.1,32.9,93.7,3.2l1.4-66.6L1252.4,2797.6L1252.4,2797.6z"/>
	<g>
		<g>
			<path id="SVGID_13_" class="st28" d="M935.9,1995.1c0,0,245.3,44.7,290.4,159.6c0,0-14.1,195.7,53.9,286.6
				c68,90.9,101.7,208,104.4,232.8c0,0,125.6-14.7,191.2-32.8c0,0,6.1,82.4-217,171.3c0,0-67.9,23.6-149.7-20.5
				s-208.6-114.1-232.4-142.4c-23.8-28.3-147.5-528.2-67.9-640.2L935.9,1995.1L935.9,1995.1z"/>
		</g>
		<g>
			<defs>
				<path id="SVGID_00000075148205288140315430000014217795735915445941_" d="M935.9,1995.1c0,0,245.3,44.7,290.4,159.6
					c0,0-14.1,195.7,53.9,286.6c68,90.9,101.7,208,104.4,232.8c0,0,125.6-14.7,191.2-32.8c0,0,6.1,82.4-217,171.3
					c0,0-67.9,23.6-149.7-20.5s-208.6-114.1-232.4-142.4c-23.8-28.3-147.5-528.2-67.9-640.2L935.9,1995.1L935.9,1995.1z"/>
			</defs>
			<clipPath id="SVGID_00000000212745899514365380000012634412489982916528_">
				<use xlink:href="#SVGID_00000075148205288140315430000014217795735915445941_"  style="overflow:visible;"/>
			</clipPath>
			
				<path style="clip-path:url(#SVGID_00000000212745899514365380000012634412489982916528_);fill-rule:evenodd;clip-rule:evenodd;fill:#444442;" d="
				M904.5,2008.8c117.1,29.8,198.1,40.5,281.8,141.2c16.2,19.5,5.4,91.1,5.7,113.4c0.8,76.1,9.2,160.6,38.1,232.1
				c14.4,35.5,32.7,68.7,45.2,105.1c21.7,63.5,32.4,188.1,130.7,157.4c39.7-12.4,73.1-40.4,99.8-71.6
				c97-113.7-29.9-164.9-82.2-264.3c-90.1-171.5-245.1-390.2-395.6-530.7"/>
		</g>
	</g>
	<path class="st30" d="M3721.5,2085.9c-0.1,4.9-2.8,9.3-7,11.7s-9.4,2.4-13.6,0c-75.3-42.7-338.7-192.2-385.1-218.6
		c-4.3-2.5-7-7.1-7-12.1c0.3-44.7,1.6-262.4,2.1-335.3c0-4.9,2.7-9.4,6.9-11.9c4.3-2.4,9.5-2.4,13.8,0.1
		c76.6,44.5,343.4,199.3,390.2,226.5c4.4,2.5,7,7.2,6.9,12.2L3721.5,2085.9L3721.5,2085.9z"/>
	<path class="st8" d="M3710.9,2079.8c-0.1,4.9-2.8,9.3-7,11.7c-4.2,2.4-9.4,2.4-13.6,0c-75.3-42.7-338.7-192.2-385.1-218.6
		c-4.4-2.5-7-7.1-7-12.1c0.3-44.7,1.6-262.4,2.1-335.3c0-4.9,2.7-9.4,6.9-11.9c4.3-2.4,9.5-2.4,13.8,0.1
		c76.6,44.5,343.4,199.3,390.2,226.5c4.4,2.5,7,7.2,6.9,12.2C3717.1,1796.7,3712.4,2008.9,3710.9,2079.8L3710.9,2079.8z"/>
	<path class="st4" d="M3687.6,2045.5c-0.1,4.9-2.7,9.3-7,11.7s-9.4,2.4-13.6,0c-69.2-39.3-295.5-167.7-338.3-192
		c-4.3-2.5-7-7.1-7-12.1c0.2-41,1-226.6,1.3-293.2c0-4.9,2.7-9.5,6.9-11.9c4.3-2.4,9.5-2.4,13.8,0
		c70.4,40.9,299.6,173.9,342.7,198.9c4.3,2.5,7,7.2,6.9,12.2C3692.6,1799.8,3688.9,1980.8,3687.6,2045.5L3687.6,2045.5z"/>
	<path class="st31" d="M3596.1,1922.1c-0.1,4.9-2.7,9.3-7,11.7s-9.4,2.4-13.6,0c-43-24.4-142.1-80.7-169.3-96.1c-4.3-2.5-7-7.1-7-12
		c0.1-25.2,0.2-102.9,0.4-142.6c0-4.9,2.6-9.5,6.9-11.9c4.3-2.5,9.5-2.4,13.8,0c43.8,25.4,144.1,83.6,171.5,99.5
		c4.3,2.5,7,7.2,6.9,12.2C3598.2,1807.8,3596.8,1883.5,3596.1,1922.1L3596.1,1922.1z"/>
	<path class="st32" d="M3502.1,1742.1c1.5,1.3,1.7,3.5,0.6,5.1c-1.1,1.6-3.3,2.1-5,1.1c-29.3-16.6-69.1-39.2-73.6-41.8
		c-0.3-0.2-0.6-0.4-0.8-0.6l0,0c-1.6-1.5-1.8-3.9-0.5-5.7c1.3-1.8,3.7-2.2,5.6-1.2c29.7,17.2,68.9,40,73.1,42.4
		C3501.6,1741.7,3501.8,1741.9,3502.1,1742.1C3502.1,1742.1,3502.1,1742.1,3502.1,1742.1L3502.1,1742.1z"/>
	<path class="st32" d="M3502.1,1762c1.5,1.3,1.7,3.5,0.6,5.1c-1.1,1.6-3.3,2.1-5,1.1c-29.3-16.6-69.1-39.2-73.6-41.8
		c-0.3-0.2-0.6-0.4-0.8-0.6l0,0c-1.6-1.5-1.8-3.9-0.5-5.7c1.3-1.8,3.7-2.2,5.6-1.2c29.7,17.2,68.9,40,73.1,42.4
		C3501.6,1761.6,3501.8,1761.8,3502.1,1762C3502.1,1762,3502.1,1762,3502.1,1762L3502.1,1762z"/>
	<path class="st32" d="M3502.1,1779c1.5,1.3,1.7,3.5,0.6,5.1s-3.3,2.1-5,1.1c-29.3-16.6-69.1-39.2-73.6-41.8
		c-0.3-0.2-0.6-0.3-0.8-0.6l0,0c-1.6-1.5-1.8-3.9-0.5-5.7c1.3-1.8,3.7-2.2,5.6-1.2c29.7,17.2,68.9,40,73.1,42.4
		C3501.6,1778.6,3501.8,1778.8,3502.1,1779C3502.1,1779,3502.1,1779,3502.1,1779L3502.1,1779z"/>
	<path class="st32" d="M3553.8,1809.8c0.8,1.5,0.6,3.3-0.7,4.5c-1.2,1.2-3.1,1.5-4.5,0.6c-11.1-6.2-26.9-14.9-31.1-17.2
		c-0.7-0.4-1.3-1-1.7-1.8c0,0,0,0,0,0c-0.8-1.7-0.4-3.7,0.9-5s3.4-1.5,5.1-0.6c11.1,6.5,26.5,15.5,30.5,17.8
		C3552.9,1808.6,3553.4,1809.1,3553.8,1809.8C3553.8,1809.8,3553.8,1809.8,3553.8,1809.8L3553.8,1809.8z"/>
	<path class="st32" d="M3553.8,1835.8c0.8,1.5,0.6,3.3-0.7,4.5c-1.2,1.2-3.1,1.4-4.5,0.6c-11.1-6.2-26.9-14.9-31.1-17.2
		c-0.7-0.4-1.3-1-1.7-1.8l0,0c-0.8-1.7-0.4-3.7,0.9-5c1.4-1.3,3.4-1.5,5.1-0.6c11.1,6.5,26.5,15.5,30.5,17.8
		C3552.9,1834.6,3553.4,1835.2,3553.8,1835.8C3553.8,1835.8,3553.8,1835.8,3553.8,1835.8L3553.8,1835.8z"/>
	<path class="st32" d="M3460.4,1779.9c0.8,1.5,0.5,3.3-0.7,4.5c-1.2,1.2-3.1,1.4-4.5,0.6c-11.1-6.2-26.9-14.9-31.1-17.2
		c-0.7-0.4-1.3-1-1.7-1.8l0,0c-0.8-1.7-0.4-3.7,0.9-5c1.4-1.3,3.4-1.5,5.1-0.6c11.1,6.5,26.5,15.5,30.5,17.8
		C3459.5,1778.7,3460,1779.3,3460.4,1779.9C3460.4,1779.9,3460.4,1779.9,3460.4,1779.9L3460.4,1779.9z"/>
	<path class="st32" d="M3460.4,1796.8c0.8,1.5,0.5,3.3-0.7,4.5c-1.2,1.2-3.1,1.4-4.5,0.6c-11.1-6.2-26.9-14.9-31.1-17.2
		c-0.7-0.4-1.3-1-1.7-1.8c0,0,0,0,0,0c-0.8-1.7-0.4-3.7,0.9-5s3.4-1.5,5.1-0.6c11.1,6.5,26.5,15.5,30.5,17.8
		C3459.5,1795.6,3460,1796.1,3460.4,1796.8C3460.4,1796.8,3460.4,1796.8,3460.4,1796.8L3460.4,1796.8z"/>
	<g>
		<g>
			<path id="SVGID_15_" class="st33" d="M1469.2,844c0-34.9,24.3-53.4,54.3-41.2L1968,983.9c29.9,12.2,54.3,50.4,54.3,85.4v126.5
				c0,34.9-24.3,53.4-54.3,41.2l-125.5-51.1l69.1,136.6L1759.5,1152l-236.1-96.2c-29.9-12.2-54.3-50.5-54.3-85.4L1469.2,844
				L1469.2,844z"/>
		</g>
		<g>
			<defs>
				<path id="SVGID_00000085243760827810433300000001142178774393946763_" d="M1469.2,844c0-34.9,24.3-53.4,54.3-41.2L1968,983.9
					c29.9,12.2,54.3,50.4,54.3,85.4v126.5c0,34.9-24.3,53.4-54.3,41.2l-125.5-51.1l69.1,136.6L1759.5,1152l-236.1-96.2
					c-29.9-12.2-54.3-50.5-54.3-85.4L1469.2,844L1469.2,844z"/>
			</defs>
			<clipPath id="SVGID_00000130612136528833137310000013465029187702454175_">
				<use xlink:href="#SVGID_00000085243760827810433300000001142178774393946763_"  style="overflow:visible;"/>
			</clipPath>
			
				<path style="clip-path:url(#SVGID_00000130612136528833137310000013465029187702454175_);fill-rule:evenodd;clip-rule:evenodd;fill:#FFFFFF;" d="
				M1856.5,1032.3c-17.6-7.2-31.9,1.3-31.9,18.9s14.3,37.7,31.9,44.9s31.9-1.3,31.9-18.9S1874.1,1039.5,1856.5,1032.3L1856.5,1032.3
				z"/>
		</g>
		<g>
			<defs>
				<path id="SVGID_00000174596074501404878090000011597745349523242679_" d="M1469.2,844c0-34.9,24.3-53.4,54.3-41.2L1968,983.9
					c29.9,12.2,54.3,50.4,54.3,85.4v126.5c0,34.9-24.3,53.4-54.3,41.2l-125.5-51.1l69.1,136.6L1759.5,1152l-236.1-96.2
					c-29.9-12.2-54.3-50.5-54.3-85.4L1469.2,844L1469.2,844z"/>
			</defs>
			<clipPath id="SVGID_00000067943063703020010760000000230595573298310051_">
				<use xlink:href="#SVGID_00000174596074501404878090000011597745349523242679_"  style="overflow:visible;"/>
			</clipPath>
			
				<path style="clip-path:url(#SVGID_00000067943063703020010760000000230595573298310051_);fill-rule:evenodd;clip-rule:evenodd;fill:#FFFFFF;" d="
				M1745.7,987.2c-17.6-7.2-31.9,1.3-31.9,18.9s14.3,37.7,31.9,44.9c17.6,7.2,31.9-1.3,31.9-18.9
				C1777.6,1014.5,1763.3,994.4,1745.7,987.2L1745.7,987.2z"/>
		</g>
		<g>
			<defs>
				<path id="SVGID_00000001636084105034247730000014524150023717736107_" d="M1469.2,844c0-34.9,24.3-53.4,54.3-41.2L1968,983.9
					c29.9,12.2,54.3,50.4,54.3,85.4v126.5c0,34.9-24.3,53.4-54.3,41.2l-125.5-51.1l69.1,136.6L1759.5,1152l-236.1-96.2
					c-29.9-12.2-54.3-50.5-54.3-85.4L1469.2,844L1469.2,844z"/>
			</defs>
			<clipPath id="SVGID_00000135688273422821345590000015866112755430838456_">
				<use xlink:href="#SVGID_00000001636084105034247730000014524150023717736107_"  style="overflow:visible;"/>
			</clipPath>
			
				<path style="clip-path:url(#SVGID_00000135688273422821345590000015866112755430838456_);fill-rule:evenodd;clip-rule:evenodd;fill:#FFFFFF;" d="
				M1634.9,942.1c-17.6-7.2-31.9,1.3-31.9,18.9s14.3,37.7,31.9,44.9s31.9-1.3,31.9-18.9C1666.8,969.4,1652.5,949.3,1634.9,942.1
				L1634.9,942.1z"/>
		</g>
		<g>
			<defs>
				<path id="SVGID_00000025424317259718429310000012369730752546307717_" d="M1469.2,844c0-34.9,24.3-53.4,54.3-41.2L1968,983.9
					c29.9,12.2,54.3,50.4,54.3,85.4v126.5c0,34.9-24.3,53.4-54.3,41.2l-125.5-51.1l69.1,136.6L1759.5,1152l-236.1-96.2
					c-29.9-12.2-54.3-50.5-54.3-85.4L1469.2,844L1469.2,844z"/>
			</defs>
			<clipPath id="SVGID_00000164485840985406501950000008673388387444345996_">
				<use xlink:href="#SVGID_00000025424317259718429310000012369730752546307717_"  style="overflow:visible;"/>
			</clipPath>
			
				<path style="clip-path:url(#SVGID_00000164485840985406501950000008673388387444345996_);fill-rule:evenodd;clip-rule:evenodd;fill:#5D1CD7;" d="
				M1469.2,808.9l508.5,210.2c0,0,22.2,7.3,19.4,63.3c-3.9,79.2-4.8,187.3-4.8,187.3l70.2,2.3l-24.2-298l-569-212.3L1469.2,808.9
				L1469.2,808.9z"/>
		</g>
	</g>
</g>
</svg>
