<?xml version="1.0" encoding="utf-8"?>
<!-- Generator: Adobe Illustrator 26.0.3, SVG Export Plug-In . SVG Version: 6.00 Build 0)  -->
<svg version="1.1" id="Слой_1" xmlns="http://www.w3.org/2000/svg" xmlns:xlink="http://www.w3.org/1999/xlink" x="0px" y="0px"
	 viewBox="0 0 600 600" style="enable-background:new 0 0 600 600;" xml:space="preserve">
<style type="text/css">
	.st0{fill:#3D4F90;}
	.st1{fill:none;stroke:#000000;stroke-width:1.5682;stroke-linecap:round;stroke-linejoin:round;stroke-miterlimit:10;}
	.st2{fill:#5512B0;}
	.st3{fill:#FFFFFF;stroke:#000000;stroke-width:1.5682;stroke-linecap:round;stroke-linejoin:round;stroke-miterlimit:10;}
	.st4{fill:#FFFFFF;}
</style>
<g id="PLANTS">
	<g>
		<g>
			<path class="st0" d="M443,502.2c0,0,2.1-51.9,49.4-67.1s50.6,32,21.1,39.7C473.3,485.4,443,502.2,443,502.2z"/>
			<path class="st1" d="M443,502.2c0,0,19.6-36.9,68.1-54.3"/>
		</g>
		<g>
			<path class="st2" d="M434.7,502.2c0,0-31.2-25.3-18.8-61.7c12.4-36.4,43.3-16.6,34.4,5.3C438.2,475.6,434.7,502.2,434.7,502.2z"
				/>
			<path class="st1" d="M434.7,502.2c0,0-13.8-29.2-2.2-67.3"/>
		</g>
	</g>
</g>
<g id="DASHBOARD_2">
	<g>
		<g>
			<g>
				<path class="st3" d="M557.2,411H132c-6.7,0-12.2-5.5-12.2-12.2V109.4c0-6.7,5.5-12.2,12.2-12.2h425.1c6.7,0,12.2,5.5,12.2,12.2
					v289.4C569.4,405.6,563.9,411,557.2,411z"/>
			</g>
		</g>
		<line class="st1" x1="307.4" y1="111.4" x2="307.4" y2="396.9"/>
		<line class="st1" x1="549" y1="170.4" x2="149.5" y2="170.4"/>
		<path class="st1" d="M280,236.1H156.6c-3.9,0-7-3.2-7-7v-22.3c0-3.9,3.2-7,7-7H280c3.9,0,7,3.2,7,7v22.3
			C287.1,233,283.9,236.1,280,236.1z"/>
		<path class="st0" d="M281.3,159.1h-79.2c-3.2,0-5.7-2.6-5.7-5.7v-24.9c0-3.2,2.6-5.7,5.7-5.7h79.2c3.2,0,5.7,2.6,5.7,5.7v24.9
			C287.1,156.6,284.5,159.1,281.3,159.1z"/>
		<path class="st0" d="M414.9,159.1h-79.2c-3.2,0-5.7-2.6-5.7-5.7v-24.9c0-3.2,2.6-5.7,5.7-5.7h79.2c3.2,0,5.7,2.6,5.7,5.7v24.9
			C420.6,156.6,418,159.1,414.9,159.1z"/>
		<path class="st3" d="M467.6,268.6H335.7c-3.2,0-5.7-2.6-5.7-5.7v-75.5c0-3.2,2.6-5.7,5.7-5.7h131.9c3.2,0,5.7,2.6,5.7,5.7v75.5
			C473.4,266.1,470.8,268.6,467.6,268.6z"/>
		<path class="st3" d="M467.6,390H335.7c-3.2,0-5.7-2.6-5.7-5.7v-98.1c0-3.2,2.6-5.7,5.7-5.7h131.9c3.2,0,5.7,2.6,5.7,5.7v98.1
			C473.4,387.5,470.8,390,467.6,390z"/>
		<path class="st0" d="M543.3,390H491c-3.2,0-5.7-2.6-5.7-5.7v-40.4c0-3.2,2.6-5.7,5.7-5.7h52.4c3.2,0,5.7,2.6,5.7,5.7v40.4
			C549,387.5,546.5,390,543.3,390z"/>
		<g>
			<path class="st2" d="M544.9,135.2h-43.8c-2.3,0-4.1-1.8-4.1-4.1v-4.2c0-2.3,1.8-4.1,4.1-4.1h43.8c2.3,0,4.1,1.8,4.1,4.1v4.2
				C549,133.4,547.2,135.2,544.9,135.2z"/>
			<path class="st2" d="M544.9,159.1h-43.8c-2.3,0-4.1-1.8-4.1-4.1v-4.2c0-2.3,1.8-4.1,4.1-4.1h43.8c2.3,0,4.1,1.8,4.1,4.1v4.2
				C549,157.3,547.2,159.1,544.9,159.1z"/>
		</g>
		<path class="st0" d="M176.8,159.1h-24c-1.8,0-3.3-1.5-3.3-3.3v-29.7c0-1.8,1.5-3.3,3.3-3.3h24c1.8,0,3.3,1.5,3.3,3.3v29.7
			C180.1,157.7,178.6,159.1,176.8,159.1z"/>
		<path class="st1" d="M280,293.1H156.6c-3.9,0-7-3.2-7-7v-22.3c0-3.9,3.2-7,7-7H280c3.9,0,7,3.2,7,7V286
			C287.1,289.9,283.9,293.1,280,293.1z"/>
		<path class="st1" d="M280,350H156.6c-3.9,0-7-3.2-7-7v-22.3c0-3.9,3.2-7,7-7H280c3.9,0,7,3.2,7,7V343
			C287.1,346.9,283.9,350,280,350z"/>
		<g>
			<path class="st0" d="M373.8,193.9c-17.3,0-31.3,14-31.3,31.3c0,17.3,14,31.3,31.3,31.3c17.3,0,31.3-14,31.3-31.3
				C405.1,207.9,391.1,193.9,373.8,193.9z M373.8,239.7c-8,0-14.5-6.5-14.5-14.5s6.5-14.5,14.5-14.5s14.5,6.5,14.5,14.5
				S381.8,239.7,373.8,239.7z"/>
			<path class="st2" d="M405.1,225.2h-16.8c0-8-6.5-14.5-14.5-14.5v-16.8C391.1,193.9,405.1,207.9,405.1,225.2z"/>
			<g>
				<path class="st0" d="M457.1,233h-32.9c-2.1,0-3.8-1.7-3.8-3.8v-4.9c0-2.1,1.7-3.8,3.8-3.8h32.9c2.1,0,3.8,1.7,3.8,3.8v4.9
					C460.8,231.3,459.1,233,457.1,233z"/>
				<path class="st2" d="M441.1,209.5h-16.9c-2.1,0-3.8-1.7-3.8-3.8v-4.9c0-2.1,1.7-3.8,3.8-3.8h16.9c2.1,0,3.8,1.7,3.8,3.8v4.9
					C444.9,207.8,443.2,209.5,441.1,209.5z"/>
				<path class="st0" d="M457.1,256.4h-32.9c-2.1,0-3.8-1.7-3.8-3.8v-4.9c0-2.1,1.7-3.8,3.8-3.8h32.9c2.1,0,3.8,1.7,3.8,3.8v4.9
					C460.8,254.7,459.1,256.4,457.1,256.4z"/>
			</g>
		</g>
		<path class="st3" d="M543.3,322.5H491c-3.2,0-5.7-2.6-5.7-5.7V187.4c0-3.2,2.6-5.7,5.7-5.7h52.4c3.2,0,5.7,2.6,5.7,5.7v129.4
			C549,320,546.5,322.5,543.3,322.5z"/>
		<line class="st1" x1="516.1" y1="203.3" x2="542.3" y2="203.3"/>
		<line class="st1" x1="516.1" y1="235.7" x2="542.3" y2="235.7"/>
		<line class="st1" x1="516.1" y1="268.1" x2="542.3" y2="268.1"/>
		<line class="st1" x1="516.1" y1="300.5" x2="542.3" y2="300.5"/>
		<g>
			<path class="st2" d="M505,209.5h-7.1c-2.1,0-3.8-1.7-3.8-3.8v-4.9c0-2.1,1.7-3.8,3.8-3.8h7.1c2.1,0,3.8,1.7,3.8,3.8v4.9
				C508.8,207.8,507.1,209.5,505,209.5z"/>
			<path class="st0" d="M505,241.9h-7.1c-2.1,0-3.8-1.7-3.8-3.8v-4.9c0-2.1,1.7-3.8,3.8-3.8h7.1c2.1,0,3.8,1.7,3.8,3.8v4.9
				C508.8,240.2,507.1,241.9,505,241.9z"/>
			<path class="st0" d="M505,274.3h-7.1c-2.1,0-3.8-1.7-3.8-3.8v-4.9c0-2.1,1.7-3.8,3.8-3.8h7.1c2.1,0,3.8,1.7,3.8,3.8v4.9
				C508.8,272.6,507.1,274.3,505,274.3z"/>
			<path class="st0" d="M505,306.7h-7.1c-2.1,0-3.8-1.7-3.8-3.8V298c0-2.1,1.7-3.8,3.8-3.8h7.1c2.1,0,3.8,1.7,3.8,3.8v4.9
				C508.8,305,507.1,306.7,505,306.7z"/>
		</g>
		<g>
			<path class="st0" d="M353.4,309.1h-7.1c-2.1,0-3.8-1.7-3.8-3.8v-4.9c0-2.1,1.7-3.8,3.8-3.8h7.1c2.1,0,3.8,1.7,3.8,3.8v4.9
				C357.2,307.4,355.5,309.1,353.4,309.1z"/>
			<path class="st0" d="M353.4,341.5h-7.1c-2.1,0-3.8-1.7-3.8-3.8v-4.9c0-2.1,1.7-3.8,3.8-3.8h7.1c2.1,0,3.8,1.7,3.8,3.8v4.9
				C357.2,339.8,355.5,341.5,353.4,341.5z"/>
			<path class="st0" d="M353.4,373.9h-7.1c-2.1,0-3.8-1.7-3.8-3.8v-4.9c0-2.1,1.7-3.8,3.8-3.8h7.1c2.1,0,3.8,1.7,3.8,3.8v4.9
				C357.2,372.2,355.5,373.9,353.4,373.9z"/>
		</g>
		<polyline class="st1" points="364.5,288.5 364.5,381.6 458.9,381.6 		"/>
		<path class="st2" d="M388.3,300.4v69.7c0,2.1-1.7,3.8-3.8,3.8h-4.9c-2.1,0-3.8-1.7-3.8-3.8v-69.7c0-2.1,1.7-3.8,3.8-3.8h4.9
			C386.6,296.6,388.3,298.3,388.3,300.4z"/>
		<path class="st2" d="M411.3,317.2v52.9c0,2.1-1.7,3.8-3.8,3.8h-4.9c-2.1,0-3.8-1.7-3.8-3.8v-52.9c0-2.1,1.7-3.8,3.8-3.8h4.9
			C409.7,313.4,411.3,315.1,411.3,317.2z"/>
		<path class="st2" d="M434.4,331.3v38.8c0,2.1-1.7,3.8-3.8,3.8h-4.9c-2.1,0-3.8-1.7-3.8-3.8v-38.8c0-2.1,1.7-3.8,3.8-3.8h4.9
			C432.7,327.6,434.4,329.2,434.4,331.3z"/>
		<path class="st0" d="M455.1,309.1h-29.4c-2.1,0-3.8-1.7-3.8-3.8v-4.9c0-2.1,1.7-3.8,3.8-3.8h29.4c2.1,0,3.8,1.7,3.8,3.8v4.9
			C458.9,307.4,457.2,309.1,455.1,309.1z"/>
	</g>
</g>
<g id="DASHBOARD_1">
	<path class="st2" d="M268.4,224.6H145c-3.9,0-7-3.2-7-7v-22.3c0-3.9,3.2-7,7-7h123.4c3.9,0,7,3.2,7,7v22.3
		C275.5,221.4,272.3,224.6,268.4,224.6z"/>
</g>
<g id="LEFT_ARM">
	<g>
		<g>
			<polygon class="st3" points="55.7,395.3 69.9,411.4 84.6,394.3 63.9,384.5 			"/>
			<path class="st3" d="M69.4,394.3l-4.8,5.6c-1.4,1.6-1.4,4-0.1,5.7l4.6,5.8c0.8,1,2,1.6,3.2,1.7h0c1.3,0.1,2.6-0.5,3.5-1.5l6.3-7
				c1.2-1.3,1.5-3.3,0.7-4.9l-0.7-1.5c-0.4-0.8-1-1.5-1.8-1.9l-5.4-3C73.1,392.3,70.8,392.7,69.4,394.3z"/>
			<path class="st3" d="M73.3,390.3L73.3,390.3c0.8-1.1,2.3-1.6,3.6-1.1l5.6,2.1c1.7,0.6,3.1,2,3.7,3.7l0.6,1.8
				c0.4,1.1,0.1,2.3-0.6,3.2l-0.3,0.3c-0.6,0.6-1.4,1-2.2,1l-1,0c-1.8,0-3.6-0.7-4.8-2.1l-4.4-5C72.5,393.1,72.4,391.5,73.3,390.3z"
				/>
			<path class="st3" d="M63.9,384.5l13.8,2.7c1.3,0.3,2.3,1.2,2.8,2.4l0,0c0.4,1.3,0.1,2.6-0.8,3.6l-6.2,6.8c-0.9,1-2.4,1.1-3.4,0.3
				l0,0c-0.9-0.7-1.2-2-0.7-3l1.6-3.4l-5.2,0.5c-0.9,0.1-1.8-0.4-2.4-1.1l-2.9-4.5L63.9,384.5z"/>
		</g>
		<g>
			<path class="st2" d="M103.5,284.1c9.9,18.8-37.6,61.7-37.6,61.7s3.3,23.7,6,39.3l-17.2,12.3c0,0-16.4-28.4-20-47.9
				c-0.9-4.8-1.7-9.5-2.3-13.8c0,0,2.6-4.9,7.1-12c7.5-11.8,25.8-36.4,41.3-47.7C80.8,276,93.6,265.3,103.5,284.1z"/>
			<circle class="st3" cx="57.4" cy="392" r="1.7"/>
			<path class="st4" d="M43.8,339.1c-1.5,5.3-5.2,9.2-9.1,10.4c-0.9-4.8-1.7-9.5-2.3-13.8c0,0,2.6-4.9,7.1-12
				C43.8,326.2,45.7,332.6,43.8,339.1z"/>
			<line class="st1" x1="46.3" y1="341.8" x2="64.1" y2="345.6"/>
			<line class="st1" x1="54.2" y1="388.4" x2="66" y2="385.3"/>
		</g>
	</g>
</g>
<g id="LEFT_CALF">
	<g>
		<g>
			<polygon class="st3" points="85.5,467.9 61.4,470.2 65.7,459.8 85.9,456.6 			"/>
			<g>
				<path class="st0" d="M48.5,497.2c0.9-1.3,2.5-4.4,3.5-5.6c8-9.4,15.4-15.8,18.8-18.6l-3.5-17.7c-12,1-23.1,2.7-29.5,3.7
					c-3.6,0.6-5.7,1-5.7,1l5.4,42.2l4.1-0.5C44.3,501.4,46.7,499.7,48.5,497.2z"/>
				
					<ellipse transform="matrix(0.9918 -0.128 0.128 0.9918 -59.7945 10.9251)" class="st4" cx="55.1" cy="470.5" rx="6.3" ry="4.3"/>
				<path class="st4" d="M41.7,501.7l-4.1,0.5L32.1,460c0,0,2.1-0.4,5.7-1l4.7,36.2c0,0,4.7-0.4,8.4-2.1c-0.9,1.4-1.8,3.1-2.4,4
					C46.7,499.7,44.3,501.4,41.7,501.7z"/>
				<path class="st1" d="M41.7,501.7l-4.1,0.5L32.1,460c0,0,2.1-0.4,5.7-1l4.7,36.2c0,0,4.7-0.4,8.4-2.1c-0.9,1.4-1.8,3.1-2.4,4
					C46.7,499.7,44.3,501.4,41.7,501.7z"/>
			</g>
		</g>
		<g>
			<path class="st0" d="M164.7,471.9l-7.2-0.1L83.3,471l-2.4-18.9l52.3-11.7c31.9-8.8,44.2,3.4,46.2,13.8c0.5,2.8,0.3,5.4-0.5,7.5
				C175.1,471.4,164.7,471.9,164.7,471.9z"/>
			<path class="st4" d="M164.7,471.9l-7.2-0.1c-0.1-0.3-0.1-0.7-0.2-1c-1.1-8.7,5-16.6,13.7-17.8c2.9-0.4,5.8,0.1,8.3,1.2
				c0.5,2.8,0.3,5.4-0.5,7.5C175.1,471.4,164.7,471.9,164.7,471.9z"/>
			<line class="st1" x1="159.9" y1="454.2" x2="90.6" y2="461.6"/>
			<line class="st1" x1="150" y1="437.4" x2="159.9" y2="454.2"/>
			<line class="st1" x1="87.3" y1="453.8" x2="89.3" y2="468.8"/>
		</g>
	</g>
</g>
<g id="LEFT_THIGH">
	<g>
		<path class="st0" d="M179.6,454.1c0,0.5,0,1-0.1,1.5c0,0,0,0,0,0c0,0.5-0.1,1-0.2,1.5c-2,8.3-9.2,14.2-17.7,14.6c-0.3,0-0.7,0-1,0
			h-0.7c-0.5,0-1,0-1.5-0.1c-0.3,0-0.7-0.1-1-0.1c-3.4-0.4-6.7-1.8-9.4-4l-57-44.8c-6.6-5.5-10.1-13.8-9.4-22.3l1.8-42.8l52.1-1.6
			l-2.1,42.6l41.1,43.5C177.8,445.4,179.6,449.7,179.6,454.1z"/>
		<polygon class="st1" points="106.8,403.5 97.8,406.6 88.9,403.5 88.9,385.4 106.8,385.4 		"/>
		<path class="st4" d="M179.5,455.6C179.5,455.6,179.5,455.6,179.5,455.6c0,0.5-0.1,1-0.2,1.6c-2,8.3-9.2,14.2-17.7,14.6l-3.2,0
			l-1,0c0,0,0-0.1,0-0.1c-0.1-0.3-0.1-0.6-0.1-0.9c-1.1-8.7,5-16.6,13.7-17.8c2.9-0.4,5.8,0.1,8.3,1.2
			C179.4,454.7,179.5,455.2,179.5,455.6z"/>
		<path class="st1" d="M179.3,454.2c0.5,2.8,0.3,5.4-0.5,7.5c-3.8,9.7-14.1,10.2-14.1,10.2l-7.2-0.1"/>
		<polyline class="st1" points="126.7,420.4 159.3,453.9 134.3,457 		"/>
	</g>
</g>
<g id="RIGHT_THIGH">
	<g>
		<g>
			<path class="st0" d="M131.5,423.8L131.5,423.8c7.5,4.1,16.5,4.3,24.2,0.5l59.6-31.4c6.9-3.6,12-9.9,14.1-17.4l0,0
				c1.9-6.7-0.7-13.8-6.3-17.7l0,0c-4.6-3.2-10.4-3.8-15.6-1.7l-42.7,15.4L163,353l-45.5,12.1l0.5,36.2
				C118.1,410.7,123.3,419.3,131.5,423.8z"/>
			<polygon class="st1" points="141.6,403.5 132.6,406.6 123.6,403.5 123.6,385.4 141.6,385.4 			"/>
			<path class="st1" d="M117.5,365.1l0.5,36.2c0.2,9.4,5.3,18,13.6,22.5l0,0c3.7,2,7.8,3.1,11.8,3.2c0,0,3.7,0.1,6.2-0.6
				c2.5-0.6,5.4-1.8,5.4-1.8"/>
			<polyline class="st1" points="146.7,368.5 147.5,395.4 211.9,374.8 			"/>
			<path class="st1" d="M147.5,395.4l4.1-5.3c2.6-3.4,4-7.6,4-11.9l0-9.7"/>
		</g>
	</g>
</g>
<g id="RIGHT_CALF">
	<g>
		<g>
			<polygon class="st3" points="215.9,450.3 215.1,474.5 205.3,468.9 204.7,448.5 			"/>
			<g>
				<path class="st0" d="M240.2,490.7c-1.2-1.1-4-3-5.1-4.2c-8.3-9.1-13.7-17.3-16-21l-18,1.2c-0.6,12-0.3,23.2-0.1,29.8
					c0.1,3.6,0.3,5.8,0.3,5.8h42.6v-4.1C243.8,495.4,242.5,492.8,240.2,490.7z"/>
				<ellipse class="st4" cx="214.6" cy="480.8" rx="4.3" ry="6.3"/>
				<path class="st4" d="M243.8,498.1v4.1h-42.6c0,0-0.1-2.2-0.3-5.8h36.5c0,0,0.2-4.7-1-8.6c1.3,1,2.9,2.2,3.7,2.9
					C242.5,492.8,243.8,495.4,243.8,498.1z"/>
				<path class="st1" d="M243.8,498.1v4.1h-42.6c0,0-0.1-2.2-0.3-5.8h36.5c0,0,0.2-4.7-1-8.6c1.3,1,2.9,2.2,3.7,2.9
					C242.5,492.8,243.8,495.4,243.8,498.1z"/>
			</g>
		</g>
		<g>
			<path class="st0" d="M230,372.3l-1,7.1l-10.3,73.5h-19.1l-4.9-53.4c-4.7-32.8,9.1-43.4,19.6-44c2.8-0.2,5.4,0.4,7.4,1.5
				C230.9,361.9,230,372.3,230,372.3z"/>
			<path class="st4" d="M230,372.3l-1,7.1c-0.3,0-0.7,0-1,0c-8.8,0-15.9-7.1-15.9-15.9c0-2.9,0.8-5.7,2.2-8.1
				c2.8-0.2,5.4,0.4,7.4,1.5C230.9,361.9,230,372.3,230,372.3z"/>
			<path class="st1" d="M214.3,355.5c2.8-0.2,5.4,0.4,7.4,1.5c9.2,5,8.3,15.3,8.3,15.3l-1,7.1"/>
			<line class="st1" x1="211.9" y1="374.8" x2="210.3" y2="444.4"/>
			<line class="st1" x1="194.1" y1="380.4" x2="211.9" y2="374.8"/>
			<line class="st1" x1="202.2" y1="446.7" x2="217.3" y2="446.7"/>
		</g>
	</g>
</g>
<g id="NECK">
	<polygon class="st3" points="107.1,268.5 106.6,255.8 115.3,256.5 117,266.6 	"/>
</g>
<g id="HEAD">
	<g>
		<path class="st3" d="M110.3,253.7c0,0,5.3,5.1,11.3,3.9c6.1-1.2,5.7-26.9-5.5-26.9S100.5,244.3,110.3,253.7z"/>
		<path d="M121.8,244.5c0,0-2.1-4.8-5.3-2.8s-1.9,7.5,0.9,8.6l-2.1,6.2l-8.6,1.7c0,0-8.7-7.9-10.7-13.6c-2-5.7,3.6-7.3,3.6-7.3
			s0-5.2,4-6.9c3.9-1.7,15.7-1.5,15.7-1.5s1.5-3.9,3.4-4.2s2.6,3.5,2.6,3.5s1.8-3.6,3.5-3s1.7,14.1-6.4,13.2
			C122.3,238.4,124.3,243.5,121.8,244.5z"/>
	</g>
</g>
<g id="BODY">
	<g>
		<path class="st3" d="M99.8,270.5c0,0,1.2-6.6,10.4-8.4c9.2-1.8,14,5.3,14,5.3l-24.1,4.7L99.8,270.5z"/>
		<path class="st2" d="M166.8,366.4c-3.6,2.1-7.3,3.9-11.2,5.5l-2.4-12.3c-0.2-0.8-0.6-1.4-1.2-1.8c-0.6-0.4-1.4-0.6-2.1-0.4
			c-1.5,0.3-2.6,1.8-2.3,3.3l2.6,13.2c-34.7,11.9-73.9,5.1-73.9,5.1C72.7,313.6,84,274.6,84,274.6c16.5-7.5,63.6-12.4,63.6-12.4
			C156.4,302.8,166.8,366.4,166.8,366.4z"/>
		<path class="st1" d="M83.4,277c-1.2,4.7-3.7,16.2-5.6,33.6L76.3,328"/>
		<path class="st1" d="M108.3,274.7c0,0-7.6,41.3,0.9,94.6"/>
		<path class="st1" d="M156.3,365.4c2.2-0.8,4.4-1.6,6.7-2.5"/>
		<path class="st1" d="M80.1,372.7c0,0,26.7,7.3,66.6-4.2"/>
	</g>
</g>
<g id="RIGHT_ARM">
	<g>
		<path class="st3" d="M218.6,237.9l-5-8.2c-1.6-2.3-2.5-5-2.7-7.7l-0.5-5.9c-0.1-0.8,0.6-1.5,1.4-1.5l0,0c0.5,0,1,0.3,1.3,0.8
			l3,6.6l0.3-8.4l1.5-9.7c0.1-0.9,1-1.6,2-1.5l0,0c0.9,0.1,1.6,0.8,1.6,1.7l0.3,10.1c0,0.5,0.4,0.9,0.9,1l0,0c0.5,0.1,1-0.3,1.1-0.8
			l1.4-8.5c0.2-1.4,1.8-2.1,3-1.3l5.6,3.7c1.2,0.8,1.9,2.2,1.9,3.6l-0.3,9.6c-0.1,1.7-0.4,3.3-1,4.8l-6.1,16.6L218.6,237.9z"/>
		<g>
			<path class="st2" d="M135.3,278.8c0.8-6.3,4.4-13.9,11.9-16.6c12.3-0.7,42.2-1.5,42.2-1.5s16.6-15.8,26.6-26.1l14.6,6.1
				c0,0-7.5,17-15.2,33.9c-1.9,4.1-3.8,8.2-5.7,11.8c0,0-4.6,2.4-11.9,5.4c-12.1,5-31.6,11.7-49.5,12.1
				C148.3,303.9,132.8,298.5,135.3,278.8z"/>
			<path class="st1" d="M148.3,303.9c0,0-15.5-5.4-13-25.1c0.7-5.2,3.2-11.3,8.4-14.8"/>
			<circle class="st3" cx="225.7" cy="243.3" r="1.6"/>
			<path class="st4" d="M202.8,277.7c4-3.3,8.9-4.3,12.6-3.1c-1.9,4.1-3.8,8.2-5.7,11.8c0,0-4.6,2.4-11.9,5.4
				C195.9,287.6,197.9,281.7,202.8,277.7z"/>
			<line class="st1" x1="202.4" y1="274.3" x2="190.8" y2="261.8"/>
			<line class="st1" x1="226.2" y1="247.8" x2="213" y2="241.7"/>
		</g>
	</g>
</g>
<g id="ORNAMENT">
	<g>
		<path class="st2" d="M351.6,483c-3.6,0-6.8,1.5-9.1,3.8c-2.3,2.3-3.8,5.6-3.8,9.1c0-3.6-1.4-6.8-3.8-9.1c-2.3-2.3-5.6-3.8-9.1-3.8
			c3.6,0,6.8-1.5,9.1-3.8c2.3-2.3,3.8-5.6,3.8-9.1c0,3.6,1.4,6.8,3.8,9.1C344.8,481.5,348,483,351.6,483z"/>
		<path class="st2" d="M53.6,432.1c-1.4,0-2.6,0.6-3.5,1.5c-0.9,0.9-1.5,2.1-1.5,3.5c0-1.4-0.6-2.6-1.5-3.5
			c-0.9-0.9-2.1-1.5-3.5-1.5c1.4,0,2.6-0.6,3.5-1.5c0.9-0.9,1.5-2.1,1.5-3.5c0,1.4,0.6,2.6,1.5,3.5C51,431.6,52.2,432.1,53.6,432.1z
			"/>
		<path class="st0" d="M94.5,161.5c-2.8,0-5.3,1.1-7.2,3c-1.8,1.8-3,4.4-3,7.2c0-2.8-1.1-5.3-3-7.2c-1.8-1.8-4.4-3-7.2-3
			c2.8,0,5.3-1.1,7.2-3c1.8-1.8,3-4.4,3-7.2c0,2.8,1.1,5.3,3,7.2C89.2,160.4,91.7,161.5,94.5,161.5z"/>
		<path class="st0" d="M297.8,440.2c-1.8,0-3.4,0.7-4.6,1.9c-1.2,1.2-1.9,2.8-1.9,4.6c0-1.8-0.7-3.4-1.9-4.6
			c-1.2-1.2-2.8-1.9-4.6-1.9c1.8,0,3.4-0.7,4.6-1.9c1.2-1.2,1.9-2.8,1.9-4.6c0,1.8,0.7,3.4,1.9,4.6
			C294.4,439.5,296,440.2,297.8,440.2z"/>
		<path class="st2" d="M51.3,259.6c-1.4,0-2.6,0.6-3.6,1.5c-0.9,0.9-1.5,2.2-1.5,3.6c0-1.4-0.6-2.6-1.5-3.6
			c-0.9-0.9-2.2-1.5-3.6-1.5c1.4,0,2.6-0.6,3.6-1.5c0.9-0.9,1.5-2.2,1.5-3.6c0,1.4,0.6,2.6,1.5,3.6C48.7,259,49.9,259.6,51.3,259.6z
			"/>
		<circle class="st0" cx="379.9" cy="438" r="2.2"/>
		<circle class="st2" cx="555.4" cy="475.1" r="3.2"/>
	</g>
</g>
</svg>
