<?xml version="1.0" encoding="utf-8"?>
<!-- Generator: Adobe Illustrator 26.0.3, SVG Export Plug-In . SVG Version: 6.00 Build 0)  -->
<svg version="1.1" id="Слой_1" xmlns="http://www.w3.org/2000/svg" xmlns:xlink="http://www.w3.org/1999/xlink" x="0px" y="0px"
	 viewBox="0 0 600 600" style="enable-background:new 0 0 600 600;" xml:space="preserve">
<style type="text/css">
	.st0{fill:#FFFFFF;stroke:#012C00;stroke-width:2;stroke-linecap:round;stroke-linejoin:round;stroke-miterlimit:10;}
	.st1{fill:#8D69AC;}
	.st2{fill:#573F7A;}
	.st3{fill:none;stroke:#012C00;stroke-width:2;stroke-linecap:round;stroke-linejoin:round;stroke-miterlimit:10;}
	.st4{fill:#FFFFFF;}
	.st5{fill:#012C00;}
</style>
<g id="EXPLORER">
	<g>
		<path class="st0" d="M121,340.9V133.1c0-22.7,18.4-41.1,41.1-41.1h276.8c22.7,0,41.1,18.4,41.1,41.1v207.8
			c0,22.7-18.4,41.1-41.1,41.1H162.1C139.4,382,121,363.6,121,340.9z"/>
		<path class="st1" d="M234.3,132h-76.4c-4.1,0-7.5-3.4-7.5-7.5l0,0c0-4.1,3.4-7.5,7.5-7.5h76.4c4.1,0,7.5,3.4,7.5,7.5l0,0
			C241.8,128.6,238.4,132,234.3,132z"/>
		<path class="st2" d="M442.7,132.1L442.7,132.1c-4.2,0-7.6-3.4-7.6-7.6l0,0c0-4.2,3.4-7.6,7.6-7.6l0,0c4.2,0,7.6,3.4,7.6,7.6l0,0
			C450.3,128.7,446.9,132.1,442.7,132.1z"/>
		<path class="st2" d="M400.4,132.1L400.4,132.1c-4.2,0-7.6-3.4-7.6-7.6l0,0c0-4.2,3.4-7.6,7.6-7.6l0,0c4.2,0,7.6,3.4,7.6,7.6l0,0
			C408,128.7,404.6,132.1,400.4,132.1z"/>
		<path class="st2" d="M358.1,132.1L358.1,132.1c-4.2,0-7.6-3.4-7.6-7.6l0,0c0-4.2,3.4-7.6,7.6-7.6l0,0c4.2,0,7.6,3.4,7.6,7.6l0,0
			C365.7,128.7,362.3,132.1,358.1,132.1z"/>
		<path class="st3" d="M208,366h-46"/>
		<path class="st3" d="M463,158v182.9c0,13.9-11.2,25.1-25.1,25.1H222"/>
		<path class="st1" d="M438.9,353H162.1c-6.7,0-12.1-5.4-12.1-12.1V158.1c0-6.7,5.4-12.1,12.1-12.1h276.7c6.7,0,12.1,5.4,12.1,12.1
			v182.7C451,347.6,445.6,353,438.9,353z"/>
	</g>
</g>
<g id="TABLE">
	<g>
		<path class="st0" d="M431.5,293h-21.2c-4,0-7.3-3.3-7.3-7.3v-0.4c0-4,3.3-7.3,7.3-7.3h21.2c4,0,7.3,3.3,7.3,7.3v0.4
			C438.8,289.7,435.5,293,431.5,293z"/>
		<path class="st0" d="M431.6,319h-49.3c-4.1,0-7.5-3.4-7.5-7.5l0,0c0-4.1,3.4-7.5,7.5-7.5h49.3c4.1,0,7.5,3.4,7.5,7.5l0,0
			C439.1,315.6,435.8,319,431.6,319z"/>
		<g>
			<path class="st0" d="M431.6,259h-33.3c-2.4,0-4.4-2-4.4-4.4v-69.3c0-2.4,2-4.4,4.4-4.4h33.3c2.4,0,4.4,2,4.4,4.4v69.3
				C436,257,434,259,431.6,259z"/>
			<path class="st1" d="M423,199h-15.5c-2.4,0-4.4-2-4.4-4.4v-0.3c0-2.4,2-4.4,4.4-4.4H423c2.4,0,4.4,2,4.4,4.4v0.3
				C427.3,197,425.4,199,423,199z"/>
			<path class="st1" d="M422.8,216h-15.3c-2.5,0-4.5-2-4.5-4.5l0,0c0-2.5,2-4.5,4.5-4.5h15.3c2.5,0,4.5,2,4.5,4.5l0,0
				C427.3,214,425.3,216,422.8,216z"/>
			<circle class="st2" cx="415.2" cy="237.9" r="11.8"/>
		</g>
	</g>
</g>
<g id="INTEGRATION_4">
	<g>
		<g>
			<path class="st0" d="M365.5,185.8l74.8-74.8H508c1.9,0,3.7-1.3,4.1-3.2c0.5-2.6-1.4-4.8-3.9-4.8h-69.5c-1.1,0-2.1,0.4-2.8,1.2
				L360,180c-1.4,1.4-1.7,3.6-0.6,5.2C360.9,187.4,363.8,187.6,365.5,185.8L365.5,185.8z"/>
		</g>
		<g>
			<circle class="st1" cx="547.9" cy="107.3" r="28.3"/>
			<circle class="st0" cx="547.9" cy="107.3" r="14.2"/>
		</g>
	</g>
</g>
<g id="INTEGRATION_3">
	<g>
		<g>
			<path class="st0" d="M234.5,185.8L159.6,111H91.9c-1.9,0-3.7-1.3-4.1-3.2c-0.5-2.6,1.4-4.8,3.9-4.8h69.5c1.1,0,2.1,0.4,2.8,1.2
				l76,75.8c1.4,1.4,1.7,3.6,0.6,5.2C239.1,187.4,236.2,187.6,234.5,185.8L234.5,185.8z"/>
		</g>
		<g>
			<circle class="st1" cx="52.1" cy="107.3" r="28.3"/>
		</g>
		<path class="st0" d="M66.8,111.2l-10.9,10.9c-2.1,2.1-5.5,2.1-7.6,0l-10.9-10.9c-2.1-2.1-2.1-5.5,0-7.6l10.9-10.9
			c2.1-2.1,5.5-2.1,7.6,0l10.9,10.9C68.9,105.6,68.9,109,66.8,111.2z"/>
	</g>
</g>
<g id="INTEGRATION_2">
	<g>
		<g>
			<path class="st0" d="M234.5,307.2L159.6,382H91.9c-1.9,0-3.7,1.3-4.1,3.2c-0.5,2.6,1.4,4.8,3.9,4.8h69.5c1.1,0,2.1-0.4,2.8-1.2
				l76-75.8c1.4-1.4,1.7-3.6,0.6-5.2C239.1,305.6,236.2,305.4,234.5,307.2L234.5,307.2z"/>
		</g>
		<g>
			<g>
				
					<ellipse transform="matrix(0.9985 -5.530038e-02 5.530038e-02 0.9985 -21.2662 3.4718)" class="st1" cx="52.1" cy="386" rx="28.3" ry="28.3"/>
			</g>
			<path class="st0" d="M39,381.5v9c0,1.9,1,3.6,2.6,4.5l7.8,4.5c1.6,0.9,3.6,0.9,5.2,0l7.8-4.5c1.6-0.9,2.6-2.6,2.6-4.5v-9
				c0-1.9-1-3.6-2.6-4.5l-7.8-4.5c-1.6-0.9-3.6-0.9-5.2,0l-7.8,4.5C40,378,39,379.7,39,381.5z"/>
		</g>
	</g>
</g>
<g id="GEAR">
	<g>
		<path class="st3" d="M284.4,328.6c-0.3-0.1-0.6-0.1-0.9-0.2l-7.5-1.5 M382.9,237.9c0.3,2.9,0.5,5.8,0.5,8.7
			c0,5.6-0.6,11.1-1.6,16.5l-1.5,7.5l-16.6,1.1c-0.3,0.7-0.6,1.4-0.9,2.1l10.9,12.5l-4.2,6.4c-6.2,9.3-14,17.1-23.3,23.3l-6.4,4.2
			l-12.5-10.9c-0.7,0.3-1.4,0.6-2.1,0.9l-1.1,16.6l-7.5,1.5c-5.4,1.1-10.9,1.6-16.5,1.6c-3.3,0-6.6-0.2-9.9-0.6 M380.2,222.7
			l1.5,7.5"/>
		<path class="st2" d="M371.9,261.2c1-4.7,1.4-9.5,1.4-14.5s-0.5-9.8-1.4-14.5l-15.6-1.1c-1.3-4.7-3.1-9.1-5.5-13.2l10.3-11.8
			c-5.4-8.1-12.4-15.1-20.5-20.5l-11.8,10.3c-4.1-2.3-8.5-4.2-13.2-5.5l-1.1-15.6c-4.7-1-9.5-1.4-14.5-1.4s-9.8,0.5-14.5,1.4
			l-1.1,15.6c-4.7,1.3-9.1,3.1-13.2,5.5l-11.8-10.3c-8.1,5.4-15.1,12.4-20.5,20.5l10.3,11.8c-2.3,4.1-4.2,8.5-5.5,13.2l-15.7,1.1
			c-1,4.7-1.4,9.5-1.4,14.5s0.5,9.8,1.4,14.5l15.7,1.1c1.3,4.7,3.1,9.1,5.5,13.2l-10.3,11.8c5.4,8.1,12.4,15.1,20.5,20.5l11.8-10.3
			c4.1,2.3,8.5,4.2,13.2,5.5l1.1,15.6c4.7,1,9.5,1.4,14.5,1.4s9.8-0.5,14.5-1.4l1.1-15.6c4.6-1.3,9.1-3.1,13.2-5.5l11.8,10.3
			c8.1-5.4,15.1-12.4,20.5-20.5l-10.3-11.8c2.3-4.1,4.2-8.5,5.5-13.2L371.9,261.2z M300,266.2c-10.8,0-19.5-8.7-19.5-19.5
			c0-10.8,8.7-19.5,19.5-19.5s19.5,8.7,19.5,19.5C319.5,257.5,310.8,266.2,300,266.2z"/>
		<circle class="st0" cx="300" cy="246.7" r="8.3"/>
	</g>
</g>
<g id="INTEGRATION_1">
	<g>
		<g>
			<g>
				<circle class="st2" cx="52.1" cy="246.7" r="28.3"/>
			</g>
			<path class="st0" d="M59.6,260H44.4c-3,0-5.4-2.4-5.4-5.4v-15.2c0-3,2.4-5.4,5.4-5.4h15.2c3,0,5.4,2.4,5.4,5.4v15.2
				C65,257.6,62.6,260,59.6,260z"/>
		</g>
		<path class="st0" d="M203.1,251H91.8c-2.2,0-4-1.8-4-4l0,0c0-2.2,1.8-4,4-4h111.3c2.2,0,4,1.8,4,4l0,0
			C207.1,249.2,205.3,251,203.1,251z"/>
	</g>
</g>
<g id="ORNAMENT">
	<g>
		<path class="st2" d="M316.3,480.3c-3.6,0-6.8,1.5-9.1,3.8c-2.3,2.3-3.8,5.6-3.8,9.1c0-3.6-1.4-6.8-3.8-9.1
			c-2.3-2.3-5.6-3.8-9.1-3.8c3.6,0,6.8-1.5,9.1-3.8c2.3-2.3,3.8-5.6,3.8-9.1c0,3.6,1.4,6.8,3.8,9.1
			C309.5,478.8,312.7,480.3,316.3,480.3z"/>
		<path class="st1" d="M551.8,204.6c-3.6,0-6.8,1.5-9.1,3.8s-3.8,5.6-3.8,9.1c0-3.6-1.4-6.8-3.8-9.1c-2.3-2.3-5.6-3.8-9.1-3.8
			c3.6,0,6.8-1.5,9.1-3.8s3.8-5.6,3.8-9.1c0,3.6,1.4,6.8,3.8,9.1C545,203.1,548.2,204.6,551.8,204.6z"/>
		<path class="st2" d="M83.1,444.1c-1.9,0-3.6,0.8-4.9,2c-1.2,1.2-2,3-2,4.9c0-1.9-0.8-3.6-2-4.9c-1.2-1.2-3-2-4.9-2
			c1.9,0,3.6-0.8,4.9-2c1.2-1.2,2-3,2-4.9c0,1.9,0.8,3.6,2,4.9C79.5,443.3,81.2,444.1,83.1,444.1z"/>
		<path class="st1" d="M94.5,180.8c-2.8,0-5.3,1.1-7.2,3c-1.8,1.8-3,4.4-3,7.2c0-2.8-1.1-5.3-3-7.2c-1.8-1.8-4.4-3-7.2-3
			c2.8,0,5.3-1.1,7.2-3c1.8-1.8,3-4.4,3-7.2c0,2.8,1.1,5.3,3,7.2C89.2,179.7,91.7,180.8,94.5,180.8z"/>
		<path class="st1" d="M272.3,431.9c-1.8,0-3.4,0.7-4.6,1.9c-1.2,1.2-1.9,2.8-1.9,4.6c0-1.8-0.7-3.4-1.9-4.6
			c-1.2-1.2-2.8-1.9-4.6-1.9c1.8,0,3.4-0.7,4.6-1.9c1.2-1.2,1.9-2.8,1.9-4.6c0,1.8,0.7,3.4,1.9,4.6
			C268.9,431.2,270.5,431.9,272.3,431.9z"/>
		<path class="st2" d="M57.1,310c-1.4,0-2.6,0.6-3.6,1.5c-0.9,0.9-1.5,2.2-1.5,3.6c0-1.4-0.6-2.6-1.5-3.6c-0.9-0.9-2.2-1.5-3.6-1.5
			c1.4,0,2.6-0.6,3.6-1.5c0.9-0.9,1.5-2.2,1.5-3.6c0,1.4,0.6,2.6,1.5,3.6C54.5,309.4,55.7,310,57.1,310z"/>
		<circle class="st1" cx="358.6" cy="431.3" r="3.9"/>
		<circle class="st2" cx="552.2" cy="289" r="3.2"/>
	</g>
</g>
<g id="LEFT_UPPER_ARM">
	<g>
		<path class="st2" d="M529.8,313.3c14.4,0.6,42,48,54.2,70.3c3.6,6.6,2.3,14.8-3.1,20l0,0c-7.1,6.8-18.5,6-24.6-1.8l-39.2-50
			C517,351.9,500.8,312.1,529.8,313.3z"/>
	</g>
</g>
<g id="RIGHT_UPPER_ARM">
	<path class="st2" d="M448.9,312.6c-18.1,5.5-41.9,97.8-41.9,97.8c-4.4,24.8,23.9,28,31.1,11.4l32.8-75
		C470.9,346.8,476.7,304.1,448.9,312.6z"/>
</g>
<g id="RIGHT_ARM">
	<path class="st2" d="M407,410.3l1.3,60.7h26.9l3-49.3C442.3,395.3,412,392.2,407,410.3z"/>
</g>
<g id="RIGHT_THIGH">
	<g>
		<path class="st1" d="M446.9,449.8L377.1,482c-7.3,3.4-12,10.7-12,18.8l0,0c0,13.3,12.4,23.1,25.3,20.2L492,497.8V446h-45.6
			L446.9,449.8z"/>
		<path class="st3" d="M483,445v17.3c0,3,1.4,5.8,3.9,7.6l6.1,4.4V494"/>
		<polyline class="st3" points="398.9,483.6 460,455.8 460,447 		"/>
	</g>
</g>
<g id="BODY">
	<g>
		<path class="st2" d="M529.8,313.7c0,0-21.7-6.3-77.2-1.6c0,0-10.1,15.8-12.6,51.5c-2.8,39.9-4.8,90.4-4.8,90.4h106
			C541.1,454,546.8,391.7,529.8,313.7z"/>
		<path class="st3" d="M450.6,315.5c-3.1,6.6-8.8,22-10.6,47.7c-0.8,11.3-1.5,23.4-2.2,35.1"/>
		<path class="st3" d="M538.8,368.9c-1.8-16.4-4.5-34.4-8.6-53.4"/>
		<g>
			<path class="st0" d="M509,314.2c-3.6,8.5-10.5,11.9-14.7,13.2c-1.1-6-4.1-13.6-4.1-13.6c-3.4,4.6-5.1,10.8-5.6,13.5
				c-10.9-3-12.1-13.5-12.1-13.5c1.3-10.5,10.4-18.4,18.1-18.1C507.6,296.3,509,314.2,509,314.2z"/>
		</g>
	</g>
</g>
<g id="LEFT_THIGH">
	<g>
		<path class="st1" d="M492,498h20.4c14.4,0,26.5-10.8,28.1-25.1l11.4-99.5c1.4-11.8-7.9-22.2-19.8-22.2l0,0
			c-9.1,0-17,6.1-19.3,14.9l-20.7,88V498H492z"/>
		<line class="st3" x1="492" y1="458" x2="492" y2="493"/>
	</g>
</g>
<g id="RIGHT_CALF">
	<g>
		<polygon class="st0" points="508,497.3 508,509.8 479,512.8 479,495.9 		"/>
		<g>
			<polygon class="st1" points="502,515.6 502,492.3 540,486.5 540,520.1 			"/>
			<polygon class="st3" points="502,515.6 502,492.3 540,486.5 540,520.1 			"/>
			<line class="st3" x1="507" y1="509" x2="526" y2="509"/>
			<line class="st3" x1="507" y1="499" x2="526" y2="499"/>
			<path class="st0" d="M521,503.5L521,503.5c0,10.8,8.7,19.5,19.5,19.5h2.5v-39h-2.5C529.8,484,521,492.7,521,503.5z"/>
		</g>
		<path class="st1" d="M482,491v26.3l-94.3,4.1c-5.1,0.2-9.8-1.4-13.5-4.3c-4.3-3.3-7.2-8.2-7.9-14l-0.3-2.5v-2
			c0-3.8,1.3-7.3,3.6-10c3.2-4,8.2-6.3,13.7-5.9L482,491z"/>
		<path class="st4" d="M378.2,517.3c-1.8,0.2-3.4,0.2-5-0.1c-4.3-3.3-7.2-8.2-7.9-14l-0.3-2.5v-2c0-3.8,1.3-7.3,3.6-10
			c2.2-1.2,4.7-1.9,7.4-1.9c10.6,0,18.7,10.8,14,21.9C387.9,513.4,383.3,516.7,378.2,517.3z"/>
		<path class="st3" d="M382.4,521.2c-3.4-0.6-6.5-2-9.2-4c-4.3-3.3-7.2-8.2-7.9-14l-0.3-2.5v-2c0-3.8,1.3-7.3,3.6-10
			c3.2-4,8.2-6.4,13.8-5.9l98.9,8.3"/>
		<line class="st3" x1="474" y1="493" x2="474" y2="514"/>
	</g>
</g>
<g id="LEFT_CALF">
	<g>
		<g>
			<polygon class="st0" points="542.2,490 529.7,490 526.7,461 543.6,461 			"/>
			<path class="st1" d="M521.8,466h26.3l4.1-94.3c0.2-5.1-1.4-9.8-4.3-13.5c-3.3-4.3-8.2-7.2-14-7.9l-2.5-0.3h-2
				c-3.8,0-7.3,1.3-10,3.6c-4,3.2-6.3,8.2-5.9,13.7L521.8,466z"/>
			<path class="st4" d="M548.1,363.2c0.2-1.8,0.2-3.4-0.1-5c-3.3-4.3-8.2-7.2-14-7.9l-2.5-0.3h-2c-3.8,0-7.3,1.3-10,3.6
				c-1.2,2.2-1.9,4.7-1.9,7.4c0,10.6,10.8,18.7,21.9,14C544.3,372.9,547.5,368.3,548.1,363.2z"/>
			<path class="st3" d="M548,358.2c-3.3-4.3-8.2-7.2-14-7.9l-2.5-0.3h-2c-3.8,0-7.3,1.3-10,3.6c-4,3.2-6.3,8.2-5.9,13.7l8.3,98.7
				H547"/>
			<line class="st3" x1="525" y1="459" x2="545" y2="459"/>
		</g>
		<g>
			<polygon class="st1" points="524.8,481 548.1,481 553.9,519 520.4,519 			"/>
			<polygon class="st3" points="524.8,481 548.1,481 553.9,519 520.4,519 			"/>
			<line class="st3" x1="532" y1="485" x2="532" y2="504"/>
			<line class="st3" x1="541" y1="485" x2="541" y2="504"/>
			<path class="st0" d="M537.5,499L537.5,499c-10.8,0-19.5,8.7-19.5,19.5v2.5h39v-2.5C557,507.8,548.3,499,537.5,499z"/>
		</g>
	</g>
</g>
<g id="NECK">
	<path class="st0" d="M498,308.1c-2.2,1.3-4.6,2.1-7,2.4c-2.4-0.2-4.8-1.1-7-2.4V289h14V308.1z"/>
</g>
<g id="HEAD">
	<g>
		<path class="st0" d="M501.3,282.8c0.6-4.9,3.4-8.8,6.4-8.6c0.6,0,1.2,0.3,1.8,0.7c3.3,2.6-0.1,16.2-8.8,12.8L501.3,282.8z"/>
		<path class="st0" d="M478.7,282.8c-0.6-4.9-3.4-8.8-6.4-8.6c-0.6,0-1.2,0.3-1.8,0.7c-3.3,2.6,0.1,16.2,8.8,12.8L478.7,282.8z"/>
		<path class="st0" d="M504,280.5c0,4.3-3,13.7-14,14.5c-11-0.8-14-10.2-14-14.5c0-4.4-3.7-21.9,14-21.9
			C507.7,258.5,504,276.1,504,280.5z"/>
		<path class="st5" d="M504.8,280.7l-1.4,0.1l0.9-6.7c0,0-4.9,1.1-5.3-1.6c0,0-0.5-2.8,0.5-8.8c0,0-6.3,1.4-10.6,1.4
			c-13,0-15.7-8.6-14.7-13V252c1.5-6.4,3.9-1.8,3.9-1.8s1.3-5.2,4-5.4c2.8-0.2,3.4,6.6,3.4,6.6s5.7-1.9,14.1,0.1
			c10.3,2.5,6.1,8.3,6.1,8.3S515.8,262.1,504.8,280.7z"/>
		<path class="st5" d="M478.2,256.3c-8.1,2.8-8.2,12-2.5,23.7h1.5l-0.9-5.4c0,0,6.8,0,4.3-12.4L478.2,256.3z"/>
	</g>
</g>
<g id="LAPTOP">
	<path class="st0" d="M479.4,475h-87.8c-4.2,0-7.6-3.4-7.6-7.6v-58.8c0-4.2,3.4-7.6,7.6-7.6h87.8c4.2,0,7.6,3.4,7.6,7.6v58.8
		C487,471.6,483.6,475,479.4,475z"/>
</g>
<g id="LEFT_ARM">
	<g>
		<g>
			<g>
				<path class="st2" d="M586,392.3L586,392.3c0.1,12.5-10.9,19.2-21.5,15.8c-3.7-1.2-7.4-3.7-10.4-7.6c-13-16.6-27.5-45-27.5-45
					l17.9-15.6c0,0,36.9,31.6,40.7,46.7C585.7,388.6,586,390.5,586,392.3z"/>
				<path class="st4" d="M586,392.3L586,392.3c0.1,12.5-10.9,19.2-21.5,15.8c-1.7-2.7-2.4-6.1-1.8-9.6c0.9-4.9,5.8-9.8,10.7-10.6
					C578.4,386.9,583.1,388.9,586,392.3z"/>
				<path class="st3" d="M586,392v0.3c0.1,12.5-10.9,19.2-21.5,15.8"/>
			</g>
			<path class="st3" d="M571.9,366.4c-11.9-13.4-27.3-26.6-27.3-26.6l-17.9,15.6c0,0,11,21.6,22.5,38.1"/>
		</g>
		<g>
			<path class="st0" d="M544,345.3c0,0-9.6-8.4-19.8-8.2c-3.2,0.1-13.5,8.4-16.2,12.1s-2.3,11.2,0.5,14.3c2.9,3,4.8-1.1,4.8-1.1
				s-0.7,4.8,7.1,6.2c7.8,1.4,12.3-4.1,12.5-10.7C533,358,543.2,359.1,544,345.3z"/>
			<path class="st3" d="M513.3,359.1c0,0-0.3-3.5,0.3-6.1s5.6-5.4,5.6-5.4"/>
		</g>
	</g>
</g>
<g id="PLANT">
	<g>
		<g>
			<path class="st0" d="M168,490.2c0,0-32.5-27.8-27.9-79.8C176.2,448.2,168,490.2,168,490.2z"/>
			<path class="st1" d="M168,490.2c0,0-40.2-14.5-54.3-64.8C160.8,448.1,168,490.2,168,490.2z"/>
			<path class="st0" d="M168,490.2c0,0,32.5-27.8,27.9-79.8C159.8,448.2,168,490.2,168,490.2z"/>
			<path class="st1" d="M168,490.2c0,0,40.2-14.5,54.3-64.8C175.2,448.1,168,490.2,168,490.2z"/>
			<path class="st1" d="M168,490.2c0,0-21.6-36.9,0-84.5C189.6,453.3,168,490.2,168,490.2z"/>
		</g>
		<path class="st2" d="M207.6,471c0,36.6-20.1,54-20.1,54h-39c0,0-20-17.4-20-54H207.6z"/>
	</g>
</g>
</svg>
