<?xml version="1.0" encoding="UTF-8"?>
<svg xmlns="http://www.w3.org/2000/svg" xmlns:xlink="http://www.w3.org/1999/xlink" width="342px" height="90px" viewBox="0 0 339 90" version="1.1">
<g id="surface1">
<path style=" stroke:none;fill-rule:nonzero;fill:rgb(31.764706%,42.745098%,60.784314%);fill-opacity:1;" d="M 224.566406 66.675781 L 255.390625 66.675781 L 255.390625 59.832031 L 235.058594 59.832031 C 237.796875 48.617188 255 46.207031 255 33.625 C 255 26.910156 250.371094 22.019531 240.859375 22.019531 C 234.796875 22.019531 229.714844 23.84375 226.128906 25.605469 L 228.28125 31.863281 C 231.472656 30.300781 235.1875 28.863281 239.683594 28.863281 C 243.269531 28.863281 246.527344 30.429688 246.527344 34.472656 C 246.460938 43.792969 226.390625 44.445312 224.566406 66.675781 Z M 256.304688 55.855469 L 276.046875 55.855469 L 276.046875 66.675781 L 283.933594 66.675781 L 283.933594 55.855469 L 290.515625 55.855469 L 290.515625 49.269531 L 283.933594 49.269531 L 283.933594 22.085938 L 278.132812 22.085938 L 256.238281 50.507812 Z M 265.230469 49.402344 L 276.4375 34.277344 C 276.375 35.578125 276.046875 39.359375 276.046875 42.945312 L 276.046875 49.269531 L 270.835938 49.269531 C 269.207031 49.269531 266.273438 49.402344 265.230469 49.402344 Z M 265.230469 49.402344 "/>
<path style=" stroke:none;fill-rule:nonzero;fill:rgb(42.745098%,75.294118%,95.294118%);fill-opacity:1;" d="M 14.859375 60.027344 L 14.859375 46.140625 L 18.246094 46.140625 C 21.179688 46.140625 23.65625 46.46875 25.414062 47.511719 C 27.238281 48.488281 28.21875 50.378906 28.21875 53.117188 C 28.21875 57.808594 25.351562 60.027344 18.769531 60.027344 Z M 6.710938 66.675781 L 18.507812 66.675781 C 31.605469 66.675781 36.363281 60.875 36.363281 52.921875 C 36.363281 47.511719 34.082031 43.859375 30.105469 41.773438 C 26.980469 40.078125 22.875 39.554688 18.050781 39.554688 L 14.859375 39.554688 L 14.859375 28.996094 L 32.582031 28.996094 L 34.734375 22.410156 L 6.710938 22.410156 Z M 41.773438 66.675781 L 49.789062 66.675781 L 49.789062 34.929688 L 41.773438 34.929688 Z M 45.746094 29.710938 C 48.550781 29.710938 50.699219 27.5625 50.699219 24.953125 C 50.699219 22.214844 48.550781 20.128906 45.746094 20.128906 C 42.945312 20.128906 40.859375 22.28125 40.859375 24.953125 C 40.859375 27.625 42.945312 29.710938 45.746094 29.710938 Z M 63.277344 66.675781 L 71.226562 66.675781 L 71.226562 41.578125 L 80.613281 41.578125 L 82.695312 34.929688 L 53.632812 34.929688 L 53.632812 41.578125 L 63.277344 41.578125 Z M 85.628906 82.582031 L 93.582031 82.582031 L 93.582031 66.609375 C 95.144531 67.066406 96.773438 67.328125 98.46875 67.328125 C 108.375 67.328125 114.953125 60.417969 114.953125 50.703125 C 114.953125 40.535156 108.960938 34.144531 97.554688 34.144531 C 93.1875 34.144531 89.019531 34.929688 85.566406 36.167969 L 85.566406 82.582031 Z M 93.582031 59.894531 L 93.582031 41.25 C 94.816406 40.925781 95.925781 40.730469 97.359375 40.730469 C 103.09375 40.730469 106.808594 43.925781 106.808594 50.703125 C 106.808594 56.832031 103.8125 60.679688 97.882812 60.679688 C 96.253906 60.679688 95.015625 60.417969 93.582031 59.894531 Z M 119.710938 66.675781 L 130.921875 66.675781 C 141.414062 66.675781 144.800781 61.984375 144.800781 56.179688 C 144.800781 50.835938 141.414062 46.011719 131.183594 46.011719 C 130.140625 46.011719 128.902344 46.074219 127.664062 46.140625 L 127.664062 34.863281 L 119.648438 34.863281 Z M 127.726562 60.546875 L 127.726562 52.335938 C 128.769531 52.269531 129.878906 52.203125 130.789062 52.203125 C 135.742188 52.203125 136.851562 53.964844 136.851562 56.3125 C 136.851562 58.59375 136.003906 60.546875 130.726562 60.546875 Z M 148.90625 66.675781 L 156.988281 66.675781 L 156.988281 34.929688 L 148.90625 34.929688 Z M 163.179688 66.675781 L 171.128906 66.675781 L 171.128906 53.507812 L 175.886719 53.507812 C 176.796875 53.507812 177.710938 54.355469 178.625 56.507812 L 182.664062 66.609375 L 191.332031 66.609375 L 185.53125 54.484375 C 184.554688 52.398438 183.445312 51.160156 181.816406 50.574219 L 181.816406 50.445312 C 184.488281 48.8125 184.75 44.25 186.378906 42.035156 C 186.898438 41.382812 187.683594 40.992188 188.59375 40.992188 C 189.179688 40.992188 189.898438 41.054688 190.417969 41.25 L 190.417969 34.472656 C 189.507812 34.144531 188.007812 34.015625 187.160156 34.015625 C 184.421875 34.015625 182.597656 35.058594 181.296875 36.820312 C 178.6875 40.664062 178.753906 47.3125 174.777344 47.3125 L 171.0625 47.3125 L 171.0625 34.863281 L 163.179688 34.863281 Z M 209.316406 67.328125 C 213.683594 67.328125 217.660156 65.960938 220.199219 64.265625 L 217.855469 58.789062 C 215.636719 60.027344 213.421875 60.941406 210.488281 60.941406 C 205.082031 60.941406 201.496094 57.355469 201.496094 50.898438 C 201.496094 45.03125 205.015625 40.597656 210.882812 40.597656 C 213.945312 40.597656 216.355469 41.445312 218.570312 43.078125 L 218.570312 36.296875 C 216.875 35.253906 214.007812 34.144531 210.035156 34.144531 C 200.585938 34.144531 193.285156 41.1875 193.285156 51.03125 C 193.222656 60.222656 198.957031 67.328125 209.316406 67.328125 Z M 209.316406 67.328125 "/>
<path style="fill:none;stroke-width:4.0267;stroke-linecap:butt;stroke-linejoin:miter;stroke:rgb(31.764706%,42.745098%,60.784314%);stroke-opacity:1;stroke-miterlimit:4;" d="M 480.698272 85.19773 C 493.801576 85.19773 504.50121 74.502212 504.50121 61.397955 C 504.50121 48.29969 493.801576 37.598179 480.698272 37.598179 C 467.600961 37.598179 456.901327 48.29969 456.901327 61.397955 C 456.901327 74.502212 467.49906 85.19773 480.698272 85.19773 Z M 480.698272 85.19773 " transform="matrix(0.651672,0,0,0.651923,0,0.180282)"/>
<path style=" stroke:none;fill-rule:nonzero;fill:rgb(31.764706%,42.745098%,60.784314%);fill-opacity:1;" d="M 322.96875 40.207031 L 314.433594 40.207031 L 314.433594 31.667969 L 312.152344 31.667969 L 312.152344 42.488281 L 322.96875 42.488281 Z M 322.96875 40.207031 "/>
</g>
</svg>
