<?xml version="1.0" encoding="UTF-8"?>
<svg xmlns="http://www.w3.org/2000/svg" xmlns:xlink="http://www.w3.org/1999/xlink" width="190px" height="50px" viewBox="0 0 190 50" version="1.1">
<g id="surface1">
<path style=" stroke:none;fill-rule:nonzero;fill:rgb(31.764706%,42.745098%,60.784314%);fill-opacity:1;" d="M 128.152344 27.347656 L 146.109375 27.347656 L 146.109375 26.296875 L 134.253906 26.296875 C 135.859375 24.578125 145.875 24.207031 145.875 22.28125 C 145.875 21.253906 143.175781 20.5 137.617188 20.5 C 134.09375 20.5 131.121094 20.777344 129.011719 21.046875 L 130.265625 22.003906 C 132.140625 21.769531 134.296875 21.542969 136.917969 21.542969 C 138.992188 21.542969 140.90625 21.777344 140.90625 22.40625 C 140.90625 23.835938 129.207031 23.9375 128.152344 27.347656 Z M 146.65625 25.691406 L 158.160156 25.691406 L 158.160156 27.347656 L 162.777344 27.347656 L 162.777344 25.691406 L 166.609375 25.691406 L 166.609375 24.679688 L 162.777344 24.679688 L 162.777344 20.511719 L 159.410156 20.511719 L 146.652344 24.867188 L 146.652344 25.691406 Z M 151.863281 24.699219 L 158.398438 22.382812 C 158.359375 22.578125 158.164062 23.167969 158.164062 23.710938 L 158.164062 24.679688 L 155.113281 24.679688 C 154.171875 24.679688 152.449219 24.699219 151.863281 24.699219 Z M 151.863281 24.699219 "/>
<path style=" stroke:none;fill-rule:nonzero;fill:rgb(42.745098%,75.294118%,95.294118%);fill-opacity:1;" d="M 5.835938 26.328125 L 5.835938 24.195312 L 7.792969 24.195312 C 9.515625 24.195312 10.964844 24.246094 11.980469 24.402344 C 13.039062 24.558594 13.621094 24.847656 13.621094 25.269531 C 13.621094 25.988281 11.941406 26.328125 8.105469 26.328125 Z M 1.101562 27.347656 L 7.988281 27.347656 C 15.617188 27.347656 18.394531 26.460938 18.394531 25.238281 C 18.394531 24.402344 17.066406 23.847656 14.753906 23.527344 C 12.917969 23.269531 10.53125 23.1875 7.714844 23.1875 L 5.835938 23.1875 L 5.835938 21.570312 L 16.167969 21.570312 L 17.417969 20.5625 L 1.101562 20.5625 Z M 21.527344 27.347656 L 26.21875 27.347656 L 26.21875 22.476562 L 21.527344 22.476562 Z M 23.875 21.683594 C 25.519531 21.683594 26.769531 21.355469 26.769531 20.953125 C 26.769531 20.53125 25.515625 20.210938 23.875 20.210938 C 22.234375 20.210938 21.019531 20.539062 21.019531 20.953125 C 21.019531 21.363281 22.230469 21.683594 23.875 21.683594 Z M 34.085938 27.347656 L 38.742188 27.347656 L 38.742188 23.496094 L 44.21875 23.496094 L 45.433594 22.476562 L 28.449219 22.476562 L 28.449219 23.496094 L 34.085938 23.496094 Z M 47.117188 29.789062 L 51.769531 29.789062 L 51.769531 27.335938 C 52.671875 27.410156 53.648438 27.449219 54.628906 27.449219 C 60.421875 27.449219 64.253906 26.390625 64.253906 24.894531 C 64.253906 23.339844 60.773438 22.351562 54.121094 22.351562 C 51.578125 22.351562 49.148438 22.476562 47.117188 22.660156 Z M 51.769531 26.308594 L 51.769531 23.445312 C 52.472656 23.394531 53.144531 23.363281 53.964844 23.363281 C 57.289062 23.363281 59.480469 23.855469 59.480469 24.898438 C 59.480469 25.835938 57.722656 26.429688 54.277344 26.429688 C 53.296875 26.429688 52.597656 26.390625 51.769531 26.308594 Z M 66.992188 27.347656 L 73.53125 27.347656 C 79.632812 27.347656 81.628906 26.628906 81.628906 25.742188 C 81.628906 24.917969 79.632812 24.1875 73.6875 24.1875 C 73.058594 24.1875 72.355469 24.195312 71.652344 24.207031 L 71.652344 22.476562 L 66.992188 22.476562 Z M 71.648438 26.410156 L 71.648438 25.15625 C 72.277344 25.144531 72.898438 25.132812 73.449219 25.132812 C 76.347656 25.132812 76.972656 25.402344 76.972656 25.761719 C 76.972656 26.113281 76.464844 26.410156 73.414062 26.410156 Z M 84.015625 27.347656 L 88.710938 27.347656 L 88.710938 22.476562 L 84.015625 22.476562 Z M 92.347656 27.347656 L 97.003906 27.347656 L 97.003906 25.328125 L 99.78125 25.328125 C 100.328125 25.328125 100.835938 25.464844 101.382812 25.792969 L 103.730469 27.347656 L 108.777344 27.347656 L 105.410156 25.484375 C 104.828125 25.164062 104.199219 24.980469 103.261719 24.886719 L 103.261719 24.867188 C 104.828125 24.617188 104.984375 23.917969 105.921875 23.578125 C 106.234375 23.476562 106.664062 23.425781 107.214844 23.425781 C 107.566406 23.425781 107.957031 23.433594 108.269531 23.464844 L 108.269531 22.425781 C 107.722656 22.375 106.859375 22.351562 106.351562 22.351562 C 104.746094 22.351562 103.691406 22.519531 102.945312 22.785156 C 101.417969 23.371094 101.460938 24.390625 99.148438 24.390625 L 97 24.390625 L 97 22.476562 L 92.34375 22.476562 L 92.34375 27.347656 Z M 119.230469 27.449219 C 121.769531 27.449219 124.082031 27.246094 125.566406 26.976562 L 124.199219 26.132812 C 122.90625 26.316406 121.613281 26.460938 119.894531 26.460938 C 116.722656 26.460938 114.648438 25.914062 114.648438 24.917969 C 114.648438 24.019531 116.683594 23.34375 120.128906 23.34375 C 121.929688 23.34375 123.335938 23.476562 124.628906 23.722656 L 124.628906 22.683594 C 123.652344 22.519531 121.96875 22.351562 119.65625 22.351562 C 114.140625 22.351562 109.878906 23.433594 109.878906 24.949219 C 109.878906 26.359375 113.207031 27.449219 119.230469 27.449219 Z M 119.230469 27.449219 "/>
<path style="fill:none;stroke-width:4.0267;stroke-linecap:butt;stroke-linejoin:miter;stroke:rgb(31.764706%,42.745098%,60.784314%);stroke-opacity:1;stroke-miterlimit:4;" d="M 473.273026 256.71875 C 486.410362 256.71875 497.101151 246.015625 497.101151 232.890625 C 497.101151 219.765625 486.410362 209.0625 473.273026 209.0625 C 460.125411 209.0625 449.444901 219.765625 449.444901 232.890625 C 449.444901 246.015625 460.125411 256.71875 473.273026 256.71875 Z M 473.273026 256.71875 " transform="matrix(0.38,0,0,0.1,0,0)"/>
<path style=" stroke:none;fill-rule:nonzero;fill:rgb(31.764706%,42.745098%,60.784314%);fill-opacity:1;" d="M 185.511719 23.285156 L 180.539062 23.285156 L 180.539062 21.976562 L 179.199219 21.976562 L 179.199219 23.640625 L 185.511719 23.640625 Z M 185.511719 23.285156 "/>
</g>
</svg>
