<?xml version="1.0" encoding="UTF-8"?>
<svg xmlns="http://www.w3.org/2000/svg" xmlns:xlink="http://www.w3.org/1999/xlink" width="217px" height="50px" viewBox="0 0 216 50" version="1.1">
<g id="surface1">
<path style=" stroke:none;fill-rule:nonzero;fill:rgb(16.470588%,17.254902%,16.862745%);fill-opacity:1;" d="M 75.851562 14.847656 C 80.335938 14.847656 83.648438 15.785156 83.648438 21.125 C 83.648438 26.46875 80.335938 27.40625 75.851562 27.40625 L 67.539062 27.40625 L 67.539062 14.847656 Z M 61.050781 8.375 C 59.882812 8.375 58.949219 9.3125 58.949219 10.53125 L 58.949219 39.03125 C 58.949219 40.203125 59.933594 41.1875 61.101562 41.1875 L 65.394531 41.1875 C 66.605469 41.1875 67.539062 40.203125 67.539062 39.03125 L 67.539062 33.875 L 78.46875 33.875 C 87.152344 33.875 92.242188 29.9375 92.242188 21.125 C 92.242188 12.316406 87.148438 8.375 78.46875 8.375 L 61.046875 8.375 Z M 61.050781 8.375 "/>
<path style=" stroke:none;fill-rule:nonzero;fill:rgb(16.470588%,17.254902%,16.862745%);fill-opacity:1;" d="M 112.925781 13.859375 C 119.929688 13.859375 122.683594 17.75 122.683594 24.78125 C 122.683594 31.8125 119.929688 35.707031 112.925781 35.707031 C 105.925781 35.707031 103.167969 31.8125 103.167969 24.78125 C 103.167969 17.75 105.925781 13.859375 112.925781 13.859375 Z M 94.574219 24.78125 C 94.574219 36.96875 101.253906 41.890625 112.925781 41.890625 C 124.601562 41.890625 131.273438 36.96875 131.273438 24.78125 C 131.273438 12.59375 124.601562 7.671875 112.925781 7.671875 C 101.253906 7.671875 94.574219 12.59375 94.574219 24.78125 Z M 94.574219 24.78125 "/>
<path style=" stroke:none;fill-rule:nonzero;fill:rgb(16.470588%,17.254902%,16.862745%);fill-opacity:1;" d="M 134.542969 38.328125 C 134.542969 40.296875 135.664062 41.421875 137.625 41.421875 L 140.425781 41.421875 C 142.390625 41.421875 143.511719 40.296875 143.511719 38.328125 L 143.511719 36.878906 C 143.511719 34.90625 142.390625 33.78125 140.425781 33.78125 L 137.625 33.78125 C 135.664062 33.78125 134.542969 34.90625 134.542969 36.878906 Z M 134.542969 38.328125 "/>
<path style=" stroke:none;fill-rule:nonzero;fill:rgb(16.470588%,17.254902%,16.862745%);fill-opacity:1;" d="M 148.648438 39.03125 C 148.648438 40.203125 149.582031 41.1875 150.792969 41.1875 L 170.402344 41.1875 C 176.796875 41.1875 182.496094 37.859375 182.496094 31.34375 C 182.496094 28.25 181.1875 25.394531 178.109375 23.753906 C 180.398438 21.878906 181.1875 20.046875 181.1875 17.703125 C 181.1875 10.90625 175.164062 8.375 169.328125 8.375 L 150.792969 8.375 C 149.582031 8.375 148.648438 9.359375 148.648438 10.53125 Z M 169.425781 14.5625 C 171.335938 14.5625 172.597656 15.734375 172.597656 17.84375 C 172.597656 19.953125 171.335938 21.125 169.425781 21.125 L 157.234375 21.125 L 157.234375 14.5625 Z M 170.261719 27.125 C 172.691406 27.125 173.90625 28.71875 173.90625 31.0625 C 173.90625 33.40625 172.691406 35.003906 170.261719 35.003906 L 157.234375 35.003906 L 157.234375 27.125 Z M 170.261719 27.125 "/>
<path style=" stroke:none;fill-rule:nonzero;fill:rgb(16.470588%,17.254902%,16.862745%);fill-opacity:1;" d="M 195.054688 39.078125 C 195.054688 40.25 196.039062 41.1875 197.207031 41.1875 L 201.5 41.1875 C 202.667969 41.1875 203.644531 40.25 203.644531 39.078125 L 203.644531 29.46875 L 215.832031 10.53125 C 216.53125 9.457031 216.207031 8.375 215.039062 8.375 L 210.695312 8.375 C 208.828125 8.375 207.523438 9.3125 206.726562 10.53125 L 199.351562 21.96875 L 191.972656 10.53125 C 191.179688 9.3125 189.871094 8.375 188.003906 8.375 L 183.664062 8.375 C 182.496094 8.375 182.167969 9.457031 182.867188 10.53125 L 195.054688 29.46875 Z M 195.054688 39.078125 "/>
<path style=" stroke:none;fill-rule:evenodd;fill:rgb(3.137255%,33.333333%,36.078431%);fill-opacity:1;" d="M 0 0 L 49.871094 0 L 49.871094 50.070312 L 0 50.070312 Z M 0 0 "/>
<path style=" stroke:none;fill-rule:nonzero;fill:rgb(100%,100%,100%);fill-opacity:1;" d="M 17.96875 22.457031 C 20.273438 22.457031 22.171875 19.386719 22.417969 15.449219 C 22.445312 15.191406 22.464844 14.933594 22.464844 14.667969 L 21.746094 15.664062 C 22.144531 14.605469 20.730469 11.910156 20.730469 11.910156 C 18.347656 13.984375 14.808594 11.910156 14.808594 11.910156 C 13.742188 12.417969 14.246094 16.039062 14.246094 16.039062 C 13.980469 15.816406 13.734375 15.699219 13.535156 15.636719 C 13.828125 19.492188 15.703125 22.457031 17.96875 22.457031 Z M 17.96875 22.457031 "/>
<path style=" stroke:none;fill-rule:nonzero;fill:rgb(100%,100%,100%);fill-opacity:1;" d="M 8.742188 25.433594 L 6.582031 25.433594 C 5.914062 25.433594 5.375 25.96875 5.375 26.628906 L 7.8125 37.785156 C 7.8125 38.445312 8.351562 38.980469 9.015625 38.980469 L 26.875 38.980469 C 27.542969 38.980469 28.078125 38.445312 28.078125 37.785156 L 30.515625 26.628906 C 30.515625 25.96875 29.976562 25.433594 29.308594 25.433594 Z M 17.945312 32.964844 C 17.585938 32.964844 17.296875 32.671875 17.296875 32.316406 C 17.296875 31.957031 17.585938 31.667969 17.945312 31.667969 C 18.300781 31.667969 18.589844 31.957031 18.589844 32.316406 C 18.59375 32.671875 18.300781 32.964844 17.945312 32.964844 Z M 17.945312 32.964844 "/>
<path style=" stroke:none;fill-rule:nonzero;fill:rgb(100%,100%,100%);fill-opacity:1;" d="M 13.082031 16.03125 C 13.082031 16.078125 13.089844 16.125 13.09375 16.171875 C 13.402344 19.71875 15.46875 22.457031 17.972656 22.457031 C 20.507812 22.457031 22.59375 19.648438 22.863281 16.035156 C 22.902344 15.777344 22.921875 15.511719 22.921875 15.242188 C 22.921875 14.972656 22.902344 14.707031 22.863281 14.445312 C 22.5 11.933594 20.449219 10.011719 17.972656 10.011719 C 15.492188 10.011719 13.441406 11.9375 13.082031 14.445312 C 13.042969 14.707031 13.023438 14.972656 13.023438 15.242188 C 13.023438 15.351562 13.027344 15.457031 13.035156 15.566406 C 13.042969 15.722656 13.058594 15.878906 13.082031 16.03125 Z M 14.917969 13.214844 C 14.917969 13.214844 18.335938 14.886719 20.640625 13.214844 C 20.640625 13.214844 22.003906 15.382812 21.621094 16.238281 L 22.316406 15.433594 C 22.3125 15.648438 22.292969 15.855469 22.265625 16.0625 C 22.027344 19.230469 20.199219 21.699219 17.972656 21.699219 C 15.78125 21.699219 13.972656 19.3125 13.6875 16.214844 C 13.882812 16.265625 14.117188 16.355469 14.375 16.539062 C 14.375 16.535156 13.886719 13.625 14.917969 13.214844 Z M 14.917969 13.214844 "/>
<path style=" stroke:none;fill-rule:nonzero;fill:rgb(100%,100%,100%);fill-opacity:1;" d="M 21.898438 21.632812 C 21.882812 22.226562 20.851562 23.804688 19.824219 25.234375 L 27.105469 25.234375 C 26.136719 23.253906 24.1875 21.84375 21.898438 21.632812 Z M 21.898438 21.632812 "/>
<path style=" stroke:none;fill-rule:nonzero;fill:rgb(100%,100%,100%);fill-opacity:1;" d="M 18.414062 24.269531 C 18.867188 24.035156 19.21875 23.542969 19.21875 23.042969 C 19.21875 23.042969 18.542969 23.339844 17.855469 23.339844 C 17.164062 23.339844 16.488281 23.042969 16.488281 23.042969 C 16.488281 23.542969 16.839844 24.03125 17.296875 24.269531 L 17.226562 25.234375 L 18.480469 25.234375 Z M 18.414062 24.269531 "/>
<path style=" stroke:none;fill-rule:nonzero;fill:rgb(100%,100%,100%);fill-opacity:1;" d="M 14.046875 21.632812 C 11.753906 21.84375 9.808594 23.253906 8.835938 25.234375 L 15.941406 25.234375 C 15.003906 23.808594 14.058594 22.226562 14.046875 21.632812 Z M 14.046875 21.632812 "/>
<path style=" stroke:none;fill-rule:nonzero;fill:rgb(100%,100%,100%);fill-opacity:1;" d="M 19.027344 32.207031 C 19.027344 32.808594 18.542969 33.292969 17.945312 33.292969 C 17.34375 33.292969 16.859375 32.808594 16.859375 32.207031 C 16.859375 31.605469 17.34375 31.117188 17.945312 31.117188 C 18.542969 31.117188 19.027344 31.605469 19.027344 32.207031 Z M 19.027344 32.207031 "/>
<path style=" stroke:none;fill-rule:nonzero;fill:rgb(100%,100%,100%);fill-opacity:1;" d="M 28.167969 39.488281 L 7.722656 39.488281 C 7.4375 39.488281 7.203125 39.726562 7.203125 40.015625 C 7.203125 40.304688 7.4375 40.535156 7.722656 40.535156 L 28.167969 40.535156 C 28.453125 40.535156 28.6875 40.304688 28.6875 40.015625 C 28.6875 39.726562 28.453125 39.488281 28.167969 39.488281 Z M 28.167969 39.488281 "/>
<path style=" stroke:none;fill-rule:nonzero;fill:rgb(100%,100%,100%);fill-opacity:1;" d="M 19.679688 25.433594 C 19.726562 25.363281 19.773438 25.300781 19.820312 25.234375 L 18.480469 25.234375 L 18.496094 25.433594 Z M 19.679688 25.433594 "/>
<path style=" stroke:none;fill-rule:nonzero;fill:rgb(100%,100%,100%);fill-opacity:1;" d="M 17.214844 25.433594 L 17.230469 25.234375 L 15.941406 25.234375 C 15.984375 25.300781 16.027344 25.367188 16.074219 25.433594 Z M 17.214844 25.433594 "/>
<path style=" stroke:none;fill-rule:nonzero;fill:rgb(100%,100%,100%);fill-opacity:1;" d="M 8.90625 39.179688 L 26.984375 39.179688 C 27.65625 39.179688 28.199219 38.632812 28.199219 37.957031 L 30.636719 26.453125 C 30.636719 25.78125 30.089844 25.234375 29.417969 25.234375 L 27.105469 25.234375 C 27.136719 25.300781 27.167969 25.363281 27.199219 25.429688 L 29.308594 25.429688 C 29.976562 25.429688 30.515625 25.964844 30.515625 26.628906 L 28.078125 37.785156 C 28.078125 38.445312 27.539062 38.980469 26.875 38.980469 L 9.015625 38.980469 C 8.351562 38.980469 7.8125 38.445312 7.8125 37.785156 L 5.375 26.628906 C 5.375 25.964844 5.914062 25.429688 6.582031 25.429688 L 8.742188 25.429688 C 8.773438 25.363281 8.808594 25.296875 8.839844 25.234375 L 6.46875 25.234375 C 5.796875 25.234375 5.25 25.78125 5.25 26.453125 L 7.6875 37.957031 C 7.6875 38.632812 8.234375 39.179688 8.90625 39.179688 Z M 8.90625 39.179688 "/>
<path style=" stroke:none;fill-rule:nonzero;fill:rgb(100%,100%,100%);fill-opacity:1;" d="M 16.074219 25.433594 C 16.027344 25.363281 15.984375 25.300781 15.941406 25.234375 L 8.839844 25.234375 C 8.804688 25.300781 8.773438 25.363281 8.742188 25.433594 Z M 16.074219 25.433594 "/>
<path style=" stroke:none;fill-rule:nonzero;fill:rgb(100%,100%,100%);fill-opacity:1;" d="M 18.492188 25.433594 L 18.480469 25.234375 L 17.226562 25.234375 L 17.214844 25.433594 Z M 18.492188 25.433594 "/>
<path style=" stroke:none;fill-rule:nonzero;fill:rgb(100%,100%,100%);fill-opacity:1;" d="M 27.199219 25.433594 C 27.167969 25.363281 27.136719 25.300781 27.105469 25.234375 L 19.820312 25.234375 C 19.773438 25.300781 19.726562 25.367188 19.679688 25.433594 Z M 27.199219 25.433594 "/>
<path style=" stroke:none;fill-rule:nonzero;fill:rgb(100%,100%,100%);fill-opacity:1;" d="M 42.242188 20.652344 L 30.714844 20.652344 C 28.804688 20.652344 27.257812 19.09375 27.257812 17.179688 C 27.257812 15.582031 28.335938 14.234375 29.800781 13.832031 C 30.335938 12.40625 31.703125 11.394531 33.308594 11.394531 C 33.679688 11.394531 34.035156 11.449219 34.371094 11.546875 C 35.289062 10.066406 36.921875 9.078125 38.785156 9.078125 C 41.613281 9.078125 43.910156 11.351562 43.972656 14.175781 C 45.007812 14.777344 45.703125 15.898438 45.703125 17.179688 C 45.703125 19.097656 44.152344 20.652344 42.242188 20.652344 Z M 30.714844 14.867188 C 29.445312 14.867188 28.410156 15.902344 28.410156 17.179688 C 28.410156 18.457031 29.441406 19.496094 30.714844 19.496094 L 42.246094 19.496094 C 43.515625 19.496094 44.550781 18.460938 44.550781 17.179688 C 44.550781 16.085938 43.789062 15.164062 42.769531 14.925781 C 42.800781 14.71875 42.820312 14.503906 42.820312 14.289062 C 42.820312 12.050781 41.011719 10.238281 38.785156 10.238281 C 36.960938 10.238281 35.421875 11.449219 34.921875 13.117188 C 34.480469 12.761719 33.917969 12.550781 33.308594 12.550781 C 31.972656 12.550781 30.875 13.566406 30.730469 14.867188 Z M 30.714844 14.867188 "/>
</g>
</svg>
