<?xml version="1.0" encoding="utf-8"?>
<!-- Generator: Adobe Illustrator 26.0.3, SVG Export Plug-In . SVG Version: 6.00 Build 0)  -->
<svg version="1.1" id="Слой_1" xmlns="http://www.w3.org/2000/svg" xmlns:xlink="http://www.w3.org/1999/xlink" x="0px" y="0px"
	 viewBox="0 0 600 600" style="enable-background:new 0 0 600 600;" xml:space="preserve">
<style type="text/css">
	.st0{fill:#9D6CFF;}
	.st1{fill:#8460BC;}
	.st2{fill:#FFFFFF;stroke:#122711;stroke-width:2;stroke-linecap:round;stroke-linejoin:round;stroke-miterlimit:10;}
	.st3{fill:#9D6CFF;stroke:#122711;stroke-width:2;stroke-linecap:round;stroke-linejoin:round;stroke-miterlimit:10;}
	.st4{fill:none;stroke:#122711;stroke-width:2;stroke-linecap:round;stroke-linejoin:round;stroke-miterlimit:10;}
	.st5{fill:#FFFFFF;}
	.st6{fill:#FFFFFF;stroke:#122711;stroke-width:1.5682;stroke-linecap:round;stroke-linejoin:round;stroke-miterlimit:10;}
	.st7{fill:none;stroke:#122711;stroke-width:1.5682;stroke-linecap:round;stroke-linejoin:round;stroke-miterlimit:10;}
	.st8{fill:#122711;}
</style>
<g id="ORNAMENT">
	<g>
		<path class="st0" d="M521.8,327.6c-2.8,0-5.4,1.1-7.2,3c-1.9,1.8-3,4.4-3,7.2c0-2.8-1.1-5.4-3-7.2c-1.8-1.8-4.4-3-7.2-3
			c2.8,0,5.4-1.1,7.2-3c1.9-1.8,3-4.4,3-7.2c0,2.8,1.1,5.4,3,7.2C516.4,326.5,519,327.6,521.8,327.6z"/>
		<path class="st1" d="M126.7,225.2c-2.8,0-5.3,1.1-7.2,3c-1.8,1.8-3,4.4-3,7.2c0-2.8-1.1-5.3-3-7.2c-1.8-1.8-4.4-3-7.2-3
			c2.8,0,5.3-1.1,7.2-3c1.8-1.8,3-4.4,3-7.2c0,2.8,1.1,5.3,3,7.2C121.4,224.1,124,225.2,126.7,225.2z"/>
		<path class="st1" d="M391.3,288.5c-1.8,0-3.4,0.7-4.6,1.9c-1.2,1.2-1.9,2.8-1.9,4.6c0-1.8-0.7-3.4-1.9-4.6
			c-1.2-1.2-2.8-1.9-4.6-1.9c1.8,0,3.4-0.7,4.6-1.9c1.2-1.2,1.9-2.8,1.9-4.6c0,1.8,0.7,3.4,1.9,4.6
			C387.9,287.7,389.5,288.5,391.3,288.5z"/>
		<path class="st0" d="M88.2,310.3c-1.4,0-2.6,0.6-3.6,1.5c-0.9,0.9-1.5,2.2-1.5,3.6c0-1.4-0.6-2.6-1.5-3.6
			c-0.9-0.9-2.2-1.5-3.6-1.5c1.4,0,2.6-0.6,3.6-1.5c0.9-0.9,1.5-2.2,1.5-3.6c0,1.4,0.6,2.6,1.5,3.6
			C85.6,309.7,86.9,310.3,88.2,310.3z"/>
		<circle class="st1" cx="473.4" cy="286.3" r="2.2"/>
		<circle class="st0" cx="511.6" cy="538.9" r="3.2"/>
		<circle class="st1" cx="123.8" cy="400.6" r="4.8"/>
	</g>
</g>
<g id="REPORT">
	<g>
		<g>
			<path class="st2" d="M490.1,333.4v212.2c0,6.1-5,11.1-11.1,11.1H172.9c-6.1,0-11.1-5-11.1-11.1V333.4c0-6.1,5-11.1,11.1-11.1H479
				C485.1,322.3,490.1,327.2,490.1,333.4z"/>
			<path class="st3" d="M490.1,333.4v25H161.8v-25c0-6.1,5-11.1,11.1-11.1H479C485.1,322.3,490.1,327.2,490.1,333.4z"/>
			<g>
				<circle class="st2" cx="409.7" cy="340.8" r="6.8"/>
				<circle class="st2" cx="434" cy="340.8" r="6.8"/>
				<circle class="st2" cx="458.4" cy="340.8" r="6.8"/>
			</g>
		</g>
		<g>
			<g>
				<g>
					<path class="st1" d="M193.1,434.4h-7.2c-1.7,0-3.1-1.4-3.1-3.1v-37.1c0-1.7,1.4-3.1,3.1-3.1h7.2c1.7,0,3.1,1.4,3.1,3.1v37.1
						C196.2,433,194.8,434.4,193.1,434.4z"/>
					<path class="st1" d="M214.8,434.4h-7.2c-1.7,0-3.1-1.4-3.1-3.1v-18c0-1.7,1.4-3.1,3.1-3.1h7.2c1.7,0,3.1,1.4,3.1,3.1v18
						C217.9,433,216.6,434.4,214.8,434.4z"/>
					<path class="st1" d="M236.6,434.4h-7.2c-1.7,0-3.1-1.4-3.1-3.1v-25.1c0-1.7,1.4-3.1,3.1-3.1h7.2c1.7,0,3.1,1.4,3.1,3.1v25.1
						C239.7,433,238.3,434.4,236.6,434.4z"/>
				</g>
				<g>
					<path class="st4" d="M276.9,456.6v63.8c0,2.8-2.2,5-5,5h-85.1c-2.8,0-5-2.2-5-5v-63.8c0-2.8,2.2-5,5-5h85.1
						C274.7,451.5,276.9,453.8,276.9,456.6z"/>
					<path class="st0" d="M276.9,456.6v8.8h-95.1v-8.8c0-2.8,2.2-5,5-5h85.1C274.7,451.5,276.9,453.8,276.9,456.6z"/>
					<g>
						<line class="st4" x1="204.6" y1="469.9" x2="204.6" y2="520.6"/>
						<line class="st4" x1="229.4" y1="469.9" x2="229.4" y2="520.6"/>
						<line class="st4" x1="254.3" y1="469.9" x2="254.3" y2="520.6"/>
					</g>
					<g>
						<line class="st4" x1="269.8" y1="482.8" x2="189" y2="482.8"/>
						<line class="st4" x1="269.8" y1="507.7" x2="189" y2="507.7"/>
					</g>
				</g>
				<g>
					<path class="st0" d="M324.8,509.1h-33.4c-2.1,0-3.8-1.7-3.8-3.8v0c0-2.1,1.7-3.8,3.8-3.8h33.4c2.1,0,3.8,1.7,3.8,3.8v0
						C328.7,507.4,327,509.1,324.8,509.1z"/>
					<path class="st0" d="M312.5,525.4h-21c-2.1,0-3.8-1.7-3.8-3.8v0c0-2.1,1.7-3.8,3.8-3.8h21c2.1,0,3.8,1.7,3.8,3.8v0
						C316.3,523.6,314.6,525.4,312.5,525.4z"/>
				</g>
				<g>
					<g>
						<path class="st2" d="M413.8,430.3h52c2.3,0,4.1,2.2,4.1,5v85.1c0,2.8-1.8,5-4.1,5h-52c-2.3,0-4.1-2.2-4.1-5v-85.1
							C409.7,432.5,411.5,430.3,413.8,430.3z"/>
						<line class="st4" x1="418.6" y1="501.4" x2="460.9" y2="501.4"/>
						<line class="st4" x1="418.6" y1="510.5" x2="460.9" y2="510.5"/>
						<g>
							<path class="st1" d="M439.8,443.2c-13.4,0-24.2,10.8-24.2,24.2c0,13.4,10.8,24.2,24.2,24.2c13.4,0,24.2-10.8,24.2-24.2
								C464,454,453.1,443.2,439.8,443.2z M439.8,478.6c-6.2,0-11.2-5-11.2-11.2s5-11.2,11.2-11.2c6.2,0,11.2,5,11.2,11.2
								S446,478.6,439.8,478.6z"/>
							<path class="st0" d="M464,467.4h-13c0-6.2-5-11.2-11.2-11.2v-13C453.1,443.2,464,454,464,467.4z"/>
						</g>
					</g>
					<g>
						<path class="st1" d="M470,401.2l-0.1,0.1v18c0,2.8-1.8,5-4.1,5h-52c-2.3,0-4.1-2.2-4.1-5v-19.1l2.7-1l21-7.8l15.1,5.6l7.2-2.7
							l14.2,5.3L470,401.2z"/>
						<path class="st0" d="M469.9,401.2v18c0,2.8-1.8,5-4.1,5h-52c-2.3,0-4.1-2.2-4.1-5v-21.1l2.7,1l12.6,4.7l7.2-2.7l18.9,7
							L469.9,401.2z"/>
						<path class="st4" d="M409.7,396.6v1.6v2v19.1c0,2.8,1.8,5,4.1,5h52c2.3,0,4.1-2.2,4.1-5v-18v-1.6v-3"/>
						<circle class="st0" cx="433.4" cy="391.4" r="1.7"/>
						<circle class="st0" cx="448.5" cy="397" r="1.7"/>
						<circle class="st5" cx="425.1" cy="403.8" r="1.7"/>
						<circle class="st5" cx="432.3" cy="401.2" r="1.7"/>
						<circle class="st5" cx="451.1" cy="408.1" r="1.7"/>
						<circle class="st0" cx="455.7" cy="394.3" r="1.7"/>
					</g>
				</g>
			</g>
			<path class="st1" d="M324.2,381.9L303,403.1c-0.9,0.9-1,2.3-0.2,3.2l50.9,66.7c0.7,1,0.7,2.4-0.2,3.2l-4.3,4.3c-1,1-1,2.5,0,3.5
				l14.3,14.3c0.7,0.7,0.9,1.9,0.5,2.8l-2.6,5.4c-0.3,0.6-0.3,1.4-0.1,2l8.8,21.4c0.4,0.9,1.3,1.5,2.3,1.5l0,0
				c1.5,0,2.6-1.3,2.4-2.8l-1.9-13.7c-0.1-1,0.4-2.1,1.3-2.5l7.7-3.9c1.1-0.5,1.6-1.8,1.2-2.9l-2.4-8.2c-0.3-0.9,0-1.8,0.6-2.4
				l11.2-11.2c0.8-0.8,0.9-2,0.4-2.9l-9.4-17.3c-0.4-0.8-1.3-1.3-2.2-1.3H355c-0.8,0-1.6-0.4-2-1.1l-6.5-9.6c-0.7-1-0.5-2.3,0.3-3.1
				l0.5-0.5c0.8-0.8,1.9-0.9,2.9-0.4l8.8,4.6c1.1,0.6,2.5,0.2,3.2-0.8l11.3-17.3c0.6-0.9,0.5-2-0.1-2.8l-13.4-18.5
				c-0.6-0.8-1.7-1.2-2.7-0.9l-8.1,2.3c-0.9,0.2-1.8,0-2.4-0.6l-2.5-2.5c-1.1-1.1-0.9-3.1,0.5-3.9l8.6-4.9c1.1-0.6,1.5-2,1-3.2
				l-5.4-11.7c-0.3-0.7-0.9-1.2-1.7-1.4l-20.8-4.8C325.7,381,324.8,381.3,324.2,381.9z"/>
		</g>
	</g>
</g>
<g id="PLANT">
	<g>
		<g>
			<g>
				<path class="st1" d="M130.3,494.1c-8.2,13-16.6,21.2-16.6,21.2c-8.1-20.3-7-38.3-2.2-53.1c3.2-9.8,8-18.2,12.8-24.9
					c8.2-11.4,16.4-17.9,16.4-17.9c9.6,22,5,43.7-3,60.9C135.5,485.3,132.9,490,130.3,494.1z"/>
				<path class="st5" d="M130.3,494.1c-4.2-21.3-8.2-13.1-14.4-22c-2.2-3.2-3.5-6.7-4.4-9.9c3.2-9.8,8-18.2,12.8-24.9
					c-0.5,4-0.9,12.2,2.6,19.5c4.7,9.7,9.9,2.4,10.8,23.6C135.5,485.3,132.9,490,130.3,494.1z"/>
				<path class="st4" d="M138.6,426.8c0,0-13.1,55-23.6,82.4"/>
			</g>
			<g>
				<path class="st0" d="M117.2,484.9c-1.2,18.2-5.4,31.4-5.4,31.4c-19.8-16.6-28.8-36-32.1-54.1c-2.2-12-1.9-23.5-0.7-33.2
					c2.1-16.5,7-27.8,7-27.8c22.4,17.5,29.8,42.8,31.1,65.2C117.7,472.8,117.6,479.1,117.2,484.9z"/>
				<path class="st5" d="M117.2,484.9c-16.3-19.8-15.9-9.1-27.3-14.8c-4.1-2.1-7.4-4.9-10.1-7.9c-2.2-12-1.9-23.5-0.7-33.2
					c1.7,4.5,5.9,13.2,13.7,18.8c10.3,7.4,11.6-3.1,24.5,18.5C117.7,472.8,117.6,479.1,117.2,484.9z"/>
				<path class="st4" d="M88.1,410.1c0,0,17.3,64.6,21.7,99.2"/>
			</g>
		</g>
		<path class="st2" d="M145.2,508.1c0,34.1-12.6,48.5-12.6,48.5H91.5c0,0-12.6-14.5-12.6-48.5H145.2z"/>
	</g>
</g>
<g id="ORNAMENT_2">
	<g>
		<g>
			<polyline class="st4" points="171.1,131.3 160.9,141.6 148.8,141.6 			"/>
			<circle class="st0" cx="145" cy="141.6" r="3.8"/>
		</g>
		<path class="st1" d="M91,136.7H123c2.7,0,5,2.2,5,5v0c0,2.7-2.2,5-5,5H91c-2.7,0-5-2.2-5-5v0C86.1,138.9,88.3,136.7,91,136.7z"/>
	</g>
</g>
<g id="PIE_CHART">
	<g>
		<g>
			<path class="st2" d="M406.9,60.2c-49.3,0-89.4,40-89.4,89.4c0,49.4,40,89.4,89.4,89.4c49.3,0,89.4-40,89.4-89.4
				C496.3,100.3,456.2,60.2,406.9,60.2z M406.9,191.1c-22.9,0-41.4-18.6-41.4-41.4s18.6-41.4,41.4-41.4c22.9,0,41.4,18.6,41.4,41.4
				S429.8,191.1,406.9,191.1z"/>
			<path class="st0" d="M451.3,146.6c-1.5-22.1-19.2-39.9-41.3-41.3v-42c45.2,1.6,81.8,38.1,83.3,83.3H451.3z"/>
		</g>
		<g>
			<g>
				<polyline class="st4" points="433.1,58.6 443.4,48.3 455.4,48.3 				"/>
				<circle class="st0" cx="459.3" cy="48.3" r="3.8"/>
			</g>
			<path class="st1" d="M513.2,53.3h-31.9c-2.7,0-5-2.2-5-5v0c0-2.7,2.2-5,5-5h31.9c2.7,0,5,2.2,5,5v0
				C518.2,51.1,515.9,53.3,513.2,53.3z"/>
		</g>
		<g>
			<g>
				<polyline class="st4" points="433.1,240.6 443.4,250.9 455.4,250.9 				"/>
				<circle class="st0" cx="459.3" cy="250.9" r="3.8"/>
			</g>
			<path class="st1" d="M513.2,245.9h-31.9c-2.7,0-5,2.2-5,5v0c0,2.7,2.2,5,5,5h31.9c2.7,0,5-2.2,5-5v0
				C518.2,248.1,515.9,245.9,513.2,245.9z"/>
		</g>
	</g>
</g>
<g id="ARROW">
	<polygon class="st0" points="200.9,167.6 200.9,182.9 198.2,180.2 181.7,196.7 171.9,186.8 170.9,185.8 160,196.7 150.2,186.8 
		161,176 170.9,166.2 181.7,177 188.4,170.3 185.7,167.6 	"/>
</g>
<g id="CHART_1">
	<g>
		<path class="st1" d="M205.6,92.6l-0.1,0v17.9c0,2.8-1.8,5-4.1,5h-51.7c-2.2,0-4.1-2.2-4.1-5v-19l2.7-1l20.8-7.7l15,5.6l7.2-2.7
			l14.1,5.2L205.6,92.6z"/>
		<path class="st0" d="M205.5,92.6v17.9c0,2.8-1.8,5-4.1,5h-51.7c-2.2,0-4.1-2.2-4.1-5v-21l2.7,1l12.6,4.7l7.2-2.7l18.8,7
			L205.5,92.6z"/>
		<path class="st4" d="M145.6,88v1.6v2v19c0,2.8,1.8,5,4.1,5h51.7c2.2,0,4.1-2.2,4.1-5V92.6V91v-3"/>
		<circle class="st0" cx="169.1" cy="82.9" r="1.7"/>
		<circle class="st0" cx="184.2" cy="88.4" r="1.7"/>
		<circle class="st5" cx="160.9" cy="95.2" r="1.7"/>
		<circle class="st5" cx="168" cy="92.6" r="1.7"/>
		<circle class="st5" cx="186.8" cy="99.5" r="1.7"/>
		<circle class="st0" cx="191.3" cy="85.8" r="1.7"/>
	</g>
</g>
<g id="RIGHT_ARM">
	<g>
		<g>
			<path class="st0" d="M242.4,245c-0.4,1.2-0.7,2.3-1.1,3.3c-0.5,1.2-0.9,2.4-1.4,3.6c-2.8,6.7-9.8,10.7-17,9.8
				c-0.9-0.1-1.7-0.3-2.5-0.5c-8.8-2.4-14.5-11.4-12.4-20.6l2.2-15.4c0,0,16.5-63.8,20-72.2c3.7-8.7,13.9-14.5,13.9-14.5
				c10.4,9.9,12.2,23.8,8.9,49.3C251.7,197.1,247.5,228.8,242.4,245z"/>
			<path class="st5" d="M242.4,245c-0.4,1.2-0.7,2.3-1.1,3.3c-0.5,1.2-0.9,2.4-1.4,3.6c-2.8,6.7-9.7,10.9-16.9,10
				c-0.9-0.1-1.7-0.3-2.5-0.5c-0.7-2.6-0.8-5.7,0.1-8.5c2.4-7.7,10.6-12,18.3-9.6C240.1,243.7,241.3,244.3,242.4,245z"/>
		</g>
	</g>
</g>
<g id="RIGHT_THIGH">
	<g>
		<path class="st1" d="M301,281.3l-5.5,28.2c-1.6,8.2-8.8,14.1-17.1,14.1h-60.7c-11.3,0-20-9.8-18.7-21v0c1-8.8,7.9-15.7,16.7-16.6
			l45.4-2.2v-18.3H301V281.3z"/>
		<g>
			<path class="st4" d="M288.5,273.4l-4.8,26c-0.8,4.4-4.7,7.7-9.2,7.7h-42.1"/>
			<path class="st6" d="M280.4,273.4l-2.8,15.9c-0.4,2.6,0.7,5.2,2.9,6.6l3.4,2.2"/>
		</g>
	</g>
</g>
<g id="RIGHT_CALF">
	<g>
		<g>
			<g>
				<g>
					<polygon class="st2" points="237.7,389.8 253.7,423 266.4,416.1 253.3,381.1 					"/>
				</g>
			</g>
			<g>
				<path class="st1" d="M261,493.6l5.3,3.6l44.8-65.1c0,0-2.6-2.1-7.1-5.5c-8.8-6.7-23.8-17.6-41.5-28.1l-17.6,18.5
					c0,0,6.3,30.6,9.8,56.4c0.4,2.7,0.6,5.4,0.8,8.2C255.7,487,257.6,491.3,261,493.6z"/>
				<path class="st4" d="M261,493.6l5.3,3.6l44.8-65.1c0,0-2.6-2.1-7.1-5.5c-8.8-6.7-23.8-17.6-41.5-28.1l-17.6,18.5
					c0,0,6.3,30.6,9.8,56.4c0.4,2.7,0.6,5.4,0.8,8.2C255.7,487,257.6,491.3,261,493.6z"/>
				<line class="st4" x1="257.3" y1="412" x2="266.3" y2="454.2"/>
				<g>
					
						<ellipse transform="matrix(0.5666 -0.824 0.824 0.5666 -229.6285 415.206)" class="st5" cx="279.9" cy="425.9" rx="7" ry="7.8"/>
				</g>
				<g>
					<path class="st2" d="M261,493.6l5.3,3.6l44.8-65.1c0,0-2.6-2.1-7.1-5.5L280.3,461c0,0-16.8-8.3-25.7,12.5
						c0.4,2.7,0.6,5.4,0.8,8.2C255.7,487,257.6,491.3,261,493.6z"/>
				</g>
			</g>
		</g>
		<g>
			<path class="st1" d="M235.5,301.5L259,387l-24,10.3l-40.9-74l-1.4-2.5l-0.8-1.4c-3.8-6.8-4.2-15.1-0.8-22.1
				c1.3-2.7,3.2-5.4,5.9-7.7c0.5-0.4,1-0.8,1.6-1.2c0.9-0.6,1.9-1.2,2.9-1.8c6-3.1,11.5-3.4,16.2-2.4
				C226.4,286.2,233.1,293,235.5,301.5z"/>
			<polyline class="st4" points="236.6,307.2 223.1,307.2 246.9,377.6 			"/>
			<line class="st4" x1="234.4" y1="390.3" x2="255" y2="382.1"/>
			<path class="st2" d="M212.3,295c6.1,7.6,4.9,18.8-2.7,24.9c-4.5,3.6-10.3,4.7-15.5,3.3l-1.4-2.5l-0.8-1.4
				c-3.8-6.8-4.2-15.1-0.8-22.1c1.3-2.7,3.2-5.4,5.9-7.7c0.5-0.4,1-0.8,1.6-1.2C203.8,288.4,208.9,290.7,212.3,295z"/>
		</g>
	</g>
</g>
<g id="LEFT_THIGH">
	<g>
		<path class="st1" d="M343.8,281.3l-5.5,28.2c-1.6,8.2-8.8,14.1-17.1,14.1h-35.6c-11.3,0-20-9.8-18.7-21v0
			c1-8.8,7.9-15.7,16.7-16.6l20.3-2.2v-18.3h39.9V281.3z"/>
		<g>
			<path class="st4" d="M331.2,273.4l-4.8,26c-0.8,4.4-4.7,7.7-9.2,7.7H299"/>
			<path class="st4" d="M323.2,273.4l-2.8,15.9c-0.4,2.6,0.7,5.2,2.9,6.6l3.4,2.2"/>
		</g>
	</g>
</g>
<g id="LEFT_CALF">
	<g>
		<g>
			<g>
				<g>
					<polygon class="st2" points="254.3,389.5 246.1,425.4 260.2,427.9 271.9,392.4 					"/>
				</g>
			</g>
			<g>
				<path class="st1" d="M207.5,485.1l1.8,6.1l75.7-22.8c0,0-0.7-3.3-2.1-8.7c-2.7-10.7-7.5-28.6-14.9-47.9l-25.3,3.4
					c0,0-14.2,27.8-27.6,50.2c-1.4,2.3-2.9,4.6-4.5,6.9C207.5,476.6,206.3,481.1,207.5,485.1z"/>
				<path class="st4" d="M207.5,485.1l1.8,6.1l75.7-22.8c0,0-0.7-3.3-2.1-8.7c-2.7-10.7-7.5-28.6-14.9-47.9l-25.3,3.4
					c0,0-14.2,27.8-27.6,50.2c-1.4,2.3-2.9,4.6-4.5,6.9C207.5,476.6,206.3,481.1,207.5,485.1z"/>
				<line class="st4" x1="255.7" y1="419" x2="236.3" y2="457.6"/>
				<g>
					
						<ellipse transform="matrix(0.9574 -0.2887 0.2887 0.9574 -116.8945 95.2795)" class="st5" cx="264.6" cy="444" rx="7" ry="7.8"/>
				</g>
				<g>
					<path class="st2" d="M207.5,485.1l1.8,6.1l75.7-22.8c0,0-0.7-3.3-2.1-8.7l-39.9,12c0,0-7.9-17-27.8-6.3
						c-1.4,2.3-2.9,4.6-4.5,6.9C207.5,476.6,206.3,481.1,207.5,485.1z"/>
				</g>
			</g>
		</g>
		<g>
			<path class="st1" d="M307.7,319.2l-35.1,81.4l-25.1-7l14.3-83.3l0.5-2.8l0.3-1.5c1.3-7.7,6.2-14.4,13.2-17.8
				c2.7-1.3,5.9-2.2,9.4-2.3c0.7,0,1.3,0,2,0c1.1,0.1,2.2,0.2,3.4,0.4c6.6,1.3,11.1,4.5,14.1,8.3
				C310.3,301.6,311.2,311.1,307.7,319.2z"/>
			<line class="st4" x1="248.1" y1="390.4" x2="252" y2="367.2"/>
			<polyline class="st4" points="309.7,307.2 297.7,307.2 268.8,386.3 			"/>
			<line class="st4" x1="252.9" y1="387.5" x2="273.2" y2="393.1"/>
			<path class="st2" d="M293.8,299.7c0,9.8-8,17.7-17.7,17.7c-5.8,0-11-2.8-14.2-7.1l0.5-2.8l0.3-1.5c1.3-7.7,6.2-14.4,13.2-17.8
				c2.7-1.3,5.9-2.2,9.4-2.3c0.7,0,1.3,0,2,0C291.2,289.2,293.8,294.1,293.8,299.7z"/>
			<line class="st7" x1="261.8" y1="310.3" x2="259.7" y2="322.8"/>
		</g>
	</g>
</g>
<g id="BODY">
	<g>
		<path class="st0" d="M337.4,137.5c0,0-31.1-16.1-52.4-13.4S244,138.5,244,138.5c-13.4,38.1-13,148.5-13,148.5s23.8,6.4,88.3,3
			l1-16.4c0.1-1.3,1.1-2.2,2.4-2.2l0,0c1.3,0,2.4,1.1,2.3,2.4l-0.4,16.3c9.7,0,21.8-1.1,21.8-1.1
			C348.5,220.1,337.4,137.5,337.4,137.5z"/>
		<path class="st4" d="M242.4,143.7c-11.8,42-11.4,143.4-11.4,143.4"/>
		<g>
			<path class="st2" d="M308.6,132c-3.2,9.2-10.1,13.4-14.5,15.2c-1.6-6.3-5.5-14.1-5.5-14.1c-3.2,5.2-4.6,11.8-4.8,14.8
				c-11.8-2.3-13.9-13.3-13.9-13.3c0.6-11.2,9.5-20.3,17.7-20.6C305.8,113.2,308.6,132,308.6,132z"/>
		</g>
	</g>
</g>
<g id="LEFT_UPPER_ARM">
	<g>
		<path class="st0" d="M367.4,241.1c0,1.2,0,2.4-0.1,3.5c-0.1,1.3-0.2,2.6-0.3,3.8c-0.7,7.2-6.1,13.1-13.3,14.4
			c-0.9,0.2-1.7,0.3-2.6,0.3c-9.1,0.3-17.2-6.6-18-16l-0.8-9.5c0,0-2.5-74.7-2.2-83.8c0.3-9.1,7.3-16.3,7.3-16.3
			c12.9,6.4,18.5,20.6,23,45.8C362,192.5,367.4,224,367.4,241.1z"/>
		<path class="st4" d="M332.3,236.3c-0.3-10.2-2.4-74.1-2.1-82.5c0.2-6,3.3-11.2,5.4-14"/>
		<path class="st5" d="M367.4,241.1c0,1.2,0,2.4-0.1,3.5c-0.1,1.3-0.2,2.6-0.3,3.8c-0.7,7.2-6,13.3-13.2,14.6
			c-0.9,0.2-1.7,0.3-2.6,0.3c-1.5-2.3-2.5-5.2-2.5-8.1c0-8.1,6.5-14.6,14.6-14.6C364.8,240.5,366.1,240.7,367.4,241.1z"/>
	</g>
</g>
<g id="LEFT_ARM">
	<g>
		<g>
			<path class="st0" d="M366.6,250.9c-2.4,7.3-8.7,12.8-16.2,14.6c0,0-0.1,0-0.1,0c-0.2,0.1-0.5,0.1-0.7,0.2
				c-16.4,4-62.8,11.3-62.8,11.3c-12-7.2-7.2-21.1-7.2-21.1l62-28.5c13.1-6.3,25.6,2.5,26.2,15.5
				C367.8,245.4,367.5,248.1,366.6,250.9z"/>
			<path class="st4" d="M338.4,268c-20.3,4-51.7,8.9-51.7,8.9c-12-7.2-7.2-21.1-7.2-21.1l62-28.5"/>
			<path class="st5" d="M350.4,265.4l-0.1,0c-3-3.5-4.3-8.4-3-13.2c2-7.8,10-12.5,17.8-10.4c0.9,0.2,1.8,0.6,2.6,1
				c0.1,2.6-0.2,5.3-1.2,8.1C364.2,258.2,357.9,263.7,350.4,265.4z"/>
			<path class="st4" d="M367.7,242.8c0.1,2.6-0.2,5.3-1.2,8.1c-2.4,7.3-8.7,12.8-16.2,14.6l-0.1,0"/>
		</g>
		<g>
			<path class="st2" d="M282.5,257.9c0,0,7.9,6.9,5.8,16l-11.9,8.4l-5.5,8.4c-0.6,0.9-1.6,1.3-2.7,1.1l-11-2.5
				c-1.5-0.3-2.4-1.9-1.8-3.3l4.4-11.7l-6.9,9.9c-0.9,1.3-2.8,1.5-3.9,0.3l0,0c-0.7-0.7-0.9-1.7-0.5-2.6l5.7-15.4
				c0.7-1.9,2.3-3.3,4.3-3.7L282.5,257.9z"/>
		</g>
		<g>
			<circle class="st5" cx="293.7" cy="270.9" r="2.2"/>
		</g>
	</g>
</g>
<g id="NECK">
	<g>
		<g>
			<path class="st2" d="M296.5,90.8l0.5,11.2L298,121c-6.1,5-12.3,5.9-18.6,1.8l0.2-8.9l0.3-13.5L296.5,90.8z"/>
		</g>
		<path class="st8" d="M290.8,94.1c0.3,5,2,22.1-11.3,25l0.4-18.7L290.8,94.1z"/>
	</g>
</g>
<g id="HEAD">
	<g>
		<g>
			<g>
				<path class="st5" d="M262.9,94.7c1.9,9,5.7,19.7,16.5,16.8c12.8-3.4,20.2-13.5,19-25.9s-7.7-18.8-22.4-15.8
					c-1.3,0.3-2.5,0.6-3.7,1.1c-8.3,3.2-11.8,10.8-10.4,19C262.2,91.3,262.5,93,262.9,94.7z"/>
			</g>
			<g>
				<path class="st4" d="M298.4,85.5c-1.2-12.4-7.7-18.8-22.4-15.8c-1.3,0.3-2.5,0.6-3.7,1.1c-8.3,3.2-11.8,10.8-10.4,19
					c0.3,1.5,0.5,3.1,0.9,4.8c1.9,9,5.7,19.7,16.5,16.8c4.4-1.2,8.2-3.2,11.2-5.8"/>
			</g>
			<path class="st8" d="M302.5,87.4c0,0-1.6,3-3.7,5.5l-6.5,1.1l-1.9-4.5c0,0-4.2,0.3-5.4-2.5c0,0,0-0.1-0.1-0.2
				c-0.3-0.9-1.6-4.9-1.7-11.4c0,0-9.5,5.5-14.9,6.7c-1.9,0.4-4.3-0.1-6.6-0.9c-4.5-1.6-9-8.2-8.7-13c0,0,0-0.1,0-0.1
				c0.4-7,4.5-2.6,4.5-2.6s0.4-5.7,3.9-6.4c3.4-0.8,6.2,4.1,6.2,4.1s9.1-3.5,20.3-3c13.7,0.6,11.3,10.2,11.3,10.2
				S309.5,72.6,302.5,87.4z"/>
			<g>
				<path class="st5" d="M293.7,93.2c-1.1-5.1,2-10.3,7.1-11.5c1-0.2,2.1-0.3,3.3-0.1c6.6,1,6.5,16.2-9.3,16.7L293.7,93.2z"/>
			</g>
			<g>
				<path class="st4" d="M293.7,93.2c-1.1-5.1,2-10.3,7.1-11.5c1-0.2,2.1-0.3,3.3-0.1c6.6,1,6.5,16.2-9.3,16.7"/>
			</g>
		</g>
	</g>
</g>
<g id="LAPTOP">
	<g>
		<path class="st2" d="M313,282.9H285c-2.6,0-4.8,2.1-4.8,4.8l0,0c0,2.6,2.1,4.8,4.8,4.8H313c2.6,0,4.8-2.1,4.8-4.8l0,0
			C317.8,285.1,315.6,282.9,313,282.9z"/>
		<path class="st2" d="M280.2,292.5h-92c-2.8,0-5.4-2.2-5.8-5l-10.7-67.3c-0.4-2.8,1.4-5,4.2-5h92c2.8,0,5.4,2.2,5.8,5l10.7,67.3
			C284.9,290.3,283,292.5,280.2,292.5z"/>
	</g>
</g>
</svg>
