<?xml version="1.0" encoding="UTF-8"?>
<svg xmlns="http://www.w3.org/2000/svg" xmlns:xlink="http://www.w3.org/1999/xlink" width="172px" height="50px" viewBox="0 0 173 50" version="1.1">
<g id="surface1">
<path style=" stroke:none;fill-rule:nonzero;fill:rgb(0%,0%,0%);fill-opacity:1;" d="M 164.9375 43.539062 C 168.332031 43.539062 170.738281 42.925781 172.527344 41.605469 L 172.527344 35.613281 C 170.691406 36.886719 168.476562 37.6875 165.363281 37.6875 C 160.132812 37.6875 157.960938 33.632812 157.960938 27.21875 C 157.960938 20.472656 160.601562 17.027344 165.410156 17.027344 C 168.238281 17.027344 171.019531 18.019531 172.480469 18.960938 L 172.480469 12.734375 C 170.925781 11.886719 168.238281 11.273438 164.5625 11.273438 C 155.179688 11.273438 150.324219 18.019531 150.324219 27.453125 C 150.375 37.78125 155.132812 43.539062 164.9375 43.539062 Z M 119.074219 40.800781 L 119.074219 34.8125 C 116.808594 36.367188 112.945312 37.734375 109.410156 37.734375 C 104.035156 37.734375 102.007812 35.1875 101.679688 30 L 119.402344 30 L 119.402344 26.132812 C 119.402344 15.332031 114.640625 11.273438 107.335938 11.273438 C 98.378906 11.273438 94.136719 18.113281 94.136719 27.5 C 94.136719 38.300781 99.464844 43.539062 108.796875 43.539062 C 113.464844 43.539062 116.90625 42.265625 119.074219 40.800781 Z M 51.804688 11.839844 L 51.804688 24.105469 L 42 24.105469 L 42 11.839844 L 34.648438 11.839844 L 34.648438 42.925781 L 42 42.925781 L 42 29.953125 L 51.804688 29.953125 L 51.804688 42.925781 L 59.160156 42.925781 L 59.160156 11.839844 Z M 92.296875 37.074219 L 89.046875 37.074219 L 89.046875 11.839844 L 67.644531 11.839844 L 67.644531 14.480469 C 67.644531 22.074219 67.171875 31.886719 64.582031 37.074219 L 62.222656 37.074219 L 62.222656 50 L 69.011719 50 L 69.011719 42.925781 L 85.464844 42.925781 L 85.464844 50 L 92.25 50 L 92.25 37.074219 Z M 142.5 42.925781 L 150.84375 42.925781 L 139.058594 26.179688 L 149.429688 11.839844 L 142.03125 11.839844 L 131.660156 26.179688 L 131.660156 11.839844 L 124.304688 11.839844 L 124.304688 42.925781 L 131.660156 42.925781 L 131.660156 27.640625 Z M 107.148438 17.027344 C 110.777344 17.027344 111.90625 20.046875 111.90625 23.960938 L 111.90625 24.574219 L 101.679688 24.574219 C 101.867188 19.621094 103.660156 17.027344 107.148438 17.027344 Z M 81.691406 37.074219 L 71.320312 37.074219 C 73.347656 32.40625 73.914062 23.914062 73.914062 18.539062 L 73.914062 17.59375 L 81.691406 17.59375 Z M 81.691406 37.074219 "/>
<path style=" stroke:none;fill-rule:nonzero;fill:rgb(98.823529%,24.705882%,11.372549%);fill-opacity:1;" d="M 28.519531 42.925781 L 21.023438 42.925781 L 21.023438 5.800781 L 17.675781 5.800781 C 11.550781 5.800781 8.34375 8.867188 8.34375 13.445312 C 8.34375 18.632812 10.558594 21.039062 15.132812 24.105469 L 18.902344 26.652344 L 8.0625 42.925781 L 0 42.925781 L 9.757812 28.394531 C 4.148438 24.386719 0.988281 20.472656 0.988281 13.867188 C 0.988281 5.613281 6.742188 0 17.628906 0 L 28.472656 0 L 28.472656 42.925781 Z M 28.519531 42.925781 "/>
</g>
</svg>
