<?xml version="1.0" encoding="utf-8"?>
<!-- Generator: Adobe Illustrator 26.0.3, SVG Export Plug-In . SVG Version: 6.00 Build 0)  -->
<svg version="1.1" id="Layer_1" xmlns="http://www.w3.org/2000/svg" xmlns:xlink="http://www.w3.org/1999/xlink" x="0px" y="0px"
	 viewBox="0 0 998 800" style="enable-background:new 0 0 998 800;" xml:space="preserve">
<style type="text/css">
	.st0{fill:#FFFFFF;stroke:#000000;stroke-width:2;stroke-miterlimit:10;}
	.st1{fill:#FFFFFF;stroke:#000000;stroke-width:2;stroke-linecap:round;stroke-linejoin:round;stroke-miterlimit:10;}
	.st2{fill:none;stroke:#000000;stroke-width:2;stroke-linecap:round;stroke-linejoin:round;stroke-miterlimit:10;}
	.st3{fill:none;stroke:#000000;stroke-width:2;stroke-linecap:round;stroke-miterlimit:10;}
	.st4{fill:none;stroke:#B8B8B8;stroke-width:3;stroke-linecap:round;stroke-miterlimit:10;}
	.st5{fill:none;stroke:#B8B8B8;stroke-width:3;stroke-miterlimit:10;}
	.st6{fill:#650B8C;}
	.st7{fill:#650B8C;stroke:#000000;stroke-width:2;stroke-linecap:round;stroke-linejoin:round;stroke-miterlimit:10;}
	.st8{display:none;fill:#650B8C;stroke:#000000;stroke-width:2;stroke-linecap:round;stroke-linejoin:round;stroke-miterlimit:10;}
	.st9{fill:none;stroke:#000000;stroke-width:4;stroke-linecap:round;stroke-linejoin:round;stroke-miterlimit:10;}
	.st10{fill:#FFFFFF;}
	.st11{fill:none;stroke:#B8B8B8;stroke-width:2;stroke-linecap:round;stroke-linejoin:round;stroke-miterlimit:10;}
	.st12{fill:#650B8C;stroke:#020202;stroke-linecap:round;stroke-linejoin:round;stroke-miterlimit:10;}
	.st13{fill:#FFFFFF;stroke:#B8B8B8;stroke-width:2;stroke-miterlimit:10;}
	.st14{fill:#FFFFFF;stroke:#B8B8B8;stroke-width:2;stroke-linecap:round;stroke-linejoin:round;stroke-miterlimit:10;}
	.st15{stroke:#000000;stroke-width:2;stroke-miterlimit:10;}
	.st16{fill:#650B8C;stroke:#000000;stroke-width:2;stroke-miterlimit:10;}
	.st17{fill:#47005C;stroke:#000000;stroke-width:2;stroke-miterlimit:10;}
</style>
<g id="Лицо">
	<path class="st0" d="M369.7,298.4c-2.4-19.1-2.8-38.4-0.6-57.5c0.3-2.8,0.5-5.6,0.5-8.5c0-42.7-36.6-77.3-81.8-77.3
		c-5.9,0-11.7,0.6-17.3,1.8c-0.6,0.1-0.3-1-2.8-1c-56.9-1.7-102.9,81.5-102.9,181.1c0,100,46.4,181.1,103.6,181.1
		s103.6-81.1,103.6-181.1C372.1,323.7,371.3,310.8,369.7,298.4z"/>
	<polygon class="st0" points="329.2,413.1 279.7,434 238.8,413.1 239.9,378.2 241.8,316.1 326.2,316.1 327.7,365.6 	"/>
	<path d="M327.7,365.6c-12.7,14.3-29.5,23.5-48.1,23.5H274c-12.3,0-23.9-4.1-34-11l1.9-62.1h84.3L327.7,365.6z"/>
	<path class="st1" d="M357.9,250.1v44c0,43.2-31.9,84.9-71,84.5h-5.6c-39.2,0.4-71-41.2-71-84.5V266"/>
	<g id="глаза">
		<ellipse cx="322.9" cy="286.1" rx="4.7" ry="8.2"/>
		<ellipse cx="251.2" cy="286.1" rx="4.7" ry="8.2"/>
	</g>
	<path class="st1" d="M260.1,333.3c14.3,5.6,47.3,0,47.3,0s-6.5,14.9-21.7,14.9C270.5,348.1,260.1,333.3,260.1,333.3z"/>
	<path class="st1" d="M218.2,275.4c-2.2-5.4-5.9-9.1-10.3-9.4c-7.8-0.6-14.8,9.2-15.6,21.9c-0.9,12.7,4.7,23.6,12.5,24.2
		c1.7,0.1,5.5-0.4,6.5-2.1"/>
	<path class="st1" d="M350.6,275.4c2.2-5.4,5.9-9.1,10.3-9.4c7.8-0.6,14.8,9.2,15.6,21.9s-4.7,23.6-12.5,24.2
		c-1.7,0.1-6.4-1.4-7.4-3.1"/>
	<path class="st1" d="M309.2,194.6c-37.8,56.2-103.9,70.5-103.9,70.5"/>
	<path class="st1" d="M303,185.1c9.4,19.4,54.9,64.9,54.9,64.9"/>
	<path class="st1" d="M213.1,275.4c-1.5-1.6-3.3-2.6-5.3-2.7c-5.9-0.5-11.8,6.1-10.1,15.5"/>
	<path class="st1" d="M355,275.4c1.5-1.6,3.3-2.6,5.3-2.7c5.9-0.5,11.8,6.1,10.1,15.5"/>
	<path class="st2" d="M291.5,270.8c1.6,21.8,6.1,43.6,3.1,46.2c-3,2.7-17.2,2.5-17.2,2.5"/>
	<path class="st3" d="M309.2,254.1c4.5-2.3,25.9-2.2,30.1,5.2"/>
	<path class="st2" d="M263.8,254.7c-9.3-3.9-24.9-0.8-31.5,6"/>
	<g id="очки_1_">
		<path class="st4" d="M273.2,283.5c2-3.8,20.2-3.5,22.5-1.2"/>
		<path class="st4" d="M345.4,276.1c0,0,17.1-15.8,21.5-14.8"/>
		<path class="st4" d="M223.9,276.1c0,0-17.1-15.8-21.5-14.8"/>
		<path class="st5" d="M327,296.9h-13.4c-9.4,0-17.1-7.6-17.1-17.1v-8.4c0-3.9,3.2-7.1,7.1-7.1H337c3.9,0,7.1,3.2,7.1,7.1v8.4
			C344.1,289.3,336.4,296.9,327,296.9z"/>
		<path class="st5" d="M256.1,296.9h-13.4c-9.4,0-17.1-7.6-17.1-17.1v-8.4c0-3.9,3.2-7.1,7.1-7.1h33.4c3.9,0,7.1,3.2,7.1,7.1v8.4
			C273.2,289.3,265.5,296.9,256.1,296.9z"/>
	</g>
</g>
<g>
	<path class="st6" d="M327.7,390.5C328.1,390.6,327.2,390.5,327.7,390.5L327.7,390.5z"/>
	<path class="st6" d="M428,497.2c-3.7-56.7-46.7-101.5-100.4-106.7c-6,6-8.7,38.8-45.8,37.4c-38.3-1.4-36.3-31.4-42.6-37.3
		c-0.1,0-0.2,0-0.3,0c-7.1,0.8-13.9,2.3-20.5,4.3c-27.2,6.2-64.9,20.1-80.5,48.3c-31.5,56.8-41.7,169.5-40.6,188.8l0,0
		c-1.5,15.3-2,28-1.7,36.6c0.9,31.4,47.7,28.7,77.1,23.9l0.2-5.3h266.3L428,497.2z"/>
</g>
<path id="плечо" class="st6" d="M329.2,391.6c24.8,3.5,79.2,16.3,98.9,51.7c30.9,55.6,41.2,164.8,40.6,187.5c0,1.6,0,3.2,0,4.8
	l0.2,49.3l-43.3-3L329.2,390"/>
<line class="st7" x1="194.9" y1="661.5" x2="190.6" y2="547.7"/>
<path class="st6" d="M249.3,667.5c3.4,50.4-23.8,36.6-53.1,36.6S95.7,692.4,95.7,672.2c0-20.2,72-34.7,100.6-41.3
	C212.4,627.2,246.4,624,249.3,667.5z"/>
<path class="st0" d="M914.9,721.7H79.3c-4.4,0-8-3.6-8-8v-23.4c0-4.4,3.6-8,8-8h835.6c4.4,0,8,3.6,8,8v23.4
	C922.8,718.2,919.3,721.7,914.9,721.7z"/>
<path id="Полка" class="st0" d="M678.1,234.4H427.2c-3.2,0-5.8-2.6-5.8-5.8V218c0-3.2,2.6-5.8,5.8-5.8h250.9
	c3.2,0,5.8,2.6,5.8,5.8v10.7C683.9,231.8,681.3,234.4,678.1,234.4z"/>
<path class="st0" d="M246.1,665.3c-6.2-1.1,0-2.8,0-2.8c0-11.9-6.5-19.9-14.6-24.4c-2.6-1.5-11.9-7.3-21.7-7
	c-30.2,0.7-36.1,10.5-33.7,29.5c0,0,64.9,5.1,64.9,5.1C242.2,665.7,247.2,665.5,246.1,665.3z"/>
<g id="мышь">
	<path class="st0" d="M249.5,668.5C249.5,668.5,249.5,668.5,249.5,668.5c0,1-0.8,1.9-1.8,1.9h-72.9c-1,0-1.8-0.8-1.8-1.9
		c0,0,0,0,0,0c0-19.2,17.1-34.8,38.2-34.8S249.5,649.3,249.5,668.5z"/>
	<path class="st0" d="M248.4,682.4h-74.2c-0.6,0-1.2-0.5-1.2-1.2v-11.9c0-0.6,0.5-1.2,1.2-1.2h74.2c0.6,0,1.2,0.5,1.2,1.2v11.9
		C249.5,681.9,249,682.4,248.4,682.4z"/>
</g>
<path d="M329.2,390l-43.6,232.6c-0.9,4.7-7.4,4.6-8.1-0.1l-38.5-231.8l-0.1-0.5c0.1,0.1,0.3,0.3,0.4,0.4c6.2,5.9,9.7,37.6,42.6,37.3
	c35.7-0.4,38.5-31.5,44.5-37.5c0.7-0.7,1.3-1.5,1.7-2.2L329.2,390z"/>
<path class="st2" d="M173.8,630c0,0,23.5-3,35.4,5.9"/>
<g id="пальцы_1_">
	<path class="st0" d="M176.1,642c-3.7,1-5.4,4.6-3.9,7.5c3.9,7.4,8,16.9,13,13.1c3-2.3-3.4-20.8-7.4-20.8
		C177.3,641.7,176.7,641.8,176.1,642z"/>
	<path class="st0" d="M188.7,630.5c-4.9,0.8-7.6,5.4-6.1,9.8c3.6,10.9,7.7,23.6,14.1,20.3c4.2-2.1-0.7-29.5-5.7-30.1
		C190.1,630.4,189.4,630.4,188.7,630.5z"/>
	<path class="st0" d="M203.8,623.5c-5.1,0.5-8.2,5.1-7,9.7c3.2,11.6,6.9,26.8,13.5,22.1c4.4-3.2,1-30.6-4.2-31.7
		C205.3,623.4,204.5,623.4,203.8,623.5z"/>
	<path class="st0" d="M229.3,627.9c-4.4-0.5-7.9,3.1-7.7,7.5c0.4,10.9,0.4,23.5,7.1,22.2c4.3-0.9,6.7-27.3,2.6-29.2
		C230.6,628.1,230,628,229.3,627.9z"/>
	<path class="st0" d="M250.8,645.3c-3-3.2-6-3.4-6.5-0.7c-1.3,6.7-2.8,17.8,1.7,17.8c4.1,0,8.7-11.7,6-15.5
		C251.7,646.3,251.2,645.8,250.8,645.3z"/>
</g>
<g id="Часы">
	<path class="st8" d="M835.6,122.1c-44.2,0-80,35.8-80,80s35.8,80,80,80c44.2,0,80-35.8,80-80S879.8,122.1,835.6,122.1z
		 M835.6,266.8c-35.7,0-64.7-29-64.7-64.7s29-64.7,64.7-64.7c35.7,0,64.7,29,64.7,64.7S871.3,266.8,835.6,266.8z"/>
	<circle cx="836.1" cy="151.6" r="3"/>
	<line class="st9" x1="836.1" y1="202.1" x2="831.5" y2="161.3"/>
	<line class="st9" x1="860.5" y1="212.4" x2="836.1" y2="202.1"/>
	<circle cx="836.1" cy="252.6" r="3"/>
	<circle cx="810.8" cy="158.3" r="3"/>
	<circle cx="861.3" cy="245.8" r="3"/>
	<circle cx="861.3" cy="158.3" r="3"/>
	<circle cx="810.8" cy="245.8" r="3"/>
	<circle cx="785.6" cy="202.1" r="3"/>
	<circle cx="886.6" cy="202.1" r="3"/>
	<circle cx="792.3" cy="227.3" r="3"/>
	<circle cx="879.8" cy="176.8" r="3"/>
	<circle cx="879.8" cy="227.3" r="3"/>
	<circle cx="792.3" cy="176.8" r="3"/>
	<circle cx="835.6" cy="202.1" r="5.3"/>
	<path class="st7" d="M899.2,131.6h-127c-5.6,0-10.2,4.6-10.2,10.2V263c0,5.6,4.6,10.2,10.2,10.2h127c5.6,0,10.2-4.6,10.2-10.2
		V141.8C909.4,136.2,904.8,131.6,899.2,131.6z M898.6,252.6c0,5.6-4.6,10.2-10.2,10.2H783.1c-5.6,0-10.2-4.6-10.2-10.2V152.2
		c0-5.6,4.6-10.2,10.2-10.2h105.2c5.6,0,10.2,4.6,10.2,10.2V252.6z"/>
	<circle class="st10" cx="835.6" cy="202.1" r="2.3"/>
</g>
<g id="календарь">
	<rect x="719.8" y="338.5" class="st6" width="121.2" height="13.4"/>
	<path class="st0" d="M839.5,434.9h-118c-0.9,0-1.6-0.7-1.6-1.6v-79.8c0-0.9,0.7-1.6,1.6-1.6h118c0.9,0,1.6,0.7,1.6,1.6v79.8
		C841.1,434.2,840.3,434.9,839.5,434.9z"/>
	<line class="st2" x1="735.5" y1="336.3" x2="735.5" y2="354.7"/>
	<line class="st2" x1="825.5" y1="336.3" x2="825.5" y2="354.7"/>
	<line class="st2" x1="803" y1="336.3" x2="803" y2="354.7"/>
	<line class="st2" x1="758" y1="336.3" x2="758" y2="354.7"/>
	<line class="st2" x1="780.5" y1="336.3" x2="780.5" y2="354.7"/>
	<line class="st11" x1="735.5" y1="362" x2="735.5" y2="425.7"/>
	<line class="st11" x1="758" y1="362" x2="758" y2="425.7"/>
	<line class="st11" x1="780.5" y1="362" x2="780.5" y2="425.7"/>
	<line class="st11" x1="802.9" y1="362" x2="802.9" y2="425.7"/>
	<line class="st11" x1="825.5" y1="362" x2="825.5" y2="425.7"/>
	<line class="st11" x1="723.9" y1="376.7" x2="836.6" y2="376.7"/>
	<line class="st11" x1="723.9" y1="395.6" x2="836.6" y2="395.6"/>
	<line class="st11" x1="723.9" y1="413.1" x2="836.6" y2="413.1"/>
</g>
<g id="кактус_1_">
	<ellipse class="st7" cx="482.1" cy="171.2" rx="18.1" ry="22.7"/>
	<path class="st0" d="M503.1,211.3h-41l-7.7-27.3c-0.6-2,1.2-3.9,3.5-3.9h49.4c2.3,0,4.1,1.9,3.5,3.9L503.1,211.3z"/>
	<line class="st2" x1="467.7" y1="151.4" x2="473.1" y2="157.3"/>
	<line class="st2" x1="483.5" y1="161.2" x2="487.2" y2="156.6"/>
	<line class="st2" x1="476.8" y1="165.4" x2="472.6" y2="168.3"/>
	<line class="st2" x1="496.2" y1="160.5" x2="502.4" y2="156"/>
	<line class="st2" x1="482.1" y1="152" x2="484.6" y2="145.1"/>
	<line class="st2" x1="491.9" y1="154.3" x2="493.8" y2="147.6"/>
	<line class="st2" x1="467.7" y1="163" x2="460.9" y2="164.9"/>
	<line class="st2" x1="488.4" y1="167.5" x2="493.4" y2="166.1"/>
	<line class="st2" x1="497.1" y1="174" x2="501.1" y2="169.9"/>
	<line class="st2" x1="466.4" y1="172" x2="462.3" y2="172"/>
	<line class="st2" x1="476.3" y1="174.5" x2="475.8" y2="172"/>
	<line class="st2" x1="485.4" y1="174.5" x2="487.5" y2="170.9"/>
</g>
<g id="Ноут">
	<path class="st0" d="M591.8,651.7h-316c-2.6,0-4.8-2.1-4.8-4.8V462.6c0-2.6,2.1-4.8,4.8-4.8h316c2.6,0,4.8,2.1,4.8,4.8v184.3
		C596.6,649.5,594.5,651.7,591.8,651.7z"/>
	<path class="st0" d="M591.8,682.4h-316c-2.6,0-4.8-2.1-4.8-4.8v-16c0-2.6,2.1-4.8,4.8-4.8h316c2.6,0,4.8,2.1,4.8,4.8v16
		C596.6,680.2,594.5,682.4,591.8,682.4z"/>
	<g id="_x31_с">
		<polygon class="st12" points="402.1,534.8 396.5,534.8 396.5,540.7 402.1,540.7 402.1,569.7 407.9,569.7 407.9,540.7 407.9,534.8 
					"/>
		<polygon class="st12" points="410.4,525.6 402.2,525.6 402.2,531.5 410.4,531.5 410.4,569.7 416.2,569.7 416.2,531.5 416.2,525.6 
					"/>
		<path class="st12" d="M450.8,554.5C450.8,554.5,450.8,554.5,450.8,554.5l-10.6-0.1c-3.9-0.1-6.8-3.2-6.8-6.9c0-3.7,3-6.7,6.7-6.7
			s6.7,3,6.7,6.7c0,0.3,0,0.6-0.1,0.9h6c0-0.3,0-0.6,0-0.9c0-7-5.7-12.7-12.7-12.7s-12.7,5.7-12.7,12.7c0,7,5.7,12.7,12.7,12.7v0
			h50.7v-5.8H450.8z"/>
		<path class="st12" d="M454.6,564.2h-14.1v0c-0.1,0-0.3,0-0.4,0c-9.1,0-16.5-7.4-16.5-16.5c0-9.1,7.4-16.5,16.5-16.5
			c9.1,0,16.5,7.4,16.5,16.5c0,0.3,0,0.5,0,0.8h5.5c0-0.3,0-0.5,0-0.8c0-12.2-9.9-22-22-22c-12.2,0-22,9.9-22,22
			c0,12,9.5,21.7,21.4,22v0h51.3v-5.5H454.6z"/>
	</g>
</g>
<g id="записка_на_стене">
	
		<rect x="510.9" y="304.3" transform="matrix(0.9991 -4.300537e-02 4.300537e-02 0.9991 -14.6275 24.3539)" class="st1" width="95.7" height="95.7"/>
	<circle class="st13" cx="556.5" cy="304.7" r="3.9"/>
	<path class="st14" d="M525.6,333.9c5.8-5.8,12.4-8.6,19.7-4.7s18-9.1,24.9-4.2c6.9,4.8,17.4-2,17.4-2"/>
	<path class="st14" d="M532.8,351.7c11.9-3.9,19-1,23.1,1.4c4.1,2.4,23.3-4.8,23.3-4.8"/>
	<path class="st14" d="M527.2,372.8c3.6-4.2,61.2-0.8,61.2-0.8"/>
</g>
<g id="книги_1_">
	<path class="st15" d="M615.1,212.2h-17.3c-0.8,0-1.5-0.7-1.5-1.5V97.2c0-0.8,0.7-1.5,1.5-1.5h17.3c0.8,0,1.5,0.7,1.5,1.5v113.5
		C616.6,211.5,615.9,212.2,615.1,212.2z"/>
	<path class="st0" d="M595.8,106.2v101.8c0,2-1.7,3.6-3.8,3.6h-8.9c-2.1,0-3.8-1.6-3.8-3.6V106.2c0-2,1.7-3.6,3.8-3.6h8.9
		C594.1,102.6,595.8,104.2,595.8,106.2z"/>
	<path class="st0" d="M626.4,99.2v108.7c0,2-1.7,3.6-3.8,3.6h-2.1c-2.1,0-3.8-1.6-3.8-3.6V99.2c0-2,1.7-3.6,3.8-3.6h2.1
		C624.6,95.7,626.4,97.3,626.4,99.2z"/>
	<path class="st6" d="M579.3,107.9L565.7,190l-0.7,4.1l-0.4,2.5l-0.7,4.1l-1.3,7.8c-0.3,2-2.3,3.3-4.3,3l-6.6-1
		c-2.1-0.3-3.5-2.1-3.2-4.1l1.3-7.8l0.7-4.1l0.4-2.5l0.7-4.1l13.5-82.1c0.3-2,2.3-3.3,4.3-3l6.6,1
		C578.2,104.1,579.6,106,579.3,107.9z"/>
	<path class="st0" d="M642.9,106.2v101.8c0,2-1.7,3.6-3.8,3.6h-8.9c-2.1,0-3.8-1.6-3.8-3.6V106.2c0-2,1.7-3.6,3.8-3.6h8.9
		C641.2,102.6,642.9,104.2,642.9,106.2z"/>
	<circle class="st10" cx="606.2" cy="110" r="4.3"/>
	<line class="st14" x1="621.5" y1="112.2" x2="621.5" y2="186.6"/>
	<line class="st1" x1="579.3" y1="196.6" x2="595.8" y2="196.6"/>
	<line class="st1" x1="579.3" y1="201.9" x2="595.8" y2="201.9"/>
	<line class="st14" x1="583.7" y1="131.1" x2="583.7" y2="178.2"/>
	<line class="st1" x1="627.2" y1="116.2" x2="642.9" y2="116.2"/>
	<line class="st1" x1="627.2" y1="121.4" x2="642.9" y2="121.4"/>
</g>
<g id="папки">
	<path class="st0" d="M729.3,682.4h-38c-0.8,0-1.5-0.7-1.5-1.5V479c0-0.8,0.7-1.5,1.5-1.5h38c0.8,0,1.5,0.7,1.5,1.5v201.9
		C730.8,681.7,730.1,682.4,729.3,682.4z"/>
	<path class="st16" d="M776.2,682.4h-43.9c-0.8,0-1.5-0.7-1.5-1.5V479c0-0.8,0.7-1.5,1.5-1.5h43.9c0.8,0,1.5,0.7,1.5,1.5v201.9
		C777.7,681.7,777,682.4,776.2,682.4z"/>
	<path class="st0" d="M817.2,682.4h-38c-0.8,0-1.5-0.7-1.5-1.5V479c0-0.8,0.7-1.5,1.5-1.5h38c0.8,0,1.5,0.7,1.5,1.5v201.9
		C818.7,681.7,818,682.4,817.2,682.4z"/>
	<circle class="st0" cx="710.6" cy="657" r="10.1"/>
	<circle class="st0" cx="756.1" cy="657" r="10.1"/>
	<circle class="st0" cx="798.2" cy="657" r="10.1"/>
	<path class="st0" d="M758.7,634.8h-5.2c-1.2,0-2.2-1-2.2-2.2V498.1c0-1.2,1-2.2,2.2-2.2h5.2c1.2,0,2.2,1,2.2,2.2v134.5
		C760.9,633.8,759.9,634.8,758.7,634.8z"/>
	<path class="st0" d="M799.7,634.8h-5.2c-1.2,0-2.2-1-2.2-2.2V498.1c0-1.2,1-2.2,2.2-2.2h5.2c1.2,0,2.2,1,2.2,2.2v134.5
		C801.9,633.8,801,634.8,799.7,634.8z"/>
	<path class="st0" d="M713.2,634.8H708c-1.2,0-2.2-1-2.2-2.2V498.1c0-1.2,1-2.2,2.2-2.2h5.2c1.2,0,2.2,1,2.2,2.2v134.5
		C715.4,633.8,714.4,634.8,713.2,634.8z"/>
	<path class="st17" d="M864.1,682.4h-43.9c-0.8,0-1.5-0.7-1.5-1.5V479c0-0.8,0.7-1.5,1.5-1.5h43.9c0.8,0,1.5,0.7,1.5,1.5v201.9
		C865.6,681.7,864.9,682.4,864.1,682.4z"/>
	<circle class="st0" cx="844" cy="657" r="10.1"/>
	<path class="st0" d="M846.6,634.8h-5.2c-1.2,0-2.2-1-2.2-2.2V498.1c0-1.2,1-2.2,2.2-2.2h5.2c1.2,0,2.2,1,2.2,2.2v134.5
		C848.8,633.8,847.9,634.8,846.6,634.8z"/>
</g>
</svg>
