<?xml version="1.0" encoding="utf-8"?>
<!-- Generator: Adobe Illustrator 26.0.3, SVG Export Plug-In . SVG Version: 6.00 Build 0)  -->
<svg version="1.1" id="Слой_1" xmlns="http://www.w3.org/2000/svg" xmlns:xlink="http://www.w3.org/1999/xlink" x="0px" y="0px"
	 viewBox="0 0 612 208" style="enable-background:new 0 0 612 208;" xml:space="preserve">
<style type="text/css">
	.st0{display:none;fill:#09E0A8;}
	.st1{fill:#044761;}
	.st2{display:none;fill:none;stroke:#000000;stroke-miterlimit:10;}
	.st3{opacity:0.5;fill:#196F89;}
	.st4{opacity:0.5;fill:#03232D;}
	.st5{opacity:0.5;fill:#033244;}
	.st6{opacity:0.5;fill:#FCFCFC;}
</style>
<path class="st0" d="M64.5,137.2c-11.6-3.1-19.3-5.1-29.4-10.3C29.6,124,5.2,111.3-4.2,92c-19.1-39.1,22.7-105.8,50.8-104
	c18.5,1.2,15.7,31,48,50.2c34.5,20.5,60.7-0.1,84.1,21.5c11.5,10.6,14.3,27.2,19.8,60.3c1,6.3,13.7,84.2-1.9,88.9
	c-9.6,2.9-13.8-26.9-46.6-46.3C142.1,157.8,116.1,150.8,64.5,137.2z"/>
<g>
	<path d="M202,55h18.6c5,0,9.4,1.4,13.3,4.1c3.8,2.8,7.1,6.5,9.7,11.2c2.6,4.8,4.6,10.3,5.9,16.7c1.4,6.4,2,13.2,2,20.4
		s-0.7,14-2,20.4c-1.4,6.4-3.3,12-5.9,16.7c-2.6,4.8-5.8,8.5-9.7,11.2c-3.9,2.8-8.3,4.1-13.3,4.1H202V55z M214,155.5h6.6
		c3.1,0,5.8-1.2,8.2-3.8c2.3-2.5,4.3-5.9,5.9-10.3c1.6-4.4,2.8-9.5,3.6-15.3c0.8-5.8,1.2-12.1,1.2-18.7s-0.4-12.8-1.2-18.7
		c-0.8-5.9-2-11-3.6-15.3c-1.6-4.4-3.6-7.8-5.9-10.3c-2.4-2.5-5.1-3.8-8.2-3.8H214V155.5z"/>
	<path d="M265,55h32.7l1.5,4.5H277v31.8h16.8v4.5H277v59.7h22.2l-1.5,4.5H265V55z"/>
	<path d="M309.7,55H331c3.5,0,6.7,0.7,9.6,2c2.9,1.3,5.4,3.1,7.5,5.4c2.1,2.3,3.7,5,4.9,8.1c1.1,3.1,1.7,6.4,1.7,9.9
		c0,5.2-1.2,9.9-3.7,13.9c-2.5,4.1-5.8,7.2-10,9.2c5.1,2.2,9.2,5.7,12.2,10.6c3,4.9,4.5,10.4,4.5,16.6c0,4-0.7,7.8-2.1,11.4
		c-1.4,3.6-3.3,6.7-5.8,9.4c-2.5,2.7-5.4,4.8-8.8,6.3c-3.4,1.6-7.2,2.3-11.2,2.3h-20.1V55z M321.7,101h9.3c1.8,0,3.4-0.5,4.9-1.6
		c1.4-1.1,2.7-2.6,3.7-4.4c1-1.8,1.8-4.1,2.3-6.6c0.5-2.5,0.8-5.2,0.8-8c0-2.9-0.3-5.6-0.8-8.2c-0.6-2.5-1.3-4.7-2.3-6.6
		c-1-1.8-2.2-3.3-3.7-4.4c-1.5-1.1-3.1-1.6-4.9-1.6h-9.3V101z M321.7,155.5h8.1c2.4,0,4.6-0.6,6.5-2c2-1.3,3.6-3.1,5-5.3
		c1.4-2.2,2.5-4.9,3.2-8c0.8-3,1.1-6.3,1.1-9.7c0-3.5-0.4-6.8-1.1-9.8s-1.8-5.6-3.2-8c-1.4-2.3-3.1-4.1-5-5.4c-2-1.3-4.1-2-6.5-2
		h-8.1V155.5z"/>
	<path d="M369.7,55h32.7l1.5,4.5h-22.2v31.8h16.8v4.5h-16.8v59.7h22.2l-1.5,4.5h-32.7V55z"/>
	<path d="M457.9,55l1.5,4.5h-19.5V160h-12V59.5h-19.5l1.5-4.5H457.9z"/>
	<path d="M477.4,154c0,1.7-0.6,3.1-1.7,4.3c-1.2,1.2-2.6,1.7-4.3,1.7c-1.7,0-3.1-0.6-4.3-1.7c-1.2-1.1-1.7-2.6-1.7-4.3
		c0-1.7,0.6-3.1,1.7-4.3c1.1-1.1,2.6-1.7,4.3-1.7c1.7,0,3.1,0.6,4.3,1.7C476.8,150.9,477.4,152.3,477.4,154z"/>
	<path d="M489.4,55h21.3c3.5,0,6.7,0.7,9.6,2c2.9,1.3,5.4,3.1,7.5,5.4c2.1,2.3,3.7,5,4.9,8.1c1.1,3.1,1.7,6.4,1.7,9.9
		c0,5.2-1.2,9.9-3.7,13.9c-2.5,4.1-5.8,7.2-10,9.2c5.1,2.2,9.2,5.7,12.2,10.6c3,4.9,4.5,10.4,4.5,16.6c0,4-0.7,7.8-2.1,11.4
		c-1.4,3.6-3.3,6.7-5.8,9.4c-2.5,2.7-5.4,4.8-8.8,6.3c-3.4,1.6-7.2,2.3-11.2,2.3h-20.1V55z M501.4,101h9.3c1.8,0,3.4-0.5,4.9-1.6
		c1.4-1.1,2.7-2.6,3.7-4.4c1-1.8,1.8-4.1,2.3-6.6c0.5-2.5,0.8-5.2,0.8-8c0-2.9-0.3-5.6-0.8-8.2c-0.6-2.5-1.3-4.7-2.3-6.6
		c-1-1.8-2.2-3.3-3.7-4.4c-1.5-1.1-3.1-1.6-4.9-1.6h-9.3V101z M501.4,155.5h8.1c2.4,0,4.6-0.6,6.5-2c2-1.3,3.6-3.1,5-5.3
		c1.4-2.2,2.5-4.9,3.2-8c0.8-3,1.1-6.3,1.1-9.7c0-3.5-0.4-6.8-1.1-9.8s-1.8-5.6-3.2-8c-1.4-2.3-3.1-4.1-5-5.4c-2-1.3-4.1-2-6.5-2
		h-8.1V155.5z"/>
	<path d="M556.4,128.5l-16-73.5h12l13.2,66.3L580.1,55h4.5l-16.2,73.5V160h-12V128.5z"/>
</g>
<rect x="28" y="31" class="st1" width="146.5" height="147"/>
<rect x="105.5" y="104.5" class="st2" width="100" height="100"/>
<rect x="105.5" y="4.5" class="st2" width="100" height="100"/>
<polygon class="st3" points="175,178.5 27.5,31 27.5,178.5 "/>
<polygon class="st4" points="27.5,131.5 127.5,31.5 27.5,31.5 "/>
<polygon class="st5" points="27.5,78.5 127.5,178.5 27.5,178.5 "/>
<path class="st6" d="M128,31c15.7,0,31.3,0,47,0c-0.1,30.7-0.2,61.4-0.1,92.1c0,18.3,0.1,36.6,0.1,54.9c-32.3-32.3-64.7-64.7-97-97"
	/>
</svg>
