<?xml version="1.0" encoding="utf-8"?>
<!-- Generator: Adobe Illustrator 26.0.3, SVG Export Plug-In . SVG Version: 6.00 Build 0)  -->
<svg version="1.1" id="Layer_1" xmlns="http://www.w3.org/2000/svg" xmlns:xlink="http://www.w3.org/1999/xlink" x="0px" y="0px"
	 viewBox="0 0 1025.9 806.1" style="enable-background:new 0 0 1025.9 806.1;" xml:space="preserve">
<style type="text/css">
	
		.st0{fill:none;stroke:#B8B8B5;stroke-width:2;stroke-linecap:round;stroke-linejoin:round;stroke-miterlimit:10;stroke-dasharray:12,25;}
	.st1{fill:#B8B8B5;stroke:#000000;stroke-width:2;stroke-miterlimit:10;}
	.st2{fill:#65098C;}
	.st3{fill:#FFFFFF;stroke:#000000;stroke-width:2;stroke-miterlimit:10;}
	.st4{fill:#FFFFFF;}
	.st5{fill:#FFFFFF;stroke:#000000;stroke-width:2;stroke-linecap:round;stroke-linejoin:round;stroke-miterlimit:10;}
	.st6{fill:none;stroke:#000000;stroke-width:2;stroke-linecap:round;stroke-linejoin:round;stroke-miterlimit:10;}
	.st7{fill:none;stroke:#000000;stroke-width:4;stroke-linecap:round;stroke-linejoin:round;stroke-miterlimit:10;}
	.st8{opacity:0.17;fill:#FFFFFF;enable-background:new    ;}
	.st9{stroke:#000000;stroke-width:2;stroke-linecap:round;stroke-linejoin:round;stroke-miterlimit:10;}
	.st10{fill:#FFFFFF;stroke:#B8B8B5;stroke-width:2;stroke-miterlimit:10;}
	.st11{fill:#49065C;}
	.st12{fill:#B8B8B5;}
	.st13{display:none;fill:#B8B8B5;}
	.st14{fill:none;stroke:#000000;stroke-width:2;stroke-miterlimit:10;}
	.st15{fill:#FFFFFF;stroke:#B8B8B5;stroke-width:2;stroke-linecap:round;stroke-linejoin:round;stroke-miterlimit:10;}
	.st16{fill:none;stroke:#B8B8B5;stroke-width:2;stroke-linecap:round;stroke-linejoin:round;stroke-miterlimit:10;}
</style>
<path class="st0" d="M527.7,174.4c-67.9-74.2-107-60.1-135-38c-81.9,64.5,86.6,253,86.6,253"/>
<path class="st0" d="M559,166.8c-7.2-52.5,96.8-96.6,158.5-52.5c50.7,36.2,19.6,62.2,19.6,62.2"/>
<g id="комп">
	<rect x="586.9" y="447.1" class="st1" width="68.9" height="129.8"/>
	<path class="st1" d="M763.5,593H479.1c-7.9,0-14.3-6.4-14.3-14.3l0,0c0-7.9,6.4-14.3,14.3-14.3h284.4c7.9,0,14.3,6.4,14.3,14.3l0,0
		C777.8,586.6,771.4,593,763.5,593z"/>
	<rect x="369.6" y="166.8" class="st2" width="506.3" height="270.2"/>
	<g id="человек">
		<path class="st3" d="M519.6,287.9c0.4-9.2-8.7-28.1-8.9-44.1c-0.1-14.9,11.1-21.3,15.1-21.9c5.6-0.8,13.5,1.5,13.4,6.2
			c0,1.7-1.1,23.3-0.9,28.8s4.8-3.4,11.5-6.6s9.3-1.1,3.4,5.5c-8.8,9.8-8.6,13.2-12.2,16.1c-5.7,4.5-4,10.6-4.4,14.2
			C536.3,289.8,519.6,287.9,519.6,287.9z"/>
		<path class="st3" d="M630.9,338.1c0,0,0.9-10.6,4.8-13.1c3.9-2.5,66-6.5,73.2,0c4.4,4.3,8.4,10,8.6,16.2c0,0-24.8,0.5-48.1-0.5
			C652.4,340,636.4,337.4,630.9,338.1z"/>
		<rect x="647.2" y="293.2" class="st4" width="54.7" height="54.7"/>
		<path d="M702,293.2v9.9c-5.6,9.1-15.7,15.1-27.2,15.1h-14.6c-4.6,0-9-1-12.9-2.7v-22.3H702z"/>
		<path class="st5" d="M765.7,368.5C752.4,350.2,734,341,716,336.4l-24.1,17.3l-60.3-16.9c-3.2,0.9-6.4,1.9-9.5,3.1l0,0
			c-15,5.1-66.2,28.6-66.2,28.6s-2.6-85.6-9.7-86.6c-20.1-2.9-39.8-4.2-38.4,5.1c2.5,16.3-4.9,113.9,10.9,124.2
			c12.6,8.2,81.4-7.1,97.9-10.9c-4.4,27.8-3.5,65.1-3.5,65.1h176C788.9,465.2,790.1,402.1,765.7,368.5z"/>
		<path d="M609.6,469.1c-0.6-0.1-0.9-0.6-0.9-1.2l7.3-74.4c0.1-0.6,0.6-1,1.2-1c0.6,0.1,1,0.6,1,1.2l-7.3,74.4
			C610.8,468.8,610.3,469.2,609.6,469.1L609.6,469.1z"/>
		<polyline class="st6" points="647.2,331.9 647.2,293.2 702,293.2 702,330 		"/>
		<path d="M738.7,462.9L738.7,462.9c-0.6,0.1-1.1-0.3-1.2-0.8l0,0l-13.3-71.4c-0.1-0.6,0.3-1.1,0.8-1.2l0,0c0.6-0.1,1.1,0.2,1.3,0.8
			l0,0l13.3,71.4C739.7,462.2,739.3,462.8,738.7,462.9L738.7,462.9z"/>
		<path class="st3" d="M684.6,308.4h-22.5c-15.5,0-28.1-12.6-28.1-28.1v-55.7h78.7v55.7C712.7,295.8,700.1,308.4,684.6,308.4z"/>
		<path class="st5" d="M709.3,252.9c6.1-5.2,16.8-4.3,16.1,6c-0.2,4.7-1.9,9.2-5.1,12.7c-2.3,2.5-5.6,3.8-8.9,3.7"/>
		<path class="st5" d="M635.3,275.4c-3.3,0.1-6.6-1.2-8.9-3.7c-3.1-3.5-4.9-8-5.1-12.7c-0.7-10.3,10-11.2,16.1-6"/>
		<ellipse cx="655.6" cy="253.8" rx="3" ry="5.7"/>
		<ellipse cx="688.9" cy="253.8" rx="3" ry="5.7"/>
		<path class="st6" d="M669.6,290.6c1.8,0.6,12.4,0.1,14.1-4.2"/>
		<path class="st6" d="M668.3,252.9c-2.2,9.6-7.6,14.7-6.8,17.1s6.8,6.4,6.8,6.4"/>
		<path d="M702,333.1l-0.2,0.5l-28.4,62.5c0,0-24.3-55.1-26-62.5c0-0.2-0.1-0.4-0.1-0.5c0,0,0.3,0.2,0.9,0.4
			c2.9,1.4,13,5.6,25.4,5.6s24.1-4.3,27.4-5.6C701.6,333.2,702,333.1,702,333.1z"/>
		<polyline class="st5" points="645.7,328.7 673.3,396.1 670.5,409 650,368.9 650.2,359.3 641.3,353.3 631.1,336.4 		"/>
		<polyline class="st5" points="702.5,328.7 674.6,396.1 677.7,409 698,368.9 697.7,359.3 706.6,353.3 716.5,336.3 		"/>
		<path class="st3" d="M697.9,205.4c-26.5-7.6-36.2-2.3-42.9-0.6c-6.7,1.8-26,8.5-24.7,30.6c0.2,3,0.7,7.1,1.8,11.2
			c1.6,6.3,4,6.1,7.1,8.3c2.6,1.8,1.9-10.2,2.8-18.7c0.3-2.4,1.7-4.5,3.9-5.5c2.4-1.2,4.1-2.1,5.4-2.8c2-1.1,4.3-1.3,6.4-0.3
			c12,5.5,30.5,7.3,43.2,7.9c3.8,0.2,6.7,3.3,6.7,7c-0.1,6.2,0.3,10.6,1.8,9.6c2.2-1.4,4.9,1.7,5.6-2.1c0.4-2.5,0.3-9.1,0.2-13.3
			c0-0.8,0.1-1.5,0.3-2.3C716.9,229.4,720.7,211.9,697.9,205.4z"/>
		<path d="M721.5,247.9c0.1-1.4,0.2-2.8,0.2-4.2c0-28.2-21.7-51.1-48.4-51.1s-48.4,22.9-48.4,51.1c0,1.4,0.1,2.9,0.2,4.3
			c-2.8,2.1-5,6.4-5.4,11.6c-0.6,7.7,2.7,14.3,7.5,14.8c0.9,0.1,1.8,0,2.6-0.3c1.1-0.4,2.2-1.1,3.1-2.1c1-2.3,1.8-5.8,2.4-9.7
			c0.6-4,0.6-7.6,0.3-10.1c-0.6-1.3-1.3-2.4-2.1-3.3c-1.1-1.2-2.5-2-4-2.1c-0.3,0-0.5,0-0.8,0c0-1,0-1.9,0-2.9
			c0-26.1,20-47.4,44.6-47.4s44.6,21.3,44.6,47.4c0,1.2-0.1,2.4-0.1,3.6c-1,0.2-1.9,0.6-2.8,1.3c-1,0.7-1.8,1.7-2.6,2.9
			c-0.6,2.4-1,6-1,10.1c0,4,0.4,7.6,1,10.1c0.8,1.2,1.7,2.1,2.8,2.7c0.8,0.5,1.6,0.7,2.5,0.8c4.8,0.3,9.1-5.6,9.5-13.3
			C727.5,255.4,725.1,249.8,721.5,247.9z"/>
		<path class="st6" d="M627.5,268.2c1.5,11,19.1,19.6,25.1,20.4"/>
		<path class="st7" d="M659.2,290.3c-1.8-0.2-4.5-0.8-4.5-0.8"/>
	</g>
	<polygon class="st8" points="372.1,422.7 854.8,169.8 875.2,192.9 373.8,433.3 	"/>
	<path class="st9" d="M861.1,149.4H381.5c-12.8,0-23.2,10.4-23.2,23.2v297.9c0,12.8,10.4,23.2,23.2,23.2h479.6
		c12.8,0,23.2-10.4,23.2-23.2V172.6C884.3,159.8,873.9,149.4,861.1,149.4z M373.8,196.4c0-11,8.9-19.9,19.9-19.9h455.2
		c11,0,19.9,8.9,19.9,19.9v236.9h-495L373.8,196.4L373.8,196.4z"/>
	<path class="st1" d="M884.3,447.1v23.4c0,12.8-10.4,23.2-23.2,23.2H381.5c-12.8,0-23.2-10.4-23.2-23.2v-23.4H884.3z"/>
</g>
<g id="персонаж">
	<g id="клавиатура">
		<path class="st3" d="M741.5,721.8H378c-8.9,0-16.1-7.2-16.1-16.1V642c0-8.9,7.2-16.1,16.1-16.1h363.4c8.9,0,16.1,7.2,16.1,16.1
			v63.7C757.6,714.6,750.4,721.8,741.5,721.8z"/>
		<path class="st10" d="M657.7,709h-3.8c-4,0-7.3-3.3-7.3-7.3l0,0c0-4,3.3-7.3,7.3-7.3h3.8c4,0,7.3,3.3,7.3,7.3l0,0
			C665,705.8,661.7,709,657.7,709z"/>
		<path class="st10" d="M632.6,709h-3.8c-4,0-7.3-3.3-7.3-7.3l0,0c0-4,3.3-7.3,7.3-7.3h3.8c4,0,7.3,3.3,7.3,7.3l0,0
			C639.9,705.8,636.6,709,632.6,709z"/>
		<path class="st10" d="M607.5,709h-3.8c-4,0-7.3-3.3-7.3-7.3l0,0c0-4,3.3-7.3,7.3-7.3h3.8c4,0,7.3,3.3,7.3,7.3l0,0
			C614.8,705.8,611.5,709,607.5,709z"/>
		<path class="st10" d="M632.6,685.8h-3.8c-4,0-7.3-3.3-7.3-7.3l0,0c0-4,3.3-7.3,7.3-7.3h3.8c4,0,7.3,3.3,7.3,7.3l0,0
			C639.9,682.5,636.6,685.8,632.6,685.8z"/>
		<path class="st10" d="M563.6,709h-3.8c-4,0-7.3-3.3-7.3-7.3l0,0c0-4,3.3-7.3,7.3-7.3h3.8c4,0,7.3,3.3,7.3,7.3l0,0
			C570.9,705.8,567.6,709,563.6,709z"/>
		<path class="st10" d="M538.5,709h-3.8c-4,0-7.3-3.3-7.3-7.3l0,0c0-4,3.3-7.3,7.3-7.3h3.8c4,0,7.3,3.3,7.3,7.3l0,0
			C545.7,705.8,542.5,709,538.5,709z"/>
		<path class="st10" d="M563.6,690.1h-16.7c-4,0-7.3-3.3-7.3-7.3l0,0c0-4,3.3-7.3,7.3-7.3h16.7c4,0,7.3,3.3,7.3,7.3l0,0
			C570.9,686.9,567.6,690.1,563.6,690.1z"/>
		<path class="st10" d="M528.1,690.1h-3.8c-4,0-7.3-3.3-7.3-7.3l0,0c0-4,3.3-7.3,7.3-7.3h3.8c4,0,7.3,3.3,7.3,7.3l0,0
			C535.3,686.9,532.1,690.1,528.1,690.1z"/>
		<path class="st10" d="M563.6,651.6h-3.8c-4,0-7.3-3.3-7.3-7.3l0,0c0-4,3.3-7.3,7.3-7.3h3.8c4,0,7.3,3.3,7.3,7.3l0,0
			C570.9,648.3,567.6,651.6,563.6,651.6z"/>
		<path class="st10" d="M538.5,651.6h-3.8c-4,0-7.3-3.3-7.3-7.3l0,0c0-4,3.3-7.3,7.3-7.3h3.8c4,0,7.3,3.3,7.3,7.3l0,0
			C545.7,648.3,542.5,651.6,538.5,651.6z"/>
		<path class="st10" d="M513.4,651.6h-3.8c-4,0-7.3-3.3-7.3-7.3l0,0c0-4,3.3-7.3,7.3-7.3h3.8c4,0,7.3,3.3,7.3,7.3l0,0
			C520.6,648.3,517.4,651.6,513.4,651.6z"/>
		<path class="st10" d="M650.1,651.6h-3.8c-4,0-7.3-3.3-7.3-7.3l0,0c0-4,3.3-7.3,7.3-7.3h3.8c4,0,7.3,3.3,7.3,7.3l0,0
			C657.4,648.3,654.1,651.6,650.1,651.6z"/>
		<path class="st10" d="M625.5,651.6h-3.8c-4,0-7.3-3.3-7.3-7.3l0,0c0-4,3.3-7.3,7.3-7.3h3.8c4,0,7.3,3.3,7.3,7.3l0,0
			C632.8,648.3,629.5,651.6,625.5,651.6z"/>
		<path class="st10" d="M600.4,651.6h-3.8c-4,0-7.3-3.3-7.3-7.3l0,0c0-4,3.3-7.3,7.3-7.3h3.8c4,0,7.3,3.3,7.3,7.3l0,0
			C607.7,648.3,604.4,651.6,600.4,651.6z"/>
		<path class="st10" d="M563.6,671.3h-3.8c-4,0-7.3-3.3-7.3-7.3l0,0c0-4,3.3-7.3,7.3-7.3h3.8c4,0,7.3,3.3,7.3,7.3l0,0
			C570.9,668,567.6,671.3,563.6,671.3z"/>
		<path class="st10" d="M538.5,671.3h-3.8c-4,0-7.3-3.3-7.3-7.3l0,0c0-4,3.3-7.3,7.3-7.3h3.8c4,0,7.3,3.3,7.3,7.3l0,0
			C545.7,668,542.5,671.3,538.5,671.3z"/>
		<path class="st10" d="M513.4,671.3h-3.8c-4,0-7.3-3.3-7.3-7.3l0,0c0-4,3.3-7.3,7.3-7.3h3.8c4,0,7.3,3.3,7.3,7.3l0,0
			C520.6,668,517.4,671.3,513.4,671.3z"/>
		<path class="st10" d="M488.5,651.6h-3.8c-4,0-7.3-3.3-7.3-7.3l0,0c0-4,3.3-7.3,7.3-7.3h3.8c4,0,7.3,3.3,7.3,7.3l0,0
			C495.7,648.3,492.5,651.6,488.5,651.6z"/>
	</g>
	<path class="st3" d="M783.6,620.8c-1.3-33.6,34.5-100.2,46.6-157.3c6.2-29.3,8.1-49.1-6.5-38.4c-13.3,9.8-18.3,66.8-30,71.6
		c-7.2,2.9,24.9-108.8,3.6-98.8c-15.1,7.1-23.1,78.8-26.3,88.6c-4.1,12.7-1.4-37.8-2.4-67.7c-1-29.3-0.9-42.2-9.5-42.4
		c-20.6-0.5-9.9,111-15.7,109.9c-4.5-0.8-10.6-66.5-12.6-79.8c-4.8-30.7-19.3-22-19.2-4.5c0,6.2,4.2,85.5,3.4,105.6
		s-17.4-12.6-42-24.1c-24.5-11.5-34.2-4-12.4,20.1c32.3,35.9,31.6,48.4,44.8,58.9c21,16.6,14.5,38.8,16,52.1
		C722.7,628,783.6,620.8,783.6,620.8z"/>
	<polygon class="st3" points="398.3,618.4 219.6,618.4 227.9,566.8 242.7,474.6 243.4,470.4 388.6,470.4 388.6,470.9 394.7,563 	"/>
	<path class="st3" d="M420.7,344c6.4-40.2,72.8-49.9,69.6-2.7c-0.5,16.4-6.8,32.1-17.7,44.3c-11.4,12.2-29,16.3-44.6,10.4"/>
	<path d="M394.7,563c-40.7-8.7-112.4-3.6-166.8,3.8l14.8-92.2l145.9-3.6L394.7,563z"/>
	<path class="st3" d="M225.7,349.8c-7.3-45.6-82.5-56.5-78.8-3.1c0.6,18.5,7.7,36.3,20.1,50.1c12.9,13.8,32.8,18.4,50.5,11.8"/>
	<g id="наушники">
		<g>
			<path class="st11" d="M169.5,363.3c-14.4-22.9-22.7-49.5-22.7-77.8c0-85.8,75.9-155.6,169.2-155.6s169.2,69.8,169.2,155.6
				c0,28.6-8.4,55.4-23.1,78.4l5.7-45.6c2.7-10.5,4.1-21.5,4.1-32.8c0-79.5-69.9-144.1-155.9-144.1c-85.9,0-155.9,64.7-155.9,144.1
				c0,24.3,6.6,47.3,18.1,67.4L169.5,363.3z"/>
		</g>
		<g>
			<path class="st11" d="M177.1,341.4c-1.7,10.8-4.5,20.4-7.5,26.6c-3,2.7-6.3,4.7-9.8,5.9c-2.6,0.8-5.4,1.2-8.2,0.9
				c-15.1-1.4-25.7-19.6-23.7-40.6s15.8-36.8,30.9-35.4c4.7,0.4,9,2.5,12.6,5.8c2.6,2.4,4.9,5.5,6.7,9.1
				C179.2,320.6,178.9,330.5,177.1,341.4z"/>
			<path d="M177.1,341.4c-1.7,10.8-4.5,20.4-7.5,26.6c-3,2.7-6.3,4.7-9.8,5.9c-3.2-4.9-3.8-19.1-1.2-35.4c2.7-17.2,8.1-31,12.8-33.8
				c2.6,2.4,4.9,5.5,6.7,9.1C179.2,320.6,178.9,330.5,177.1,341.4z"/>
		</g>
		<g>
			<path class="st11" d="M454.4,339.5c0,11,1.3,20.8,3.2,27.5c2.5,3.2,5.4,5.7,8.7,7.3c2.5,1.2,5.1,2,7.9,2.2
				c15.1,0.9,28.5-15.3,29.8-36.3s-9.8-38.8-25-39.8c-4.7-0.3-9.3,1.1-13.4,3.8c-3,2-5.7,4.6-8.1,7.9
				C455.6,318.6,454.4,328.5,454.4,339.5z"/>
			<path d="M454.4,339.5c0,11,1.3,20.8,3.2,27.5c2.5,3.2,5.4,5.7,8.7,7.3c3.9-4.4,6.8-18.3,6.8-34.8c0-17.4-3.1-31.9-7.4-35.4
				c-3,2-5.7,4.6-8.1,7.9C455.6,318.6,454.4,328.5,454.4,339.5z"/>
		</g>
	</g>
	<path class="st3" d="M380.7,547.9c-21.7-2.2-46.2-4.1-72.6-4.1c-29.5,0-55.4,2.6-77.7,5.9c-12.9,1.9-24.5,4.1-35,6.2
		c-46.1,9.1-68.8,16.4-68.5-8.4c0.5-40,11.8-79.1,22-118.2c2-7.7,4-15.4,5.9-23.1c12.6-49.7,15.6-95.4,25.2-145.9
		c7.8-41.3,18.2-62.3,54.7-84.1c24.9-14.1,57.4-13.3,75.5-9.5c2.1,0.5,4,0.9,5.7,1.4c5.5,1.6,11.4,0.9,16.4-1.9
		c0.6-0.4,1.3-0.7,1.9-1c19.8-9.2,59.3,4.9,76.7,15.4c34.4,20.8,37.6,49.6,44.5,73.3c9.3,43,11.4,83,11.4,136.5
		c0.1,49.4,3.6,96.2,13.2,144.6C485.8,563.8,445.4,554.4,380.7,547.9z"/>
	<path class="st2" d="M525.9,688.1c-59.4-82-161.2-89.3-222.1-89.3s-162.6,7.2-222,89.3S25.1,923.9,25.1,923.9h557.3
		C582.5,923.9,585.3,770.1,525.9,688.1z"/>
	<path class="st3" d="M199.8,610.5c0,0,6.6-21.7,16.3-27.8s164.8-16.2,182.7,0c11.1,10.8,21.4,16.1,21.9,31.6
		C420.7,614.3,232.6,606.6,199.8,610.5z"/>
	<path class="st2" d="M472.3,637.9C589.1,704.8,629,994.7,636.5,933s24.7-338.9,74.8-338.9s96.1-9.2,103.6,36.5
		c7.5,45.6,13.3,421.4-109.2,463.4s-194.3,25.9-194.3,25.9l-80.3-404.3"/>
	<path class="st12" d="M380.7,547.9c4.8-33.6,16.9-85.6,38.1-136.2c30.1-71.7-15-215.4-92.7-243.1c25.2-14.9,67.4,1.5,84.8,12
		c34.4,20.8,37.6,49.6,44.5,73.3c9.3,43,11.4,83,11.4,136.5c0.1,49.4,3.6,96.2,13.2,144.6C485.8,563.8,445.4,554.4,380.7,547.9z"/>
	<path class="st13" d="M242.8,317.1c1.7,67.7-78.7,168.6-12.4,232.6c-12.9,1.9-24.5,4.1-35,6.2c-46.1,9.1-68.8,16.4-68.5-8.4
		c0.5-40,11.8-79.1,22-118.2c2-7.7,4-15.4,5.9-23.1c12.6-49.7,15.6-95.4,25.2-145.9c7.8-41.3,18.2-62.3,54.7-84.1
		c24.9-14.1,64.9-13.9,85.2-7.2C272.7,200.9,240.9,241.7,242.8,317.1z"/>
	<path class="st14" d="M380.7,547.9c-21.7-2.2-46.2-4.1-72.6-4.1c-121.9,0-181.7,43.7-181.1,3.7c0.5-40,11.8-79.1,22-118.2
		c2-7.7,4-15.4,5.9-23.1c12.6-49.7,15.6-95.4,25.2-145.9c7.8-41.3,18.2-62.3,54.7-84.1c27.9-15.7,65.1-12.9,81.2-8
		c5.5,1.6,11.4,0.9,16.4-1.9c0.6-0.4,1.3-0.7,1.9-1c19.8-9.2,59.3,4.9,76.7,15.4c34.4,20.8,37.6,49.6,44.5,73.3
		c9.3,43,11.4,83,11.4,136.5c0.1,49.4,3.6,96.2,13.2,144.6C485.8,563.8,445.4,554.4,380.7,547.9z"/>
</g>
<path class="st0" d="M910.8,271c89.6-49.2-18.4-300.7-258.7-231.6C607.1,52.3,532.2,76,532.2,76"/>
<g id="письмо">
	<path class="st15" d="M553.6,43.1L567.2,79c1.8,4.8-0.6,10.1-5.4,11.9l-71.6,27.3c-4.8,1.8-10.1-0.6-11.9-5.4l-13.6-35.9
		c-1-2.5-0.7-5.2,0.4-7.4c1-2,2.7-3.7,5-4.5l71.6-27.3c2.3-0.9,4.6-0.8,6.7,0.1C550.7,38.7,552.6,40.6,553.6,43.1z"/>
	<polyline class="st16" points="474.6,102.9 509.3,60.4 563.5,69.1 	"/>
	<path class="st15" d="M548.4,37.8l-30.7,37.6c-1.2,1.4-3,2.1-4.8,1.8L465,69.5c1-2,2.7-3.7,5-4.5l71.6-27.3
		C543.9,36.9,546.3,37,548.4,37.8z"/>
</g>
</svg>
