<?xml version="1.0" encoding="utf-8"?>
<!-- Generator: Adobe Illustrator 26.0.3, SVG Export Plug-In . SVG Version: 6.00 Build 0)  -->
<svg version="1.1" id="Layer_1" xmlns="http://www.w3.org/2000/svg" xmlns:xlink="http://www.w3.org/1999/xlink" x="0px" y="0px"
	 viewBox="0 0 798.3 795.3" style="enable-background:new 0 0 798.3 795.3;" xml:space="preserve">
<style type="text/css">
	.st0{fill:#5B0B8C;}
	.st1{fill:#FFFFFF;stroke:#000000;stroke-width:2;stroke-linecap:round;stroke-linejoin:round;stroke-miterlimit:10;}
	.st2{fill:#B8B8B8;stroke:#000000;stroke-width:2;stroke-miterlimit:10;}
	.st3{fill:#FFFFFF;}
	.st4{font-family:'ComicSansMS';}
	.st5{font-size:45px;}
	.st6{opacity:0.17;fill:#FFFFFF;}
	.st7{fill:#FFFFFF;stroke:#000000;stroke-width:2;stroke-miterlimit:10;}
	.st8{fill:none;stroke:#000000;stroke-width:2;stroke-linecap:round;stroke-linejoin:round;stroke-miterlimit:10;}
	.st9{fill:#42065C;}
	.st10{fill:#42065C;stroke:#000000;stroke-width:2;stroke-linecap:round;stroke-linejoin:round;stroke-miterlimit:10;}
	.st11{fill:#5B0B8C;stroke:#000000;stroke-width:2;stroke-miterlimit:10;}
	.st12{fill:none;stroke:#000000;stroke-width:9;stroke-linecap:round;stroke-linejoin:round;stroke-miterlimit:10;}
	
		.st13{fill:none;stroke:#B8B8B8;stroke-width:2;stroke-linecap:round;stroke-linejoin:round;stroke-miterlimit:10;stroke-dasharray:12;}
	.st14{fill:none;stroke:#B8B8B8;stroke-width:2;stroke-linecap:round;stroke-linejoin:round;}
	.st15{fill:none;stroke:#B8B8B8;stroke-width:2;stroke-linecap:round;stroke-linejoin:round;stroke-dasharray:11.0306,11.0306;}
	.st16{fill:none;stroke:#B8B8B8;stroke-width:2;stroke-linecap:round;stroke-linejoin:round;stroke-miterlimit:10;}
	.st17{fill:none;stroke:#B8B8B8;stroke-width:2;stroke-miterlimit:10;}
	.st18{fill:#FFFFFF;stroke:#B8B8B8;stroke-width:2;stroke-miterlimit:10;}
	.st19{fill:#FFFFFF;stroke:#000000;stroke-linecap:round;stroke-linejoin:round;stroke-miterlimit:10;}
	.st20{fill:#FFFFFF;stroke:#000000;stroke-width:0.75;stroke-linecap:round;stroke-linejoin:round;stroke-miterlimit:10;}
	.st21{fill:#42065C;stroke:#000000;stroke-linecap:round;stroke-linejoin:round;stroke-miterlimit:10;}
	.st22{fill:#B8B8B8;}
	.st23{fill:#FFFFFF;stroke:#B8B8B8;stroke-width:2;stroke-linecap:round;stroke-linejoin:round;stroke-miterlimit:10;}
</style>
<g id="комп">
	<rect x="270.4" y="284.4" class="st0" width="271.2" height="144.7"/>
	<path class="st1" d="M533.6,275.1H276.7c-6.9,0-12.4,5.6-12.4,12.4v159.5c0,6.9,5.6,12.4,12.4,12.4h256.9c6.9,0,12.4-5.6,12.4-12.4
		V287.5C546,280.7,540.5,275.1,533.6,275.1z M272.6,300.3c0-5.9,4.8-10.7,10.7-10.7h243.8c5.9,0,10.7,4.8,10.7,10.7v126.9H272.6
		V300.3z"/>
	<path class="st2" d="M546,434.5v12.5c0,6.9-5.6,12.4-12.4,12.4H276.7c-6.9,0-12.4-5.6-12.4-12.4v-12.5H546z"/>
	<text transform="matrix(1 0 0 1 281.6833 361.9814)" class="st3 st4 st5">Битрикс 24</text>
	<polygon class="st6" points="271.7,421.5 530.2,286.1 541.2,298.4 272.6,427.2 	"/>
</g>
<path id="мышь" class="st7" d="M566.5,508.3h-25.4v-2.4c0-7,5.7-12.7,12.7-12.7h0c7,0,12.7,5.7,12.7,12.7V508.3z"/>
<g id="стол">
	<rect x="157.6" y="508.3" class="st7" width="507.8" height="25.9"/>
	<rect x="173.1" y="534.3" class="st7" width="476.9" height="25.9"/>
	<rect x="173.1" y="534.3" class="st7" width="25.5" height="169.6"/>
	<rect x="624.5" y="534.3" class="st7" width="25.5" height="169.6"/>
	<rect x="198.6" y="534.3" class="st7" width="95.7" height="42.3"/>
	<rect x="198.6" y="576.5" class="st7" width="95.7" height="42.3"/>
	<ellipse cx="246.4" cy="552.3" rx="4.9" ry="4.4"/>
	<ellipse cx="246.4" cy="596.4" rx="4.9" ry="4.4"/>
</g>
<g id="чашка_кофе">
	<path class="st1" d="M250,484.3c-4,0-7.3,2.7-7.3,6c0,3.3,3.3,6,7.3,6c4,0,7.3-2.7,7.3-6C257.4,487,254.1,484.3,250,484.3z
		 M249.4,494.5c-2.8,0-5.1-1.7-5.1-3.8s2.3-3.8,5.1-3.8c2.8,0,5.1,1.7,5.1,3.8S252.2,494.5,249.4,494.5z"/>
	<path class="st1" d="M235,508.3L235,508.3c-8.6,0-15.6-7-15.6-15.6v-11.1h31.2v11.1C250.6,501.3,243.6,508.3,235,508.3z"/>
	<path class="st8" d="M228.7,476.4c-3.3-5.5,3.3-6.9,3-10.9c-0.2-4-3.9-4.2-4-8.1c0-2.7,2.6-4.4,2.6-4.4"/>
	<path class="st8" d="M233.8,479c-3.9-6.4,6.9-6.1,1.2-19.1"/>
</g>
<g id="персонаж">
	<path class="st9" d="M415.5,702.8c-0.4,6.6-3.4,16.2,3.5,17.7s14.6-0.7,16.7-3.4s21.3-20.3,19.9-25.1c-1.5-4.8-7.3-7.5-15-6.1
		C432.9,687.3,415.5,702.8,415.5,702.8z"/>
	<path class="st9" d="M399.9,711c0.4,6.6,4.7,16.2-2.1,17.7c-6.9,1.6-15-0.4-17.2-3.1c-2.2-2.7-21.5-20.2-20.1-25
		c1.4-4.8,7.2-7.6,14.9-6.2C383.1,695.8,399.9,711,399.9,711z"/>
	<path class="st7" d="M419.5,583.1c-5,0.9-11.5,119.4-6.4,120.8c7.2,1.9,21.9,6.6,25.8,0.2c5-8.2,14.9-121,14.9-121H419.5z"/>
	<path class="st7" d="M393.1,585.3c6.4-3.7,13.5,123.5,8.1,125.4c-7,2.5-23.7,6.9-25.8-0.3c-7.2-25.4-13.7-114.4-13.7-114.4
		L393.1,585.3z"/>
	<path class="st7" d="M446.8,588.2h-80.5c-6.4,0-11.6-5.2-11.6-11.6v-0.8c0-6.4,5.2-11.6,11.6-11.6h80.5c6.4,0,11.6,5.2,11.6,11.6
		v0.8C458.4,583,453.2,588.2,446.8,588.2z"/>
	<path class="st7" d="M541.8,490.7c3.2-3.9,9.6-8.6,17.2-3.1s8.8,10.8,6.4,11.6c-2.5,0.8-12-2.6-16.3-1S541.8,490.7,541.8,490.7z"/>
	
		<ellipse transform="matrix(0.9858 -0.1677 0.1677 0.9858 -53.1107 67.8922)" class="st7" cx="375.4" cy="348.4" rx="3.9" ry="8.9"/>
	
		<ellipse transform="matrix(0.1616 -0.9869 0.9869 0.1616 22.4831 723.2003)" class="st7" cx="436.9" cy="348.4" rx="8.9" ry="3.9"/>
	<polygon class="st10" points="313.9,487.8 362.1,488.3 362.9,512.6 326.2,515.5 	"/>
	<path class="st1" d="M389.5,360c0,7.6-1.6,31-1.6,31l35.6,0.5l-1.3-31.5H389.5z"/>
	<path class="st10" d="M541.7,487.2l-7.5,3.4c-1.9,0.8-4.1,0.3-5.4-1.2c0,0-53.4-84.4-72.6-95.5c-3.3-1.9-10.4-4.9-16.5-4.9h-64.6
		c-7.9,0-20.4,7.8-20.4,7.8c-29.4,19.5-42.9,78.4-46.6,95.5c-0.4,1.7-1.9,8,1.8,13.9c5.9,9.5,23.7,13.6,30.6,2.8l11-41.9
		c5.4,36.8,6,72.3,1.4,106.4c0.2,2.9,2.6,5.2,5.5,5.2h98c2.9,0,5.3-2.3,5.5-5.2c-5.1-27.9-4.8-66.1,1.6-116.3l40.1,53.6
		c7.3,9.3,20.9,10.8,30.1,3.4l16.3-13.1L541.7,487.2z"/>
	<path d="M380.7,358.4c7.9,8.9,9,18.4,25.2,18.8c11.1,0.3,23.1-11.7,25.4-14.8c2.1-2.8,5.4-20.6,6.6-37.4
		c1.1-16.1-12.6-30.1-25.3-31.4s-26.1,7.4-31.8,12.3c-9.7,8.4-7.2,27.8-7,33.9C374,346,376.6,353.7,380.7,358.4z"/>
	<line class="st10" x1="352.2" y1="458.7" x2="351.5" y2="467.1"/>
	<line class="st10" x1="463.5" y1="457.2" x2="463.5" y2="451.6"/>
</g>
<g id="Стул">
	<g>
		<path d="M343.3,528.5l9.6,50.4c0.4,2.2-1,4.3-3.2,4.7c-2,0.4-4-0.9-4.6-2.8l-14.3-49.3c-1-3.4,1-7,4.4-8c3.4-1,7,1,8,4.4
			C343.2,528.1,343.3,528.3,343.3,528.5z"/>
	</g>
	<g>
		<path d="M482.5,531.6l-14.9,48.1c-0.7,2.1-2.9,3.3-5,2.6c-2-0.6-3.1-2.7-2.7-4.7l10.4-49.3c0.7-3.4,4.1-5.6,7.5-4.9
			c3.4,0.7,5.6,4.1,4.9,7.5C482.6,531.2,482.6,531.4,482.5,531.6z"/>
	</g>
	<path class="st11" d="M462.9,605.8H350.2c-2.1,0-3.8-1.7-3.8-3.8v-9.9c0-2.1,1.7-3.8,3.8-3.8h112.7c2.1,0,3.8,1.7,3.8,3.8v9.9
		C466.7,604.1,465,605.8,462.9,605.8z"/>
	<path class="st11" d="M438.6,570.8h-62.4c-7.6,0-13.9-5.9-14.4-13.5L354.9,453c-0.6-8.3,6.1-15.4,14.4-15.4h76.2
		c8.4,0,15,7.1,14.4,15.4L453,557.3C452.5,564.9,446.2,570.8,438.6,570.8z"/>
	<g>
		<path d="M413.2,503.7l-2.3,189.3c0,2.7-2.3,4.9-5,4.9c-2.7,0-4.8-2.2-4.9-4.8l-3.9-189.3c-0.1-4.4,3.4-8.1,7.8-8.2
			c4.4-0.1,8.1,3.4,8.2,7.8C413.2,503.5,413.2,503.7,413.2,503.7z"/>
	</g>
	<path class="st12" d="M405.9,692.9c-3.2,7.2-6.4,35.2-6.4,40.8c0,5.7,0,8.9,0,8.9"/>
	<path class="st12" d="M402,682.4c-23.9,7.2-65,38.7-65,38.7"/>
	<path class="st12" d="M407.4,682.4c23.9,7.2,65,38.7,65,38.7"/>
	<g>
		<circle class="st11" cx="399.5" cy="746.9" r="11.9"/>
		<circle cx="399.5" cy="746.9" r="8.4"/>
	</g>
	<g>
		<circle class="st11" cx="338" cy="728" r="11.9"/>
		<circle cx="338" cy="728" r="8.4"/>
	</g>
	<g>
		<circle class="st11" cx="472.4" cy="728" r="11.9"/>
		<circle cx="472.4" cy="728" r="8.4"/>
	</g>
	<path class="st11" d="M340.4,532.9h-21.7c-2.1,0-3.8-1.7-3.8-3.8v-9.9c0-2.1,1.7-3.8,3.8-3.8h21.7c2.1,0,3.8,1.7,3.8,3.8v9.9
		C344.1,531.2,342.5,532.9,340.4,532.9z"/>
	<path class="st11" d="M495.5,532.9h-21.7c-2.1,0-3.8-1.7-3.8-3.8v-9.9c0-2.1,1.7-3.8,3.8-3.8h21.7c2.1,0,3.8,1.7,3.8,3.8v9.9
		C499.3,531.2,497.6,532.9,495.5,532.9z"/>
</g>
<g id="контакты">
	<path class="st13" d="M546.5,391.5c11.9-8.5,57.8-8.6,57.8-8.6"/>
	<line class="st13" x1="359.7" y1="122.9" x2="443.6" y2="100.2"/>
	<line class="st13" x1="451.3" y1="108.2" x2="451.3" y2="186"/>
	<path class="st13" d="M317.1,170.6c-4.5,21,22.4,90,22.4,104.5"/>
	<path class="st13" d="M361.4,169.1c51,46.1,62.2,38.7,62.2,38.7"/>
	<path class="st13" d="M476.2,200.5c12.5-26.1,54.1-24.1,54.1-24.1"/>
	<g>
		<g>
			<path class="st14" d="M411.5,282.5c-1.6-1.2-3-2.7-4.1-4.3"/>
			<path class="st15" d="M403.8,267.9c-1.6-12,3.1-27.1,11.8-35.4"/>
			<path class="st14" d="M420.1,229.1c1.7-1,3.6-1.8,5.5-2.3"/>
		</g>
	</g>
	<g>
		<path class="st16" d="M264.1,127l-16.9-3.6c-1.6-0.3-2.6-1.9-2.3-3.5l2.4-11.3l22.7,4.8l-2.4,11.3
			C267.2,126.4,265.6,127.4,264.1,127z"/>
		<polyline class="st16" points="256.7,118.3 247.2,108.7 269.9,113.5 256.7,118.3 		"/>
		<line class="st16" x1="260.9" y1="116.8" x2="267.6" y2="124.5"/>
		<line class="st16" x1="245.6" y1="119.1" x2="254.1" y2="115.6"/>
	</g>
	<g>
		<g>
			<path class="st1" d="M600.2,158.1c0-17-10.2-30.9-22.7-30.9c-4.2,0-8.2,1.6-11.5,4.3c-10.8,2.4-19.1,15.1-19.1,30.5
				c0,17,10.2,30.9,22.7,30.9c4.2,0,8.2-1.6,11.5-4.3C591.9,186.2,600.2,173.4,600.2,158.1z"/>
			<ellipse class="st1" cx="554.6" cy="161.7" rx="2.8" ry="3.9"/>
			<ellipse class="st1" cx="593.3" cy="161.7" rx="2.8" ry="3.9"/>
			<rect x="564.6" y="176" class="st1" width="19.1" height="29.2"/>
			<path d="M583.7,176v5.8c-2.1,1-4.4,1.6-6.8,1.6c-4.6,0-8.9-1.8-12.2-5.1V176H583.7z"/>
			<path class="st1" d="M593.6,155.1c0,14.4-8.7,25.5-19.5,25.5s-19.5-9.9-19.5-24.3"/>
			<path class="st8" d="M586.5,131.7c-4.5,9.9-31,19.8-34.4,28"/>
			<path class="st8" d="M578.2,139.1c1.6,2.2,11.9,12.9,16.4,16.8"/>
			<path class="st0" d="M601.5,200.8L601.5,200.8c-7.6,5.7-17.1,9.1-27.4,9.1c-10.3,0-19.7-3.4-27.4-9.1v0c0-7.1,5.8-12.8,12.8-12.8
				h5l5,8.1c1.8,3,6.1,3.1,8.1,0.3l6-8.4h5C595.7,188,601.5,193.8,601.5,200.8z"/>
			<ellipse cx="567.5" cy="157.3" rx="1.7" ry="2.1"/>
			<ellipse cx="580.8" cy="157.3" rx="1.7" ry="2.1"/>
			<path class="st1" d="M569.2,169.9c3.2,2.3,6.3,2.3,9.5,0"/>
			<path class="st1" d="M573.5,158c-0.1,1.6-1,6.3-1,6.3l1.3,1.5"/>
		</g>
		<circle class="st17" cx="574.2" cy="164.4" r="45.5"/>
	</g>
	<g>
		<path class="st18" d="M230.7,89.9c0,14.6-8,27.3-19.9,33.9c-5.6,3.1-12,4.9-18.8,4.9c-6.8,0-13.3-1.8-18.8-4.9
			c-11.9-6.6-19.9-19.3-19.9-33.9c0-21.4,17.4-38.8,38.8-38.8S230.7,68.5,230.7,89.9z"/>
		<path class="st0" d="M211.8,88.2c0-13.1-7.8-23.6-17.4-23.6c-3.2,0-6.3,1.2-8.8,3.3c-8.3,1.8-14.6,11.6-14.6,23.3
			c0,13.1-1.1,12.3,8.5,12.3c3.2,0,19.8,1.1,25.7,0.7C213.5,102.3,211.8,99.9,211.8,88.2z"/>
		<ellipse class="st19" cx="176.9" cy="90.9" rx="2.2" ry="3"/>
		<ellipse class="st19" cx="206.5" cy="90.9" rx="2.2" ry="3"/>
		<rect x="184.6" y="101.9" class="st19" width="14.6" height="22.4"/>
		<path d="M199.2,101.9v2.3c-2.7,3.2-6.2,5.1-10.1,5.1c-1.6,0-3.1-0.3-4.5-0.8v-6.6H199.2z"/>
		<path class="st19" d="M206.8,85.9c0,11-6.7,19.6-14.9,19.6c-8.2,0-14.9-7.6-14.9-18.6l6.9-8.1L206.8,85.9"/>
		<ellipse cx="185.4" cy="88.1" rx="1.3" ry="2.2"/>
		<ellipse cx="198.4" cy="88.1" rx="1.3" ry="2.2"/>
		<path class="st19" d="M188.1,97.2c2.4,1.8,4.8,1.8,7.3,0"/>
		<path class="st19" d="M191.4,88.1c-0.1,1.2-0.8,4.9-0.8,4.9l1,1.2"/>
		<path class="st19" d="M212.1,123.2c-6,3.4-12.9,5.4-20.2,5.4c-7.3,0-14.2-2-20.2-5.4c2.6-5.9,7.1-10.5,12.4-12.8
			c0.5,2.6,3.8,4.6,7.7,4.6c4,0,7.2-2,7.7-4.7C205,112.7,209.5,117.3,212.1,123.2z"/>
		<path class="st17" d="M230.7,89.9c0,14.6-8,27.3-19.9,33.9c-5.6,3.1-12,4.9-18.8,4.9c-6.8,0-13.3-1.8-18.8-4.9
			c-11.9-6.6-19.9-19.3-19.9-33.9c0-21.4,17.4-38.8,38.8-38.8S230.7,68.5,230.7,89.9z"/>
		<path class="st19" d="M184.4,73.5c-0.5,1.5-0.5,5.3-0.5,5.3"/>
	</g>
	<path class="st3" d="M623.6,373c0.2-0.5,0.6-0.9,1.1-0.9c0.7,0,1.3,0.8,1.3,1.8c0,1-0.6,1.8-1.3,1.8c-0.2,0-0.5-0.1-0.7-0.3"/>
	<g>
		<circle class="st17" cx="329.3" cy="147.1" r="38.9"/>
		<g>
			<ellipse class="st1" cx="312.5" cy="141.1" rx="2.8" ry="4.6"/>
			<ellipse class="st1" cx="345.9" cy="141.1" rx="2.8" ry="4.6"/>
			<rect x="319.7" y="154.7" class="st1" width="19.1" height="29.2"/>
			<path class="st1" d="M345.3,126.1l-1.6,27.7c0,0.8-0.2,1.5-0.5,2.2c-1,2.4-3.4,4-6.1,4h-15.7c-2.7,0-5.1-1.6-6.1-4
				c-0.3-0.7-0.5-1.4-0.5-2.2l-1.6-27.7c-0.2-3.8,2.8-7,6.6-7h18.9C342.5,119.1,345.5,122.3,345.3,126.1z"/>
			<ellipse cx="322.6" cy="137" rx="1.7" ry="2.1"/>
			<ellipse cx="335.9" cy="137" rx="1.7" ry="2.1"/>
			<path class="st1" d="M324.3,148.6c3.2,2.3,6.3,2.3,9.5,0"/>
			<path class="st1" d="M328.6,136.7c-0.1,1.6-1,6.3-1,6.3l1.3,1.5"/>
			<path d="M347.7,130c0.1,3.3-1.8,9.6-3.8,9.6c-0.2,0-0.3-0.1-0.4-0.3v-6.2c0-2.7-2.2-4.9-4.9-4.9h-18.7c-2.7,0-4.9,2.2-4.9,4.9
				l0.1,8.2c-0.5,0.6-1.3-3.4-1.6-4.2c-0.8-1.9-3.5-3.7-3.4-7.1c0.3-9.7,14.3-19.6,17.5-19.6c1.8,0,2.9,1.5,4.5,2.7
				C334.8,115.4,347.2,115.6,347.7,130z"/>
			<path d="M343.2,156c-1,2.4-3.4,4-6.1,4h-15.7c-2.7,0-5.1-1.6-6.1-4l-0.4-6.5c1.5,4.1,8.3,8.8,14,8.7c6.6-0.1,13.2-4.4,14.2-7.4
				C343.6,149.3,343.4,152.5,343.2,156z"/>
			<path class="st0" d="M358.8,172.4c-6.9,8.1-17.1,13.3-28.5,13.6c-0.4,0-0.8,0-1.1,0c-0.4,0-0.7,0-1.1,0
				c-11.7-0.3-22.1-5.8-29-14.2c1.4-3,4.7-5.1,8.6-5.1H350C354.2,166.7,357.7,169.1,358.8,172.4z"/>
			<polyline class="st1" points="319.7,166.5 328.2,185.4 338.8,166.4 			"/>
		</g>
		<path class="st17" d="M368.2,147.1c0,9.7-3.5,18.5-9.3,25.3c-6.9,8.1-17.1,13.3-28.5,13.6c-0.4,0-0.8,0-1.1,0c-0.4,0-0.7,0-1.1,0
			c-11.7-0.3-22.1-5.8-29-14.2c-5.5-6.7-8.8-15.3-8.8-24.7c0-21.5,17.4-38.9,38.9-38.9S368.2,125.6,368.2,147.1z"/>
	</g>
	<g>
		<ellipse class="st19" cx="174.1" cy="318.8" rx="2" ry="3.3"/>
		<ellipse class="st19" cx="197.8" cy="318.8" rx="2" ry="3.3"/>
		<rect x="179.2" y="328.4" class="st19" width="13.5" height="20.7"/>
		<path class="st19" d="M197.3,308.2l-1.1,19.6c0,0.5-0.2,1.1-0.4,1.6c-0.7,1.7-2.4,2.9-4.3,2.9h-11.1c-1.9,0-3.6-1.2-4.3-2.8
			c-0.2-0.5-0.3-1-0.4-1.6l-1.1-19.6c-0.2-2.7,2-4.9,4.7-4.9h13.4C195.4,303.3,197.5,305.5,197.3,308.2z"/>
		<ellipse cx="181.3" cy="316" rx="1.2" ry="1.5"/>
		<ellipse cx="190.7" cy="316" rx="1.2" ry="1.5"/>
		<path class="st19" d="M182.5,324.2c2.2,1.7,4.5,1.7,6.7,0"/>
		<path class="st19" d="M185.5,315.7c-0.1,1.1-0.7,4.5-0.7,4.5l0.9,1.1"/>
		<path d="M199.1,311c0.1,2.4-1.3,6.8-2.7,6.8c-0.1,0-0.2-0.1-0.3-0.2v-4.4c0-1.9-1.5-3.4-3.4-3.4h-13.3c-1.9,0-3.4,1.5-3.4,3.4
			l0,5.8c-0.4,0.4-0.9-2.4-1.1-3c-0.5-1.3-2.5-2.6-2.4-5c0.2-6.9,10.1-13.9,12.4-13.9c1.3,0,2.1,1,3.2,1.9
			C189.9,300.6,198.7,300.8,199.1,311z"/>
		<path d="M195.9,329.4c-0.7,1.7-2.4,2.9-4.3,2.9h-11.1c-1.9,0-3.6-1.2-4.3-2.8l-0.3-4.6c1.1,2.9,5.9,6.2,9.9,6.2
			c4.7-0.1,9.4-3.1,10.1-5.2C196.1,324.7,196,326.9,195.9,329.4z"/>
		<path class="st0" d="M206.9,341c-4.9,5.7-12.1,9.4-20.2,9.7c-0.3,0-0.5,0-0.8,0c-0.3,0-0.5,0-0.8,0c-8.3-0.2-15.7-4.1-20.6-10.1
			c1-2.1,3.3-3.6,6.1-3.6h29.9C203.6,337,206.1,338.7,206.9,341z"/>
		<polyline class="st19" points="179.2,336.8 185.3,350.2 192.7,336.8 		"/>
	</g>
	<circle class="st17" cx="185.8" cy="322" r="28.5"/>
	<g>
		<path class="st18" d="M562.1,66c0,7-3.9,13.1-9.6,16.3c-2.7,1.5-5.8,2.3-9.1,2.3c-3.3,0-6.4-0.9-9.1-2.3
			c-5.7-3.2-9.6-9.3-9.6-16.3c0-10.3,8.4-18.7,18.7-18.7S562.1,55.7,562.1,66z"/>
		<path class="st0" d="M553,65.2c0-6.3-3.8-11.4-8.4-11.4c-1.6,0-3,0.6-4.3,1.6c-4,0.9-7,5.6-7,11.2c0,6.3-0.5,5.9,4.1,5.9
			c1.6,0,9.5,0.5,12.4,0.3C553.8,72,553,70.9,553,65.2z"/>
		<ellipse class="st20" cx="536.2" cy="66.5" rx="1" ry="1.4"/>
		<ellipse class="st20" cx="550.5" cy="66.5" rx="1" ry="1.4"/>
		<rect x="539.9" y="71.8" class="st20" width="7" height="10.8"/>
		<path d="M547,71.8v1.1c-1.3,1.5-3,2.4-4.9,2.4c-0.8,0-1.5-0.1-2.2-0.4v-3.2H547z"/>
		<path class="st20" d="M550.6,64.1c0,5.3-3.2,9.4-7.2,9.4s-7.2-3.7-7.2-9l3.3-3.9L550.6,64.1"/>
		<ellipse cx="540.3" cy="65.2" rx="0.6" ry="1"/>
		<ellipse cx="546.5" cy="65.2" rx="0.6" ry="1"/>
		<path class="st20" d="M541.6,69.6c1.2,0.9,2.3,0.9,3.5,0"/>
		<path class="st20" d="M543.2,65.2c0,0.6-0.4,2.3-0.4,2.3l0.5,0.6"/>
		<path class="st20" d="M553.2,82.1c-2.9,1.7-6.2,2.6-9.7,2.6c-3.5,0-6.8-0.9-9.7-2.6c1.3-2.8,3.4-5,6-6.1c0.3,1.3,1.8,2.2,3.7,2.2
			c1.9,0,3.5-1,3.7-2.2C549.8,77,551.9,79.3,553.2,82.1z"/>
		<path class="st17" d="M562.1,66c0,7-3.9,13.1-9.6,16.3c-2.7,1.5-5.8,2.3-9.1,2.3c-3.3,0-6.4-0.9-9.1-2.3
			c-5.7-3.2-9.6-9.3-9.6-16.3c0-10.3,8.4-18.7,18.7-18.7S562.1,55.7,562.1,66z"/>
		<path class="st20" d="M539.8,58.1c-0.2,0.7-0.3,2.5-0.3,2.5"/>
	</g>
	<g>
		<g>
			<rect x="446.2" y="222.5" class="st19" width="13.9" height="16.2"/>
			<path d="M458.6,224.9c-1.4,2.5-9.1,3.6-12.4,4v-4.2L458.6,224.9z"/>
			<path class="st19" d="M451.4,192.6c-6.4,0-11.7,6.3-12.7,14.6c-0.1,0.7-0.4,1.4-0.9,1.9c-2.2,2.2-3.5,3-2.3,4.4
				c0.8,1,2.3,1.7,3.7,2.1c1.8,6.6-2.8,12.3,12.1,11.4c7.1-0.4,12.6-4.2,12.6-13.7C464,203.8,458.5,192.6,451.4,192.6z"/>
			<ellipse cx="444.6" cy="208.3" rx="0.9" ry="1.8"/>
			<path class="st9" d="M437.8,194.9c-0.7,0.2-0.9,1.1-0.4,1.7c2.6,2.8,3.4,5.1,9.8,3.9c8.4-1.7,3.3,14.5,6.1,12.5
				c2.8-2,4.1-4.1,3.9-1.8s-4.8,7.4-1.5,10c3.3,2.6,5.5,3.9,7.1,2.2c1.5-1.7,7.4-13.8,4.9-20.4c-2.5-6.6-12.4-12.2-15.5-12.1
				C449.8,191.1,441.4,193.7,437.8,194.9z"/>
			<path class="st19" d="M455.1,210.9c0.7-0.6,1.5-0.9,2.3-0.6c1.1,0.5,1.6,2,1,3.4s-2,2.2-3.1,1.8"/>
			<path class="st19" d="M441.7,219.2c0.5,0.3,3.3,0.6,4.9-0.3"/>
			<path class="st19" d="M464.3,240c-3.9,2-8.3,3.1-13,3.1c-3.1,0-6.1-0.5-9-1.4c2.1-8.7,3.9-9.7,3.9-11.3c0,0,9.5-0.9,13.9-0.3
				c0.6,0.1,1.2,0.2,1.5,0.3C462.6,230.7,463.6,234.8,464.3,240z"/>
		</g>
		<path class="st17" d="M479.9,214.5c0,11.1-6.3,20.7-15.5,25.4c-3.9,2-8.3,3.1-13,3.1c-3.1,0-6.1-0.5-9-1.4
			c-11.4-3.8-19.6-14.5-19.6-27.1c0-15.8,12.8-28.5,28.5-28.5S479.9,198.8,479.9,214.5z"/>
	</g>
	<g>
		<g>
			<rect x="622.2" y="381.7" class="st20" width="10.5" height="12.3"/>
			<path d="M631.6,383.5c-1,1.9-6.9,2.8-9.4,3v-3.2L631.6,383.5z"/>
			<path class="st20" d="M626.1,359c-4.9,0-8.9,4.8-9.6,11.1c-0.1,0.5-0.3,1.1-0.7,1.5c-1.6,1.7-2.7,2.3-1.7,3.4
				c0.6,0.7,1.7,1.3,2.8,1.6c1.4,5-2.1,9.3,9.2,8.6c5.4-0.3,9.6-3.2,9.6-10.4S631.5,359,626.1,359z"/>
			<ellipse cx="620.9" cy="370.9" rx="0.7" ry="1.4"/>
			<path d="M615.7,360.7c-0.6,0.2-0.7,0.9-0.3,1.3c2,2.1,2.6,3.9,7.5,2.9c6.4-1.3,2.5,11,4.7,9.5s3.1-3.1,3-1.3
				c-0.2,1.8-3.6,5.7-1.1,7.6c2.5,2,4.2,3,5.4,1.7s5.7-10.5,3.8-15.5c-1.9-5-9.5-9.3-11.8-9.2C624.9,357.8,618.5,359.8,615.7,360.7z
				"/>
			<path class="st20" d="M628.9,372.9c0.5-0.5,1.2-0.7,1.7-0.4c0.9,0.3,1.2,1.5,0.7,2.6c-0.4,1.1-1.5,1.7-2.4,1.4"/>
			<path class="st20" d="M618.8,379.2c0.4,0.2,2.5,0.5,3.7-0.2"/>
			<path class="st9" d="M635.9,394.9c-3,1.5-6.3,2.4-9.9,2.4c-2.4,0-4.7-0.4-6.8-1.1c1.6-6.6,2.9-7.4,2.9-8.6c0,0,7.3-0.7,10.5-0.3
				c0.5,0.1,0.9,0.1,1.2,0.3C634.6,387.9,635.4,391,635.9,394.9z"/>
		</g>
		<path class="st17" d="M647.7,375.6c0,8.4-4.8,15.7-11.8,19.3c-3,1.5-6.3,2.4-9.9,2.4c-2.4,0-4.7-0.4-6.8-1.1
			c-8.6-2.9-14.9-11-14.9-20.6c0-12,9.7-21.7,21.7-21.7C638,353.9,647.7,363.7,647.7,375.6z"/>
	</g>
	<path class="st13" d="M259.6,338.8c-36.9,5.8-48.5-3.4-48.5-3.4"/>
	<path class="st13" d="M199.1,296.3c-12.6-30.2,10.7-73.9,10.7-73.9"/>
	<path class="st13" d="M259.6,400c-51.7-2.5-133,25.2-181.8-29.1c-41-45.7,0-117.5,0-117.5"/>
	<path class="st13" d="M214.3,122.9c21,31.4,9.5,55.8,9.5,55.8"/>
	<path class="st13" d="M557.4,424c59.7,4.4,147.8,18.4,142.8-62c-3.8-61-45.3-78.5-45.3-78.5"/>
	<path class="st13" d="M601.5,122.9c-4.5-21.8,63.9-41.3,63.9-41.3"/>
	<path class="st13" d="M566.5,66.2c21.8,8,98.9,3.3,98.9,3.3"/>
	<path class="st13" d="M528.6,85.7c-19.5,20.7-58.6,14.5-58.6,14.5"/>
	<path class="st13" d="M667.3,179.6c-30.9,15-36.5,54.2-36.5,54.2"/>
	<path class="st13" d="M80,92c39.8,16.2,87.2,79.6,89.2,183.1c0.6,31.5,0,22,0,22"/>
	<g>
		<path class="st18" d="M719.6,164.4c0,10.7-5.9,20.1-14.7,24.9c-4.1,2.3-8.8,3.6-13.9,3.6c-5,0-9.8-1.3-13.9-3.6
			c-8.7-4.9-14.7-14.2-14.7-24.9c0-15.8,12.8-28.5,28.5-28.5C706.8,135.9,719.6,148.7,719.6,164.4z"/>
		<path class="st0" d="M705.7,163.2c0-9.6-5.7-17.4-12.8-17.4c-2.4,0-4.6,0.9-6.5,2.4c-6.1,1.3-10.8,8.5-10.8,17.2
			c0,9.6-0.8,9.1,6.3,9.1c2.4,0,14.5,0.8,18.9,0.5C706.9,173.6,705.7,171.8,705.7,163.2z"/>
		<ellipse class="st20" cx="680" cy="165.2" rx="1.6" ry="2.2"/>
		<ellipse class="st20" cx="701.8" cy="165.2" rx="1.6" ry="2.2"/>
		<rect x="685.6" y="173.3" class="st20" width="10.8" height="16.5"/>
		<path d="M696.4,173.3v1.7c-2,2.3-4.6,3.7-7.4,3.7c-1.2,0-2.3-0.2-3.3-0.6v-4.8H696.4z"/>
		<path class="st20" d="M702,161.5c0,8.1-4.9,14.4-11,14.4c-6.1,0-11-5.6-11-13.7l5-6L702,161.5"/>
		<ellipse cx="686.3" cy="163.2" rx="1" ry="1.6"/>
		<ellipse cx="695.8" cy="163.2" rx="1" ry="1.6"/>
		<path class="st20" d="M688.2,169.8c1.8,1.3,3.6,1.3,5.3,0"/>
		<path class="st20" d="M690.6,163.1c0,0.9-0.6,3.6-0.6,3.6l0.7,0.9"/>
		<path class="st20" d="M705.9,189c-4.4,2.5-9.5,4-14.9,4c-5.4,0-10.5-1.4-14.9-4c1.9-4.3,5.2-7.7,9.1-9.4c0.4,1.9,2.8,3.4,5.7,3.4
			c2.9,0,5.3-1.5,5.7-3.4C700.7,181.3,704,184.7,705.9,189z"/>
		<path class="st17" d="M719.6,164.4c0,10.7-5.9,20.1-14.7,24.9c-4.1,2.3-8.8,3.6-13.9,3.6c-5,0-9.8-1.3-13.9-3.6
			c-8.7-4.9-14.7-14.2-14.7-24.9c0-15.8,12.8-28.5,28.5-28.5C706.8,135.9,719.6,148.7,719.6,164.4z"/>
		<path class="st20" d="M685.5,152.4c-0.3,1.1-0.4,3.9-0.4,3.9"/>
	</g>
	<g>
		<g>
			<path class="st1" d="M109.4,210.7c0-14.6-8.7-26.4-19.4-26.4c-3.6,0-7,1.3-9.9,3.7c-9.3,2-16.3,12.9-16.3,26
				c0,14.6,8.7,26.4,19.4,26.4c3.6,0,7-1.3,9.9-3.7C102.3,234.7,109.4,223.8,109.4,210.7z"/>
			<ellipse class="st1" cx="70.4" cy="213.8" rx="2.4" ry="3.3"/>
			<ellipse class="st1" cx="103.5" cy="213.8" rx="2.4" ry="3.3"/>
			<rect x="79" y="226" class="st1" width="16.3" height="24.9"/>
			<path d="M95.3,226v4.9c-1.8,0.9-3.8,1.4-5.9,1.4c-4,0-7.6-1.6-10.5-4.3V226H95.3z"/>
			<path class="st1" d="M103.8,208.2c0,12.3-7.4,21.8-16.6,21.8s-16.6-8.5-16.6-20.8"/>
			<path class="st8" d="M97.6,188.2c-3.9,8.5-26.5,16.9-29.4,23.9"/>
			<path class="st8" d="M90.6,194.5c1.4,1.8,10.2,11,14,14.3"/>
			<path class="st0" d="M110.5,247.3L110.5,247.3c-6.5,4.9-14.6,7.8-23.4,7.8c-8.8,0-16.9-2.9-23.4-7.8l0,0c0-6,4.9-11,11-11H79
				l4.3,6.9c1.6,2.5,5.2,2.6,6.9,0.2l5.1-7.2h4.2C105.6,236.3,110.5,241.2,110.5,247.3z"/>
			<ellipse cx="81.4" cy="210.1" rx="1.5" ry="1.8"/>
			<ellipse cx="92.8" cy="210.1" rx="1.5" ry="1.8"/>
			<path class="st1" d="M82.9,220.8c2.7,2,5.4,2,8.1,0"/>
			<path class="st1" d="M86.6,210.6c-0.1,1.3-0.9,5.4-0.9,5.4l1.1,1.3"/>
		</g>
		<circle class="st17" cx="87.1" cy="216.2" r="38.9"/>
	</g>
	<g>
		<g>
			<rect x="729.9" y="257.1" class="st19" width="11" height="12.9"/>
			<path d="M739.7,259c-1.1,2-7.3,2.9-9.9,3.2v-3.3L739.7,259z"/>
			<path class="st19" d="M734,233.3c-5.1,0-9.3,5-10.1,11.6c-0.1,0.6-0.3,1.1-0.7,1.5c-1.7,1.8-2.8,2.4-1.8,3.5
				c0.7,0.8,1.8,1.3,3,1.6c1.4,5.3-0.6,9.7,9.6,9.1c5.6-0.3,10-3.4,10-10.9S739.6,233.3,734,233.3z"/>
			<ellipse cx="728.6" cy="245.8" rx="0.7" ry="1.5"/>
			<path d="M726.3,235c-2.2,2.6-1.8,4.4,1.6,4.8c6.5,0.8,5.4,11.2,7.6,9.6c2.2-1.6,3.3-3.3,3.1-1.4c-0.2,1.9-2.6,6.8,0,8.9
				c2.6,2.1,3.8,1,5-0.4c1.2-1.3,5.3-9.8,3.3-15c-2-5.2-9.9-9.7-12.3-9.6C733.4,232,728,233,726.3,235z"/>
			<path class="st19" d="M736.9,247.9c0.5-0.5,1.2-0.7,1.8-0.4c0.9,0.4,1.2,1.6,0.8,2.7c-0.5,1.2-1.6,1.8-2.5,1.4"/>
			<path class="st19" d="M726.3,254.4c0.4,0.2,2.7,0.5,3.9-0.2"/>
			<path class="st21" d="M744.3,271c-3.1,1.6-6.6,2.5-10.4,2.5c-2.5,0-6.8-1.1-9-1.9c3.3-5.8,4.9-7,4.9-8.3c0,0,7.6-0.7,11-0.3
				c0.5,0.1,0.9,0.2,1.2,0.3C742.9,263.6,743.7,266.9,744.3,271z"/>
			<ellipse transform="matrix(0.9795 -0.2017 0.2017 0.9795 -33.1475 155.6052)" cx="747" cy="240.5" rx="3.7" ry="5.1"/>
			<path d="M725.1,238.3c1.1,4,5.2,5.2,6.5,6.6c2.8,3,1.7,7,1.9,6.9c2.4-0.8,3.2-4,3.2-4l-2.4-10.3L725.1,238.3z"/>
		</g>
		<path class="st17" d="M756.6,250.7c0,8.8-5,16.4-12.4,20.2c-3.1,1.6-6.6,2.5-10.4,2.5c-2.5,0-4.9-0.4-7.1-1.1
			c-9-3-15.6-11.5-15.6-21.6c0-12.5,10.2-22.7,22.7-22.7S756.6,238.2,756.6,250.7z"/>
	</g>
	<g>
		<ellipse class="st19" cx="678.9" cy="74.9" rx="1.3" ry="2"/>
		<ellipse class="st19" cx="693.8" cy="74.9" rx="1.3" ry="2"/>
		<rect x="682.1" y="80.9" class="st19" width="8.5" height="13"/>
		<path class="st19" d="M693.5,68.2l-0.7,12.3c0,0.3-0.1,0.7-0.2,1c-0.4,1.1-1.5,1.8-2.7,1.8h-7c-1.2,0-2.2-0.7-2.7-1.8
			c-0.1-0.3-0.2-0.6-0.2-1l-0.7-12.3c-0.1-1.7,1.2-3.1,2.9-3.1h8.4C692.3,65.1,693.6,66.5,693.5,68.2z"/>
		<ellipse cx="683.4" cy="73" rx="0.8" ry="0.9"/>
		<ellipse cx="689.3" cy="73" rx="0.8" ry="0.9"/>
		<path class="st19" d="M684.2,78.2c1.4,1,2.8,1,4.2,0"/>
		<path class="st19" d="M686.1,72.9c0,0.7-0.4,2.8-0.4,2.8l0.6,0.7"/>
		<path d="M694.6,69.9c0.1,1.5-0.8,4.3-1.7,4.3c-0.1,0-0.1-0.1-0.2-0.1v-2.7c0-1.2-1-2.2-2.2-2.2h-8.3c-1.2,0-2.2,1-2.2,2.2l0,3.6
			c-0.2,0.2-0.6-1.5-0.7-1.9c-0.3-0.8-1.6-1.6-1.5-3.1c0.1-4.3,6.4-8.7,7.8-8.7c0.8,0,1.3,0.7,2,1.2
			C688.8,63.4,694.4,63.5,694.6,69.9z"/>
		<path d="M692.6,81.5c-0.4,1.1-1.5,1.8-2.7,1.8h-7c-1.2,0-2.2-0.7-2.7-1.8l-0.2-2.9c0.7,1.8,3.7,3.9,6.2,3.9c2.9,0,5.9-2,6.3-3.3
			C692.7,78.5,692.7,79.9,692.6,81.5z"/>
		<path class="st0" d="M699.5,88.8c-3.1,3.6-7.6,5.9-12.7,6.1c-0.2,0-0.3,0-0.5,0c-0.2,0-0.3,0-0.5,0c-5.2-0.1-9.8-2.6-12.9-6.3
			c0.6-1.3,2.1-2.3,3.8-2.3h18.8C697.4,86.2,699,87.3,699.5,88.8z"/>
		<polyline class="st19" points="682.1,86.1 685.9,94.5 690.6,86.1 		"/>
	</g>
	<circle class="st17" cx="686" cy="76.5" r="18.7"/>
	<g>
		<path class="st16" d="M259.9,245.7c0.9-4.5,4.5-8.7,9.7-10.8c5-1.9,10.2-1.4,13.9,0.9"/>
		<path class="st16" d="M264.8,247.5c0.6-3.1,3.1-6,6.7-7.4c3.4-1.3,7-1,9.6,0.6"/>
		<path class="st16" d="M269.1,249.7c0.4-2,2-3.9,4.3-4.8c2.2-0.9,4.5-0.6,6.2,0.4"/>
		<circle class="st22" cx="275.4" cy="250.1" r="1.1"/>
	</g>
	<g>
		<path class="st22" d="M373,74.6c0,0.2-1.4,6.1-1.4,6.1l-26.3-3.6L373,74.6z"/>
		<path class="st23" d="M344.7,77.1c1.6-2.5,24-14.2,24-14.2l1.4,4.1L384,76L344.7,77.1z"/>
		<line class="st23" x1="346" y1="76.5" x2="370.1" y2="66.9"/>
	</g>
	<g>
		<path class="st23" d="M127.9,296c-1.4-4.9-6.5-7.9-11.6-7.1l-15.6,2.4c-5,0.8-8.9,5-8.9,10c0,6.3,5.6,10.9,11.6,9.9l10-1.5
			c0,0,0,0,0,0l8.5,3.7c0.7,0.3,1.6-0.2,1.7-1l0.5-5.5l0,0C127.3,304.6,129.1,300.3,127.9,296z"/>
		<circle class="st22" cx="102.5" cy="301.2" r="1.8"/>
		<circle class="st22" cx="110" cy="300" r="1.8"/>
		<circle class="st22" cx="117.1" cy="298.9" r="1.8"/>
	</g>
	<g>
		<path class="st23" d="M502.1,143.3c0.2-3.4-2.3-6.4-5.6-7.1l-10.4-2.1c-3.3-0.7-6.7,1.1-7.9,4.2c-1.4,3.9,1.1,8.1,5,8.9l6.6,1.3
			c0,0,0,0,0,0l4.5,4.3c0.4,0.4,1,0.3,1.3-0.2l1.6-3.3l0,0C499.8,148.6,501.9,146.3,502.1,143.3z"/>
		<circle class="st22" cx="485" cy="140.8" r="1.2"/>
		<circle class="st22" cx="490" cy="141.8" r="1.2"/>
		<circle class="st22" cx="494.7" cy="142.7" r="1.2"/>
	</g>
	<g>
		<g>
			<rect x="55.7" y="88.6" class="st20" width="10.5" height="12.3"/>
			<path d="M65.1,90.4c-1,1.9-6.9,2.8-9.4,3v-3.2L65.1,90.4z"/>
			<path class="st20" d="M59.6,65.9c-4.9,0-8.9,4.8-9.6,11.1c-0.1,0.5-0.3,1.1-0.7,1.5c-1.6,1.7-2.7,2.3-1.7,3.4
				c0.6,0.7,1.7,1.3,2.8,1.6c1.4,5-2.1,9.3,9.2,8.6c5.4-0.3,9.6-3.2,9.6-10.4C69.2,74.4,65,65.9,59.6,65.9z"/>
			<ellipse cx="54.4" cy="77.8" rx="0.7" ry="1.4"/>
			<path d="M49.3,67.6c-0.6,0.2-0.7,0.9-0.3,1.3c2,2.1,2.6,3.9,7.5,2.9c6.4-1.3,2.5,11,4.7,9.5c2.1-1.5,3.1-3.1,3-1.3
				c-0.2,1.8-3.6,5.7-1.1,7.6c2.5,2,4.2,3,5.4,1.7c1.2-1.3,5.7-10.5,3.8-15.5c-1.9-5-9.5-9.3-11.8-9.2C58.5,64.7,52,66.7,49.3,67.6z
				"/>
			<path class="st20" d="M62.5,79.8c0.5-0.5,1.2-0.7,1.7-0.4c0.9,0.3,1.2,1.5,0.7,2.6c-0.4,1.1-1.5,1.7-2.4,1.4"/>
			<path class="st20" d="M52.3,86.1c0.4,0.2,2.5,0.5,3.7-0.2"/>
			<path class="st9" d="M69.5,101.9c-3,1.5-6.3,2.4-9.9,2.4c-2.4,0-4.7-0.4-6.8-1.1c1.6-6.6,2.9-7.4,2.9-8.6c0,0,7.3-0.7,10.5-0.3
				c0.5,0.1,0.9,0.1,1.2,0.3C68.2,94.9,68.9,98,69.5,101.9z"/>
		</g>
		<path class="st17" d="M81.3,82.6c0,8.4-4.8,15.7-11.8,19.3c-3,1.5-6.3,2.4-9.9,2.4c-2.4,0-4.7-0.4-6.8-1.1
			c-8.6-2.9-14.9-11-14.9-20.6c0-12,9.7-21.7,21.7-21.7S81.3,70.6,81.3,82.6z"/>
	</g>
	<g>
		<g>
			<rect x="220.6" y="210.8" class="st19" width="11.6" height="13.6"/>
			<path d="M231,212.7c-1.2,2.1-7.7,3-10.4,3.3v-3.5L231,212.7z"/>
			<path class="st19" d="M225,185.7c-5.4,0-9.8,5.3-10.6,12.2c-0.1,0.6-0.3,1.2-0.7,1.6c-1.8,1.9-2.9,2.5-1.9,3.7
				c0.7,0.8,1.9,1.4,3.1,1.7c1.5,5.6-0.6,10.2,10.1,9.5c5.9-0.4,10.5-3.6,10.5-11.5S230.9,185.7,225,185.7z"/>
			<path class="st19" d="M238.7,194.4c-2.1-5.5-9.1-10.1-13.5-10.1c-2.7,0-6.5,1-8.3,3.1c-1.3,1.6-1.8,2.8-1.2,3.7
				c1.3,4,5.4,5.3,6.7,6.7c3,3.1,1.8,7.4,2,7.3c1.6-0.5,2.9-3.1,3.4-4.1c1.2-0.6,2-0.9,2.1,0.1c0.1,2-2.7,7.2,0,9.4
				c2.8,2.2,4,1,5.3-0.4C236.5,208.8,240.8,199.9,238.7,194.4z"/>
			<ellipse cx="219.3" cy="198.9" rx="0.7" ry="1.5"/>
			<path class="st19" d="M228.1,201c0.6-0.5,1.3-0.7,1.9-0.5c0.9,0.4,1.3,1.7,0.8,2.9c-0.5,1.2-1.7,1.9-2.6,1.5"/>
			<path class="st19" d="M216.9,208c0.5,0.2,2.8,0.5,4.1-0.2"/>
			<path class="st0" d="M235.8,225.4c-3.3,1.7-7,2.6-10.9,2.6c-2.6,0-7.1-1.2-9.5-2c3.5-6.1,5.2-7.4,5.2-8.7c0,0,8-0.7,11.6-0.3
				c0.5,0.1,1,0.2,1.3,0.3C234.4,217.6,235.2,221,235.8,225.4z"/>
			
				<ellipse transform="matrix(0.9795 -0.2017 0.2017 0.9795 -34.0689 52.1211)" class="st19" cx="238.7" cy="193.3" rx="3.9" ry="5.3"/>
		</g>
		<path class="st17" d="M248.9,203.8c0,9.3-5.3,17.3-13,21.3c-3.3,1.7-7,2.6-10.9,2.6c-2.6,0-5.1-0.4-7.5-1.2
			c-9.5-3.1-16.4-12.1-16.4-22.7c0-13.2,10.7-23.9,23.9-23.9C238.1,179.9,248.9,190.6,248.9,203.8z"/>
	</g>
	<g>
		<path class="st16" d="M657.7,123.8l-16.8,4c-1.6,0.4-3.2-0.6-3.6-2.2l-2.7-11.2l22.6-5.4l2.7,11.2
			C660.3,121.8,659.3,123.4,657.7,123.8z"/>
		<polyline class="st16" points="647.4,119 634.6,114.4 657.2,109 647.4,119 		"/>
		<line class="st16" x1="650.5" y1="115.9" x2="659.8" y2="119.9"/>
		<line class="st16" x1="637.7" y1="124.6" x2="643.8" y2="117.7"/>
	</g>
	<g>
		<path class="st18" d="M470.3,97.5c0,7-3.9,13.1-9.6,16.3c-2.7,1.5-5.8,2.3-9.1,2.3c-3.3,0-6.4-0.9-9.1-2.3
			c-5.7-3.2-9.6-9.3-9.6-16.3c0-10.3,8.4-18.7,18.7-18.7S470.3,87.2,470.3,97.5z"/>
		<path d="M461.2,96.7c0-6.3-3.8-11.4-8.4-11.4c-1.6,0-3,0.6-4.3,1.6c-4,0.9-7,5.6-7,11.2c0,6.3-0.5,5.9,4.1,5.9
			c1.6,0,9.5,0.5,12.4,0.3C462,103.5,461.2,102.4,461.2,96.7z"/>
		<ellipse class="st20" cx="444.4" cy="98.1" rx="1" ry="1.4"/>
		<ellipse class="st20" cx="458.6" cy="98.1" rx="1" ry="1.4"/>
		<rect x="448.1" y="103.3" class="st20" width="7" height="10.8"/>
		<path d="M455.1,103.3v1.1c-1.3,1.5-3,2.4-4.9,2.4c-0.8,0-1.5-0.1-2.2-0.4v-3.2H455.1z"/>
		<path class="st20" d="M458.8,95.6c0,5.3-3.2,9.4-7.2,9.4c-4,0-7.2-3.7-7.2-9l3.3-3.9L458.8,95.6"/>
		<ellipse cx="448.5" cy="96.7" rx="0.6" ry="1"/>
		<ellipse cx="454.7" cy="96.7" rx="0.6" ry="1"/>
		<path class="st20" d="M449.8,101.1c1.2,0.9,2.3,0.9,3.5,0"/>
		<path class="st20" d="M451.4,96.7c0,0.6-0.4,2.3-0.4,2.3l0.5,0.6"/>
		<path class="st0" d="M461.3,113.6c-2.9,1.7-6.2,2.6-9.7,2.6c-3.5,0-6.8-0.9-9.7-2.6c1.3-2.8,3.4-5,6-6.1c0.3,1.3,1.8,2.2,3.7,2.2
			c1.9,0,3.5-1,3.7-2.2C457.9,108.6,460.1,110.8,461.3,113.6z"/>
		<path class="st17" d="M470.3,97.5c0,7-3.9,13.1-9.6,16.3c-2.7,1.5-5.8,2.3-9.1,2.3c-3.3,0-6.4-0.9-9.1-2.3
			c-5.7-3.2-9.6-9.3-9.6-16.3c0-10.3,8.4-18.7,18.7-18.7S470.3,87.2,470.3,97.5z"/>
		<path class="st20" d="M448,89.7c-0.2,0.7-0.3,2.5-0.3,2.5"/>
	</g>
	<g>
		<path class="st18" d="M656.6,263.3c0,11.2-6.2,20.9-15.3,26c-4.3,2.4-9.2,3.7-14.4,3.7c-5.2,0-10.2-1.4-14.4-3.7
			c-9.1-5.1-15.3-14.8-15.3-26c0-16.4,13.3-29.7,29.7-29.7C643.3,233.6,656.6,246.9,656.6,263.3z"/>
		<path d="M642.1,262c0-10-6-18.1-13.4-18.1c-2.5,0-4.8,0.9-6.8,2.5c-6.4,1.4-11.2,8.9-11.2,17.9c0,10-0.9,9.4,6.5,9.4
			c2.5,0,15.2,0.8,19.7,0.5C643.4,272.8,642.1,271,642.1,262z"/>
		<ellipse class="st20" cx="615.3" cy="264.1" rx="1.7" ry="2.3"/>
		<ellipse class="st20" cx="638.1" cy="264.1" rx="1.7" ry="2.3"/>
		<rect x="621.2" y="272.5" class="st20" width="11.2" height="17.1"/>
		<path d="M632.5,272.5v1.8c-2,2.4-4.8,3.9-7.7,3.9c-1.2,0-2.4-0.2-3.5-0.6v-5.1H632.5z"/>
		<path class="st20" d="M638.3,260.3c0,8.5-5.1,15-11.4,15c-6.3,0-11.4-5.8-11.4-14.3l5.3-6.2L638.3,260.3"/>
		<ellipse cx="621.9" cy="262" rx="1" ry="1.7"/>
		<ellipse cx="631.8" cy="262" rx="1" ry="1.7"/>
		<path class="st20" d="M624,268.9c1.9,1.4,3.7,1.4,5.6,0"/>
		<path class="st20" d="M626.5,261.9c0,0.9-0.6,3.7-0.6,3.7l0.8,0.9"/>
		<path class="st0" d="M642.4,288.9c-4.6,2.6-9.9,4.1-15.5,4.1c-5.6,0-10.9-1.5-15.5-4.1c2-4.5,5.4-8,9.5-9.8c0.4,2,2.9,3.6,5.9,3.6
			c3,0,5.5-1.6,5.9-3.6C636.9,280.8,640.3,284.4,642.4,288.9z"/>
		<path class="st17" d="M656.6,263.3c0,11.2-6.2,20.9-15.3,26c-4.3,2.4-9.2,3.7-14.4,3.7c-5.2,0-10.2-1.4-14.4-3.7
			c-9.1-5.1-15.3-14.8-15.3-26c0-16.4,13.3-29.7,29.7-29.7C643.3,233.6,656.6,246.9,656.6,263.3z"/>
		<path class="st20" d="M621.1,250.7c-0.3,1.1-0.4,4-0.4,4"/>
	</g>
	<path class="st13" d="M719.6,270c-11.2,14-20.5,72.6-20,80.6"/>
	<path class="st13" d="M702,86.6c26.3,11.4,24.3,47.4,11.7,60.5"/>
	<g>
		<path class="st23" d="M143.1,78.2c-0.9-3.3-4.3-5.3-7.7-4.8L125,74.8c-3.3,0.5-6,3.2-6,6.6c0,4.2,3.7,7.3,7.7,6.7l6.7-0.9
			c0,0,0,0,0,0l5.6,2.6c0.5,0.2,1.1-0.1,1.1-0.6l0.4-3.7l0,0C142.7,84,143.9,81.1,143.1,78.2z"/>
		<circle class="st22" cx="126.1" cy="81.5" r="1.2"/>
		<circle class="st22" cx="131.1" cy="80.7" r="1.2"/>
		<circle class="st22" cx="135.9" cy="80.1" r="1.2"/>
	</g>
	<path class="st13" d="M548,327.6c6-9.6,26.9-29.2,35.6-34.7c16.5-10.3,25.3-5.8,25.3-5.8"/>
	<path class="st13" d="M560.9,208c-6,17.6-46.3,12.8-54,46.8c-3.2,14.1-3.6,19.5-3.6,19.5"/>
</g>
</svg>
